<svg width="15" height="13" viewBox="0 0 15 13" fill="none" xmlns="http://www.w3.org/2000/svg">
<path d="M13.167 12.1666H1.83366C1.45794 12.1666 1.0976 12.0173 0.831924 11.7517C0.566248 11.486 0.416992 11.1256 0.416992 10.7499V2.18829C0.432882 1.82335 0.589124 1.47866 0.853097 1.22617C1.11707 0.973674 1.46837 0.832907 1.83366 0.833253H13.167C13.5427 0.833253 13.903 0.982508 14.1687 1.24818C14.4344 1.51386 14.5837 1.8742 14.5837 2.24992V10.7499C14.5837 11.1256 14.4344 11.486 14.1687 11.7517C13.903 12.0173 13.5427 12.1666 13.167 12.1666ZM1.83366 3.57309V10.7499H13.167V3.57309L7.50033 7.34992L1.83366 3.57309ZM2.40033 2.24992L7.50033 5.64992L12.6003 2.24992H2.40033Z" fill="white"/>
</svg>
