<svg width="13" height="22" viewBox="0 0 13 22" fill="none" xmlns="http://www.w3.org/2000/svg">
<path d="M6.5006 0C3.30631 0 0.707786 2.54696 0.707786 5.67807C0.707786 8.80893 3.30631 11.3547 6.5006 11.3547C9.69477 11.3547 12.292 8.80893 12.292 5.67807C12.292 2.54696 9.6948 0 6.5006 0ZM6.5006 3.32682C7.82263 3.32682 8.89768 4.38209 8.89768 5.67807C8.89768 6.97349 7.82265 8.02795 6.5006 8.02795C5.1783 8.02795 4.10212 6.97352 4.10212 5.67807C4.10212 4.38209 5.1783 3.32682 6.5006 3.32682ZM1.72469 11.5479C1.15157 11.5392 0.587991 11.8161 0.261058 12.3269C-0.238566 13.1049 0.000776645 14.1317 0.792661 14.621C1.84011 15.2653 2.97673 15.7223 4.15544 15.9857L0.918201 19.1606C0.255492 19.8106 0.256053 20.8633 0.918897 21.5133C1.25113 21.8376 1.68443 22 2.11884 22C2.5528 22 2.98757 21.8374 3.31879 21.5126L6.49923 18.3934L9.68248 21.5126C10.3446 22.1624 11.4183 22.1624 12.0816 21.5126C12.7446 20.863 12.7446 19.8092 12.0816 19.1606L8.84299 15.9865C10.022 15.723 11.159 15.2657 12.2058 14.6211C12.9992 14.1317 13.2389 13.1038 12.7395 12.3269C12.2394 11.5486 11.1925 11.3142 10.3985 11.8044C8.027 13.2667 4.97136 13.2657 2.60062 11.8044C2.32773 11.6359 2.0249 11.5525 1.72469 11.548V11.5479Z" fill="white"/>
</svg>
