<svg width="24" height="24" viewBox="0 0 24 24" fill="none" xmlns="http://www.w3.org/2000/svg">
<path d="M22.8897 13.9512C23.0098 13.292 23.0742 12.6182 23.0742 11.9443C23.0742 10.4502 22.7813 9 22.2041 7.6377C21.6475 6.31934 20.8477 5.13574 19.8311 4.11914C18.823 3.10846 17.6279 2.30348 16.3125 1.74902C14.9473 1.17188 13.5 0.878906 12.0059 0.878906C11.3028 0.878906 10.5967 0.946289 9.91115 1.07812C8.96256 0.575458 7.90559 0.311971 6.83205 0.310547C5.08303 0.310547 3.43654 0.993164 2.20021 2.22949C1.59014 2.83643 1.10644 3.55828 0.77706 4.35331C0.447684 5.14834 0.279173 6.00077 0.281269 6.86133C0.281269 7.97461 0.568379 9.07031 1.10451 10.0371C0.996113 10.6641 0.937519 11.3057 0.937519 11.9443C0.937519 13.4385 1.23049 14.8887 1.80764 16.251C2.36428 17.5693 3.16115 18.7529 4.17775 19.7695C5.19436 20.7861 6.37795 21.583 7.69631 22.1396C9.06154 22.7168 10.5088 23.0098 12.0029 23.0098C12.6533 23.0098 13.3037 22.9512 13.9424 22.8369C14.9238 23.3906 16.0313 23.6865 17.1651 23.6865C18.9141 23.6865 20.5606 23.0068 21.7969 21.7676C23.0362 20.5313 23.7158 18.8848 23.7158 17.1357C23.7188 16.0225 23.4317 14.9238 22.8897 13.9512ZM12.0498 18.7236C8.11818 18.7236 6.36037 16.79 6.36037 15.3428C6.36037 14.5986 6.90822 14.0801 7.66408 14.0801C9.34572 14.0801 8.91213 16.4971 12.0498 16.4971C13.6582 16.4971 14.5459 15.624 14.5459 14.7305C14.5459 14.1943 14.2822 13.5967 13.2217 13.3359L9.72365 12.4629C6.90822 11.7568 6.39553 10.2334 6.39553 8.80371C6.39553 5.83301 9.19338 4.7168 11.8213 4.7168C14.2412 4.7168 17.0947 6.05566 17.0947 7.83691C17.0947 8.60156 16.4326 9.04395 15.6768 9.04395C14.2412 9.04395 14.5049 7.05762 11.6133 7.05762C10.1778 7.05762 9.38381 7.70801 9.38381 8.63672C9.38381 9.56543 10.5176 9.86133 11.502 10.0869L14.0918 10.6611C16.9278 11.2939 17.6455 12.9492 17.6455 14.5078C17.6455 16.9189 15.791 18.7236 12.0498 18.7236Z" fill="white"/>
</svg>
