<svg width="20" height="24" viewBox="0 0 20 24" fill="none" xmlns="http://www.w3.org/2000/svg">
<path d="M9.9196 6.70833C8.99134 6.70833 8.1011 7.07708 7.44472 7.73346C6.78835 8.38984 6.4196 9.28008 6.4196 10.2083C6.4196 11.1366 6.78835 12.0268 7.44472 12.6832C8.1011 13.3396 8.99134 13.7083 9.9196 13.7083C10.8479 13.7083 11.7381 13.3396 12.3945 12.6832C13.0508 12.0268 13.4196 11.1366 13.4196 10.2083C13.4196 9.28008 13.0508 8.38984 12.3945 7.73346C11.7381 7.07708 10.8479 6.70833 9.9196 6.70833V6.70833ZM7.87793 10.2083C7.87793 9.66685 8.09303 9.14754 8.47592 8.76466C8.85881 8.38177 9.37811 8.16667 9.9196 8.16667C10.4611 8.16667 10.9804 8.38177 11.3633 8.76466C11.7462 9.14754 11.9613 9.66685 11.9613 10.2083C11.9613 10.7498 11.7462 11.2691 11.3633 11.652C10.9804 12.0349 10.4611 12.25 9.9196 12.25C9.37811 12.25 8.85881 12.0349 8.47592 11.652C8.09303 11.2691 7.87793 10.7498 7.87793 10.2083ZM17.5 16.3333L11.6153 22.5808C11.3972 22.8125 11.134 22.9971 10.8418 23.1232C10.5497 23.2494 10.2349 23.3145 9.91668 23.3145C9.59848 23.3145 9.28364 23.2494 8.99152 23.1232C8.69939 22.9971 8.43617 22.8125 8.21801 22.5808L2.33335 16.3333H2.35551L2.3456 16.3217L2.33335 16.3071C0.82292 14.5207 -0.00399974 12.256 1.4547e-05 9.91667C1.4547e-05 4.43975 4.43976 0 9.91668 0C15.3936 0 19.8333 4.43975 19.8333 9.91667C19.8374 12.256 19.0104 14.5207 17.5 16.3071L17.4878 16.3217L17.4778 16.3333H17.5V16.3333ZM16.3666 15.3889C17.6663 13.8622 18.3785 11.9217 18.375 9.91667C18.375 5.24533 14.588 1.45833 9.91668 1.45833C5.24535 1.45833 1.45835 5.24533 1.45835 9.91667C1.4547 11.9217 2.16691 13.8623 3.46676 15.3889L3.64643 15.6007L9.27968 21.5804C9.36149 21.6673 9.4602 21.7365 9.56974 21.7838C9.67929 21.8311 9.79735 21.8555 9.91668 21.8555C10.036 21.8555 10.1541 21.8311 10.2636 21.7838C10.3732 21.7365 10.4719 21.6673 10.5537 21.5804L16.1869 15.6007L16.3666 15.3889Z" fill="#01A254"/>
</svg>
