<svg width="23" height="23" viewBox="0 0 23 23" fill="none" xmlns="http://www.w3.org/2000/svg">
<path d="M20.8438 3.59375H2.15625C1.75869 3.59375 1.4375 3.91494 1.4375 4.3125V18.6875C1.4375 19.0851 1.75869 19.4062 2.15625 19.4062H20.8438C21.2413 19.4062 21.5625 19.0851 21.5625 18.6875V4.3125C21.5625 3.91494 21.2413 3.59375 20.8438 3.59375ZM19.9453 6.08242V17.7891H3.05469V6.08242L2.43477 5.59951L3.31748 4.46523L4.27881 5.21318H18.7234L19.6848 4.46523L20.5675 5.59951L19.9453 6.08242ZM18.7234 5.21094L11.5 10.8262L4.27656 5.21094L3.31523 4.46299L2.43252 5.59727L3.05244 6.08018L10.7251 12.0458C10.9458 12.2172 11.2172 12.3103 11.4966 12.3103C11.776 12.3103 12.0475 12.2172 12.2682 12.0458L19.9453 6.08242L20.5652 5.59951L19.6825 4.46523L18.7234 5.21094Z" fill="#01A254"/>
</svg>
