<svg width="22" height="22" viewBox="0 0 22 22" fill="none" xmlns="http://www.w3.org/2000/svg">
<g clip-path="url(#clip0_1_2588)">
<path d="M14.92 12.9424L11.8526 10.6418V5.95559C11.8526 5.48439 11.4717 5.10352 11.0005 5.10352C10.5293 5.10352 10.1484 5.48439 10.1484 5.95559V11.0679C10.1484 11.3363 10.2746 11.5894 10.4893 11.7496L13.8975 14.3057C14.0508 14.4208 14.2298 14.4762 14.4078 14.4762C14.6677 14.4762 14.9233 14.3594 15.0904 14.1345C15.3733 13.7587 15.2966 13.2244 14.92 12.9424Z" fill="#01A254"/>
<path d="M11 0C4.93423 0 0 4.93423 0 11C0 17.0658 4.93423 22 11 22C17.0658 22 22 17.0658 22 11C22 4.93423 17.0658 0 11 0ZM11 20.2959C5.8749 20.2959 1.7041 16.1251 1.7041 11C1.7041 5.8749 5.8749 1.7041 11 1.7041C16.126 1.7041 20.2959 5.8749 20.2959 11C20.2959 16.1251 16.1251 20.2959 11 20.2959Z" fill="#01A254"/>
</g>
<defs>
<clipPath id="clip0_1_2588">
<rect width="22" height="22" fill="white"/>
</clipPath>
</defs>
</svg>
