<svg width="29" height="29" viewBox="0 0 29 29" fill="none" xmlns="http://www.w3.org/2000/svg">
<g clip-path="url(#clip0_1_2572)">
<path d="M20.2065 16.9894C19.8978 16.8308 18.3601 16.0774 18.074 15.9755C17.788 15.8679 17.5784 15.8169 17.3717 16.1341C17.1621 16.4484 16.5674 17.1479 16.3805 17.3604C16.1992 17.5699 16.0151 17.5954 15.7064 17.4396C13.8713 16.5221 12.6677 15.8027 11.4584 13.7269C11.1384 13.1746 11.7784 13.2143 12.376 12.022C12.4779 11.8124 12.427 11.634 12.3477 11.4754C12.2684 11.3168 11.6453 9.78184 11.3848 9.15596C11.1327 8.54707 10.8722 8.63203 10.6824 8.6207C10.5012 8.60937 10.2944 8.60938 10.0849 8.60938C9.87529 8.60938 9.53828 8.68867 9.25224 8.99736C8.96621 9.31172 8.15908 10.0679 8.15908 11.6028C8.15908 13.1378 9.27773 14.6246 9.43066 14.8342C9.58926 15.0438 11.6312 18.193 14.7662 19.5495C16.7486 20.4048 17.5246 20.4784 18.5158 20.3312C19.119 20.2405 20.3623 19.5778 20.62 18.8443C20.8777 18.1137 20.8777 17.4878 20.8013 17.3575C20.7248 17.2188 20.5152 17.1395 20.2065 16.9894Z" fill="#01A254"/>
<path d="M26.202 9.58359C25.5619 8.06279 24.6443 6.69775 23.4747 5.52529C22.3051 4.35566 20.94 3.43525 19.4164 2.79805C17.8588 2.14385 16.2049 1.8125 14.5 1.8125H14.4434C12.7271 1.821 11.0647 2.16084 9.50147 2.8292C7.99199 3.4749 6.63828 4.39248 5.47998 5.56211C4.32168 6.73174 3.4126 8.09111 2.78389 9.60625C2.13252 11.1752 1.804 12.8433 1.8125 14.5595C1.821 16.5249 2.29111 18.4762 3.17188 20.2207V24.5254C3.17188 25.2447 3.75527 25.8281 4.47461 25.8281H8.78213C10.5267 26.7089 12.4779 27.179 14.4434 27.1875H14.5028C16.1992 27.1875 17.8446 26.859 19.3938 26.2161C20.9089 25.5846 22.2711 24.6783 23.4379 23.52C24.6075 22.3617 25.5279 21.008 26.1708 19.4985C26.8392 17.9353 27.179 16.2729 27.1875 14.5566C27.196 12.8319 26.8618 11.1582 26.202 9.58359V9.58359ZM21.9228 21.9879C19.9375 23.9533 17.3037 25.0352 14.5 25.0352H14.4519C12.7441 25.0267 11.0478 24.6019 9.54961 23.8032L9.31172 23.6758H5.32422V19.6883L5.19678 19.4504C4.39815 17.9522 3.97334 16.2559 3.96484 14.5481C3.95352 11.7246 5.03252 9.07383 7.01211 7.07725C8.98887 5.08066 11.6312 3.97617 14.4547 3.96484H14.5028C15.9188 3.96484 17.2924 4.23955 18.5866 4.7833C19.8497 5.31289 20.9825 6.07471 21.9567 7.04893C22.9281 8.02031 23.6928 9.15596 24.2224 10.419C24.7718 11.7274 25.0465 13.1151 25.0408 14.5481C25.0238 17.3688 23.9165 20.0111 21.9228 21.9879V21.9879Z" fill="#01A254"/>
</g>
<defs>
<clipPath id="clip0_1_2572">
<rect width="29" height="29" fill="white"/>
</clipPath>
</defs>
</svg>
