<svg width="29" height="29" viewBox="0 0 29 29" fill="none" xmlns="http://www.w3.org/2000/svg">
<path d="M14.5 24.1665C17.0638 24.1665 19.5225 23.1481 21.3354 21.3352C23.1482 19.5224 24.1667 17.0636 24.1667 14.4998C24.1667 11.9361 23.1482 9.47732 21.3354 7.66447C19.5225 5.85162 17.0638 4.83317 14.5 4.83317C11.9362 4.83317 9.47748 5.85162 7.66463 7.66447C5.85178 9.47732 4.83333 11.9361 4.83333 14.4998C4.83333 17.0636 5.85178 19.5224 7.66463 21.3352C9.47748 23.1481 11.9362 24.1665 14.5 24.1665ZM14.5 26.5832C7.82637 26.5832 2.41666 21.1735 2.41666 14.4998C2.41666 7.82621 7.82637 2.4165 14.5 2.4165C21.1736 2.4165 26.5833 7.82621 26.5833 14.4998C26.5833 21.1735 21.1736 26.5832 14.5 26.5832Z" fill="#01A254"/>
<path d="M18.9032 13.7796C18.9177 11.9768 17.4302 10.3238 15.5875 10.0954L15.4667 10.0773C15.3743 10.059 15.2805 10.0485 15.1863 10.0459C14.8081 10.0459 14.7078 10.319 14.6812 10.4821C14.6662 10.5499 14.6648 10.6199 14.6773 10.6882C14.6897 10.7565 14.7157 10.8216 14.7538 10.8796C14.8794 11.0549 15.0993 11.0851 15.2758 11.1116C15.3277 11.1189 15.3773 11.1249 15.4171 11.1358C17.0738 11.5164 17.632 12.117 17.9039 13.8123C17.9111 13.8546 17.9135 13.9053 17.916 13.9597C17.928 14.1615 17.9534 14.5832 18.3933 14.5832C18.4295 14.5832 18.4682 14.5808 18.5093 14.5735C18.9189 14.5095 18.9056 14.124 18.8995 13.9391C18.8965 13.8945 18.8965 13.8497 18.8995 13.805C18.9009 13.797 18.9017 13.789 18.902 13.7809L18.9032 13.7796Z" fill="#01A254"/>
<path d="M15.08 9.43341C15.1283 9.43703 15.1767 9.44066 15.2141 9.4467C17.9329 9.87928 19.1847 11.2084 19.5315 14.0384C19.5375 14.0867 19.5375 14.1447 19.5387 14.2075C19.5424 14.4287 19.5496 14.8878 20.0281 14.8975H20.0426C20.1083 14.901 20.174 14.8904 20.2353 14.8664C20.2965 14.8425 20.352 14.8057 20.3979 14.7585C20.5465 14.5978 20.5368 14.3598 20.5284 14.1664C20.526 14.1205 20.5235 14.0758 20.5247 14.0372C20.5586 11.1432 18.1322 8.5187 15.3313 8.42203L15.2975 8.42324C15.2867 8.42483 15.2758 8.42564 15.2649 8.42566C15.2371 8.42566 15.202 8.42324 15.1658 8.42082C15.1176 8.41642 15.0692 8.414 15.0208 8.41357C14.5749 8.41357 14.4903 8.73982 14.4795 8.93557C14.4553 9.38628 14.877 9.41891 15.08 9.43341ZM19.3998 17.6948C19.3416 17.6492 19.284 17.6029 19.227 17.5558C18.9297 17.3093 18.6132 17.0822 18.3087 16.8622C18.2449 16.8164 18.1813 16.7705 18.1177 16.7245C17.7262 16.4417 17.3746 16.3028 17.0423 16.3028C16.5952 16.3028 16.205 16.559 15.8823 17.0628C15.7397 17.2852 15.5657 17.3939 15.3531 17.3939C15.2046 17.3886 15.0591 17.3511 14.9265 17.2839C13.6638 16.6919 12.7612 15.7856 12.2452 14.5894C11.9963 14.0094 12.0761 13.6324 12.5159 13.3242C12.7648 13.1502 13.2288 12.8252 13.1962 12.2029C13.16 11.496 11.6483 9.36937 11.0115 9.1277C10.7399 9.02518 10.4404 9.02433 10.1681 9.12528C9.43708 9.37903 8.91146 9.82612 8.64925 10.4146C8.3955 10.9849 8.40758 11.6531 8.68308 12.3491C9.47696 14.3622 10.5922 16.1167 12.0012 17.5643C13.3787 18.9817 15.0727 20.1417 17.0351 21.0141C17.2115 21.0926 17.3976 21.1349 17.5329 21.1663L17.6477 21.1953C17.6634 21.1998 17.6797 21.2023 17.696 21.2026H17.7117C18.6349 21.2026 19.743 20.3326 20.0837 19.3393C20.3822 18.4693 19.8372 18.0404 19.3998 17.696V17.6948ZM15.4884 11.7329C15.3313 11.7365 15.0015 11.7449 14.8855 12.0905C14.8323 12.2524 14.8383 12.3926 14.9048 12.5074C15.0027 12.6766 15.1912 12.7285 15.3615 12.7563C15.9802 12.859 16.2992 13.2131 16.362 13.868C16.3922 14.1749 16.5916 14.3876 16.8478 14.3876C16.8672 14.388 16.8865 14.3872 16.9058 14.3852C17.2139 14.3465 17.3625 14.1133 17.3492 13.6904C17.3541 13.2481 17.1305 12.7479 16.7499 12.3491C16.3681 11.9479 15.9077 11.722 15.4884 11.7329Z" fill="#01A254"/>
</svg>
