<?xml version="1.0" standalone="no"?>
<!DOCTYPE svg PUBLIC "-//W3C//DTD SVG 20010904//EN"
 "http://www.w3.org/TR/2001/REC-SVG-20010904/DTD/svg10.dtd">
<svg version="1.0" xmlns="http://www.w3.org/2000/svg"
 width="134.000000pt" height="134.000000pt" viewBox="0 0 134.000000 134.000000"
 preserveAspectRatio="xMidYMid meet">
<metadata>
Created by potrace 1.14, written by Peter Selinger 2001-2017
</metadata>
<g transform="translate(0.000000,134.000000) scale(0.100000,-0.100000)"
fill="#000000" stroke="none">
<path d="M520 1204 c0 -9 28 -34 38 -34 6 0 12 -7 16 -15 3 -8 13 -15 21 -15
9 0 13 -4 10 -10 -3 -5 0 -10 7 -10 8 -1 4 -8 -9 -19 -12 -10 -19 -21 -16 -25
4 -3 0 -6 -8 -6 -8 0 -27 -11 -43 -25 -16 -14 -33 -25 -38 -25 -5 0 -6 -4 -3
-10 3 -5 0 -10 -8 -10 -8 0 -22 -9 -32 -20 -10 -11 -22 -20 -27 -20 -4 0 -16
-8 -26 -17 -11 -10 -31 -27 -46 -37 -15 -11 -36 -27 -46 -35 -10 -9 -30 -25
-45 -35 -14 -11 -36 -28 -47 -38 -12 -10 -25 -18 -30 -18 -5 0 -6 -4 -3 -10 3
-5 0 -10 -8 -10 -8 0 -26 -11 -41 -25 -15 -14 -29 -25 -32 -25 -6 0 -28 -18
-55 -45 -16 -16 -17 -21 -5 -33 16 -16 39 -7 80 31 13 12 30 27 38 32 7 6 36
29 64 53 57 48 63 50 61 22 -1 -11 -5 -20 -10 -20 -5 0 -3 -8 4 -17 12 -14 12
-16 0 -8 -11 6 -12 5 -5 -6 11 -18 12 -69 2 -75 -4 -3 -3 -16 2 -29 6 -17 6
-25 -1 -25 -6 0 -7 -5 -3 -12 11 -18 12 -68 1 -68 -5 0 -3 -8 4 -17 12 -15 12
-16 -1 -8 -12 7 -13 6 -4 -6 8 -12 12 -68 4 -76 -3 -4 -3 -42 0 -45 8 -12 6
-38 -3 -38 -7 0 -5 -5 3 -10 13 -9 13 -10 0 -10 -9 0 -11 -3 -5 -8 6 -4 11
-25 13 -46 2 -21 9 -48 17 -58 31 -45 52 -48 344 -48 382 0 363 -17 365 317 1
99 -2 179 -6 176 -5 -2 -8 1 -8 6 0 6 5 11 11 11 8 0 8 4 0 14 -9 11 -10 20
-1 36 9 16 8 25 -1 36 -9 11 -9 14 1 14 10 0 10 3 0 15 -18 22 -4 31 18 12 10
-10 21 -17 25 -17 3 0 19 -12 35 -27 36 -34 110 -95 130 -107 9 -5 20 -3 29 7
14 14 13 18 -12 41 -16 15 -43 36 -62 47 -18 11 -33 24 -33 29 0 5 -8 11 -19
15 -10 3 -33 19 -50 35 -17 17 -34 30 -37 30 -4 0 -15 10 -25 22 -11 11 -19
17 -19 13 0 -4 -11 4 -25 19 -14 15 -25 24 -25 21 0 -4 -7 0 -15 7 -33 30 -45
38 -55 38 -6 0 -8 5 -5 10 3 6 0 10 -7 10 -8 0 -21 8 -30 18 -27 28 -48 43
-48 35 0 -4 -5 0 -11 10 -5 9 -17 17 -25 17 -8 0 -12 5 -9 10 3 6 1 10 -4 10
-6 0 -22 10 -36 22 l-24 21 27 24 c15 12 30 23 35 23 4 0 7 7 7 15 0 21 -23
19 -40 -4 -7 -11 -17 -18 -22 -15 -4 3 -8 0 -8 -5 0 -17 -50 -13 -56 4 -4 8
-10 13 -14 10 -4 -3 -10 2 -14 10 -3 8 -12 15 -21 15 -8 0 -15 5 -15 10 0 6
-7 10 -15 10 -8 0 -15 -3 -15 -6z m167 -141 c17 -16 47 -41 68 -58 20 -16 47
-40 60 -52 13 -13 27 -23 31 -23 4 0 17 -11 30 -25 13 -14 28 -25 34 -25 6 0
9 -3 6 -8 -6 -10 -532 -9 -542 1 -4 4 -2 7 5 7 6 0 23 10 35 23 13 12 39 33
57 47 18 14 38 31 45 38 7 6 15 12 18 12 4 0 27 20 53 45 25 25 51 45 57 45 6
0 26 -12 43 -27z m236 -245 c45 -24 46 -30 46 -319 l0 -276 -26 -23 c-26 -22
-30 -22 -277 -22 -138 0 -260 1 -272 1 -27 1 -63 33 -67 59 -2 12 -6 25 -10
28 -4 4 -2 13 4 21 9 10 8 13 -2 13 -12 0 -12 2 -1 9 8 4 14 12 14 16 0 4 -6
12 -14 16 -7 5 -8 9 -3 9 15 0 16 40 2 40 -8 0 -7 3 2 9 9 6 10 10 2 16 -9 5
-9 10 0 21 9 11 8 14 -2 14 -12 0 -12 2 0 9 9 6 10 10 2 16 -9 5 -9 10 0 21 9
11 8 14 -2 14 -12 0 -12 2 0 9 9 6 10 10 2 16 -9 5 -9 10 0 21 9 11 8 14 -2
14 -11 0 -11 2 1 10 13 9 13 10 0 10 -12 0 -12 2 -2 9 8 4 14 12 14 16 0 4 -6
12 -14 16 -11 7 -11 9 1 9 10 0 11 3 2 14 -9 11 -9 16 0 21 8 6 7 10 -2 16
-12 7 -12 9 0 9 10 0 11 3 2 14 -9 11 -9 16 0 21 8 6 8 9 -1 15 -8 5 -1 19 23
44 l34 36 262 0 c180 0 269 -4 284 -12z"/>
<path d="M430 750 c0 -5 -7 -10 -15 -10 -8 0 -15 -3 -16 -7 -2 -11 -2 -66 0
-80 1 -15 37 -17 46 -3 4 6 10 8 15 5 5 -3 11 4 15 15 3 11 11 20 16 20 12 0
12 57 -1 65 -5 3 -19 1 -31 -6 -15 -8 -19 -8 -15 0 4 6 2 11 -3 11 -6 0 -11
-4 -11 -10z"/>
<path d="M521 751 c-8 -5 -11 -16 -8 -24 3 -8 -1 -24 -8 -35 -8 -10 -12 -22
-9 -24 7 -7 -68 -43 -83 -40 -7 2 -13 -1 -14 -5 0 -4 -2 -16 -4 -25 -5 -27 17
-38 57 -29 27 6 35 5 32 -4 -3 -7 -15 -12 -27 -12 -61 1 -65 -2 -62 -35 2 -32
3 -33 54 -35 28 -1 53 3 56 8 4 5 19 9 36 9 16 0 29 3 29 8 0 4 16 16 35 26
19 11 33 21 30 24 -2 3 5 13 17 23 21 19 28 23 28 15 0 -8 -67 -76 -74 -76 -4
0 -14 -7 -22 -15 -9 -8 -29 -15 -45 -15 -18 0 -28 -4 -24 -10 4 -6 -17 -10
-55 -10 -38 0 -59 -4 -55 -10 3 -5 2 -10 -3 -10 -5 0 -8 -10 -6 -22 1 -13 3
-29 3 -35 1 -8 14 -13 33 -13 17 0 28 -3 24 -7 -4 -4 -19 -7 -33 -8 -24 0 -27
-4 -28 -38 0 -21 4 -41 10 -45 17 -11 105 -10 98 1 -4 6 -1 7 6 2 16 -9 3 -22
-29 -28 -21 -4 -20 -5 5 -4 17 1 35 -2 42 -6 6 -4 14 -3 17 2 7 10 52 9 63 -2
3 -4 12 -2 20 4 9 9 17 8 27 0 10 -8 16 -9 21 -1 3 5 17 10 30 10 13 0 25 5
27 12 3 7 10 8 17 4 10 -7 10 -10 1 -16 -8 -5 -5 -9 9 -13 12 -3 19 -1 15 4
-7 12 3 11 28 -2 16 -8 19 -8 13 1 -5 9 -1 10 14 5 14 -4 31 -1 46 9 20 13 23
22 20 63 -3 60 -3 61 -14 44 -6 -9 -11 -10 -15 -2 -4 6 0 14 8 17 9 3 13 10
10 15 -3 6 -1 16 5 23 11 13 11 106 0 106 -4 0 -14 -15 -23 -34 -8 -18 -22
-39 -31 -46 -8 -7 -13 -15 -11 -19 3 -4 -4 -8 -15 -8 -17 -2 -15 3 12 28 17
16 29 32 26 35 -3 4 -1 12 6 20 31 34 37 44 29 44 -5 0 -7 14 -4 30 2 17 8 30
12 30 12 0 5 117 -9 133 -7 9 -21 14 -32 11 -10 -2 -28 -6 -39 -8 -11 -3 -20
-1 -20 4 0 7 -21 6 -77 -2 -7 -1 -10 -15 -8 -36 3 -37 -12 -82 -28 -82 -6 0
-5 5 1 13 9 11 15 57 13 101 -1 14 -4 16 -14 7 -10 -8 -17 -7 -25 1 -13 13
-43 -6 -38 -25 1 -7 1 -9 -1 -4 -3 4 -9 5 -13 2 -5 -3 -7 3 -5 13 3 20 -28 24
-54 8 -10 -6 -12 -6 -7 2 9 14 6 15 -13 3z m289 -51 c0 -16 -4 -30 -8 -30 -5
0 -8 14 -8 30 0 17 3 30 8 30 4 0 8 -13 8 -30z m-220 -41 c-7 -16 -17 -29 -23
-29 -6 0 -8 -3 -4 -6 7 -8 -17 -34 -32 -34 -6 0 -11 -4 -11 -10 0 -5 -4 -10
-10 -10 -18 0 -10 18 10 25 12 4 17 11 14 18 -4 7 -4 9 1 5 10 -10 55 54 56
79 0 11 3 13 6 5 3 -7 0 -26 -7 -43z m198 -36 c-4 -40 -46 -133 -60 -133 -4 0
-21 -14 -38 -31 -16 -18 -30 -28 -30 -24 0 4 -9 0 -20 -10 -11 -10 -20 -13
-20 -7 0 7 4 12 8 12 5 0 18 9 30 20 12 12 22 19 22 16 0 -19 74 77 75 97 0 4
5 11 10 15 6 4 11 19 12 35 1 40 2 47 9 47 3 0 4 -17 2 -37z m-178 -219 c0 -2
-9 -4 -21 -4 -11 0 -18 4 -14 10 5 8 35 3 35 -6z m180 -11 c-14 -9 -31 -23
-38 -30 -16 -16 -71 -46 -89 -49 -7 -1 -13 2 -13 7 0 5 9 9 19 9 11 0 26 7 35
15 8 8 18 15 23 15 5 0 20 11 33 24 14 14 32 25 40 25 8 1 4 -6 -10 -16z
m-226 -4 c4 -3 -6 -5 -21 -5 -16 1 -33 -2 -39 -6 -6 -4 -11 -2 -11 5 0 14 59
18 71 6z m296 -41 c0 -6 -3 -8 -7 -5 -3 4 -16 -7 -28 -23 -12 -16 -25 -27 -28
-23 -4 3 -7 1 -7 -5 0 -7 -7 -12 -15 -12 -8 0 -15 5 -15 11 0 5 5 7 10 4 6 -3
10 -1 10 4 0 6 6 11 13 11 7 0 21 11 31 25 20 27 36 33 36 13z m-230 -45 c-8
-3 -21 -10 -27 -16 -9 -6 -13 -5 -13 5 0 8 11 14 28 15 15 1 20 -1 12 -4z
m-67 -21 c-12 -2 -24 -11 -26 -20 -3 -12 -5 -11 -6 5 -1 22 24 35 44 24 6 -3
0 -7 -12 -9z"/>
<path d="M742 1199 c2 -6 8 -10 13 -10 5 0 11 4 13 10 2 6 -4 11 -13 11 -9 0
-15 -5 -13 -11z"/>
</g>
</svg>
