<svg width="15" height="13" viewBox="0 0 15 13" fill="none" xmlns="http://www.w3.org/2000/svg">
<path d="M13.167 12.1667H1.83366C1.45794 12.1667 1.0976 12.0175 0.831924 11.7518C0.566248 11.4861 0.416992 11.1258 0.416992 10.75V2.18842C0.432882 1.82348 0.589124 1.47878 0.853097 1.22629C1.11707 0.973796 1.46837 0.833029 1.83366 0.833375H13.167C13.5427 0.833375 13.903 0.98263 14.1687 1.24831C14.4344 1.51398 14.5837 1.87432 14.5837 2.25004V10.75C14.5837 11.1258 14.4344 11.4861 14.1687 11.7518C13.903 12.0175 13.5427 12.1667 13.167 12.1667ZM1.83366 3.57321V10.75H13.167V3.57321L7.50033 7.35004L1.83366 3.57321ZM2.40033 2.25004L7.50033 5.65004L12.6003 2.25004H2.40033Z" fill="#3E60C1"/>
</svg>
