<svg width="36" height="36" viewBox="0 0 36 36" fill="none" xmlns="http://www.w3.org/2000/svg">
<path d="M34.347 16.8931L25.448 13.5991L22.125 2.7081C22.0622 2.50353 21.9355 2.32449 21.7634 2.1973C21.5913 2.07011 21.383 2.00146 21.169 2.00146C20.955 2.00146 20.7467 2.07011 20.5746 2.1973C20.4025 2.32449 20.2758 2.50353 20.213 2.7081L16.891 13.5991L7.99101 16.8931C7.7993 16.9639 7.6339 17.0918 7.51709 17.2595C7.40027 17.4272 7.33765 17.6267 7.33765 17.8311C7.33765 18.0355 7.40027 18.235 7.51709 18.4027C7.6339 18.5704 7.7993 18.6982 7.99101 18.7691L16.886 22.0621L20.21 33.2851C20.2713 33.492 20.3978 33.6735 20.5707 33.8026C20.7436 33.9316 20.9536 34.0013 21.1694 34.0012C21.3851 34.0011 21.5951 33.9312 21.7679 33.8019C21.9406 33.6727 22.067 33.491 22.128 33.2841L25.452 22.0611L34.348 18.7681C34.5402 18.6978 34.7062 18.5702 34.8234 18.4024C34.9406 18.2346 35.0034 18.0349 35.0033 17.8302C35.0032 17.6256 34.9402 17.4259 34.8228 17.2583C34.7054 17.0907 34.5393 16.9632 34.347 16.8931Z" fill="#FFCA1C"/>
</svg>
