<svg width="61" height="61" viewBox="0 0 61 61" fill="none" xmlns="http://www.w3.org/2000/svg">
<g clip-path="url(#clip0_1_1460)">
<path d="M59.7314 2.12409C59.6229 1.70384 59.2953 1.37621 58.8751 1.26777C49.1442 -1.24163 38.9111 -0.0013568 30.0612 4.75915C28.1163 5.80535 26.2771 7.00095 24.5556 8.33057C19.6299 6.57372 14.1508 7.78606 10.4202 11.5167L2.96413 18.9723C2.4992 19.4376 2.4992 20.192 2.96413 20.6574L11.2602 28.9531C11.2602 28.9535 11.2607 28.9535 11.2607 28.954L12.3306 30.0235L11.3463 37.2557C11.2961 37.6247 11.4208 37.9957 11.6842 38.2591L12.5508 39.1256L5.43304 46.2862C4.96904 46.753 4.97137 47.5074 5.43816 47.9709C5.90495 48.4349 6.65935 48.4326 7.12288 47.9662L14.2355 40.8104L20.1893 46.7646L10.1572 56.7524C9.69092 57.2169 9.68906 57.9713 10.1531 58.4376C10.3862 58.6712 10.692 58.7885 10.9977 58.7885C11.3016 58.7885 11.6055 58.6726 11.8382 58.4413L21.8744 48.4493L22.7401 49.3154C22.9653 49.5402 23.2688 49.664 23.5824 49.664C23.636 49.664 23.6895 49.6607 23.7435 49.6533L30.9757 48.669L32.0456 49.7389C32.0456 49.7389 32.0456 49.7394 32.0461 49.7394L40.3417 58.0355C40.5744 58.2682 40.8792 58.3841 41.1841 58.3841C41.4894 58.3841 41.7942 58.2682 42.0269 58.0355L49.4825 50.5794C53.2131 46.8488 54.4259 41.3698 52.6686 36.444C53.9982 34.7225 55.1938 32.8829 56.24 30.9384C61.001 22.0881 62.2408 11.855 59.7314 2.12409ZM11.6069 25.9303L5.49168 19.8151L12.1049 13.2018C14.827 10.4793 18.6786 9.38283 22.3436 10.1712C17.5696 14.444 13.8781 19.829 11.6069 25.9303ZM24.0073 47.2123L13.7868 36.9918L14.4472 32.1401L28.8591 46.5519L24.0073 47.2123ZM47.7978 48.8942L41.1841 55.5075L35.0693 49.3922C41.1706 47.1211 46.5552 43.4296 50.8279 38.6556C51.6163 42.3206 50.5199 46.1717 47.7978 48.8942ZM33.3464 47.479L33.2044 47.5278L13.4713 27.7947L13.5202 27.6528C19.7555 9.52989 39.0158 -1.01219 57.5938 3.40532C62.0109 21.9829 51.4697 41.2436 33.3464 47.479Z" fill="white"/>
<path d="M46.4449 13.0958L30.8077 17.2858C30.3968 17.3961 30.0757 17.7172 29.9654 18.1286C29.8551 18.5395 29.9728 18.9784 30.2734 19.2795L32.5967 21.6023L27.9153 26.2832C27.4504 26.7486 27.4504 27.503 27.9153 27.9684C28.3807 28.4333 29.1351 28.4333 29.6005 27.9684L35.1238 22.4447C35.5892 21.9797 35.5892 21.2253 35.1238 20.7599L33.4176 19.0538L45.0688 15.9319L41.9469 27.5826L40.2408 25.8765C40.0174 25.6531 39.7144 25.5279 39.3984 25.5279C39.0824 25.5279 38.779 25.6531 38.5556 25.8765L29.0485 35.384C28.5831 35.8494 28.5831 36.6038 29.0485 37.0692C29.2812 37.3019 29.5861 37.4177 29.8909 37.4177C30.1957 37.4177 30.5006 37.3019 30.7333 37.0692L39.3979 28.404L41.7207 30.7268C42.0218 31.0279 42.4607 31.1452 42.8716 31.0353C43.283 30.9251 43.6042 30.6039 43.714 30.193L47.9039 14.5553C48.0142 14.1444 47.897 13.7055 47.5958 13.4044C47.2947 13.1033 46.8559 12.9855 46.4449 13.0958Z" fill="white"/>
<path d="M11.4361 49.5634C10.9712 49.098 10.2168 49.098 9.75143 49.5634L0.349091 58.9657C-0.116302 59.4307 -0.116302 60.1851 0.349091 60.6505C0.581787 60.8832 0.88662 60.9995 1.19145 60.9995C1.49628 60.9995 1.80158 60.8832 2.03381 60.6505L11.4361 51.2481C11.9015 50.7832 11.9015 50.0288 11.4361 49.5634Z" fill="white"/>
<path d="M2.99825 51.5967C3.31145 51.5967 3.61861 51.4706 3.84061 51.2476C4.06213 51.0261 4.18965 50.7199 4.18965 50.4053C4.18965 50.0921 4.06213 49.7849 3.84061 49.5634C3.61861 49.3414 3.31145 49.2139 2.99825 49.2139C2.68364 49.2139 2.37741 49.3414 2.15588 49.5634C1.93436 49.7849 1.80684 50.0921 1.80684 50.4053C1.80684 50.7199 1.93436 51.0261 2.15588 51.2476C2.37741 51.4706 2.68457 51.5967 2.99825 51.5967Z" fill="white"/>
<path d="M23.998 30.1996L23.9878 30.2084C23.4977 30.6482 23.4573 31.4017 23.8971 31.8913C24.1321 32.1533 24.4574 32.2869 24.7841 32.2869C25.0675 32.2869 25.3519 32.1863 25.5794 31.9816L25.5897 31.9727C26.0793 31.5329 26.1202 30.7799 25.6804 30.2903C25.2406 29.8003 24.4876 29.7598 23.998 30.1996Z" fill="white"/>
</g>
<defs>
<clipPath id="clip0_1_1460">
<rect width="61" height="61" fill="white"/>
</clipPath>
</defs>
</svg>
