<svg width="62" height="62" viewBox="0 0 62 62" fill="none" xmlns="http://www.w3.org/2000/svg">
<g clip-path="url(#clip0_1_1562)">
<path d="M55.9404 48.208C57.1651 46.524 57.8289 44.4974 57.8376 42.4152C57.8508 42.1414 57.7547 41.8735 57.5704 41.6706C57.3861 41.4677 57.1287 41.3464 56.8549 41.3333C56.287 41.312 55.8064 41.7487 55.773 42.316C55.7808 43.9662 55.2725 45.5776 54.3191 46.9246C52.3031 49.4708 48.4777 49.5999 47.7306 49.5999C47.1599 49.5999 46.6973 50.0626 46.6973 50.6333C46.6973 51.204 47.1599 51.6666 47.7306 51.6666C48.6441 51.6666 53.3323 51.5002 55.9404 48.208V48.208Z" fill="white"/>
<path d="M61.1361 34.8965C58.59 24.0765 52.9294 17.8072 48.8415 14.5326C53.9679 14.9191 55.6181 17.0519 55.6667 17.1159C55.9904 17.5781 56.625 17.6951 57.0923 17.3788C57.5596 17.0625 57.6867 16.4298 57.3779 15.9576C57.3035 15.846 55.8682 13.7958 51.6946 12.8576C52.7618 11.9802 53.3931 10.681 53.4233 9.29979C53.2852 7.00987 51.691 5.06806 49.4719 4.48653C49.5629 3.74011 49.6091 2.98891 49.6103 2.23696C49.6092 1.54421 49.2611 0.8981 48.6832 0.516137C48.1052 0.134175 47.3744 0.0671752 46.7366 0.337694C46.215 0.573889 45.7304 0.884734 45.2982 1.26046C44.7911 1.78159 44.093 2.07278 43.3659 2.06646C42.6399 2.07157 41.9432 1.78051 41.4367 1.26046C39.6156 -0.421456 36.8077 -0.421456 34.9866 1.26046C34.4794 1.78273 33.7802 2.07407 33.0522 2.06646C32.3263 2.07249 31.6296 1.78126 31.124 1.26046C30.693 0.88554 30.2098 0.575069 29.6897 0.338727C29.0524 0.0700217 28.3229 0.137936 27.7462 0.519672C27.1694 0.901408 26.8219 1.54635 26.8202 2.23799C26.8202 4.80893 27.3286 9.39486 30.5474 12.4742C28.8558 13.5028 27.2759 14.7049 25.8333 16.0609V8.26646C25.8333 5.91046 22.5008 4.13313 18.0833 4.13313C13.6658 4.13313 10.3333 5.91046 10.3333 8.26646V18.6773C6.70943 19.039 4.13333 20.6665 4.13333 22.7331V49.016C1.6368 49.6866 0 51.0465 0 52.6998V57.8665C0 60.2225 3.3325 61.9998 7.75 61.9998C11.7004 61.9998 14.7767 60.5769 15.3832 58.5898C17.1669 59.5342 19.1661 59.9972 21.1833 59.9331C25.6008 59.9331 28.9333 58.1558 28.9333 55.7998V42.3665C28.9333 40.0105 25.6008 38.2331 21.1833 38.2331C20.6657 38.2328 20.1484 38.2587 19.6333 38.3106V22.7331C19.6333 20.4701 16.5571 18.7465 12.4 18.6132V11.1278C14.1579 12.0213 16.1122 12.4587 18.0833 12.3998C20.0544 12.4587 22.0087 12.0213 23.7667 11.1278V18.1751C23.0857 18.9367 22.4016 19.7664 21.7269 20.6861C21.4179 21.1462 21.5269 21.7682 21.974 22.0957C22.4211 22.4233 23.047 22.3398 23.3926 21.9065C24.0563 21.008 24.7675 20.1456 25.5233 19.3231C25.5316 19.3138 25.5388 19.3045 25.5471 19.2963C27.5197 17.104 29.8361 15.2476 32.4053 13.8C32.9119 14.0443 33.4478 14.2225 33.9998 14.3301L31.3358 16.8163C30.9187 17.206 30.8965 17.8602 31.2862 18.2774C31.676 18.6946 32.3302 18.7168 32.7474 18.327L36.8807 14.4716H37.2103V17.5716C37.2103 18.1423 37.673 18.605 38.2437 18.605C38.8144 18.605 39.277 18.1423 39.277 17.5716V14.4665H39.6066L43.74 18.3218C44.0098 18.574 44.3937 18.663 44.747 18.5554C45.1003 18.4477 45.3694 18.1598 45.4528 17.8C45.5362 17.4402 45.4214 17.0632 45.1515 16.8111L42.47 14.3146C43.0187 14.206 43.5511 14.0271 44.0541 13.7824C46.7852 15.2601 55.7628 21.0984 59.1253 35.3698C60.5874 41.5822 60.0604 46.3345 57.5598 49.4913C54.3606 53.5265 48.8095 53.7331 47.7297 53.7331H33.0667C32.496 53.7331 32.0333 54.1958 32.0333 54.7665C32.0333 55.3372 32.496 55.7998 33.0667 55.7998H47.7297C49.4863 55.7998 55.4848 55.4371 59.179 50.7747C62.0909 47.0971 62.7502 41.7547 61.1361 34.8965V34.8965ZM7.75 50.6331C11.1672 50.6331 13.4333 51.8731 13.4333 52.6998C13.4333 53.5265 11.1672 54.7665 7.75 54.7665C4.33277 54.7665 2.06667 53.5265 2.06667 52.6998C2.06667 51.8731 4.33277 50.6331 7.75 50.6331ZM7.75 59.9331C4.33277 59.9331 2.06667 58.6931 2.06667 57.8665V55.5611C3.8246 56.4546 5.7789 56.892 7.75 56.8331C9.7211 56.892 11.6754 56.4546 13.4333 55.5611V57.8665C13.4333 58.6931 11.1672 59.9331 7.75 59.9331ZM21.1833 57.8665C17.7661 57.8665 15.5 56.6265 15.5 55.7998V45.2278C17.2579 46.1213 19.2122 46.5587 21.1833 46.4998C23.1544 46.5587 25.1087 46.1213 26.8667 45.2278V55.7998C26.8667 56.6265 24.6006 57.8665 21.1833 57.8665ZM26.8667 42.3665C26.8667 43.1931 24.6006 44.4331 21.1833 44.4331C17.7661 44.4331 15.5 43.1931 15.5 42.3665C15.5 41.5398 17.7661 40.2998 21.1833 40.2998C24.6006 40.2998 26.8667 41.5398 26.8667 42.3665ZM13.4333 42.3665V49.8385C11.6754 48.945 9.7211 48.5076 7.75 48.5665C7.23236 48.5661 6.71503 48.592 6.2 48.644V25.5944C7.95794 26.4879 9.91223 26.9253 11.8833 26.8665C13.8544 26.9253 15.8087 26.4879 17.5667 25.5944V38.6826C15.0701 39.3533 13.4333 40.7131 13.4333 42.3665ZM17.5667 22.7331C17.5667 23.5598 15.3006 24.7998 11.8833 24.7998C8.4661 24.7998 6.2 23.5598 6.2 22.7331C6.2 21.9065 8.4661 20.6665 11.8833 20.6665C15.3006 20.6665 17.5667 21.9065 17.5667 22.7331ZM18.0833 10.3331C14.6661 10.3331 12.4 9.09313 12.4 8.26646C12.4 7.43979 14.6661 6.19979 18.0833 6.19979C21.5006 6.19979 23.7667 7.43979 23.7667 8.26646C23.7667 9.09313 21.5006 10.3331 18.0833 10.3331ZM51.3567 9.29979C51.3567 10.9934 49.5225 12.3833 47.2233 12.3998C46.8388 12.3974 46.4556 12.3534 46.0805 12.2686C47.5802 10.6685 48.6227 8.69496 49.0988 6.55423C50.3427 6.92072 51.2373 8.0086 51.3567 9.29979ZM29.8303 2.87246C30.7029 3.69018 31.8563 4.14147 33.0522 4.13313C34.2488 4.14211 35.4031 3.69076 36.2762 2.87246C36.787 2.35677 37.4827 2.06663 38.2085 2.06663C38.9344 2.06663 39.6301 2.35677 40.1409 2.87246C41.014 3.69137 42.1689 4.1428 43.3659 4.13313C44.5629 4.14238 45.7176 3.69101 46.5909 2.87246C46.8773 2.61937 47.1959 2.40533 47.5385 2.23593C47.5385 4.15483 47.182 8.89886 43.8526 11.4998C43.1036 12.0623 42.1956 12.3731 41.2589 12.3874C42.1535 10.8509 42.8615 9.21325 43.368 7.50903C43.4669 7.15314 43.3685 6.77151 43.1097 6.50788C42.851 6.24426 42.4713 6.13869 42.1136 6.23095C41.7559 6.32321 41.4746 6.59928 41.3757 6.95516C40.8034 8.89758 39.9236 10.7358 38.7696 12.3998H37.7074C36.5557 10.7343 35.6758 8.89655 35.1003 6.95516C34.947 6.4053 34.3771 6.08376 33.8272 6.23699C33.2773 6.39023 32.9558 6.9602 33.109 7.51006C33.616 9.21575 34.3247 10.8548 35.2201 12.3926C34.2647 12.3877 33.3364 12.0749 32.5727 11.5008C29.2433 8.90093 28.8868 4.15689 28.8868 2.24419C29.2293 2.40826 29.5469 2.61976 29.8303 2.87246V2.87246Z" fill="white"/>
<path d="M55.9404 48.2084C57.1651 46.5245 57.8289 44.4978 57.8376 42.4156C57.8508 42.1418 57.7547 41.874 57.5704 41.6711C57.3861 41.4682 57.1287 41.3468 56.8549 41.3337C56.2875 41.3136 55.8074 41.7496 55.773 42.3164C55.7808 43.9666 55.2725 45.578 54.3191 46.925C52.3031 49.4712 48.4777 49.6003 47.7306 49.6003C47.1599 49.6003 46.6973 50.063 46.6973 50.6337C46.6973 51.2044 47.1599 51.667 47.7306 51.667C48.6441 51.667 53.3323 51.5006 55.9404 48.2084V48.2084Z" fill="white"/>
<path d="M36.3333 40.0418V28.9585H41.0833C41.7132 28.9585 42.3173 29.2087 42.7627 29.6541C43.2081 30.0995 43.4583 30.7036 43.4583 31.3335C43.4583 31.9634 43.2081 32.5675 42.7627 33.0129C42.3173 33.4583 41.7132 33.7085 41.0833 33.7085H34.75M41.0833 36.8752H34.75" stroke="white" stroke-width="2" stroke-linecap="round" stroke-linejoin="round"/>
</g>
<defs>
<clipPath id="clip0_1_1562">
<rect width="62" height="62" fill="white"/>
</clipPath>
</defs>
</svg>
