<svg width="60" height="60" viewBox="0 0 60 60" fill="none" xmlns="http://www.w3.org/2000/svg">
<g clip-path="url(#clip0_1_1483)">
<path d="M9.99985 60C9.83871 60 9.67621 59.9698 9.52103 59.9048C9.05502 59.7125 8.75015 59.2552 8.75015 58.7498V51.2498C8.75015 50.5586 9.31 50.0002 9.99985 50.0002C10.6902 50.0002 11.25 50.5586 11.25 51.2498V55.7327L16.6164 50.3664C16.8498 50.1311 17.1689 50.0002 17.4998 50.0002H54.9998C56.3786 50.0002 57.5002 48.8786 57.5002 47.4998V12.5002C57.5002 11.1214 56.3786 9.99985 54.9998 9.99985H48.75C48.0588 9.99985 47.4998 9.44 47.4998 8.75015C47.4998 8.05984 48.0588 7.5 48.75 7.5H54.9998C57.7574 7.5 60 9.74258 60 12.5002V47.4998C60 50.2574 57.7574 52.5 54.9998 52.5H18.0176L10.8838 59.6338C10.6448 59.8723 10.3249 60 9.99985 60Z" fill="white"/>
<path d="M5.00015 52.5C2.24258 52.5 0 50.2574 0 47.4998V12.5002C0 9.74258 2.24258 7.5 5.00015 7.5H11.25C11.9398 7.5 12.5002 8.05984 12.5002 8.75015C12.5002 9.44 11.9398 9.99985 11.25 9.99985H5.00015C3.62137 9.99985 2.49985 11.1214 2.49985 12.5002V47.4998C2.49985 48.8786 3.62137 50.0002 5.00015 50.0002C5.69 50.0002 6.24985 50.5586 6.24985 51.2498C6.24985 51.9411 5.69 52.5 5.00015 52.5Z" fill="white"/>
<path d="M47.4998 31.2502H46.2502C45.5589 31.2502 45 30.6898 45 30C45 29.3102 45.5589 28.7498 46.2502 28.7498H47.4998C48.8786 28.7498 50.0002 27.6288 50.0002 26.25V23.7502C50.0002 22.3714 48.8786 21.2498 47.4998 21.2498H46.2502C45.5589 21.2498 45 20.69 45 20.0002V17.4998C45 9.22897 38.2713 2.49985 30 2.49985C21.7287 2.49985 15 9.22897 15 17.4998V20.0002C15 20.69 14.4402 21.2498 13.7498 21.2498C13.06 21.2498 12.5002 20.69 12.5002 20.0002V17.4998C12.5002 7.85019 20.3499 0 30 0C39.6501 0 47.4998 7.85019 47.4998 17.4998V18.75C50.2574 18.75 52.5 20.9926 52.5 23.7502V26.25C52.5 29.0076 50.2574 31.2502 47.4998 31.2502Z" fill="white"/>
<path d="M13.7498 31.2502H12.5002C9.74258 31.2502 7.5 29.0076 7.5 26.25V23.7502C7.5 20.9926 9.74258 18.75 12.5002 18.75H13.7498C14.4402 18.75 15 19.3098 15 20.0002V30C15 30.6898 14.4402 31.2502 13.7498 31.2502ZM12.5002 21.2498C11.1214 21.2498 9.99985 22.3714 9.99985 23.7502V26.25C9.99985 27.6288 11.1214 28.7498 12.5002 28.7498V21.2498Z" fill="white"/>
<path d="M30 47.4997C27.9323 47.4997 26.25 45.8174 26.25 43.7497C26.25 41.6824 27.9323 39.9997 30 39.9997C31.6301 39.9997 33.0199 41.0448 33.5362 42.5H33.75C39.9536 42.5 45 37.4536 45 31.25V24.9997C45 24.3098 45.5589 23.75 46.2502 23.75C46.9414 23.75 47.4998 24.3098 47.4998 24.9997V31.25C47.4998 38.831 41.331 44.9998 33.75 44.9998H32.4998C31.8086 44.9998 31.2502 44.4409 31.2502 43.7497C31.2502 43.0598 30.6889 42.5 30 42.5C29.3111 42.5 28.7498 43.0598 28.7498 43.7497C28.7498 44.44 29.3111 44.9998 30 44.9998C30.6898 44.9998 31.2502 45.5588 31.2502 46.25C31.2502 46.9412 30.6898 47.4997 30 47.4997Z" fill="white"/>
<path d="M41.25 18.7498C40.5588 18.7498 39.9998 18.19 39.9998 17.4997C39.9998 11.9859 35.5138 7.49985 30 7.49985C24.4862 7.49985 20.0002 11.9859 20.0002 17.4997C20.0002 18.19 19.4398 18.7498 18.75 18.7498C18.0602 18.7498 17.4998 18.19 17.4998 17.4997C17.4998 10.6071 23.1075 5 30 5C36.8925 5 42.5002 10.6071 42.5002 17.4997C42.5002 18.19 41.9412 18.7498 41.25 18.7498Z" fill="white"/>
<path d="M23.7502 32.5H26.25V35.0003H23.7502V32.5Z" fill="white"/>
<path d="M28.7498 32.5H31.2502V35.0003H28.7498V32.5Z" fill="white"/>
<path d="M33.75 32.5H36.2498V35.0003H33.75V32.5Z" fill="white"/>
</g>
<defs>
<clipPath id="clip0_1_1483">
<rect width="60" height="60" fill="white"/>
</clipPath>
</defs>
</svg>
