<svg width="62" height="62" viewBox="0 0 62 62" fill="none" xmlns="http://www.w3.org/2000/svg">
<g clip-path="url(#clip0_1_1510)">
<path d="M46.9135 6.87162L31.4135 0.086756C31.1499 -0.0282676 30.8503 -0.0282676 30.5868 0.086756L15.0868 6.87162C14.7104 7.0359 14.467 7.40747 14.4668 7.81816V24.0415C14.4724 27.6874 16.2244 31.11 19.1788 33.2464L29.8914 40.9727C30.553 41.4515 31.4473 41.4515 32.1089 40.9727L42.8215 33.2475C45.7759 31.111 47.5279 27.6885 47.5335 24.0425V7.81816C47.5333 7.40747 47.2899 7.0359 46.9135 6.87162ZM45.4668 24.0425C45.4621 27.0246 44.029 29.824 41.6125 31.5714L31.0001 39.2253L20.3878 31.5714C17.9713 29.824 16.5382 27.0246 16.5335 24.0425V8.49396L31.0001 2.16169L45.4668 8.49396V24.0425Z" fill="white"/>
<path d="M30.5862 4.59847L19.2195 9.57501C18.8432 9.73928 18.5998 10.1109 18.5995 10.5215V24.0427C18.6027 26.3612 19.7171 28.5376 21.5962 29.8955L30.3951 36.2423C30.756 36.5026 31.2431 36.5026 31.604 36.2423L40.4029 29.8955C42.282 28.5376 43.3964 26.3612 43.3996 24.0427V10.5215C43.3993 10.1109 43.1559 9.73928 42.7796 9.57501L31.4129 4.59847C31.1493 4.48345 30.8498 4.48345 30.5862 4.59847ZM41.3329 11.1963V24.0427C41.3297 25.6971 40.5345 27.25 39.1939 28.2194L30.9995 34.1301L22.8052 28.2194C21.4646 27.25 20.6694 25.6971 20.6662 24.0427V11.1963L30.9995 6.67341L41.3329 11.1963Z" fill="white"/>
<path d="M8.56073 34.3065L6.32563 29.0841C5.85032 28.0074 4.8367 27.266 3.6666 27.1393C2.49649 27.0126 1.34767 27.5197 0.652879 28.4697C-0.0419122 29.4197 -0.177117 30.6682 0.298195 31.7449L4.34783 40.6533C4.89416 41.8592 5.6542 42.9564 6.5912 43.8917L12.9596 50.2612C12.601 50.6413 12.4007 51.1439 12.3996 51.6665V59.9332C12.3996 61.0746 13.3248 61.9999 14.4662 61.9999H25.8329C26.9743 61.9999 27.8996 61.0746 27.8996 59.9332V51.6665C27.8996 50.5251 26.9743 49.5999 25.8329 49.5999V47.6768C25.8646 45.2296 25.0661 42.8438 23.5678 40.9085C22.6894 39.7531 21.4922 38.8799 20.1237 38.3965C17.9474 37.4821 15.9458 36.1976 14.2079 34.6C12.5947 33.2714 10.3029 33.1523 8.56073 34.3065ZM25.8329 59.9332H14.4662V51.6665H25.8329V59.9332ZM21.9548 42.1991C23.1593 43.7684 23.7977 45.6989 23.7662 47.6768V49.5999H15.2216L8.05233 42.4306C7.2909 41.6702 6.67304 40.7786 6.2285 39.7987L2.17886 30.8903C2.00604 30.5101 2.0382 30.0681 2.26425 29.7169C2.4903 29.3658 2.87928 29.1534 3.29693 29.1533C3.78843 29.1529 4.23262 29.4462 4.42533 29.8983L6.7369 35.2892C7.35072 36.7275 8.23548 38.0343 9.34296 39.1384L14.0632 43.8597C14.3227 44.1283 14.7069 44.236 15.0682 44.1415C15.4294 44.0469 15.7116 43.7648 15.8062 43.4035C15.9007 43.0422 15.793 42.658 15.5244 42.3986L10.8041 37.6773C10.3294 37.2038 9.90268 36.6846 9.53 36.1273C10.5223 35.3637 11.9106 35.3868 12.877 36.1831C14.8086 37.9558 17.0412 39.3695 19.4696 40.3577C20.4591 40.7175 21.3225 41.3573 21.9548 42.1991Z" fill="white"/>
<path d="M22.7329 54.7666H21.6996C21.1289 54.7666 20.6663 55.2292 20.6663 55.7999C20.6663 56.3706 21.1289 56.8333 21.6996 56.8333H22.7329C23.3036 56.8333 23.7663 56.3706 23.7663 55.7999C23.7663 55.2292 23.3036 54.7666 22.7329 54.7666Z" fill="white"/>
<path d="M57.6513 40.6534L61.7009 31.745C62.1988 30.6647 62.0757 29.3998 61.3786 28.4358C60.6816 27.4719 59.519 26.9586 58.3371 27.0929C57.1551 27.2272 56.1374 27.9884 55.6745 29.0842L53.4446 34.287C51.6963 33.1384 49.4034 33.2642 47.7912 34.597C46.0533 36.1946 44.0518 37.4791 41.8754 38.3935C40.5069 38.877 39.3097 39.7501 38.4313 40.9055C36.9323 42.8416 36.1339 45.2286 36.1662 47.6769V49.6C35.0248 49.6 34.0995 50.5252 34.0995 51.6666V59.9333C34.0995 61.0747 35.0248 62 36.1662 62H47.5329C48.6743 62 49.5995 61.0747 49.5995 59.9333V51.6666C49.5984 51.144 49.3981 50.6414 49.0395 50.2613L55.4079 43.8918C56.3449 42.9565 57.1049 41.8593 57.6513 40.6534ZM47.5329 59.9333H36.1662V51.6666H47.5329V59.9333ZM46.7775 49.6H38.2329V47.6769C38.2017 45.6993 38.8401 43.7693 40.0443 42.2003C40.6752 41.359 41.5367 40.719 42.5243 40.3578C44.9532 39.3699 47.1862 37.9562 49.118 36.1832C50.0833 35.3808 51.4755 35.3538 52.4712 36.1181C52.0974 36.6795 51.6685 37.2022 51.1909 37.6784L46.4706 42.3997C46.079 42.8052 46.0846 43.4497 46.4832 43.8482C46.8818 44.2468 47.5263 44.2524 47.9318 43.8608L52.652 39.1395C53.7595 38.0355 54.6443 36.7287 55.2581 35.2904L57.5697 29.8984C57.7629 29.4469 58.2069 29.1541 58.6981 29.1544C59.1157 29.1546 59.5047 29.3669 59.7307 29.7181C59.9568 30.0693 59.9889 30.5113 59.8161 30.8915L55.7665 39.7998C55.3219 40.7798 54.7041 41.6714 53.9426 42.4317L46.7775 49.6Z" fill="white"/>
<path d="M40.2991 54.7666H39.2658C38.6951 54.7666 38.2324 55.2292 38.2324 55.7999C38.2324 56.3706 38.6951 56.8333 39.2658 56.8333H40.2991C40.8698 56.8333 41.3324 56.3706 41.3324 55.7999C41.3324 55.2292 40.8698 54.7666 40.2991 54.7666Z" fill="white"/>
<path d="M25.419 21.9067C24.9625 21.5643 24.3148 21.6568 23.9724 22.1134C23.6299 22.5699 23.7225 23.2176 24.179 23.56L28.3124 26.66C28.4912 26.7942 28.7088 26.8667 28.9324 26.8667C28.9909 26.8665 29.0493 26.8617 29.107 26.8522C29.3868 26.8042 29.6346 26.6432 29.7921 26.4069L38.0588 14.0069C38.2636 13.6997 38.2891 13.3066 38.1256 12.9756C37.962 12.6446 37.6343 12.4259 37.2658 12.4021C36.8974 12.3782 36.5442 12.5527 36.3393 12.8599L28.6782 24.3516L25.419 21.9067Z" fill="white"/>
</g>
<defs>
<clipPath id="clip0_1_1510">
<rect width="62" height="62" fill="white"/>
</clipPath>
</defs>
</svg>
