<svg width="61" height="61" viewBox="0 0 61 61" fill="none" xmlns="http://www.w3.org/2000/svg">
<path d="M58.6334 36.8325L58.6201 36.8106C58.0097 35.8814 57.0781 35.21 56.0036 34.9249C54.9291 34.6399 53.7871 34.7611 52.7965 35.2656L46.6888 38.3899C45.9577 37.3625 44.8815 36.6322 43.6567 36.3323C42.4319 36.0324 41.1401 36.1829 40.017 36.7563L32.3262 40.6984C31.9247 40.9046 31.4793 41.0108 31.028 41.008C30.5766 41.0052 30.1326 40.8934 29.7337 40.6822L24.4915 37.8991C22.5076 36.84 20.2691 36.3514 18.0244 36.4873C15.7797 36.6232 13.6165 37.3785 11.7749 38.6692L11.1821 35.846C11.1563 35.7232 11.1064 35.6066 11.0354 35.5031C10.9644 35.3995 10.8737 35.311 10.7684 35.2426C10.663 35.1742 10.5453 35.1274 10.4218 35.1046C10.2983 35.0819 10.1715 35.0838 10.0488 35.1102L2.65827 36.7048C2.41222 36.7579 2.19716 36.9061 2.06002 37.1172C1.92288 37.3283 1.8748 37.585 1.92627 37.8314L6.22963 58.336C6.27351 58.5509 6.39021 58.7442 6.56003 58.8831C6.72985 59.022 6.94239 59.0981 7.16179 59.0985C7.22904 59.0982 7.2961 59.0912 7.36194 59.0775L14.7563 57.4858C15.0027 57.4329 15.2182 57.2846 15.3555 57.0733C15.4929 56.862 15.541 56.6049 15.4892 56.3582L15.108 54.5225L17.6347 53.9792C18.3709 53.8223 19.1286 53.7933 19.8746 53.8935L31.7591 55.1964C34.2264 55.5232 36.728 54.9361 38.7922 53.5456L57.829 40.7737C58.4515 40.3522 58.8842 39.7037 59.0346 38.9671C59.1849 38.2305 59.0409 37.4643 58.6334 36.8325ZM7.89855 57.0073L3.98597 38.369L9.5141 37.1776L13.4295 55.8169L7.89855 57.0073ZM56.7681 39.1934L37.7323 51.9653C36.0437 53.0968 33.9994 53.5714 31.985 53.2997L20.1014 51.9967C19.1451 51.8687 18.1737 51.9074 17.2306 52.1111L14.7124 52.6525L12.2 40.6984L12.851 40.2447C14.4056 39.1513 16.2331 38.5105 18.1302 38.3938C20.0272 38.277 21.9195 38.6887 23.5965 39.5832L28.8387 42.3664C29.5084 42.7227 30.2544 42.9114 31.013 42.9166C31.7715 42.9217 32.52 42.7431 33.1945 42.3959L40.8891 38.449C41.658 38.056 42.5485 37.9732 43.3767 38.2176C44.2049 38.462 44.9078 39.0149 45.3402 39.7624C45.4676 39.9812 45.5037 40.2414 45.4405 40.4865C45.3774 40.7317 45.2201 40.9421 45.0028 41.072L34.3983 47.3627C32.5439 48.4697 30.3343 48.8195 28.2287 48.3396L18.6631 46.0521L18.2199 47.9069L27.795 50.1944C30.3795 50.7865 33.0928 50.3594 35.3705 49.002L45.9759 42.7114C46.4101 42.4506 46.7672 42.0791 47.0107 41.635C47.2542 41.1909 47.3753 40.69 47.3617 40.1837L53.6609 36.9602C54.2314 36.6706 54.8885 36.6007 55.5071 36.764C56.1257 36.9272 56.6627 37.3122 57.0159 37.8457L57.0264 37.8629C57.1636 38.075 57.2133 38.3321 57.1652 38.5801C57.117 38.8282 56.9747 39.048 56.7681 39.1934Z" fill="white"/>
<path d="M8.07642 39.4416L6.21078 39.833L6.60178 41.6968L8.46742 41.3054L8.07642 39.4416Z" fill="white"/>
<path d="M20.0156 26.6875C19.7628 26.6875 19.5204 26.7879 19.3417 26.9667C19.1629 27.1454 19.0625 27.3878 19.0625 27.6406V33.3594C19.0625 33.6122 19.1629 33.8546 19.3417 34.0333C19.5204 34.2121 19.7628 34.3125 20.0156 34.3125H23.8281C24.0809 34.3125 24.3233 34.2121 24.5021 34.0333C24.6808 33.8546 24.7812 33.6122 24.7812 33.3594V27.6406C24.7812 27.3878 24.6808 27.1454 24.5021 26.9667C24.3233 26.7879 24.0809 26.6875 23.8281 26.6875H20.0156ZM22.875 32.4062H20.9688V28.5938H22.875V32.4062Z" fill="white"/>
<path d="M28.5938 20.0156C28.341 20.0156 28.0985 20.116 27.9198 20.2948C27.741 20.4735 27.6406 20.716 27.6406 20.9688V33.3594C27.6406 33.6122 27.741 33.8546 27.9198 34.0333C28.0985 34.2121 28.341 34.3125 28.5938 34.3125H32.4062C32.659 34.3125 32.9015 34.2121 33.0802 34.0333C33.259 33.8546 33.3594 33.6122 33.3594 33.3594V20.9688C33.3594 20.716 33.259 20.4735 33.0802 20.2948C32.9015 20.116 32.659 20.0156 32.4062 20.0156H28.5938ZM31.4531 32.4062H29.5469V21.9219H31.4531V32.4062Z" fill="white"/>
<path d="M37.1719 22.875C36.9191 22.875 36.6767 22.9754 36.4979 23.1542C36.3192 23.3329 36.2188 23.5753 36.2188 23.8281V33.3594C36.2188 33.6122 36.3192 33.8546 36.4979 34.0333C36.6767 34.2121 36.9191 34.3125 37.1719 34.3125H40.9844C41.2372 34.3125 41.4796 34.2121 41.6583 34.0333C41.8371 33.8546 41.9375 33.6122 41.9375 33.3594V23.8281C41.9375 23.5753 41.8371 23.3329 41.6583 23.1542C41.4796 22.9754 41.2372 22.875 40.9844 22.875H37.1719ZM40.0312 32.4062H38.125V24.7812H40.0312V32.4062Z" fill="white"/>
<path d="M45.75 18.1094C45.4972 18.1094 45.2548 18.2098 45.076 18.3885C44.8973 18.5673 44.7969 18.8097 44.7969 19.0625V33.3594C44.7969 33.6122 44.8973 33.8546 45.076 34.0333C45.2548 34.2121 45.4972 34.3125 45.75 34.3125H49.5625C49.8153 34.3125 50.0577 34.2121 50.2365 34.0333C50.4152 33.8546 50.5156 33.6122 50.5156 33.3594V19.0625C50.5156 18.8097 50.4152 18.5673 50.2365 18.3885C50.0577 18.2098 49.8153 18.1094 49.5625 18.1094H45.75ZM48.6094 32.4062H46.7031V20.0156H48.6094V32.4062Z" fill="white"/>
<path d="M20.0156 11.8321L26.0136 17.8301C26.1924 18.0088 26.4348 18.1092 26.6875 18.1092C26.9402 18.1092 27.1826 18.0088 27.3614 17.8301L38.125 7.06647L46.0293 14.9707C46.208 15.1494 46.4504 15.2498 46.7031 15.2498C46.9559 15.2498 47.1983 15.1494 47.377 14.9707L57.1875 5.16022V7.625H59.0938V2.85938C59.0938 2.60659 58.9933 2.36416 58.8146 2.18541C58.6358 2.00667 58.3934 1.90625 58.1406 1.90625H53.375V3.8125H55.8398L46.7031 12.9492L38.7989 5.04489C38.6201 4.86621 38.3777 4.76583 38.125 4.76583C37.8723 4.76583 37.6299 4.86621 37.4511 5.04489L26.6875 15.8085L20.6895 9.81052C20.5107 9.63183 20.2684 9.53145 20.0156 9.53145C19.7629 9.53145 19.5205 9.63183 19.3418 9.81052L5.99802 23.1543L7.34573 24.502L20.0156 11.8321Z" fill="white"/>
</svg>
