<svg width="62" height="62" viewBox="0 0 62 62" fill="none" xmlns="http://www.w3.org/2000/svg">
<g clip-path="url(#clip0_1_1577)">
<path d="M60.9667 51.6667H56.6566C55.0586 51.6711 53.5251 51.0359 52.3983 49.9028C50.8844 48.3805 48.8245 47.5274 46.6777 47.5333H38.2333C35.9506 47.534 34.1005 49.3851 34.1012 51.6678C34.1014 52.393 34.2923 53.1053 34.6549 53.7333H31.4288L24.3185 46.624C23.5634 45.8698 22.5357 45.4525 21.4685 45.4667C19.3142 45.4659 17.5671 47.2117 17.5663 49.3661C17.5663 49.3862 17.5664 49.4064 17.5667 49.4264C17.5703 50.4726 17.9866 51.4752 18.725 52.2164L26.9917 60.4831C27.9584 61.4567 29.2746 62.003 30.6466 62H60.9667C61.5373 62 62 61.5373 62 60.9667V52.7C62 52.1293 61.5373 51.6667 60.9667 51.6667ZM59.9333 59.9333H30.6466C29.8237 59.9357 29.0341 59.6086 28.4539 59.025L20.1872 50.7584C19.8236 50.3882 19.624 49.8874 19.6333 49.3685C19.6319 48.8818 19.8254 48.4148 20.1707 48.0717C20.5267 47.7171 21.0117 47.5227 21.514 47.5333C22.0174 47.53 22.5012 47.7282 22.8573 48.0841L30.2694 55.4972C30.4632 55.691 30.7259 55.8 31 55.8H45.4667C46.0373 55.8 46.5 55.3373 46.5 54.7667C46.5 54.196 46.0373 53.7333 45.4667 53.7333H38.2333C37.0919 53.7333 36.1667 52.8081 36.1667 51.6667C36.1667 50.5252 37.0919 49.6 38.2333 49.6H46.6777C48.2758 49.5956 49.8093 50.2307 50.9361 51.3639C52.4499 52.8861 54.5099 53.7393 56.6566 53.7333H59.9333V59.9333Z" fill="white"/>
<path d="M39.6428 6.14788L36.2183 2.72341C34.4785 0.973849 32.1108 -0.00704281 29.6432 -0.000455314H1.03333C0.462675 -0.000455314 0 0.46222 0 1.03288V12.3995C0 12.9702 0.462675 13.4329 1.03333 13.4329C1.03333 13.4329 2.39113 13.4329 3.98557 13.4132C7.06865 13.3612 10.0387 14.5728 12.2057 16.7664C14.6971 19.2716 18.0873 20.6759 21.6204 20.6662H24.0767C23.6819 21.9199 23.6611 23.2614 24.0167 24.5267C23.1936 25.4579 22.7373 26.6567 22.7333 27.8995V34.0995C22.7333 35.8116 24.1212 37.1995 25.8333 37.1995H27.9V46.4995C27.9 46.7736 28.009 47.0364 28.2028 47.2301L30.2694 49.2968C30.673 49.7002 31.3271 49.7002 31.7306 49.2968L33.7972 47.2301C33.991 47.0364 34.1 46.7736 34.1 46.4995V37.1995H36.1667C37.8788 37.1995 39.2667 35.8116 39.2667 34.0995V27.8995C39.2619 26.6635 38.8101 25.4711 37.9946 24.5422C38.1511 23.9518 38.2313 23.3437 38.2333 22.7329C38.2322 21.9935 38.1182 21.2586 37.8954 20.5536C39.8099 21.0462 41.7614 19.8935 42.2539 17.979C42.3321 17.6755 42.3699 17.363 42.3667 17.0495V12.723C42.3736 10.2554 41.3928 7.88762 39.6428 6.14788ZM32.0333 46.0717L31 47.1051L29.9667 46.0717V37.1995H32.0333V46.0717ZM37.2 34.0995C37.2 34.6702 36.7373 35.1329 36.1667 35.1329H25.8333C25.2627 35.1329 24.8 34.6702 24.8 34.0995V27.8995C24.8 26.1874 26.1879 24.7995 27.9 24.7995H34.1C34.5995 24.8028 35.0905 24.9283 35.5301 25.1653C35.0601 26.0392 34.3484 26.7591 33.48 27.2392C33.0361 26.9971 32.539 26.8689 32.0333 26.8662H29.9667C28.2546 26.8662 26.8667 28.2541 26.8667 29.9662C26.8667 31.6783 28.2546 33.0662 29.9667 33.0662H32.0333C33.7454 33.0662 35.1333 31.6783 35.1333 29.9662C35.1324 29.5703 35.0548 29.1784 34.905 28.812C35.7271 28.2839 36.4346 27.5959 36.9851 26.7887C37.1252 27.1424 37.1981 27.5191 37.2 27.8995V34.0995ZM32.9406 17.9547C34.894 18.7353 36.1727 20.6294 36.1667 22.7329C36.1667 22.8755 36.1357 23.0088 36.1243 23.1462C35.4845 22.8725 34.7958 22.7318 34.1 22.7329H27.9C27.2015 22.7329 26.5102 22.8753 25.8685 23.1514C25.8571 23.0119 25.8333 22.8744 25.8333 22.7329C25.8349 22.0213 25.9833 21.3177 26.2694 20.6662H29.45C31.0947 20.6613 32.5289 19.5471 32.9406 17.9547ZM29.4583 13.4329H24.2833C22.8566 13.4329 21.7 12.2763 21.7 10.8495C21.7 9.42277 22.8566 8.26621 24.2833 8.26621H29.2878C30.1095 8.26828 30.8972 8.59468 31.4795 9.17451L34.2261 11.919C34.805 12.5018 35.131 13.2892 35.1333 14.1107V16.785C34.428 16.2968 33.6409 15.9387 32.8094 15.7279C32.2704 14.3469 30.9408 13.4364 29.4583 13.4329ZM33.0667 29.9662C33.0667 30.5369 32.604 30.9995 32.0333 30.9995H29.9667C29.4222 31.0258 28.9597 30.6058 28.9335 30.0614C28.9271 29.9309 28.9468 29.8006 28.9912 29.6779C30.3024 30.0628 31.6966 30.0628 33.0078 29.6779C33.0415 29.7707 33.0614 29.8678 33.0667 29.9662ZM40.3 17.0495C40.3 17.9055 39.606 18.5995 38.75 18.5995C37.894 18.5995 37.2 17.9055 37.2 17.0495V14.1107C37.2039 12.7399 36.6592 11.4246 35.6872 10.4579L32.9406 7.71338C31.9739 6.74127 30.6586 6.19619 29.2878 6.19954H24.2833C21.7164 6.20239 19.6362 8.28261 19.6333 10.8495C19.6333 13.4176 21.7152 15.4995 24.2833 15.4995H29.4624C30.3184 15.5029 31.0097 16.1998 31.0062 17.0557C31.0028 17.9117 30.306 18.603 29.45 18.5995H21.6204C18.6346 18.6085 15.7694 17.4222 13.6638 15.3053C11.1436 12.7652 7.71164 11.3392 4.13333 11.3455H3.96077C3.24777 11.3559 2.58333 11.36 2.06667 11.3662V2.06621H29.6432C31.5623 2.06156 33.4035 2.82429 34.7572 4.18454L38.1817 7.60901C39.5423 8.96242 40.3052 10.8038 40.3 12.723V17.0495Z" fill="white"/>
</g>
<defs>
<clipPath id="clip0_1_1577">
<rect width="62" height="62" fill="white"/>
</clipPath>
</defs>
</svg>
