<svg width="66" height="66" viewBox="0 0 66 66" fill="none" xmlns="http://www.w3.org/2000/svg">
<g clip-path="url(#clip0_1_1416)">
<path d="M65.4988 30.802L53.3213 20.4028C53.3355 20.3316 53.3497 20.2605 53.364 20.1751V6.57501C53.3497 5.76412 52.7096 5.10972 51.8987 5.08127H45.0986C44.3162 5.08127 43.676 5.77835 43.676 6.57501V12.2085L33.9312 3.90051C33.4048 3.44527 32.6224 3.44527 32.0818 3.90051L0.514117 30.7878C-0.0976045 31.2857 -0.168735 32.1819 0.329178 32.7937C0.82709 33.4054 1.72333 33.4765 2.33505 32.9786C2.34928 32.9644 2.34928 32.9644 2.36351 32.9501L33.0065 6.85953L43.9748 16.2061L50.533 21.7827L63.6636 32.9644C64.2611 33.4765 65.1574 33.4054 65.6695 32.8079C66.1674 32.2104 66.0963 31.3141 65.4988 30.802ZM50.5045 17.9985L46.5212 14.6412V7.94071H50.5045V17.9985Z" fill="white"/>
<path d="M59.2251 33.6754L55.2276 30.2612L33.9312 12.066C33.4048 11.6108 32.6224 11.6108 32.0818 12.066L10.7853 30.2612L6.78782 33.6754C6.19032 34.1876 6.11919 35.0838 6.63133 35.6813C7.12924 36.2788 8.01126 36.3499 8.59453 35.852L8.60876 35.8378L10.387 34.3014V60.9753C10.4012 61.7719 11.0556 62.4263 11.8523 62.4405H54.1464C54.9431 62.4263 55.5975 61.7862 55.6117 60.9753V34.3014L57.3899 35.8378C57.646 36.0512 57.959 36.1792 58.3004 36.1792C58.713 36.1792 59.1113 35.9943 59.3816 35.6813C59.908 35.0696 59.8226 34.1733 59.2251 33.6754ZM38.6969 59.5811H27.316V44.217H38.6969V59.5811ZM41.5421 59.5811V42.837C41.5421 42.0546 40.9588 41.3717 40.1764 41.3717H25.8365C25.0541 41.3717 24.4708 42.0546 24.4708 42.837V59.5811H13.2322V31.8687L33.0065 15.0251L52.7807 31.8687V59.5811H41.5421Z" fill="white"/>
<path d="M65.4988 30.802L53.3213 20.4028C53.3355 20.3316 53.3497 20.2605 53.364 20.1751V6.57501C53.3497 5.76412 52.7096 5.10972 51.8987 5.08127H45.0986C44.3162 5.08127 43.676 5.77835 43.676 6.57501V12.2085L33.9312 3.90051C33.4048 3.44527 32.6224 3.44527 32.0818 3.90051L0.514117 30.7878C-0.0976045 31.2857 -0.168735 32.1819 0.329178 32.7937C0.82709 33.4054 1.72333 33.4765 2.33505 32.9786C2.34928 32.9644 2.34928 32.9644 2.36351 32.9501L33.0065 6.85953L43.9748 16.2061L50.533 21.7827L63.6636 32.9644C64.2611 33.4765 65.1574 33.4054 65.6695 32.8079C66.1674 32.2104 66.0963 31.3141 65.4988 30.802ZM50.5045 17.9985L46.5212 14.6412V7.94071H50.5045V17.9985Z" fill="white"/>
<path d="M59.2251 33.6754L55.2276 30.2612L33.9312 12.066C33.4048 11.6108 32.6224 11.6108 32.0818 12.066L10.7853 30.2612L6.78782 33.6754C6.19032 34.1876 6.11919 35.0838 6.63133 35.6813C7.12924 36.2788 8.01126 36.3499 8.59453 35.852L8.60876 35.8378L10.387 34.3014V60.9753C10.4012 61.7719 11.0556 62.4263 11.8523 62.4405H54.1464C54.9431 62.4263 55.5975 61.7862 55.6117 60.9753V34.3014L57.3899 35.8378C57.646 36.0512 57.959 36.1792 58.3004 36.1792C58.713 36.1792 59.1113 35.9943 59.3816 35.6813C59.908 35.0696 59.8226 34.1733 59.2251 33.6754ZM38.6969 59.5811H27.316V44.217H38.6969V59.5811ZM41.5421 59.5811V42.837C41.5421 42.0546 40.9588 41.3717 40.1764 41.3717H25.8365C25.0541 41.3717 24.4708 42.0546 24.4708 42.837V59.5811H13.2322V31.8687L33.0065 15.0251L52.7807 31.8687V59.5811H41.5421Z" fill="white"/>
</g>
<defs>
<clipPath id="clip0_1_1416">
<rect width="66" height="66" fill="white"/>
</clipPath>
</defs>
</svg>
