<svg width="66" height="66" viewBox="0 0 66 66" fill="none" xmlns="http://www.w3.org/2000/svg">
<path d="M17.5312 24.1663C17.5312 25.6255 18.7182 26.8125 20.1774 26.8125C20.657 26.8125 21.1283 26.6815 21.5387 26.4351L30.5838 21.0086C31.4377 20.4961 31.9688 19.5587 31.9688 18.5625C31.9688 17.5663 31.4377 16.6289 30.5838 16.1164L21.5397 10.6899C21.1282 10.4435 20.658 10.3125 20.1774 10.3125C18.7182 10.3125 17.5312 11.4995 17.5312 12.9587V14.4375H1.03125V22.6875H17.5312V24.1663ZM3.09375 20.625V16.5H19.5938V12.9587C19.5938 12.5307 20.1073 12.2368 20.4775 12.4585L29.5226 17.885C29.7588 18.0263 29.9062 18.2861 29.9062 18.5625C29.9062 18.8389 29.7588 19.0987 29.5226 19.24L20.4775 24.6665C20.1104 24.8882 19.5938 24.5943 19.5938 24.1663V20.625H3.09375Z" fill="white"/>
<path d="M48.4683 51.1149C48.4683 49.6557 47.2814 48.4688 45.8221 48.4688C45.3426 48.4688 44.8713 48.5997 44.4609 48.8462L38.1558 52.6288V45.375C39.6016 45.375 40.9443 44.6088 41.6868 43.3733C44.2093 45.3358 47.2948 46.4062 50.5308 46.4062C58.4921 46.4062 64.9683 39.93 64.9683 31.9564C64.9683 28.3831 63.6525 24.9532 61.262 22.2987L56.7823 17.3209C57.9476 16.8774 58.7808 15.7565 58.7808 14.4375C58.7808 13.1907 58.0363 12.1213 56.972 11.6315L58.6375 5.80387C58.7324 5.46872 58.7808 5.12325 58.7808 4.77675C58.7808 2.71116 57.1009 1.03125 55.0364 1.03125H52.2138C50.7567 1.03125 49.5058 1.87584 48.887 3.09375H46.2305C44.0515 3.09375 42.2808 4.86544 42.2808 7.04138C42.2808 8.09634 42.6913 9.08737 43.4379 9.83297L44.9879 11.3829C43.4657 11.5758 42.2808 12.8638 42.2808 14.4375C42.2808 15.7565 43.1141 16.8774 44.2794 17.3209L39.7996 22.2987C37.4092 24.9532 36.0933 28.3831 36.0933 31.9688C36.0933 33.3032 36.2913 34.5984 36.643 35.8545L24.0741 29.4566C22.585 28.6956 20.7256 28.6966 19.2375 29.4556L3.10776 37.6685C1.13395 38.7987 0.446109 41.3222 1.57326 43.2939C2.30545 44.5778 3.67805 45.375 5.15583 45.375V64.9688H38.1558V60.8087L44.4599 64.5903C44.8713 64.8378 45.3416 64.9688 45.8221 64.9688C47.2814 64.9688 48.4683 63.7818 48.4683 62.3226V60.8438H64.9683V52.5938H48.4683V51.1149ZM44.3433 7.04138C44.3433 6.00187 45.189 5.15625 46.2295 5.15625H48.4683V7.21875H50.5308V4.77675C50.5308 3.84862 51.2857 3.09375 52.2128 3.09375H55.0353C55.9635 3.09375 56.7183 3.84862 56.7183 4.77675C56.7183 4.93247 56.6967 5.08819 56.6534 5.23875L54.9095 11.3438H47.864L44.895 8.37478C44.5444 8.02313 44.3433 7.53844 44.3433 7.04138ZM45.3746 15.4688C44.8064 15.4688 44.3433 15.0068 44.3433 14.4375C44.3433 13.8682 44.8064 13.4062 45.3746 13.4062H55.6871C56.2553 13.4062 56.7183 13.8682 56.7183 14.4375C56.7183 15.0068 56.2553 15.4688 55.6871 15.4688H55.1147H45.9459H45.3746ZM38.1558 31.9564C38.1558 28.8936 39.284 25.9545 41.3331 23.6785L46.8647 17.5312H54.1959L59.7285 23.6785C61.7776 25.9545 62.9058 28.8946 62.9058 31.9688C62.9058 38.7925 57.3546 44.3438 50.5308 44.3438C47.4525 44.3438 44.5382 43.2094 42.2623 41.1582C42.2251 39.7588 41.4888 38.4048 40.1606 37.6448L39.3407 37.2281C38.5632 35.5781 38.1558 33.8126 38.1558 31.9564ZM3.36455 42.272C2.80148 41.2861 3.14489 40.0238 4.08745 39.4835L20.1739 31.2933C21.0876 30.8282 22.224 30.8272 23.1388 31.2943L39.1809 39.4598C40.1678 40.0249 40.5122 41.2861 39.9481 42.274C39.4036 43.2259 38.1857 43.6415 37.0844 43.0145L21.6558 35.2997L6.17676 43.0413C5.2373 43.5848 3.91008 43.2269 3.36455 42.272ZM15.4683 58.5915C15.7921 58.707 16.1366 58.7812 16.4996 58.7812C18.2053 58.7812 19.5933 57.3932 19.5933 55.6875C19.5933 53.9818 18.2053 52.5938 16.4996 52.5938C16.1366 52.5938 15.7921 52.668 15.4683 52.7835V48.4688H27.8433V62.9062H15.4683V58.5915ZM15.4683 55.6875C15.4683 55.1183 15.9314 54.6562 16.4996 54.6562C17.0678 54.6562 17.5308 55.1183 17.5308 55.6875C17.5308 56.2567 17.0678 56.7188 16.4996 56.7188C15.9314 56.7188 15.4683 56.2567 15.4683 55.6875ZM36.0933 62.9062H29.9058V46.4062H13.4058V62.9062H7.21833V44.8253L21.6558 37.6066L36.0933 44.8233V53.8663L35.4158 54.2726C34.5619 54.7852 34.0308 55.7226 34.0308 56.7188C34.0308 57.7149 34.5619 58.6523 35.4158 59.1649L36.0933 59.5712V62.9062ZM62.9058 54.6562V58.7812H46.4058V62.3226C46.4058 62.7505 45.8923 63.0434 45.522 62.8227L36.477 57.3963C36.2408 57.255 36.0933 56.9951 36.0933 56.7188C36.0933 56.4424 36.2408 56.1825 36.477 56.0412L45.522 50.6148C45.6128 50.5601 45.717 50.5312 45.8221 50.5312C46.1439 50.5312 46.4058 50.7932 46.4058 51.1149V54.6562H62.9058Z" fill="white"/>
<path d="M48.3333 37.0418V25.9585H53.0833C53.7132 25.9585 54.3173 26.2087 54.7627 26.6541C55.2081 27.0995 55.4583 27.7036 55.4583 28.3335C55.4583 28.9634 55.2081 29.5675 54.7627 30.0129C54.3173 30.4583 53.7132 30.7085 53.0833 30.7085H46.75M53.0833 33.8752H46.75" stroke="white" stroke-width="2" stroke-linecap="round" stroke-linejoin="round"/>
</svg>
