<svg width="61" height="61" viewBox="0 0 61 61" fill="none" xmlns="http://www.w3.org/2000/svg">
<g clip-path="url(#clip0_1_1438)">
<path d="M38.6333 16.2667C37.9471 16.2667 37.27 16.3023 36.6 16.3633V3.05002C36.6 2.24111 36.2786 1.46533 35.7067 0.893343C35.1347 0.321357 34.3589 1.90991e-05 33.55 1.90991e-05H13.0438C12.6414 -0.00140865 12.2427 0.0772253 11.8709 0.231344C11.4991 0.385463 11.1617 0.611988 10.8783 0.897736L0.897705 10.8784C0.611958 11.1618 0.385432 11.4992 0.231314 11.8709C0.0771948 12.2427 -0.00143917 12.6414 -1.14185e-05 13.0439V45.75C-1.14185e-05 46.5589 0.321327 47.3347 0.893313 47.9067C1.4653 48.4787 2.24108 48.8 3.04999 48.8H18.7209C20.528 52.3412 23.2464 55.3368 26.596 57.4782C29.9457 59.6196 33.8056 60.8295 37.7783 60.9833C41.7509 61.1371 45.6928 60.2292 49.198 58.3531C52.7032 56.477 55.6449 53.7006 57.7204 50.3097C59.7958 46.9187 60.93 43.0359 61.006 39.061C61.082 35.086 60.0971 31.1627 58.1528 27.6949C56.2085 24.2271 53.375 21.3402 49.9442 19.3315C46.5133 17.3228 42.609 16.2649 38.6333 16.2667ZM11.1833 3.47092V9.15002C11.1833 9.68929 10.9691 10.2065 10.5878 10.5878C10.2064 10.9691 9.68926 11.1834 9.14999 11.1834H3.47089L11.1833 3.47092ZM3.04999 46.7667C2.78035 46.7667 2.52176 46.6596 2.3311 46.4689C2.14043 46.2783 2.03332 46.0197 2.03332 45.75V13.2167H9.14999C10.2285 13.2167 11.2629 12.7882 12.0256 12.0256C12.7882 11.2629 13.2167 10.2286 13.2167 9.15002V2.03335H33.55C33.8196 2.03335 34.0782 2.14047 34.2689 2.33113C34.4595 2.52179 34.5667 2.78038 34.5667 3.05002V16.6439C31.3269 17.2405 28.2592 18.546 25.583 20.4668C22.9068 22.3877 20.6884 24.8765 19.0866 27.755C17.4848 30.6335 16.5391 33.8306 16.3174 37.1173C16.0956 40.404 16.6032 43.6991 17.8039 46.7667H3.04999ZM38.6333 58.9667C34.6118 58.9667 30.6805 57.7742 27.3367 55.5399C23.9929 53.3056 21.3868 50.13 19.8478 46.4146C18.3088 42.6992 17.9061 38.6108 18.6907 34.6665C19.4753 30.7222 21.4118 27.0992 24.2555 24.2555C27.0992 21.4118 30.7222 19.4753 34.6665 18.6907C38.6108 17.9062 42.6991 18.3088 46.4146 19.8478C50.13 21.3868 53.3056 23.993 55.5399 27.3368C57.7741 30.6806 58.9667 34.6118 58.9667 38.6334C58.9605 44.0242 56.8162 49.1925 53.0043 53.0044C49.1924 56.8163 44.0242 58.9605 38.6333 58.9667Z" fill="white"/>
<path d="M40.7525 22.4987C37.4687 22.0711 34.1326 22.6545 31.1887 24.1711C30.7807 24.3906 30.4274 24.6993 30.1553 25.0743C29.8831 25.4493 29.6992 25.8809 29.6171 26.3369C29.535 26.7929 29.5569 27.2616 29.6811 27.7079C29.8054 28.1543 30.0288 28.5669 30.3347 28.9149C30.7952 29.4152 31.4074 29.7502 32.0771 29.8684C32.7467 29.9865 33.4366 29.8811 34.0405 29.5686C35.4626 28.8425 37.037 28.4648 38.6338 28.4665C41.187 28.4699 43.6459 29.4324 45.5229 31.1633C47.3999 32.8942 48.5581 35.2671 48.7679 37.8117C48.3437 37.9795 47.9657 38.2463 47.6655 38.5898C47.3653 38.9333 47.1515 39.3437 47.0421 39.7866C46.9327 40.2295 46.9307 40.6921 47.0364 41.1359C47.1421 41.5797 47.3523 41.9919 47.6496 42.3379L49.7846 44.8115C50.0407 45.1057 50.357 45.3417 50.712 45.5033C51.0671 45.665 51.4527 45.7487 51.8428 45.7487C52.2329 45.7487 52.6185 45.665 52.9736 45.5033C53.3287 45.3417 53.6449 45.1057 53.9011 44.8115L56.0361 42.3399C56.3367 41.9905 56.5485 41.5735 56.6534 41.1245C56.7583 40.6756 56.7532 40.2079 56.6385 39.7614C56.5238 39.3148 56.3029 38.9026 55.9946 38.5598C55.6863 38.217 55.2998 37.9537 54.8679 37.7924C54.6668 33.9975 53.1461 30.3921 50.5687 27.5996C47.9913 24.807 44.5191 23.0027 40.7525 22.4987ZM53.8838 39.6498C54.0419 39.6467 54.1974 39.6906 54.3304 39.7761C54.4635 39.8615 54.5681 39.9846 54.631 40.1297C54.6976 40.2724 54.7213 40.4314 54.6993 40.5873C54.6773 40.7432 54.6105 40.8894 54.507 41.0081L52.372 43.4776C52.3065 43.5518 52.2261 43.6112 52.1359 43.652C52.0457 43.6927 51.9479 43.7137 51.8489 43.7137C51.75 43.7137 51.6522 43.6927 51.562 43.652C51.4718 43.6112 51.3913 43.5518 51.3258 43.4776L49.1908 41.0071C49.0871 40.8883 49.0202 40.7419 48.9982 40.5858C48.9762 40.4297 49 40.2705 49.0668 40.1277C49.1302 39.9825 49.2355 39.8595 49.3691 39.7744C49.5027 39.6893 49.6587 39.6459 49.8171 39.6498C50.0867 39.6498 50.3453 39.5427 50.536 39.3521C50.7267 39.1614 50.8338 38.9028 50.8338 38.6332C50.8303 35.3986 49.5438 32.2975 47.2566 30.0103C44.9694 27.7232 41.8683 26.4367 38.6338 26.4332C36.7178 26.4305 34.8287 26.8835 33.1224 27.7548C32.9173 27.8673 32.6807 27.9083 32.4497 27.8715C32.2187 27.8347 32.0065 27.7221 31.8465 27.5515C31.7448 27.435 31.6713 27.2966 31.6318 27.1471C31.5923 26.9975 31.5879 26.8409 31.6188 26.6894C31.6428 26.5388 31.7011 26.3957 31.7893 26.2712C31.8774 26.1468 31.993 26.0443 32.1271 25.9716C34.2974 24.859 36.717 24.3223 39.1541 24.413C41.5912 24.5037 43.9643 25.2186 46.0459 26.4894C48.1275 27.7602 49.8479 29.5442 51.0422 31.6706C52.2366 33.7969 52.865 36.1943 52.8671 38.6332C52.8671 38.9028 52.9742 39.1614 53.1649 39.3521C53.3555 39.5427 53.6141 39.6498 53.8838 39.6498Z" fill="white"/>
<path d="M43.2266 47.6979C41.8045 48.4239 40.2301 48.8016 38.6333 48.7999C36.0801 48.7966 33.6213 47.8341 31.7442 46.1032C29.8672 44.3723 28.709 41.9994 28.4992 39.4547C28.923 39.2864 29.3005 39.0192 29.6002 38.6755C29.8998 38.3317 30.113 37.9213 30.2219 37.4784C30.3309 37.0356 30.3324 36.5731 30.2264 36.1296C30.1203 35.6861 29.9099 35.2743 29.6125 34.9285L27.4775 32.454C27.2211 32.1593 26.9044 31.9231 26.5489 31.7614C26.1934 31.5997 25.8073 31.5162 25.4167 31.5166C25.0264 31.5167 24.6406 31.6005 24.2855 31.7624C23.9303 31.9242 23.614 32.1604 23.3579 32.455L21.2229 34.9265C20.9222 35.276 20.7104 35.693 20.6055 36.1419C20.5006 36.5909 20.5058 37.0585 20.6205 37.5051C20.7352 37.9516 20.9561 38.3638 21.2644 38.7067C21.5726 39.0495 21.9592 39.3127 22.3911 39.4741C22.5925 43.2702 24.1143 46.8765 26.6934 49.6692C29.2724 52.462 32.7465 54.2655 36.5146 54.7678C37.212 54.8556 37.9142 54.8998 38.6171 54.8999C41.2129 54.9052 43.7719 54.2862 46.0784 53.0954C46.4865 52.8759 46.8397 52.5672 47.1119 52.1921C47.384 51.8171 47.5679 51.3855 47.65 50.9295C47.7321 50.4735 47.7102 50.0049 47.586 49.5585C47.4617 49.1121 47.2383 48.6996 46.9324 48.3516C46.4723 47.8507 45.86 47.5152 45.1902 47.3971C44.5204 47.2789 43.8304 47.3846 43.2266 47.6979ZM45.14 51.2908C42.9701 52.4032 40.5508 52.9399 38.114 52.8494C35.6772 52.759 33.3044 52.0443 31.223 50.774C29.1415 49.5037 27.421 47.7203 26.2264 45.5945C25.0317 43.4687 24.4028 41.0718 24.4 38.6333C24.4 38.3636 24.2929 38.105 24.1022 37.9144C23.9116 37.7237 23.653 37.6166 23.3833 37.6166C23.2252 37.6198 23.0698 37.5758 22.9367 37.4904C22.8036 37.4049 22.699 37.2818 22.6361 37.1367C22.5695 36.994 22.5458 36.8351 22.5678 36.6791C22.5898 36.5232 22.6566 36.377 22.7601 36.2583L24.8951 33.7889C24.9608 33.7149 25.0415 33.6557 25.1317 33.6152C25.222 33.5747 25.3198 33.5537 25.4187 33.5537C25.5176 33.5537 25.6154 33.5747 25.7057 33.6152C25.7959 33.6557 25.8766 33.7149 25.9423 33.7889L28.0773 36.2604C28.181 36.3792 28.2479 36.5255 28.2699 36.6817C28.292 36.8378 28.2681 36.997 28.2013 37.1398C28.1377 37.285 28.0322 37.4079 27.8984 37.4928C27.7646 37.5777 27.6085 37.6208 27.45 37.6166C27.1804 37.6166 26.9218 37.7237 26.7311 37.9144C26.5405 38.105 26.4333 38.3636 26.4333 38.6333C26.4368 41.8678 27.7233 44.9689 30.0105 47.2561C32.2977 49.5433 35.3988 50.8298 38.6333 50.8333C40.5493 50.836 42.4384 50.3829 44.1447 49.5116C44.3497 49.3986 44.5865 49.3573 44.8176 49.3941C45.0487 49.431 45.2609 49.5439 45.4206 49.7149C45.5223 49.8314 45.5958 49.9698 45.6353 50.1194C45.6748 50.2689 45.6792 50.4255 45.6483 50.5771C45.6238 50.727 45.5651 50.8692 45.477 50.9929C45.3889 51.1167 45.2736 51.2185 45.14 51.2908Z" fill="white"/>
<path d="M7.11628 22.3668H20.3329C20.6026 22.3668 20.8612 22.2597 21.0518 22.0691C21.2425 21.8784 21.3496 21.6198 21.3496 21.3502C21.3496 21.0805 21.2425 20.8219 21.0518 20.6313C20.8612 20.4406 20.6026 20.3335 20.3329 20.3335H7.11628C6.84664 20.3335 6.58805 20.4406 6.39738 20.6313C6.20672 20.8219 6.09961 21.0805 6.09961 21.3502C6.09961 21.6198 6.20672 21.8784 6.39738 22.0691C6.58805 22.2597 6.84664 22.3668 7.11628 22.3668Z" fill="white"/>
<path d="M16.2667 16.2667H29.4833C29.753 16.2667 30.0116 16.1596 30.2022 15.969C30.3929 15.7783 30.5 15.5197 30.5 15.2501C30.5 14.9804 30.3929 14.7218 30.2022 14.5312C30.0116 14.3405 29.753 14.2334 29.4833 14.2334H16.2667C15.997 14.2334 15.7384 14.3405 15.5478 14.5312C15.3571 14.7218 15.25 14.9804 15.25 15.2501C15.25 15.5197 15.3571 15.7783 15.5478 15.969C15.7384 16.1596 15.997 16.2667 16.2667 16.2667Z" fill="white"/>
<path d="M7.11628 28.4664H16.2663C16.5359 28.4664 16.7945 28.3593 16.9852 28.1687C17.1758 27.978 17.2829 27.7194 17.2829 27.4498C17.2829 27.1801 17.1758 26.9215 16.9852 26.7309C16.7945 26.5402 16.5359 26.4331 16.2663 26.4331H7.11628C6.84664 26.4331 6.58805 26.5402 6.39738 26.7309C6.20672 26.9215 6.09961 27.1801 6.09961 27.4498C6.09961 27.7194 6.20672 27.978 6.39738 28.1687C6.58805 28.3593 6.84664 28.4664 7.11628 28.4664Z" fill="white"/>
<path d="M14.2329 32.5332H7.11628C6.84664 32.5332 6.58805 32.6403 6.39738 32.831C6.20672 33.0216 6.09961 33.2802 6.09961 33.5499C6.09961 33.8195 6.20672 34.0781 6.39738 34.2688C6.58805 34.4594 6.84664 34.5665 7.11628 34.5665H14.2329C14.5026 34.5665 14.7612 34.4594 14.9518 34.2688C15.1425 34.0781 15.2496 33.8195 15.2496 33.5499C15.2496 33.2802 15.1425 33.0216 14.9518 32.831C14.7612 32.6403 14.5026 32.5332 14.2329 32.5332Z" fill="white"/>
<path d="M13.2163 38.6333H7.11628C6.84664 38.6333 6.58805 38.7404 6.39738 38.9311C6.20672 39.1217 6.09961 39.3803 6.09961 39.65C6.09961 39.9196 6.20672 40.1782 6.39738 40.3689C6.58805 40.5595 6.84664 40.6666 7.11628 40.6666H13.2163C13.4859 40.6666 13.7445 40.5595 13.9352 40.3689C14.1258 40.1782 14.2329 39.9196 14.2329 39.65C14.2329 39.3803 14.1258 39.1217 13.9352 38.9311C13.7445 38.7404 13.4859 38.6333 13.2163 38.6333Z" fill="white"/>
</g>
<defs>
<clipPath id="clip0_1_1438">
<rect width="61" height="61" fill="white"/>
</clipPath>
</defs>
</svg>
