<svg width="70" height="70" viewBox="0 0 70 70" fill="none" xmlns="http://www.w3.org/2000/svg">
<path d="M64.5312 24.0625C63.6878 24.0625 62.9256 24.3912 62.3438 24.9159C61.7619 24.3912 60.9997 24.0625 60.1562 24.0625C59.3128 24.0625 58.5506 24.3912 57.9688 24.9159C57.3869 24.3912 56.6247 24.0625 55.7812 24.0625C55.3959 24.0625 55.0313 24.1415 54.6875 24.264V16.4062C54.6875 14.5969 53.2156 13.125 51.4062 13.125C49.5969 13.125 48.125 14.5969 48.125 16.4062V30.2405L43.9893 35.4102C43.8344 35.6045 43.75 35.8449 43.75 36.0938V42.6562C43.75 42.9468 43.8654 43.2245 44.0704 43.4296L47.0312 46.3904V50.3125C47.0312 50.917 47.5205 51.4062 48.125 51.4062H64.5312C65.1358 51.4062 65.625 50.917 65.625 50.3125V46.3904L67.4921 44.5233C67.6971 44.3182 67.8125 44.0405 67.8125 43.75V27.3438C67.8125 25.5344 66.3406 24.0625 64.5312 24.0625ZM63.4375 49.2188H49.2188V47.0312H63.4375V49.2188ZM65.625 43.2971L64.0784 44.8438H48.5779L45.9375 42.2034V36.4772L48.125 33.7434V37.1875H50.3125V16.4062C50.3125 15.8028 50.8028 15.3125 51.4062 15.3125C52.0097 15.3125 52.5 15.8028 52.5 16.4062V27.3438V32.8125H54.6875V27.3438C54.6875 26.7403 55.1778 26.25 55.7812 26.25C56.3847 26.25 56.875 26.7403 56.875 27.3438V32.8125H59.0625V27.3438C59.0625 26.7403 59.5528 26.25 60.1562 26.25C60.7597 26.25 61.25 26.7403 61.25 27.3438V32.8125H63.4375V27.3438C63.4375 26.7403 63.9278 26.25 64.5312 26.25C65.1347 26.25 65.625 26.7403 65.625 27.3438V43.2971Z" fill="white"/>
<path d="M18.8031 45.4868C19.0434 45.8189 19.4461 45.9877 19.8552 45.9247C20.26 45.8617 20.5954 45.5786 20.7246 45.1898L28.6404 21.4445L32.9278 30.0204C33.102 30.3687 33.4491 30.5983 33.8379 30.6229C34.247 30.6378 34.5995 30.4616 34.8163 30.1379L50.3125 6.89362V10.9375H52.5V3.28126C52.5 2.93839 52.3387 2.61475 52.0653 2.40754C51.7918 2.20139 51.434 2.13623 51.1061 2.22916L43.4499 4.41666L44.0502 6.52085L48.8454 5.15092L34.0419 27.3566L29.4159 18.1046C29.2183 17.7083 28.8146 17.4648 28.3595 17.5032C27.9184 17.5342 27.5403 17.8279 27.4004 18.2477L19.3222 42.4811L11.8219 32.1695C11.5762 31.8309 11.164 31.66 10.7463 31.7359C10.3351 31.8085 10.0008 32.1097 9.88541 32.5124L3.32291 55.4811L5.4271 56.0814L11.3722 35.2703L18.8031 45.4868Z" fill="white"/>
<path d="M55.7812 40.016L54.3671 38.6018L52.8204 40.1484L55.0079 42.3359C55.2216 42.5496 55.5014 42.6564 55.7812 42.6564C56.0611 42.6564 56.3409 42.5496 56.5546 42.3359L62.0233 36.8672L60.4767 35.3206L55.7812 40.016Z" fill="white"/>
<path d="M45.9375 54.6875C45.9375 54.083 45.4483 53.5938 44.8438 53.5938H41.5625V48.125C41.5625 47.5205 41.0733 47.0312 40.4688 47.0312H37.1875V38.2812C37.1875 37.6767 36.6983 37.1875 36.0938 37.1875H31.7188C31.1142 37.1875 30.625 37.6767 30.625 38.2812V49.2188H28.4375V48.125C28.4375 47.5205 27.9483 47.0312 27.3438 47.0312H22.9688C22.3642 47.0312 21.875 47.5205 21.875 48.125V55.7812H19.6875V53.5938C19.6875 52.9892 19.1983 52.5 18.5938 52.5H14.2188C13.6142 52.5 13.125 52.9892 13.125 53.5938V59.0625H9.84375C9.2392 59.0625 8.75 59.5517 8.75 60.1562V65.625H6.5625V67.8125H9.84375H14.2188H18.5938H22.9688H27.3438H31.7188H36.0938H40.4688H44.8438H48.125V65.625H45.9375V54.6875ZM10.9375 61.25H13.125V65.625H10.9375V61.25ZM15.3125 60.1562V54.6875H17.5V56.875V65.625H15.3125V60.1562ZM19.6875 57.9688H21.875V65.625H19.6875V57.9688ZM24.0625 56.875V49.2188H26.25V50.3125V65.625H24.0625V56.875ZM28.4375 51.4062H30.625V65.625H28.4375V51.4062ZM32.8125 50.3125V39.375H35V48.125V65.625H32.8125V50.3125ZM37.1875 49.2188H39.375V54.6875V65.625H37.1875V49.2188ZM41.5625 65.625V55.7812H43.75V65.625H41.5625Z" fill="white"/>
</svg>
