<svg width="28" height="37" viewBox="0 0 28 37" fill="none" xmlns="http://www.w3.org/2000/svg">
<path d="M2.96289 13.7305C2.96289 19.7076 7.82558 24.5703 13.8027 24.5703C19.7799 24.5703 24.6426 19.7076 24.6426 13.7305C24.6426 7.75331 19.7799 2.89062 13.8027 2.89062C7.82558 2.89062 2.96289 7.75331 2.96289 13.7305ZM13.8027 4.33594C18.983 4.33594 23.1973 8.55021 23.1973 13.7305C23.1973 18.9107 18.983 23.125 13.8027 23.125C8.62247 23.125 4.4082 18.9107 4.4082 13.7305C4.4082 8.55021 8.62247 4.33594 13.8027 4.33594Z" fill="white"/>
<path d="M7.11029 12.442L9.91142 15.2019L9.26696 19.0809C9.22208 19.351 9.33358 19.6231 9.55518 19.784C9.77649 19.9449 10.0698 19.9667 10.3128 19.8408L13.8028 18.0285L17.2924 19.8408C17.5335 19.9658 17.8268 19.9464 18.0501 19.784C18.2717 19.6231 18.3832 19.351 18.3383 19.0809L17.6938 15.2019L20.495 12.442C20.69 12.2501 20.7597 11.9644 20.675 11.7038C20.5904 11.4436 20.3659 11.2536 20.0952 11.2127L16.2078 10.6275L14.4489 7.10989C14.3267 6.86514 14.0763 6.71045 13.8028 6.71045C13.5289 6.71045 13.2788 6.86514 13.1563 7.10989L11.3974 10.6275L7.51 11.2127C7.23929 11.2533 7.01487 11.4436 6.93019 11.7038C6.8455 11.9644 6.91551 12.2501 7.11029 12.442ZM11.9837 12.0008C12.2163 11.9658 12.4173 11.8199 12.5226 11.6096L13.8028 9.04892L15.0829 11.6096C15.1882 11.8199 15.3892 11.9658 15.6218 12.0008L18.4512 12.4268L16.4122 14.4352C16.2448 14.6004 16.168 14.8367 16.2064 15.0687L16.6756 17.8919L14.1356 16.573C14.0314 16.5188 13.9171 16.4917 13.8028 16.4917C13.6884 16.4917 13.5741 16.5188 13.4697 16.573L10.9296 17.8919L11.3988 15.0687C11.4375 14.8367 11.3607 14.6004 11.193 14.4352L9.15433 12.4268L11.9837 12.0008Z" fill="white"/>
<path d="M14.5254 0.722656C14.5254 1.12181 14.2019 1.44531 13.8027 1.44531C13.4036 1.44531 13.0801 1.12181 13.0801 0.722656C13.0801 0.323502 13.4036 0 13.8027 0C14.2019 0 14.5254 0.323502 14.5254 0.722656Z" fill="white"/>
<path d="M10.3969 0.425982C4.31787 1.97772 0.0722656 7.44873 0.0722656 13.7305C0.0722656 17.632 1.71264 21.3082 4.59225 23.9117L0.238533 31.5846C0.0985184 31.8316 0.11602 32.1376 0.283134 32.3668C0.450249 32.5963 0.735924 32.7067 1.01398 32.6488L5.95824 31.6222L7.69601 36.519C7.79029 36.7855 8.03165 36.9721 8.31337 36.9972C8.59509 37.0223 8.86524 36.8803 9.00497 36.6344L13.8027 28.1997L18.6002 36.6344C18.7295 36.8617 18.97 36.9997 19.228 36.9997C19.2492 36.9997 19.2706 36.9989 19.2918 36.9972C19.5735 36.9721 19.8149 36.7852 19.9095 36.519L21.6469 31.6222L26.5912 32.6488C26.869 32.7064 27.1549 32.596 27.3221 32.3668C27.4894 32.1376 27.5067 31.8316 27.3667 31.5846L23.0129 23.9117C25.8925 21.3082 27.5329 17.632 27.5329 13.7305C27.5329 7.44873 23.2873 1.97772 17.2085 0.425982C16.8215 0.327181 16.4283 0.560633 16.3295 0.947367C16.2307 1.3341 16.4641 1.72761 16.8509 1.82641C22.2894 3.2147 26.0879 8.10985 26.0879 13.7305C26.0879 20.5712 20.5322 26.0156 13.8027 26.0156C7.06848 26.0156 1.51758 20.5666 1.51758 13.7305C1.51758 8.10985 5.31576 3.2147 10.7543 1.82641C11.141 1.72761 11.3745 1.3341 11.276 0.947367C11.1772 0.560633 10.784 0.327181 10.3969 0.425982ZM8.52988 34.5469L7.1097 30.5449C6.98888 30.2045 6.63545 30.0055 6.28175 30.0789L2.28371 30.9091L5.72931 24.8365C7.73835 26.2971 10.1172 27.1868 12.5909 27.407L8.52988 34.5469ZM21.3234 30.0789C20.97 30.0055 20.6163 30.2045 20.4955 30.5449L19.0756 34.5469L15.0143 27.407C17.4883 27.1868 19.8668 26.2971 21.8762 24.8365L25.3218 30.9091L21.3234 30.0789Z" fill="white"/>
</svg>
