<svg width="31" height="31" viewBox="0 0 31 31" fill="none" xmlns="http://www.w3.org/2000/svg">
<g clip-path="url(#clip0_69_224)">
<path d="M15.3205 24.6269C15.1551 24.6269 14.9898 24.5636 14.8632 24.4383L6.56168 16.1368C6.31885 15.894 6.30852 15.5052 6.53585 15.2494L12.7578 8.2796C17.1068 3.19172 24.1891 -0.100738 30.3645 0.00388744C30.7094 0.0116374 30.9871 0.289346 30.9948 0.634221C31.1382 6.81355 27.8083 13.8919 22.7075 18.25L15.7493 24.4629C15.6279 24.5727 15.4729 24.6269 15.3205 24.6269ZM7.90631 15.655L15.345 23.0937L21.8589 17.2786C26.5166 13.2977 29.6102 6.95305 29.7058 1.29426C24.047 1.38855 17.7036 4.4821 13.7304 9.12951L7.90631 15.655Z" fill="white"/>
<path d="M17.794 29.3544C17.732 29.3544 17.6687 29.3454 17.6093 29.326C17.3768 29.2485 17.1856 29.0702 17.152 28.8274L16.266 22.6442C16.2156 22.2916 16.461 21.9648 16.8136 21.9131C17.1662 21.8576 17.493 22.1069 17.5447 22.4608L18.237 27.2916C20.5 24.5856 21.7581 21.1549 21.7581 17.6571C21.7581 17.3006 22.0475 17.0112 22.404 17.0112C22.7605 17.0112 23.0498 17.3006 23.0498 17.6571C23.0498 21.9364 21.3164 26.1252 18.2939 29.1464C18.1647 29.2756 17.9761 29.3544 17.794 29.3544Z" fill="white"/>
<path d="M8.44879 14.7405C8.41909 14.7405 8.38809 14.7392 8.35709 14.734L2.17388 13.8479C1.93104 13.8131 1.72825 13.6439 1.65204 13.4101C1.57584 13.1776 1.63784 12.9205 1.81221 12.7487C4.87734 9.68361 9.06492 7.9502 13.3442 7.9502C13.7007 7.9502 13.99 8.23953 13.99 8.59603C13.99 8.95253 13.7007 9.24186 13.3442 9.24186C9.82959 9.24186 6.38084 10.5116 3.70321 12.7617L8.5405 13.4553C8.89313 13.5069 9.13854 13.8324 9.08817 14.1864C9.04038 14.508 8.76396 14.7405 8.44879 14.7405Z" fill="white"/>
<path d="M22.1301 12.0977C21.3022 12.0977 20.4755 11.7825 19.8465 11.1535C18.5884 9.89409 18.5884 7.84551 19.8465 6.58613C21.1058 5.32676 23.1544 5.32676 24.4138 6.58613C25.6719 7.84551 25.6719 9.89409 24.4138 11.1535C23.7835 11.7838 22.9568 12.0977 22.1301 12.0977ZM22.1301 6.93359C21.6341 6.93359 21.1368 7.12217 20.7597 7.49934C20.0053 8.25497 20.0053 9.48463 20.7597 10.2403C21.5153 10.9946 22.745 10.9933 23.5006 10.2403C24.2549 9.48463 24.2549 8.25497 23.5006 7.49934C23.1221 7.12347 22.6261 6.93359 22.1301 6.93359ZM23.9565 10.6975H23.9695H23.9565Z" fill="white"/>
<path d="M0.645837 31.0001C0.476629 31.0001 0.312587 30.9342 0.188587 30.8115C0.0206703 30.6436 -0.0413297 30.3969 0.0271286 30.1696C0.238962 29.463 2.13642 23.2191 3.5185 21.837C5.07496 20.2806 7.60792 20.2793 9.16438 21.837C10.7208 23.3935 10.7208 25.9264 9.16438 27.4829C7.78229 28.865 1.53838 30.7624 0.831837 30.9743C0.769837 30.9911 0.707837 31.0001 0.645837 31.0001ZM6.34209 21.9597C5.64975 21.9597 4.95871 22.2232 4.43171 22.7489C3.68642 23.4955 2.44642 26.8293 1.6275 29.3726C4.1695 28.5537 7.50459 27.3137 8.24988 26.5684C9.30259 25.5157 9.30259 23.8016 8.24988 22.7489C7.72417 22.2232 7.03313 21.9597 6.34209 21.9597Z" fill="white"/>
</g>
<defs>
<clipPath id="clip0_69_224">
<rect width="31" height="31" fill="white"/>
</clipPath>
</defs>
</svg>
