<svg width="31" height="31" viewBox="0 0 31 31" fill="none" xmlns="http://www.w3.org/2000/svg">
<path d="M26.4601 4.53987C23.5326 1.6123 19.6402 0 15.5 0C11.3598 0 7.46737 1.6123 4.53987 4.53987C1.61224 7.46737 0 11.3598 0 15.5C0 19.6402 1.61224 23.5326 4.53987 26.4601C7.46737 29.3877 11.3598 31 15.5 31C19.6402 31 23.5326 29.3877 26.4601 26.4601C29.3878 23.5326 31 19.6402 31 15.5C31 11.3598 29.3878 7.46737 26.4601 4.53987ZM15.5 29.1548C7.97075 29.1548 1.84523 23.0292 1.84523 15.5C1.84523 7.97075 7.97075 1.84523 15.5 1.84523C23.0292 1.84523 29.1548 7.97075 29.1548 15.5C29.1548 23.0292 23.0292 29.1548 15.5 29.1548Z" fill="white"/>
<path d="M12.147 11.4068C10.6362 9.8959 8.17782 9.89602 6.66699 11.4068C6.30668 11.7671 6.30668 12.3513 6.66699 12.7116C7.02737 13.0719 7.61159 13.0719 7.97184 12.7116C8.76331 11.9202 10.051 11.9203 10.8424 12.7116C11.0226 12.8918 11.2586 12.9819 11.4947 12.9819C11.7308 12.9819 11.967 12.8918 12.147 12.7116C12.5073 12.3513 12.5073 11.7672 12.147 11.4068Z" fill="white"/>
<path d="M24.3328 11.4068C22.822 9.89602 20.3636 9.8959 18.8528 11.4068C18.4925 11.7671 18.4925 12.3513 18.8528 12.7116C19.2132 13.0719 19.7974 13.0719 20.1576 12.7116C20.949 11.9202 22.2367 11.9202 23.0282 12.7116C23.2083 12.8918 23.4444 12.9819 23.6805 12.9819C23.9166 12.9819 24.1528 12.8918 24.3328 12.7116C24.6931 12.3513 24.6931 11.7672 24.3328 11.4068Z" fill="white"/>
<path d="M23.6805 16.1765H7.31945C6.80989 16.1765 6.39684 16.5896 6.39684 17.0991C6.39684 22.1186 10.4805 26.2023 15.5 26.2023C20.5195 26.2023 24.6032 22.1186 24.6032 17.0991C24.6032 16.5896 24.1901 16.1765 23.6805 16.1765ZM15.5 24.3571C11.8104 24.3571 8.75495 21.5899 8.30043 18.0217H22.6996C22.245 21.5899 19.1896 24.3571 15.5 24.3571Z" fill="white"/>
</svg>
