<svg width="36" height="36" viewBox="0 0 36 36" fill="none" xmlns="http://www.w3.org/2000/svg">
<g clip-path="url(#clip0_82_2499)">
<path d="M10.5292 16.006C10.5292 15.4695 10.0927 15.0329 9.55602 15.0329H8.19585C7.65921 15.0329 7.22266 15.4695 7.22266 16.006V17.119C7.22266 17.6556 7.65921 18.0922 8.19585 18.0922H9.55602C10.0927 18.0922 10.5292 17.6556 10.5292 17.119V16.006ZM9.47423 17.0372H8.27765V16.0878H9.47423V17.0372Z" fill="#E94F1D"/>
<path d="M5.97544 16.006C5.97544 15.4695 5.53888 15.0329 5.00224 15.0329H3.64214C3.1055 15.0329 2.66895 15.4695 2.66895 16.006V17.119C2.66895 17.6556 3.1055 18.0922 3.64214 18.0922H5.00224C5.53888 18.0922 5.97544 17.6556 5.97544 17.119V16.006ZM4.92044 17.0372H3.72394V16.0878H4.92044V17.0372Z" fill="#E94F1D"/>
<path d="M10.5292 20.0119C10.5292 19.4753 10.0927 19.0387 9.55602 19.0387H8.19585C7.65921 19.0387 7.22266 19.4753 7.22266 20.0119V21.1249C7.22266 21.6614 7.65921 22.098 8.19585 22.098H9.55602C10.0927 22.098 10.5292 21.6614 10.5292 21.1249V20.0119ZM9.47423 21.0431H8.27765V20.0937H9.47423V21.0431Z" fill="#E94F1D"/>
<path d="M5.97544 20.0119C5.97544 19.4753 5.53888 19.0387 5.00224 19.0387H3.64214C3.1055 19.0387 2.66895 19.4753 2.66895 20.0119V21.1249C2.66895 21.6614 3.1055 22.098 3.64214 22.098H5.00224C5.53888 22.098 5.97544 21.6614 5.97544 21.1249V20.0119ZM4.92044 21.0431H3.72394V20.0937H4.92044V21.0431Z" fill="#E94F1D"/>
<path d="M9.55602 23.0447H8.19585C7.65921 23.0447 7.22266 23.4812 7.22266 24.0179V25.1308C7.22266 25.6674 7.65921 26.104 8.19585 26.104H9.55602C10.0927 26.104 10.5292 25.6674 10.5292 25.1308V24.0179C10.5291 23.4812 10.0926 23.0447 9.55602 23.0447ZM9.47416 25.0489H8.27758V24.0996H9.47416V25.0489Z" fill="#E94F1D"/>
<path d="M5.00224 23.0447H3.64214C3.1055 23.0447 2.66895 23.4812 2.66895 24.0179V25.1308C2.66895 25.6674 3.1055 26.104 3.64214 26.104H5.00224C5.53888 26.104 5.97544 25.6674 5.97544 25.1308V24.0179C5.97544 23.4812 5.53888 23.0447 5.00224 23.0447ZM4.92044 25.0489H3.72394V24.0996H4.92044V25.0489Z" fill="#E94F1D"/>
<path d="M12.7496 26.1039H14.1097C14.6463 26.1039 15.0829 25.6674 15.0829 25.1307V24.0178C15.0829 23.4812 14.6463 23.0446 14.1097 23.0446H12.7496C12.2129 23.0446 11.7764 23.4812 11.7764 24.0178V25.1307C11.7764 25.6674 12.2129 26.1039 12.7496 26.1039ZM12.8314 24.0997H14.0279V25.049H12.8314V24.0997Z" fill="#E94F1D"/>
<path d="M35.3714 31.4064L34.5255 29.9272L35.0701 24.5293C35.346 21.7945 34.2558 19.1043 32.1539 17.333L27.7169 13.5942L23.0883 5.50102C22.7949 4.98794 22.3191 4.61982 21.7489 4.46453C21.1785 4.3093 20.5818 4.38526 20.0688 4.67876L17.1928 6.32357V2.95933C17.1928 1.32753 15.8653 0 14.2336 0H3.51841C1.88662 0 0.559082 1.32753 0.559082 2.95933V25.3888C0.559082 26.9185 1.72577 28.1809 3.21605 28.3328V34.4159C3.21605 34.6611 3.33977 34.8859 3.54704 35.0171C3.75438 35.1483 4.01053 35.1639 4.23215 35.059L5.38737 34.5121L6.87878 35.1584C6.96881 35.1974 7.06509 35.2168 7.16145 35.2168C7.26146 35.2168 7.36148 35.1959 7.45446 35.1539L8.87982 34.5101L10.3637 35.1568C10.5522 35.2389 10.7669 35.2357 10.9527 35.1476L12.2904 34.5139L13.5331 35.0716C13.7542 35.1708 14.0076 35.1514 14.2111 35.0197C14.4145 34.888 14.5359 34.6647 14.5359 34.4224V28.3328C16.0262 28.1809 17.1929 26.9185 17.1929 25.3888V23.6402L17.8433 24.7773C17.9137 24.9004 17.9948 25.015 18.085 25.1204L17.859 26.2512C17.7624 26.7343 17.8598 27.2259 18.133 27.6357C18.4063 28.0455 18.8228 28.3244 19.3058 28.4209C19.4275 28.4453 19.5497 28.4573 19.671 28.4573C20.0313 28.4573 20.3837 28.3513 20.6903 28.1469C20.6956 28.1433 20.7007 28.1395 20.706 28.1359C20.9674 28.5365 21.3828 28.8362 21.8878 28.9371C22.0078 28.9611 22.1281 28.9727 22.2473 28.9727C22.5532 28.9727 22.8514 28.8955 23.1164 28.7538C23.7822 30.7196 24.9634 32.5 26.5532 33.8745L26.924 34.1952L27.8042 35.7342C27.9017 35.9045 28.0796 35.9999 28.2626 35.9999C28.3514 35.9999 28.4414 35.9775 28.524 35.9302C28.7769 35.7856 28.8647 35.4634 28.7201 35.2104L27.7952 33.5932C27.7656 33.5414 27.7274 33.4951 27.6823 33.4561L27.2433 33.0765C25.041 31.1723 23.7 28.4123 23.5643 25.5041L23.3807 21.5713C23.3691 21.322 23.2975 21.0757 23.1735 20.8589L21.3708 17.7068C21.2381 17.4749 21.2037 17.2053 21.274 16.9475C21.3442 16.6897 21.5106 16.4747 21.7425 16.3421C21.9744 16.2095 22.2439 16.175 22.5018 16.2454C22.7596 16.3156 22.9746 16.4819 23.1072 16.7138L24.1145 18.4751C24.2592 18.728 24.5814 18.8157 24.8342 18.6711C25.0871 18.5265 25.1749 18.2042 25.0303 17.9514L24.0231 16.1901C23.7505 15.7136 23.3088 15.3717 22.7791 15.2274C22.2494 15.0833 21.6953 15.1539 21.2188 15.4264C20.2351 15.989 19.8925 17.247 20.4551 18.2307L22.2578 21.3827C22.2991 21.4551 22.3231 21.5373 22.3269 21.6205L22.4146 23.4969L20.339 24.6839C20.0706 24.8375 19.7584 24.8773 19.46 24.796C19.1616 24.7147 18.9127 24.5221 18.7591 24.2536L14.6099 16.9988C14.4652 16.7459 14.1429 16.658 13.8901 16.8028C13.6373 16.9474 13.5495 17.2696 13.6941 17.5225L14.6587 19.2091C14.5023 19.1018 14.3133 19.0388 14.1098 19.0388H12.7497C12.213 19.0388 11.7765 19.4753 11.7765 20.012V21.1249C11.7765 21.6615 12.213 22.0981 12.7497 22.0981H14.1098C14.6464 22.0981 15.083 21.6615 15.083 21.1249V20.012C15.083 19.9894 15.0811 19.9672 15.0796 19.945L16.138 21.7956V25.3889C16.138 26.4389 15.2837 27.2932 14.2337 27.2932H3.51841C2.46834 27.2932 1.61408 26.4389 1.61408 25.3889V2.95933C1.61408 1.90926 2.46834 1.05499 3.51841 1.05499H14.2336C15.2836 1.05499 16.1378 1.90926 16.1378 2.95933V6.92695L15.0828 7.53034V4.83616C15.0828 4.36789 14.7018 3.98689 14.2336 3.98689H3.51841C3.05007 3.98689 2.66907 4.36789 2.66907 4.83624V7.08745C2.66907 7.37877 2.90525 7.61495 3.19657 7.61495C3.48789 7.61495 3.72407 7.37877 3.72407 7.08745V5.04189H14.0278V8.13365L11.651 9.49305C10.6883 10.0436 10.296 11.2129 10.6875 12.2168H3.72407V9.33543C3.72407 9.04412 3.48789 8.80794 3.19657 8.80794C2.90525 8.80794 2.66907 9.04412 2.66907 9.33543V12.4224C2.66907 12.8908 3.05007 13.2718 3.51841 13.2718H11.2629L12.578 15.5712C12.7227 15.824 13.0449 15.9118 13.2978 15.7672C13.5507 15.6226 13.6384 15.3003 13.4938 15.0474L11.7446 11.9889C11.4276 11.4347 11.6206 10.7258 12.1749 10.4089L20.5927 5.59464C20.8611 5.4411 21.1733 5.40122 21.4717 5.48259C21.7701 5.56383 22.019 5.75647 22.1725 6.02493L29.187 18.2898C29.3405 18.5583 29.3803 18.8705 29.2991 19.1689C29.2178 19.4673 29.0252 19.7162 28.7568 19.8697L26.7754 21.0028L26.1462 19.9027C26.0015 19.6498 25.6792 19.5621 25.4264 19.7067C25.1736 19.8513 25.0858 20.1735 25.2304 20.4264L26.6535 22.9146C26.7509 23.0849 26.9288 23.1803 27.1118 23.1803C27.2007 23.1803 27.2906 23.1579 27.3732 23.1106C27.6261 22.966 27.7139 22.6438 27.5693 22.3909L27.2992 21.9186L29.2805 20.7855C29.7936 20.4921 30.1617 20.0163 30.317 19.4461C30.4723 18.8758 30.3962 18.2791 30.1028 17.766L29.24 16.2574L31.474 18.1399C33.3094 19.6865 34.2614 22.0356 34.0205 24.4235L33.459 29.9896C33.4479 30.099 33.4713 30.2091 33.5259 30.3045L34.4558 31.9304C34.5532 32.1007 34.7311 32.1961 34.9141 32.1961C35.003 32.1961 35.0929 32.1737 35.1756 32.1264C35.4284 31.9816 35.5161 31.6593 35.3714 31.4064ZM22.5104 25.5534C22.5441 26.2743 22.6457 26.9868 22.8098 27.6822C22.6261 27.8683 22.3579 27.9552 22.0946 27.9026C21.668 27.8174 21.3902 27.4009 21.4755 26.9742L21.8648 25.0266L22.4696 24.6807L22.5104 25.5534ZM19.7677 25.8927C20.0715 25.8927 20.372 25.8284 20.6535 25.7042L20.4409 26.7674C20.3997 26.974 20.2803 27.1523 20.105 27.2692C19.9296 27.3862 19.7192 27.4278 19.5126 27.3865C19.3059 27.3452 19.1277 27.2258 19.0107 27.0505C18.8938 26.8751 18.8521 26.6648 18.8935 26.4581L19.0318 25.7663C19.0813 25.7836 19.1315 25.7999 19.1827 25.8139C19.376 25.8666 19.5725 25.8927 19.7677 25.8927ZM14.0278 21.0431H12.8313V20.0937H14.0278V21.0431ZM13.4809 33.8918L12.5777 33.4865C12.3875 33.4013 12.1704 33.4034 11.9818 33.4927L10.6422 34.1273L9.16158 33.4821C8.97773 33.4019 8.76736 33.4033 8.58436 33.4859L7.15864 34.1299L5.66413 33.4823C5.57375 33.4431 5.47747 33.4236 5.38111 33.4236C5.27702 33.4236 5.17293 33.4464 5.07657 33.492L4.27098 33.8734V28.3481H13.4809V33.8918Z" fill="#E94F1D"/>
<path d="M20.8049 9.5387C20.8815 9.25758 20.7157 8.96767 20.4346 8.89114C19.3959 8.60833 18.3092 8.74682 17.3747 9.28128C16.4402 9.81574 15.7698 10.6821 15.4869 11.7208C15.4104 12.002 15.5762 12.2919 15.8573 12.3684C15.9037 12.3811 15.9503 12.3871 15.9962 12.3871C16.2282 12.3871 16.4409 12.2328 16.5048 11.9981C16.7137 11.2313 17.2086 10.5917 17.8984 10.1972C18.5883 9.80259 19.3905 9.70032 20.1574 9.90914C20.4384 9.9856 20.7284 9.81975 20.8049 9.5387Z" fill="#E94F1D"/>
<path d="M19.6029 11.9455C19.8838 12.0219 20.1738 11.8562 20.2505 11.5752C20.3271 11.2941 20.1612 11.0042 19.8802 10.9276C19.385 10.7927 18.8673 10.8584 18.4224 11.1128C17.9776 11.3671 17.6584 11.7799 17.5235 12.2753C17.447 12.5564 17.6128 12.8463 17.8939 12.9228C17.9403 12.9355 17.987 12.9416 18.0328 12.9416C18.2649 12.9416 18.4775 12.7872 18.5415 12.5525C18.6023 12.3291 18.7461 12.1431 18.9462 12.0286C19.1463 11.9142 19.3795 11.8847 19.6029 11.9455Z" fill="#E94F1D"/>
<path d="M19.3972 13.8794C19.4946 14.0496 19.6726 14.1451 19.8556 14.1451C19.9444 14.1451 20.0344 14.1226 20.117 14.0754C20.3698 13.9308 20.4576 13.6085 20.313 13.3556L20.1378 13.0492C19.9931 12.7963 19.6709 12.7085 19.418 12.8532C19.1652 12.9978 19.0774 13.3201 19.222 13.573L19.3972 13.8794Z" fill="#E94F1D"/>
</g>
<defs>
<clipPath id="clip0_82_2499">
<rect width="36" height="36" fill="white"/>
</clipPath>
</defs>
</svg>
