<svg width="36" height="36" viewBox="0 0 36 36" fill="none" xmlns="http://www.w3.org/2000/svg">
<path d="M5.98144 31.9882C5.85073 31.8573 5.66932 31.7821 5.48439 31.7821C5.29947 31.7821 5.11806 31.8573 4.98727 31.9882C4.85649 32.119 4.78125 32.3004 4.78125 32.4853C4.78125 32.6702 4.85642 32.8516 4.98727 32.9823C5.11806 33.1131 5.29947 33.1884 5.48439 33.1884C5.66932 33.1884 5.85073 33.1132 5.98144 32.9823C6.11223 32.8516 6.18754 32.6702 6.18754 32.4853C6.18754 32.3004 6.1123 32.1189 5.98144 31.9882Z" fill="#E94F1D"/>
<path d="M33.0137 12.8631C32.883 12.7322 32.7022 12.6571 32.5166 12.6571C32.3317 12.6571 32.1503 12.7322 32.0195 12.8631C31.8888 12.9939 31.8135 13.1753 31.8135 13.3602C31.8135 13.5452 31.8887 13.7266 32.0195 13.8573C32.1503 13.9881 32.3317 14.0634 32.5166 14.0634C32.7022 14.0634 32.883 13.9881 33.0137 13.8573C33.1452 13.7266 33.2204 13.5452 33.2204 13.3602C33.2204 13.1753 33.1452 12.9939 33.0137 12.8631Z" fill="#E94F1D"/>
<path d="M35.7941 0.205951C35.6621 0.0741113 35.4833 0 35.2967 0L17.9998 0.000914086C17.6115 0.000914086 17.2968 0.315781 17.2968 0.704057V2.71483L10.6317 4.50075C10.2566 4.6013 10.034 4.98683 10.1345 5.36189L13.5889 18.2534L10.6006 21.2417C10.2203 20.6864 9.58166 20.3212 8.85932 20.3212H2.10936C0.946219 20.3212 0 21.2675 0 22.4305V33.8915C0 35.0546 0.946219 36.0009 2.10936 36.0009H8.85939C9.84752 36.0009 10.6788 35.3177 10.9066 34.3992L11.7426 35.1282C12.388 35.691 13.2149 36.001 14.0713 36.001H35.2969C35.6851 36.001 36 35.6861 36 35.2978V0.703143C35.9999 0.516669 35.9259 0.33779 35.7941 0.205951ZM9.56239 33.8916C9.56239 34.2792 9.24696 34.5947 8.85925 34.5947H2.10929C1.72158 34.5947 1.40615 34.2793 1.40615 33.8916V22.4306C1.40615 22.0429 1.72158 21.7275 2.10929 21.7275H4.78116V29.8273C4.78116 30.2156 5.09603 30.5305 5.4843 30.5305C5.87258 30.5305 6.18745 30.2156 6.18745 29.8273V21.7275H8.85932C9.24703 21.7275 9.56246 22.0429 9.56246 22.4306V33.8916H9.56239ZM11.6748 5.67711L17.2968 4.17069V6.77619L16.8255 6.90247C16.6453 6.95078 16.4918 7.06855 16.3986 7.23007C16.3053 7.39158 16.28 7.58347 16.3283 7.76361C16.5985 8.77199 15.998 9.81215 14.9896 10.0824C14.8092 10.1307 14.6555 10.2487 14.5623 10.4106C14.4691 10.5724 14.444 10.7646 14.4928 10.9449L17.2335 21.0939H15.8223L15.0951 18.2487C15.0719 18.1582 15.0314 18.0747 14.9772 18.0021L11.6748 5.67711ZM17.2968 10.0007V15.9339L16.0143 11.1852C16.55 10.9086 16.9884 10.4948 17.2968 10.0007ZM27.3984 34.5946H14.0712C13.5547 34.5946 13.056 34.4077 12.6667 34.0683L10.9687 32.5874V22.8625L14.0385 19.7927L14.5952 21.971C14.6748 22.2823 14.9551 22.5 15.2764 22.5L29.1005 22.5009C29.6433 22.5009 30.0849 22.9424 30.0849 23.4853C30.0849 24.0281 29.6433 24.4697 29.1005 24.4697H22.017C21.6287 24.4697 21.3139 24.7845 21.3139 25.1728C21.3139 25.5611 21.6287 25.8759 22.017 25.8759H31.3013C31.8441 25.8759 32.2857 26.3175 32.2857 26.8603C32.2857 27.4032 31.8441 27.8447 31.3013 27.8447H22.017C21.6287 27.8447 21.3139 28.1596 21.3139 28.5479C21.3139 28.9362 21.6287 29.251 22.017 29.251H29.7968C30.3396 29.251 30.7812 29.6926 30.7812 30.2354C30.7812 30.7783 30.3396 31.2198 29.7968 31.2198H22.017C21.6287 31.2198 21.3139 31.5347 21.3139 31.923C21.3139 32.3112 21.6287 32.6261 22.017 32.6261H27.3984C27.9412 32.6261 28.3828 33.0677 28.3828 33.6105C28.3827 34.1531 27.9411 34.5946 27.3984 34.5946ZM34.5937 34.5946H34.5936H29.5761C29.7124 34.2942 29.789 33.9611 29.789 33.6102C29.789 33.2594 29.7124 32.9263 29.5761 32.6258H29.7968C31.115 32.6258 32.1874 31.5534 32.1874 30.2352C32.1874 29.8507 32.0957 29.4874 31.9337 29.1652C32.9459 28.8872 33.6919 27.9594 33.6919 26.8602C33.6919 26.3269 33.5162 25.834 33.22 25.436V16.5244C33.22 16.1361 32.9051 15.8212 32.5168 15.8212C32.1286 15.8212 31.8137 16.1361 31.8137 16.5244V24.5256C31.6485 24.4893 31.4771 24.4697 31.3012 24.4697H31.2781C31.4145 24.1692 31.491 23.8361 31.491 23.4853C31.491 22.167 30.4186 21.0946 29.1004 21.0946H27.9701C29.1703 20.5799 30.0132 19.387 30.0132 18.0005C30.0132 16.1449 28.5037 14.6354 26.6482 14.6354C24.7927 14.6354 23.2832 16.1449 23.2832 18.0005C23.2832 19.387 24.1262 20.5799 25.3263 21.0946H21.4827V7.72494C22.7388 7.45121 23.7299 6.46013 24.0036 5.20396H29.2927C29.5664 6.46013 30.5575 7.45121 31.8136 7.72494V9.91101C31.8136 10.2993 32.1285 10.6142 32.5168 10.6142C32.905 10.6142 33.2199 10.2993 33.2199 9.91101V7.09717C33.2199 6.7089 32.905 6.39403 32.5168 6.39403C31.4728 6.39403 30.6236 5.5447 30.6236 4.50082C30.6236 4.11254 30.3088 3.79767 29.9205 3.79767H23.3759C22.9876 3.79767 22.6728 4.11254 22.6728 4.50082C22.6728 5.54477 21.8235 6.39403 20.7796 6.39403C20.3914 6.39403 20.0765 6.7089 20.0765 7.09717V21.0946H18.7031V1.40706L34.5937 1.40629V34.5946ZM26.6483 19.9593C25.5682 19.9593 24.6896 19.0806 24.6896 18.0005C24.6896 16.9205 25.5683 16.0417 26.6483 16.0417C27.7284 16.0417 28.6071 16.9204 28.6071 18.0005C28.6071 19.0805 27.7284 19.9593 26.6483 19.9593Z" fill="#E94F1D"/>
</svg>
