<svg width="36" height="36" viewBox="0 0 36 36" fill="none" xmlns="http://www.w3.org/2000/svg">
<path d="M33.4799 20.1753L32.5476 16.4463C32.8025 16.3922 32.9937 16.166 32.9937 15.8951V15.2939C32.9937 13.9885 31.9317 12.9265 30.6263 12.9265H26.38V11.6864C26.38 11.044 25.8574 10.5214 25.2151 10.5214H17.3194L22.1175 8.60218C22.4066 8.48659 22.5471 8.15851 22.4315 7.86945C22.3159 7.58047 21.9881 7.43977 21.6988 7.55544L17.7702 9.12685C18.9673 8.35876 20.1517 7.51339 20.6026 6.9222C21.4805 5.77126 21.2581 4.12074 20.1072 3.24289C18.9563 2.36497 17.3057 2.58737 16.4279 3.73831C15.7865 4.57939 14.9402 6.94267 14.3925 8.60802C13.8447 6.94281 12.9985 4.57939 12.3571 3.73831C11.4793 2.58737 9.8287 2.36511 8.67776 3.24289C7.52681 4.12067 7.30456 5.77119 8.18234 6.9222C8.63325 7.51346 9.81759 8.35876 11.0148 9.12685L7.08616 7.55544C6.79697 7.43963 6.46903 7.5804 6.35344 7.86945C6.23777 8.15851 6.3784 8.48659 6.66745 8.60218L11.4656 10.5214H3.56991C2.92753 10.5214 2.40497 11.044 2.40497 11.6864V21.9077C2.40497 22.219 2.65732 22.4714 2.96866 22.4714C3.27994 22.4714 3.53236 22.219 3.53236 21.9077V11.6864C3.53236 11.6656 3.54916 11.6488 3.56991 11.6488H25.215C25.2357 11.6488 25.2525 11.6656 25.2525 11.6864V21.9078C25.2525 22.2191 25.5049 22.4715 25.8162 22.4715C26.1275 22.4715 26.3799 22.2192 26.3799 21.9078V21.2688H33.0291C33.0297 21.2688 33.0302 21.269 33.0308 21.269C33.0315 21.269 33.032 21.2689 33.0327 21.2689C33.8508 21.2695 34.5455 21.8066 34.784 22.5466H33.0313C32.72 22.5466 32.4676 22.7989 32.4676 23.1102V24.3127C32.4676 25.2866 33.2599 26.0789 34.2338 26.0789H34.8726V28.559H33.3987C32.9146 27.1611 31.5856 26.154 30.025 26.154C28.4644 26.154 27.1354 27.161 26.6513 28.559H26.3798V24.3127C26.3798 24.0014 26.1275 23.749 25.8162 23.749C25.5049 23.749 25.2525 24.0013 25.2525 24.3127V28.559H13.5574C13.0733 27.161 11.7443 26.1539 10.1837 26.1539C8.62313 26.1539 7.29408 27.161 6.80998 28.559H3.56991C3.54916 28.559 3.53236 28.5422 3.53236 28.5214V27.2813H5.97495C6.28622 27.2813 6.53864 27.029 6.53864 26.7176C6.53864 26.4063 6.28629 26.1539 5.97495 26.1539H0.563695C0.252422 26.1539 0 26.4063 0 26.7176C0 27.029 0.252352 27.2813 0.563695 27.2813H2.40504V28.5214C2.40504 29.1638 2.9276 29.6864 3.56998 29.6864H6.61479C6.61465 29.6989 6.61381 29.7113 6.61381 29.7239C6.61381 31.6923 8.21531 33.2938 10.1837 33.2938C12.1521 33.2938 13.7536 31.6923 13.7536 29.7239C13.7536 29.7113 13.7528 29.6989 13.7526 29.6864H26.456C26.4559 29.6989 26.455 29.7113 26.455 29.7239C26.455 31.6923 28.0565 33.2938 30.0249 33.2938C31.9933 33.2938 33.5948 31.6923 33.5948 29.7239C33.5948 29.7113 33.594 29.6989 33.5938 29.6864H35.4362C35.7475 29.6864 35.9999 29.434 35.9999 29.1227V23.1102C36 21.6256 34.9047 20.3922 33.4799 20.1753ZM12.157 8.51197C9.93354 7.13026 9.27401 6.49456 9.07875 6.23849C8.57791 5.58184 8.70476 4.64014 9.36148 4.13931C9.63218 3.93287 9.95126 3.83309 10.268 3.83309C10.7196 3.83309 11.1663 4.03602 11.4607 4.42203C12.006 5.13697 12.8599 7.54327 13.4237 9.27725C13.0433 9.05323 12.6059 8.79104 12.157 8.51197ZM15.3614 9.27718C15.9252 7.54327 16.7791 5.13704 17.3243 4.42196C17.8251 3.76531 18.7668 3.63854 19.4235 4.13931C20.0802 4.64014 20.207 5.58184 19.7062 6.23849C19.5109 6.49449 18.8514 7.13026 16.6281 8.5119C16.1793 8.7909 15.7419 9.05317 15.3614 9.27718ZM26.38 14.0537H30.6263C31.3101 14.0537 31.8664 14.61 31.8664 15.2938V15.3314H26.38V14.0537ZM26.38 20.1414V16.4588H31.3887L32.3094 20.1414H26.38ZM10.1837 32.1665C8.83688 32.1665 7.74113 31.0708 7.74113 29.7239C7.74113 28.3771 8.83688 27.2813 10.1837 27.2813C11.5305 27.2813 12.6263 28.3771 12.6263 29.7239C12.6263 31.0708 11.5305 32.1665 10.1837 32.1665ZM30.0251 32.1665C28.6782 32.1665 27.5825 31.0708 27.5825 29.7239C27.5825 28.3771 28.6782 27.2813 30.0251 27.2813C31.3719 27.2813 32.4676 28.3771 32.4676 29.7239C32.4676 31.0708 31.3719 32.1665 30.0251 32.1665ZM34.8727 24.9515H34.2338C33.8816 24.9515 33.595 24.6649 33.595 24.3126V23.6737H34.8726V24.9515H34.8727Z" fill="#E94F1D"/>
<path d="M10.1835 28.559C9.54112 28.559 9.01855 29.0816 9.01855 29.7239C9.01855 30.3663 9.54112 30.8889 10.1835 30.8889C10.8259 30.8889 11.3484 30.3663 11.3484 29.7239C11.3484 29.0816 10.8259 28.559 10.1835 28.559Z" fill="#E94F1D"/>
<path d="M30.0253 28.559C29.3829 28.559 28.8604 29.0816 28.8604 29.7239C28.8604 30.3663 29.3829 30.8889 30.0253 30.8889C30.6677 30.8889 31.1902 30.3663 31.1902 29.7239C31.1902 29.0816 30.6677 28.559 30.0253 28.559Z" fill="#E94F1D"/>
<path d="M23.4114 26.1539H14.9939C14.6826 26.1539 14.4302 26.4063 14.4302 26.7176C14.4302 27.029 14.6825 27.2813 14.9939 27.2813H23.4114C23.7227 27.2813 23.9751 27.029 23.9751 26.7176C23.9751 26.4063 23.7227 26.1539 23.4114 26.1539Z" fill="#E94F1D"/>
<path d="M8.98138 23.749H1.76633C1.45506 23.749 1.20264 24.0013 1.20264 24.3127C1.20264 24.624 1.45499 24.8764 1.76633 24.8764H8.98138C9.29265 24.8764 9.54507 24.624 9.54507 24.3127C9.54507 24.0013 9.29265 23.749 8.98138 23.749Z" fill="#E94F1D"/>
<path d="M8.98143 15.3314H6.57639C6.26512 15.3314 6.0127 15.5837 6.0127 15.8951V20.7051C6.0127 21.0163 6.26505 21.2688 6.57639 21.2688C6.88773 21.2688 7.14009 21.0164 7.14009 20.7051V18.8637H8.38019C8.69146 18.8637 8.94388 18.6114 8.94388 18.3C8.94388 17.9887 8.69153 17.7363 8.38019 17.7363H7.14009V16.4588H8.98143C9.2927 16.4588 9.54512 16.2064 9.54512 15.8951C9.54505 15.5838 9.2927 15.3314 8.98143 15.3314Z" fill="#E94F1D"/>
<path d="M13.4171 19.128C13.9812 18.7585 14.3549 18.1214 14.3549 17.3982C14.3549 16.2585 13.4277 15.3314 12.288 15.3314H10.7849C10.4736 15.3314 10.2212 15.5837 10.2212 15.8951V20.7051C10.2212 21.0163 10.4735 21.2688 10.7849 21.2688C11.0962 21.2688 11.3486 21.0164 11.3486 20.7051V19.465H12.287L13.3221 21.0177C13.4307 21.1806 13.6094 21.2688 13.7916 21.2688C13.8991 21.2688 14.0077 21.2381 14.1037 21.174C14.3628 21.0014 14.4328 20.6513 14.26 20.3924L13.4171 19.128ZM12.288 18.3376H11.3486V16.4588H12.288C12.8061 16.4588 13.2275 16.8801 13.2275 17.3982C13.2275 17.9163 12.8061 18.3376 12.288 18.3376Z" fill="#E94F1D"/>
<path d="M18 20.1414H16.1586V18.8619C16.1711 18.8627 16.1835 18.8638 16.1962 18.8638H17.3987C17.7099 18.8638 17.9624 18.6114 17.9624 18.3001C17.9624 17.9888 17.71 17.7364 17.3987 17.7364H16.1962C16.1835 17.7364 16.1711 17.7375 16.1586 17.7383V16.4588H18C18.3113 16.4588 18.5637 16.2064 18.5637 15.8951C18.5637 15.5838 18.3113 15.3314 18 15.3314H15.5949C15.2837 15.3314 15.0312 15.5837 15.0312 15.8951V20.7051C15.0312 21.0163 15.2836 21.2688 15.5949 21.2688H18C18.3113 21.2688 18.5637 21.0164 18.5637 20.7051C18.5637 20.3937 18.3113 20.1414 18 20.1414Z" fill="#E94F1D"/>
<path d="M22.209 20.1414H20.3676V18.8638H21.0065C21.3178 18.8638 21.5702 18.6114 21.5702 18.3001C21.5702 17.9888 21.3178 17.7364 21.0065 17.7364H20.3676V16.4588H22.209C22.5202 16.4588 22.7727 16.2064 22.7727 15.8951C22.7727 15.5838 22.5203 15.3314 22.209 15.3314H19.8039C19.4927 15.3314 19.2402 15.5837 19.2402 15.8951V20.7051C19.2402 21.0163 19.4926 21.2688 19.8039 21.2688H22.209C22.5202 21.2688 22.7727 21.0164 22.7727 20.7051C22.7727 20.3937 22.5202 20.1414 22.209 20.1414Z" fill="#E94F1D"/>
</svg>
