<svg width="36" height="36" viewBox="0 0 36 36" fill="none" xmlns="http://www.w3.org/2000/svg">
<path d="M33.4799 16.2677L32.5476 12.5387C32.8025 12.4846 32.9937 12.2584 32.9937 11.9875V11.3863C32.9937 10.0808 31.9316 9.01885 30.6263 9.01885H26.38V7.77868C26.38 7.1363 25.8574 6.61374 25.215 6.61374H3.56991C2.92753 6.61374 2.40497 7.1363 2.40497 7.77868V18C2.40497 18.3113 2.65732 18.5637 2.96866 18.5637C3.27994 18.5637 3.53236 18.3113 3.53236 18V7.77868C3.53236 7.75793 3.54916 7.74113 3.56991 7.74113H25.215C25.2357 7.74113 25.2525 7.75793 25.2525 7.77868V18.0001C25.2525 18.3114 25.5049 18.5638 25.8162 18.5638C26.1275 18.5638 26.3799 18.3115 26.3799 18.0001V17.3611H33.0293C33.0299 17.3611 33.0303 17.3613 33.0308 17.3613C33.0313 17.3613 33.0318 17.3612 33.0323 17.3612C33.8505 17.3618 34.5453 17.8988 34.7839 18.6389H33.0312C32.7199 18.6389 32.4675 18.8912 32.4675 19.2026V20.405C32.4675 21.3789 33.2598 22.1712 34.2337 22.1712H34.8725V24.6514H33.3986C32.9145 23.2533 31.5855 22.2463 30.0249 22.2463C28.4643 22.2463 27.1353 23.2533 26.6512 24.6514H26.3798V20.405C26.3798 20.0937 26.1274 19.8413 25.8161 19.8413C25.5048 19.8413 25.2524 20.0936 25.2524 20.405V24.6512H13.5574C13.0733 23.2532 11.7443 22.2462 10.1837 22.2462C8.62313 22.2462 7.29408 23.2532 6.80998 24.6512H3.56991C3.54916 24.6512 3.53236 24.6344 3.53236 24.6137V23.3736H5.97495C6.28622 23.3736 6.53864 23.1212 6.53864 22.8099C6.53864 22.4985 6.28629 22.2462 5.97495 22.2462H0.563695C0.252422 22.2462 0 22.4985 0 22.8099C0 23.1212 0.252352 23.3736 0.563695 23.3736H2.40504V24.6137C2.40504 25.256 2.9276 25.7786 3.56998 25.7786H6.61479C6.61465 25.7911 6.6138 25.8036 6.6138 25.8162C6.6138 27.7846 8.21531 29.3861 10.1837 29.3861C12.1521 29.3861 13.7536 27.7846 13.7536 25.8162C13.7536 25.8035 13.7528 25.7911 13.7526 25.7786H26.456C26.4559 25.7911 26.455 25.8036 26.455 25.8162C26.455 27.7846 28.0565 29.3861 30.0249 29.3861C31.9933 29.3861 33.5948 27.7846 33.5948 25.8162C33.5948 25.8035 33.594 25.7911 33.5938 25.7786H35.4362C35.7475 25.7786 35.9999 25.5263 35.9999 25.2149V19.2024C36 17.718 34.9047 16.4846 33.4799 16.2677ZM26.38 10.1462H30.6263C31.3101 10.1462 31.8664 10.7025 31.8664 11.3863V11.4238H26.38V10.1462ZM26.38 16.2338V12.5511H31.3887L32.3094 16.2338H26.38ZM10.1837 28.2589C8.83687 28.2589 7.74113 27.1632 7.74113 25.8163C7.74113 24.4694 8.83687 23.3737 10.1837 23.3737C11.5305 23.3737 12.6263 24.4694 12.6263 25.8163C12.6263 27.1632 11.5305 28.2589 10.1837 28.2589ZM30.0251 28.2589C28.6782 28.2589 27.5825 27.1632 27.5825 25.8163C27.5825 24.4694 28.6782 23.3737 30.0251 23.3737C31.3719 23.3737 32.4676 24.4694 32.4676 25.8163C32.4676 27.1632 31.3719 28.2589 30.0251 28.2589ZM34.8727 21.0438H34.2338C33.8816 21.0438 33.595 20.7572 33.595 20.405V19.7661H34.8726V21.0438H34.8727Z" fill="#E94F1D"/>
<path d="M10.1835 24.6514C9.54112 24.6514 9.01855 25.1739 9.01855 25.8163C9.01855 26.4587 9.54112 26.9812 10.1835 26.9812C10.8259 26.9812 11.3484 26.4587 11.3484 25.8163C11.3484 25.1739 10.8259 24.6514 10.1835 24.6514Z" fill="#E94F1D"/>
<path d="M30.0253 24.6514C29.3829 24.6514 28.8604 25.1739 28.8604 25.8163C28.8604 26.4587 29.3829 26.9812 30.0253 26.9812C30.6677 26.9812 31.1902 26.4587 31.1902 25.8163C31.1902 25.1739 30.6677 24.6514 30.0253 24.6514Z" fill="#E94F1D"/>
<path d="M23.4109 22.2464H14.9934C14.6821 22.2464 14.4297 22.4988 14.4297 22.8101C14.4297 23.1214 14.682 23.3738 14.9934 23.3738H23.4109C23.7222 23.3738 23.9746 23.1214 23.9746 22.8101C23.9746 22.4988 23.7223 22.2464 23.4109 22.2464Z" fill="#E94F1D"/>
<path d="M8.98089 19.8413H1.76584C1.45457 19.8413 1.20215 20.0937 1.20215 20.405C1.20215 20.7164 1.4545 20.9687 1.76584 20.9687H8.98089C9.29216 20.9687 9.54459 20.7164 9.54459 20.405C9.54459 20.0937 9.29216 19.8413 8.98089 19.8413Z" fill="#E94F1D"/>
<path d="M19.6015 12.1901C19.3814 11.97 19.0244 11.97 18.8043 12.1901L13.7916 17.2028L11.1839 14.5951C10.9638 14.375 10.6069 14.375 10.3868 14.5951C10.1666 14.8153 10.1666 15.1721 10.3868 15.3922L13.3931 18.3985C13.5031 18.5086 13.6474 18.5636 13.7916 18.5636C13.9358 18.5636 14.0802 18.5086 14.1901 18.3985L19.6014 12.9873C19.8215 12.7671 19.8215 12.4102 19.6015 12.1901Z" fill="#E94F1D"/>
</svg>
