<svg width="35" height="37" viewBox="0 0 35 37" fill="none" xmlns="http://www.w3.org/2000/svg">
<path d="M34.2921 19.4699H30.0871C29.9581 17.7703 28.7252 16.3797 27.1168 16.0371V8.8623C27.1168 8.46317 26.7998 8.13964 26.4089 8.13964H22.0472V6.34861C22.0471 2.84792 19.2439 0 15.7981 0C15.0092 0 14.254 0.149301 13.5584 0.421525C12.8628 0.149301 12.1075 0 11.3186 0C7.87284 0 5.06961 2.84792 5.06961 6.34861V8.13964H0.707869C0.316913 8.13964 0 8.46317 0 8.8623V33.5727C0 35.4625 1.50818 37 3.36195 37H31.5212C33.4394 37 35 35.4068 35 33.4486V20.1925C35 19.7934 34.683 19.4699 34.2921 19.4699ZM28.6644 19.4699H24.0256C24.1696 18.3054 25.1548 17.4015 26.345 17.4015C27.5351 17.4015 28.5203 18.3054 28.6644 19.4699ZM25.7009 9.58495V16.0123C24.0304 16.3066 22.7351 17.7256 22.6028 19.4699H18.4197C18.0288 19.4699 17.7118 19.7935 17.7118 20.1925V33.4487C17.7118 34.2364 17.9644 34.9651 18.3911 35.5548H5.77741V9.58495H9.54908V13.2912C9.54908 13.6903 9.86606 14.0138 10.2569 14.0138C10.6479 14.0138 10.9648 13.6903 10.9648 13.2912V9.58495H20.6314V13.2912C20.6314 13.6903 20.9484 14.0138 21.3393 14.0138C21.7302 14.0138 22.0471 13.6903 22.0471 13.2912V9.58495H25.7009ZM13.5584 2.00429C15.0988 2.82494 16.1519 4.46435 16.1519 6.34861V8.13964H10.9649V6.34861C10.9649 4.46435 12.0179 2.82494 13.5584 2.00429ZM15.7981 1.44531C18.4632 1.44531 20.6314 3.64493 20.6314 6.34861V8.13964H17.5676V6.34861C17.5676 4.38978 16.6898 2.63531 15.313 1.46988C15.4726 1.45362 15.6344 1.44531 15.7981 1.44531ZM11.3186 1.44531C11.4823 1.44531 11.6442 1.45362 11.8038 1.46981C10.4269 2.63531 9.54915 4.3897 9.54915 6.34854V8.13957H6.48535V6.34861C6.48528 3.64493 8.65348 1.44531 11.3186 1.44531ZM1.41574 33.5727V9.58495H4.36167V35.5547H3.36195C2.28882 35.5547 1.41574 34.6656 1.41574 33.5727ZM33.5843 33.4486C33.5843 34.6098 32.6588 35.5547 31.5212 35.5547H21.1905C20.053 35.5547 19.1275 34.6099 19.1275 33.4486V20.9152H22.5917V23.7711C22.5917 24.1702 22.9087 24.4938 23.2996 24.4938C23.6905 24.4938 24.0074 24.1702 24.0074 23.7711V20.9152H28.6826V23.7711C28.6826 24.1702 28.9995 24.4938 29.3904 24.4938C29.7813 24.4938 30.0983 24.1702 30.0983 23.7711V20.9152H33.5843V33.4486Z" fill="#E94F1D"/>
</svg>
