<svg width="47" height="47" viewBox="0 0 47 47" fill="none" xmlns="http://www.w3.org/2000/svg">
<path d="M43.7098 21.2384L42.4927 16.3699C42.8254 16.2993 43.0751 16.004 43.0751 15.6503V14.8654C43.0751 13.1611 41.6885 11.7746 39.9843 11.7746H34.4405V10.1555C34.4405 9.31682 33.7583 8.63458 32.9196 8.63458H4.66071C3.82205 8.63458 3.13982 9.31682 3.13982 10.1555V23.5C3.13982 23.9064 3.46928 24.2359 3.87576 24.2359C4.28214 24.2359 4.61169 23.9065 4.61169 23.5V10.1555C4.61169 10.1284 4.63363 10.1065 4.66071 10.1065H32.9196C32.9466 10.1065 32.9686 10.1284 32.9686 10.1555V23.5002C32.9686 23.9066 33.298 24.2361 33.7045 24.2361C34.1109 24.2361 34.4404 23.9066 34.4404 23.5002V22.6659H43.1216C43.1223 22.6659 43.1229 22.6661 43.1235 22.6661C43.1242 22.6661 43.1249 22.666 43.1255 22.666C44.1938 22.6667 45.1008 23.3679 45.4124 24.3341H43.1241C42.7177 24.3341 42.3881 24.6635 42.3881 25.07V26.6399C42.3881 27.9114 43.4225 28.9457 44.694 28.9457H45.528V32.1837H43.6038C42.9717 30.3585 41.2366 29.0438 39.1992 29.0438C37.1618 29.0438 35.4266 30.3585 34.7946 32.1837H34.4403V26.6398C34.4403 26.2334 34.1108 25.9039 33.7043 25.9039C33.2979 25.9039 32.9684 26.2333 32.9684 26.6398V32.1835H17.7C17.0679 30.3583 15.3328 29.0436 13.2954 29.0436C11.258 29.0436 9.52282 30.3583 8.8908 32.1835H4.66071C4.63363 32.1835 4.61169 32.1616 4.61169 32.1345V30.5155H7.80062C8.20701 30.5155 8.53656 30.186 8.53656 29.7795C8.53656 29.3731 8.2071 29.0436 7.80062 29.0436H0.735936C0.329551 29.0436 0 29.3731 0 29.7795C0 30.186 0.329459 30.5155 0.735936 30.5155H3.13991V32.1345C3.13991 32.9732 3.82215 33.6554 4.6608 33.6554H8.63597C8.63579 33.6717 8.63469 33.688 8.63469 33.7044C8.63469 36.2743 10.7255 38.3651 13.2954 38.3651C15.8653 38.3651 17.9561 36.2743 17.9561 33.7044C17.9561 33.6879 17.955 33.6717 17.9548 33.6554H34.5398C34.5396 33.6717 34.5385 33.688 34.5385 33.7044C34.5385 36.2743 36.6293 38.3651 39.1992 38.3651C41.769 38.3651 43.8599 36.2743 43.8599 33.7044C43.8599 33.6879 43.8588 33.6717 43.8586 33.6554H46.264C46.6704 33.6554 46.9999 33.3259 46.9999 32.9194V25.0698C47 23.1318 45.5701 21.5216 43.7098 21.2384ZM34.4405 13.2464H39.9843C40.8771 13.2464 41.6034 13.9727 41.6034 14.8654V14.9144H34.4405V13.2464ZM34.4405 21.1941V16.3862H40.9797L42.1817 21.1941H34.4405ZM13.2954 36.8935C11.537 36.8935 10.1065 35.4631 10.1065 33.7046C10.1065 31.9461 11.537 30.5157 13.2954 30.5157C15.0538 30.5157 16.4843 31.9461 16.4843 33.7046C16.4843 35.4631 15.0538 36.8935 13.2954 36.8935ZM39.1994 36.8935C37.441 36.8935 36.0104 35.4631 36.0104 33.7046C36.0104 31.9461 37.441 30.5157 39.1994 30.5157C40.9577 30.5157 42.3883 31.9461 42.3883 33.7046C42.3883 35.4631 40.9577 36.8935 39.1994 36.8935ZM45.5282 27.4739H44.6942C44.2342 27.4739 43.8601 27.0997 43.8601 26.6398V25.8057H45.5281V27.4739H45.5282Z" fill="#E94F1D"/>
<path d="M13.2953 32.1837C12.4566 32.1837 11.7744 32.8659 11.7744 33.7046C11.7744 34.5432 12.4566 35.2255 13.2953 35.2255C14.134 35.2255 14.8162 34.5432 14.8162 33.7046C14.8162 32.8659 14.134 32.1837 13.2953 32.1837Z" fill="#E94F1D"/>
<path d="M39.1996 32.1837C38.3609 32.1837 37.6787 32.8659 37.6787 33.7046C37.6787 34.5432 38.3609 35.2255 39.1996 35.2255C40.0383 35.2255 40.7205 34.5432 40.7205 33.7046C40.7205 32.8659 40.0383 32.1837 39.1996 32.1837Z" fill="#E94F1D"/>
<path d="M30.5644 29.0439H19.5748C19.1684 29.0439 18.8389 29.3733 18.8389 29.7798C18.8389 30.1863 19.1683 30.5158 19.5748 30.5158H30.5644C30.9707 30.5158 31.3003 30.1863 31.3003 29.7798C31.3003 29.3733 30.9708 29.0439 30.5644 29.0439Z" fill="#E94F1D"/>
<path d="M11.7259 25.904H2.30625C1.89986 25.904 1.57031 26.2334 1.57031 26.6399C1.57031 27.0464 1.89977 27.3758 2.30625 27.3758H11.7259C12.1323 27.3758 12.4618 27.0464 12.4618 26.6399C12.4618 26.2334 12.1323 25.904 11.7259 25.904Z" fill="#E94F1D"/>
<path d="M25.5905 15.9148C25.3032 15.6275 24.8372 15.6275 24.5498 15.9149L18.0055 22.4592L14.601 19.0547C14.3136 18.7673 13.8476 18.7673 13.5603 19.0547C13.2729 19.3422 13.2729 19.808 13.5603 20.0954L17.4852 24.0203C17.6288 24.1641 17.8172 24.2358 18.0055 24.2358C18.1937 24.2358 18.3822 24.1641 18.5258 24.0203L25.5905 16.9556C25.8779 16.6681 25.8779 16.2022 25.5905 15.9148Z" fill="#E94F1D"/>
</svg>
