<svg width="36" height="38" viewBox="0 0 36 38" fill="none" xmlns="http://www.w3.org/2000/svg">
<path d="M35.2719 19.9961H30.9467C30.8141 18.2506 29.5459 16.8223 27.8915 16.4706V9.10182C27.8915 8.69191 27.5655 8.35963 27.1634 8.35963H22.6771V6.52019C22.6771 2.92489 19.7937 0 16.2495 0C15.4381 0 14.6613 0.153336 13.9458 0.432918C13.2303 0.153336 12.4535 0 11.642 0C8.09778 0 5.21446 2.92489 5.21446 6.52019V8.35963H0.728093C0.325967 8.35963 0 8.69191 0 9.10182V34.4801C0 36.4209 1.55128 38 3.45801 38H32.4219C34.3948 38 36 36.3638 36 34.3526V20.7383C36 20.3284 35.674 19.9961 35.2719 19.9961ZM29.4833 19.9961H24.712C24.8602 18.8001 25.8735 17.8718 27.0977 17.8718C28.3218 17.8718 29.3352 18.8001 29.4833 19.9961ZM26.4353 9.844V16.445C24.717 16.7473 23.3847 18.2047 23.2486 19.9961H18.9459C18.5439 19.9961 18.2178 20.3284 18.2178 20.7383V34.3527C18.2178 35.1617 18.4776 35.9101 18.9166 36.5157H5.94248V9.844H9.82191V13.6504C9.82191 14.0603 10.1479 14.3926 10.55 14.3926C10.9521 14.3926 11.2781 14.0603 11.2781 13.6504V9.844H21.2209V13.6504C21.2209 14.0603 21.5469 14.3926 21.949 14.3926C22.351 14.3926 22.6771 14.0603 22.6771 13.6504V9.844H26.4353ZM13.9458 2.05846C15.5302 2.90129 16.6133 4.58501 16.6133 6.52019V8.35963H11.2782V6.52019C11.2782 4.58501 12.3613 2.90129 13.9458 2.05846ZM16.2495 1.48438C18.9907 1.48438 21.2209 3.74345 21.2209 6.52019V8.35963H18.0695V6.52019C18.0695 4.50842 17.1667 2.70654 15.7505 1.50961C15.9147 1.49291 16.0811 1.48438 16.2495 1.48438ZM11.642 1.48438C11.8104 1.48438 11.9768 1.49291 12.141 1.50954C10.7248 2.70654 9.82198 4.50834 9.82198 6.52012V8.35956H6.67065V6.52019C6.67057 3.74345 8.90072 1.48438 11.642 1.48438ZM1.45619 34.4801V9.844H4.48629V36.5156H3.45801C2.35422 36.5156 1.45619 35.6025 1.45619 34.4801ZM34.5438 34.3526C34.5438 35.5452 33.5919 36.5156 32.4219 36.5156H21.7959C20.6259 36.5156 19.674 35.5453 19.674 34.3526V21.4805H23.2372V24.4136C23.2372 24.8234 23.5632 25.1558 23.9653 25.1558C24.3673 25.1558 24.6934 24.8234 24.6934 24.4136V21.4805H29.5021V24.4136C29.5021 24.8234 29.828 25.1558 30.2302 25.1558C30.6322 25.1558 30.9582 24.8234 30.9582 24.4136V21.4805H34.5438V34.3526Z" fill="#E94F1D"/>
</svg>
