<svg width="30" height="30" viewBox="0 0 30 30" fill="none" xmlns="http://www.w3.org/2000/svg">
<path d="M19.9809 16.61C19.8649 16.4938 19.7272 16.4017 19.5755 16.3388C19.4239 16.2759 19.2613 16.2435 19.0972 16.2435C18.933 16.2435 18.7704 16.2759 18.6188 16.3388C18.4671 16.4017 18.3294 16.4938 18.2134 16.61L16.2209 18.6025C15.2972 18.3275 13.5734 17.7025 12.4809 16.61C11.3884 15.5175 10.7634 13.7938 10.4884 12.87L12.4809 10.8775C12.5971 10.7615 12.6893 10.6238 12.7522 10.4721C12.815 10.3205 12.8474 10.1579 12.8474 9.99378C12.8474 9.82962 12.815 9.66706 12.7522 9.51542C12.6893 9.36377 12.5971 9.22602 12.4809 9.11003L7.48091 4.11003C7.36492 3.99385 7.22717 3.90168 7.07552 3.83879C6.92388 3.7759 6.76132 3.74353 6.59716 3.74353C6.43299 3.74353 6.27043 3.7759 6.11879 3.83879C5.96715 3.90168 5.82939 3.99385 5.71341 4.11003L2.32341 7.50003C1.84841 7.97503 1.58091 8.62753 1.59091 9.29378C1.61966 11.0738 2.09091 17.2563 6.96341 22.1288C11.8359 27.0013 18.0184 27.4713 19.7984 27.5H19.8334C20.4934 27.5 21.1172 27.24 21.5897 26.7675L24.9797 23.3775C25.0958 23.2615 25.188 23.1238 25.2509 22.9721C25.3138 22.8205 25.3462 22.6579 25.3462 22.4938C25.3462 22.3296 25.3138 22.1671 25.2509 22.0154C25.188 21.8638 25.0958 21.726 24.9797 21.61L19.9809 16.61ZM19.8222 25C18.2622 24.9738 12.9247 24.555 8.73091 20.36C4.52341 16.1525 4.11591 10.7963 4.09091 9.26753L6.59716 6.76128L9.82966 9.99378L8.21341 11.61C8.06648 11.7568 7.95846 11.938 7.8991 12.137C7.83974 12.336 7.83091 12.5467 7.87341 12.75C7.90341 12.8938 8.63716 16.3025 10.7122 18.3775C12.7872 20.4525 16.1959 21.1863 16.3397 21.2163C16.5428 21.2597 16.7537 21.2515 16.9529 21.1923C17.152 21.1331 17.3332 21.0249 17.4797 20.8775L19.0959 19.2613L22.3284 22.4938L19.8222 25Z" fill="white"/>
<path d="M20.0847 7.23871L14.4634 12.86L16.2309 14.6275L21.8522 9.00621L25.3472 12.5V3.74371H16.5909L20.0847 7.23871Z" fill="white"/>
</svg>
