<svg width="23" height="23" viewBox="0 0 23 23" fill="none" xmlns="http://www.w3.org/2000/svg">
<path d="M17.9688 9.34375C17.9688 7.62813 17.2872 5.98278 16.0741 4.76965C14.861 3.55653 13.2156 2.875 11.5 2.875C9.78438 2.875 8.13903 3.55653 6.9259 4.76965C5.71278 5.98278 5.03125 7.62813 5.03125 9.34375C5.03125 11.9974 7.15444 15.456 11.5 19.5989C15.8456 15.456 17.9688 11.9974 17.9688 9.34375ZM11.5 21.5625C6.22869 16.7713 3.59375 12.6974 3.59375 9.34375C3.59375 7.24688 4.42673 5.2359 5.90944 3.75319C7.39215 2.27048 9.40313 1.4375 11.5 1.4375C13.5969 1.4375 15.6079 2.27048 17.0906 3.75319C18.5733 5.2359 19.4062 7.24688 19.4062 9.34375C19.4062 12.6974 16.7713 16.7713 11.5 21.5625Z" fill="#E94F1D"/>
<path d="M11.5 11.5C12.0719 11.5 12.6203 11.2728 13.0247 10.8684C13.4291 10.4641 13.6562 9.91562 13.6562 9.34375C13.6562 8.77188 13.4291 8.22343 13.0247 7.81905C12.6203 7.41468 12.0719 7.1875 11.5 7.1875C10.9281 7.1875 10.3797 7.41468 9.9753 7.81905C9.57093 8.22343 9.34375 8.77188 9.34375 9.34375C9.34375 9.91562 9.57093 10.4641 9.9753 10.8684C10.3797 11.2728 10.9281 11.5 11.5 11.5ZM11.5 12.9375C10.5469 12.9375 9.63279 12.5589 8.95884 11.8849C8.28488 11.211 7.90625 10.2969 7.90625 9.34375C7.90625 8.39063 8.28488 7.47654 8.95884 6.80259C9.63279 6.12863 10.5469 5.75 11.5 5.75C12.4531 5.75 13.3672 6.12863 14.0412 6.80259C14.7151 7.47654 15.0938 8.39063 15.0938 9.34375C15.0938 10.2969 14.7151 11.211 14.0412 11.8849C13.3672 12.5589 12.4531 12.9375 11.5 12.9375Z" fill="#E94F1D"/>
</svg>
