<svg width="31" height="31" viewBox="0 0 31 31" fill="none" xmlns="http://www.w3.org/2000/svg">
<path d="M15.5 5.16669C16.8703 5.16669 18.1845 5.71103 19.1534 6.67997C20.1223 7.64891 20.6667 8.96307 20.6667 10.3334C20.6667 11.7036 20.1223 13.0178 19.1534 13.9867C18.1845 14.9557 16.8703 15.5 15.5 15.5C14.1297 15.5 12.8156 14.9557 11.8466 13.9867C10.8777 13.0178 10.3334 11.7036 10.3334 10.3334C10.3334 8.96307 10.8777 7.64891 11.8466 6.67997C12.8156 5.71103 14.1297 5.16669 15.5 5.16669ZM15.5 18.0834C21.2092 18.0834 25.8334 20.3954 25.8334 23.25V25.8334H5.16669V23.25C5.16669 20.3954 9.79085 18.0834 15.5 18.0834Z" fill="#E94F1D"/>
</svg>
