<svg width="28" height="18" viewBox="0 0 28 18" fill="none" xmlns="http://www.w3.org/2000/svg">
<path fill-rule="evenodd" clip-rule="evenodd" d="M24.9228 12.2172C24.9228 12.2172 27.1866 14.453 27.7466 15.4876C27.7575 15.5025 27.766 15.5191 27.7718 15.5366C28 15.9188 28.056 16.2184 27.944 16.4396C27.755 16.805 27.1152 16.9884 26.8982 17.0038H22.897C22.6184 17.0038 22.0388 16.931 21.3332 16.4438C20.7942 16.0672 20.258 15.447 19.7386 14.8408C18.963 13.9406 18.2924 13.1594 17.6134 13.1594C17.5276 13.1592 17.4425 13.1734 17.3614 13.2014C16.8476 13.3638 16.1952 14.096 16.1952 16.0462C16.1952 16.6566 15.7136 17.0038 15.3762 17.0038H13.5436C12.9192 17.0038 9.6684 16.7854 6.7858 13.746C3.2536 10.0248 0.081204 2.56002 0.050404 2.49422C-0.146996 2.01122 0.267404 1.74802 0.715404 1.74802H4.7558C5.2976 1.74802 5.474 2.07562 5.5972 2.36962C5.74 2.70702 6.2692 4.05662 7.1372 5.57282C8.5428 8.03962 9.4066 9.04342 10.0968 9.04342C10.2265 9.0438 10.354 9.00999 10.4664 8.94542C11.368 8.44982 11.2 5.22982 11.158 4.56622C11.158 4.43742 11.1566 3.12842 10.6946 2.49562C10.3642 2.04202 9.8014 1.86562 9.4612 1.80122C9.5522 1.66962 9.7454 1.46802 9.9932 1.34902C10.6106 1.04102 11.7264 0.996216 12.8338 0.996216H13.4484C14.6496 1.01302 14.9604 1.09002 15.3972 1.20062C16.2764 1.41062 16.2932 1.98042 16.2162 3.92082C16.1938 4.47522 16.17 5.09962 16.17 5.83462C16.17 5.99142 16.163 6.16641 16.163 6.34421C16.1364 7.33961 16.1014 8.46102 16.8042 8.92162C16.8954 8.9784 17.0006 9.00847 17.108 9.00841C17.3516 9.00841 18.081 9.00841 20.0592 5.61342C20.9272 4.11402 21.5992 2.34582 21.6454 2.21282C21.6846 2.13862 21.8022 1.93002 21.945 1.84602C22.0466 1.79197 22.1604 1.76497 22.2754 1.76762H27.0284C27.5464 1.76762 27.8978 1.84602 27.9664 2.04202C28.0812 2.35982 27.944 3.33001 25.774 6.26441C25.4086 6.75301 25.088 7.17582 24.8066 7.54542C22.8396 10.127 22.8396 10.2572 24.9228 12.2172Z" fill="#E94F1D"/>
</svg>
