<?xml version="1.0" standalone="no"?>
<!DOCTYPE svg PUBLIC "-//W3C//DTD SVG 20010904//EN"
 "http://www.w3.org/TR/2001/REC-SVG-20010904/DTD/svg10.dtd">
<svg version="1.0" xmlns="http://www.w3.org/2000/svg"
 width="260.000000pt" height="260.000000pt" viewBox="0 0 260.000000 260.000000"
 preserveAspectRatio="xMidYMid meet">
<metadata>
Created by potrace 1.14, written by Peter Selinger 2001-2017
</metadata>
<g transform="translate(0.000000,260.000000) scale(0.100000,-0.100000)"
fill="#000000" stroke="none">
<path d="M1105 2585 c-259 -42 -510 -166 -701 -347 -448 -426 -530 -1122 -191
-1640 160 -246 405 -437 674 -527 145 -48 250 -64 413 -64 225 0 397 40 590
139 341 174 590 493 677 866 23 98 27 135 27 283 0 182 -12 265 -61 415 -117
354 -400 656 -749 796 -198 80 -474 112 -679 79z m289 -830 c141 -37 244 -116
296 -228 111 -236 31 -515 -179 -621 -93 -47 -149 -56 -363 -56 l-198 0 0 460
0 460 193 0 c140 0 209 -4 251 -15z"/>
<path d="M1100 1310 l0 -343 118 6 c64 3 140 13 167 21 68 21 128 74 162 144
26 52 28 66 28 172 0 106 -2 120 -28 172 -32 66 -92 120 -158 143 -25 10 -96
19 -166 22 l-123 6 0 -343z"/>
</g>
</svg>
