<svg width="188" height="155" viewBox="0 0 188 155" fill="none" xmlns="http://www.w3.org/2000/svg">
<path fill-rule="evenodd" clip-rule="evenodd" d="M53.0817 151.084V148.878H51.9759V151.084H49.7641V152.186H51.9759V154.392H53.0817V152.186H55.2935V151.084H53.0817ZM53.0817 134.542V132.336H51.9759V134.542H49.7641V135.644H51.9759V137.85H53.0817V135.644H55.2935V134.542H53.0817ZM36.4934 151.084V148.878H35.3876V151.084H33.1758V152.186H35.3876V154.392H36.4934V152.186H38.7052V151.084H36.4934ZM36.4934 134.542V132.336H35.3876V134.542H33.1758V135.644H35.3876V137.85H36.4934V135.644H38.7052V134.542H36.4934Z" fill="#00DB8C" fill-opacity="0.57"/>
<path fill-rule="evenodd" clip-rule="evenodd" d="M53.0817 84.9159V82.7102H51.9759V84.9159H49.7641V86.0187H51.9759V88.2243H53.0817V86.0187H55.2935V84.9159H53.0817ZM53.0817 68.3738V66.1682H51.9759V68.3738H49.7641V69.4766H51.9759V71.6822H53.0817V69.4766H55.2935V68.3738H53.0817ZM36.4934 84.9159V82.7102H35.3876V84.9159H33.1758V86.0187H35.3876V88.2243H36.4934V86.0187H38.7052V84.9159H36.4934ZM36.4934 68.3738V66.1682H35.3876V68.3738H33.1758V69.4766H35.3876V71.6822H36.4934V69.4766H38.7052V68.3738H36.4934Z" fill="#00DB8C" fill-opacity="0.57"/>
<path fill-rule="evenodd" clip-rule="evenodd" d="M53.0817 18.7476V16.542H51.9759V18.7476H49.7641V19.8504H51.9759V22.056H53.0817V19.8504H55.2935V18.7476H53.0817ZM53.0817 2.2056V0H51.9759V2.2056H49.7641V3.30841H51.9759V5.51401H53.0817V3.30841H55.2935V2.2056H53.0817ZM36.4934 18.7476V16.542H35.3876V18.7476H33.1758V19.8504H35.3876V22.056H36.4934V19.8504H38.7052V18.7476H36.4934ZM36.4934 2.2056V0H35.3876V2.2056H33.1758V3.30841H35.3876V5.51401H36.4934V3.30841H38.7052V2.2056H36.4934Z" fill="#00DB8C" fill-opacity="0.57"/>
<path fill-rule="evenodd" clip-rule="evenodd" d="M53.0817 118V115.794H51.9759V118H49.7641V119.103H51.9759V121.308H53.0817V119.103H55.2935V118H53.0817ZM53.0817 101.458V99.2524H51.9759V101.458H49.7641V102.561H51.9759V104.766H53.0817V102.561H55.2935V101.458H53.0817ZM36.4934 118V115.794H35.3876V118H33.1758V119.103H35.3876V121.308H36.4934V119.103H38.7052V118H36.4934ZM36.4934 101.458V99.2524H35.3876V101.458H33.1758V102.561H35.3876V104.766H36.4934V102.561H38.7052V101.458H36.4934Z" fill="#00DB8C" fill-opacity="0.57"/>
<path fill-rule="evenodd" clip-rule="evenodd" d="M53.0817 51.8321V49.6265H51.9759V51.8321H49.7641V52.9349H51.9759V55.1405H53.0817V52.9349H55.2935V51.8321H53.0817ZM53.0817 35.2901V33.0845H51.9759V35.2901H49.7641V36.3929H51.9759V38.5985H53.0817V36.3929H55.2935V35.2901H53.0817ZM36.4934 51.8321V49.6265H35.3876V51.8321H33.1758V52.9349H35.3876V55.1405H36.4934V52.9349H38.7052V51.8321H36.4934ZM36.4934 35.2901V33.0845H35.3876V35.2901H33.1758V36.3929H35.3876V38.5985H36.4934V36.3929H38.7052V35.2901H36.4934Z" fill="#00DB8C" fill-opacity="0.57"/>
<path fill-rule="evenodd" clip-rule="evenodd" d="M86.2575 151.084V148.878H85.1516V151.084H82.9399V152.186H85.1516V154.392H86.2575V152.186H88.4693V151.084H86.2575ZM86.2575 134.542V132.336H85.1516V134.542H82.9399V135.644H85.1516V137.85H86.2575V135.644H88.4693V134.542H86.2575ZM69.6692 151.084V148.878H68.5633V151.084H66.3516V152.186H68.5633V154.392H69.6692V152.186H71.881V151.084H69.6692ZM69.6692 134.542V132.336H68.5633V134.542H66.3516V135.644H68.5633V137.85H69.6692V135.644H71.881V134.542H69.6692Z" fill="#00DB8C" fill-opacity="0.57"/>
<path fill-rule="evenodd" clip-rule="evenodd" d="M86.2575 84.9156V82.71H85.1516V84.9156H82.9399V86.0184H85.1516V88.224H86.2575V86.0184H88.4693V84.9156H86.2575ZM86.2575 68.3736V66.168H85.1516V68.3736H82.9399V69.4764H85.1516V71.682H86.2575V69.4764H88.4693V68.3736H86.2575ZM69.6692 84.9156V82.71H68.5633V84.9156H66.3516V86.0184H68.5633V88.224H69.6692V86.0184H71.881V84.9156H69.6692ZM69.6692 68.3736V66.168H68.5633V68.3736H66.3516V69.4764H68.5633V71.682H69.6692V69.4764H71.881V68.3736H69.6692Z" fill="#00DB8C" fill-opacity="0.57"/>
<path fill-rule="evenodd" clip-rule="evenodd" d="M86.2575 18.7476V16.542H85.1516V18.7476H82.9399V19.8504H85.1516V22.056H86.2575V19.8504H88.4693V18.7476H86.2575ZM86.2575 2.2056V0H85.1516V2.2056H82.9399V3.30841H85.1516V5.51401H86.2575V3.30841H88.4693V2.2056H86.2575ZM69.6692 18.7476V16.542H68.5633V18.7476H66.3516V19.8504H68.5633V22.056H69.6692V19.8504H71.881V18.7476H69.6692ZM69.6692 2.2056V0H68.5633V2.2056H66.3516V3.30841H68.5633V5.51401H69.6692V3.30841H71.881V2.2056H69.6692Z" fill="#00DB8C" fill-opacity="0.57"/>
<path fill-rule="evenodd" clip-rule="evenodd" d="M86.2575 118V115.794H85.1516V118H82.9399V119.103H85.1516V121.308H86.2575V119.103H88.4693V118H86.2575ZM86.2575 101.458V99.2524H85.1516V101.458H82.9399V102.561H85.1516V104.766H86.2575V102.561H88.4693V101.458H86.2575ZM69.6692 118V115.794H68.5633V118H66.3516V119.103H68.5633V121.308H69.6692V119.103H71.881V118H69.6692ZM69.6692 101.458V99.2524H68.5633V101.458H66.3516V102.561H68.5633V104.766H69.6692V102.561H71.881V101.458H69.6692Z" fill="#00DB8C" fill-opacity="0.57"/>
<path fill-rule="evenodd" clip-rule="evenodd" d="M86.2575 51.8319V49.6263H85.1516V51.8319H82.9399V52.9347H85.1516V55.1403H86.2575V52.9347H88.4693V51.8319H86.2575ZM86.2575 35.2898V33.0842H85.1516V35.2898H82.9399V36.3926H85.1516V38.5982H86.2575V36.3926H88.4693V35.2898H86.2575ZM69.6692 51.8319V49.6263H68.5633V51.8319H66.3516V52.9347H68.5633V55.1403H69.6692V52.9347H71.881V51.8319H69.6692ZM69.6692 35.2898V33.0842H68.5633V35.2898H66.3516V36.3926H68.5633V38.5982H69.6692V36.3926H71.881V35.2898H69.6692Z" fill="#00DB8C" fill-opacity="0.57"/>
<path fill-rule="evenodd" clip-rule="evenodd" d="M119.441 151.084V148.878H118.335V151.084H116.123V152.186H118.335V154.392H119.441V152.186H121.653V151.084H119.441ZM119.441 134.542V132.336H118.335V134.542H116.123V135.644H118.335V137.85H119.441V135.644H121.653V134.542H119.441ZM102.853 151.084V148.878H101.747V151.084H99.5352V152.186H101.747V154.392H102.853V152.186H105.065V151.084H102.853ZM102.853 134.542V132.336H101.747V134.542H99.5352V135.644H101.747V137.85H102.853V135.644H105.065V134.542H102.853Z" fill="#00DB8C" fill-opacity="0.57"/>
<path fill-rule="evenodd" clip-rule="evenodd" d="M119.441 84.9156V82.71H118.335V84.9156H116.123V86.0184H118.335V88.224H119.441V86.0184H121.653V84.9156H119.441ZM119.441 68.3736V66.168H118.335V68.3736H116.123V69.4764H118.335V71.682H119.441V69.4764H121.653V68.3736H119.441ZM102.853 84.9156V82.71H101.747V84.9156H99.5352V86.0184H101.747V88.224H102.853V86.0184H105.065V84.9156H102.853ZM102.853 68.3736V66.168H101.747V68.3736H99.5352V69.4764H101.747V71.682H102.853V69.4764H105.065V68.3736H102.853Z" fill="#00DB8C" fill-opacity="0.57"/>
<path fill-rule="evenodd" clip-rule="evenodd" d="M119.441 18.7476V16.542H118.335V18.7476H116.123V19.8504H118.335V22.056H119.441V19.8504H121.653V18.7476H119.441ZM119.441 2.2056V0H118.335V2.2056H116.123V3.30841H118.335V5.51401H119.441V3.30841H121.653V2.2056H119.441ZM102.853 18.7476V16.542H101.747V18.7476H99.5352V19.8504H101.747V22.056H102.853V19.8504H105.065V18.7476H102.853ZM102.853 2.2056V0H101.747V2.2056H99.5352V3.30841H101.747V5.51401H102.853V3.30841H105.065V2.2056H102.853Z" fill="#00DB8C" fill-opacity="0.57"/>
<path fill-rule="evenodd" clip-rule="evenodd" d="M119.441 118V115.794H118.335V118H116.123V119.103H118.335V121.308H119.441V119.103H121.653V118H119.441ZM119.441 101.458V99.2524H118.335V101.458H116.123V102.561H118.335V104.766H119.441V102.561H121.653V101.458H119.441ZM102.853 118V115.794H101.747V118H99.5352V119.103H101.747V121.308H102.853V119.103H105.065V118H102.853ZM102.853 101.458V99.2524H101.747V101.458H99.5352V102.561H101.747V104.766H102.853V102.561H105.065V101.458H102.853Z" fill="#00DB8C" fill-opacity="0.57"/>
<path fill-rule="evenodd" clip-rule="evenodd" d="M119.441 51.8319V49.6263H118.335V51.8319H116.123V52.9347H118.335V55.1403H119.441V52.9347H121.653V51.8319H119.441ZM119.441 35.2898V33.0842H118.335V35.2898H116.123V36.3926H118.335V38.5982H119.441V36.3926H121.653V35.2898H119.441ZM102.853 51.8319V49.6263H101.747V51.8319H99.5352V52.9347H101.747V55.1403H102.853V52.9347H105.065V51.8319H102.853ZM102.853 35.2898V33.0842H101.747V35.2898H99.5352V36.3926H101.747V38.5982H102.853V36.3926H105.065V35.2898H102.853Z" fill="#00DB8C" fill-opacity="0.57"/>
<path fill-rule="evenodd" clip-rule="evenodd" d="M152.613 151.084V148.878H151.507V151.084H149.295V152.187H151.507V154.392H152.613V152.187H154.825V151.084H152.613ZM152.613 134.542V132.336H151.507V134.542H149.295V135.645H151.507V137.85H152.613V135.645H154.825V134.542H152.613ZM136.025 151.084V148.878H134.919V151.084H132.707V152.187H134.919V154.392H136.025V152.187H138.237V151.084H136.025ZM136.025 134.542V132.336H134.919V134.542H132.707V135.645H134.919V137.85H136.025V135.645H138.237V134.542H136.025Z" fill="#00DB8C" fill-opacity="0.57"/>
<path fill-rule="evenodd" clip-rule="evenodd" d="M152.613 84.9156V82.71H151.507V84.9156H149.295V86.0184H151.507V88.224H152.613V86.0184H154.825V84.9156H152.613ZM152.613 68.3736V66.168H151.507V68.3736H149.295V69.4764H151.507V71.682H152.613V69.4764H154.825V68.3736H152.613ZM136.025 84.9156V82.71H134.919V84.9156H132.707V86.0184H134.919V88.224H136.025V86.0184H138.237V84.9156H136.025ZM136.025 68.3736V66.168H134.919V68.3736H132.707V69.4764H134.919V71.682H136.025V69.4764H138.237V68.3736H136.025Z" fill="#00DB8C" fill-opacity="0.57"/>
<path fill-rule="evenodd" clip-rule="evenodd" d="M152.613 18.7476V16.542H151.507V18.7476H149.295V19.8504H151.507V22.056H152.613V19.8504H154.825V18.7476H152.613ZM152.613 2.2056V0H151.507V2.2056H149.295V3.30841H151.507V5.51401H152.613V3.30841H154.825V2.2056H152.613ZM136.025 18.7476V16.542H134.919V18.7476H132.707V19.8504H134.919V22.056H136.025V19.8504H138.237V18.7476H136.025ZM136.025 2.2056V0H134.919V2.2056H132.707V3.30841H134.919V5.51401H136.025V3.30841H138.237V2.2056H136.025Z" fill="#00DB8C" fill-opacity="0.57"/>
<path fill-rule="evenodd" clip-rule="evenodd" d="M152.613 118V115.794H151.507V118H149.295V119.103H151.507V121.308H152.613V119.103H154.825V118H152.613ZM152.613 101.458V99.2524H151.507V101.458H149.295V102.561H151.507V104.766H152.613V102.561H154.825V101.458H152.613ZM136.025 118V115.794H134.919V118H132.707V119.103H134.919V121.308H136.025V119.103H138.237V118H136.025ZM136.025 101.458V99.2524H134.919V101.458H132.707V102.561H134.919V104.766H136.025V102.561H138.237V101.458H136.025Z" fill="#00DB8C" fill-opacity="0.57"/>
<path fill-rule="evenodd" clip-rule="evenodd" d="M152.613 51.8316V49.626H151.507V51.8316H149.295V52.9344H151.507V55.14H152.613V52.9344H154.825V51.8316H152.613ZM152.613 35.2896V33.084H151.507V35.2896H149.295V36.3924H151.507V38.598H152.613V36.3924H154.825V35.2896H152.613ZM136.025 51.8316V49.626H134.919V51.8316H132.707V52.9344H134.919V55.14H136.025V52.9344H138.237V51.8316H136.025ZM136.025 35.2896V33.084H134.919V35.2896H132.707V36.3924H134.919V38.598H136.025V36.3924H138.237V35.2896H136.025Z" fill="#00DB8C" fill-opacity="0.57"/>
<path fill-rule="evenodd" clip-rule="evenodd" d="M185.789 151.084V148.878H184.683V151.084H182.471V152.187H184.683V154.392H185.789V152.187H188.001V151.084H185.789ZM185.789 134.542V132.336H184.683V134.542H182.471V135.645H184.683V137.85H185.789V135.645H188.001V134.542H185.789ZM169.2 151.084V148.878H168.095V151.084H165.883V152.187H168.095V154.392H169.2V152.187H171.412V151.084H169.2ZM169.2 134.542V132.336H168.095V134.542H165.883V135.645H168.095V137.85H169.2V135.645H171.412V134.542H169.2Z" fill="#00DB8C" fill-opacity="0.57"/>
<path fill-rule="evenodd" clip-rule="evenodd" d="M19.906 151.084V148.878H18.8001V151.084H16.5883V152.187H18.8001V154.392H19.906V152.187H22.1177V151.084H19.906ZM19.906 134.542V132.336H18.8001V134.542H16.5883V135.645H18.8001V137.85H19.906V135.645H22.1177V134.542H19.906ZM3.31766 151.084V148.878H2.21177V151.084H0V152.187H2.21177V154.392H3.31766V152.187H5.52943V151.084H3.31766ZM3.31766 134.542V132.336H2.21177V134.542H0V135.645H2.21177V137.85H3.31766V135.645H5.52943V134.542H3.31766Z" fill="#00DB8C" fill-opacity="0.57"/>
<path fill-rule="evenodd" clip-rule="evenodd" d="M185.789 84.9156V82.71H184.683V84.9156H182.471V86.0184H184.683V88.224H185.789V86.0184H188.001V84.9156H185.789ZM185.789 68.3736V66.168H184.683V68.3736H182.471V69.4764H184.683V71.682H185.789V69.4764H188.001V68.3736H185.789ZM169.2 84.9156V82.71H168.095V84.9156H165.883V86.0184H168.095V88.224H169.2V86.0184H171.412V84.9156H169.2ZM169.2 68.3736V66.168H168.095V68.3736H165.883V69.4764H168.095V71.682H169.2V69.4764H171.412V68.3736H169.2Z" fill="#00DB8C" fill-opacity="0.57"/>
<path fill-rule="evenodd" clip-rule="evenodd" d="M19.906 84.9156V82.71H18.8001V84.9156H16.5883V86.0184H18.8001V88.224H19.906V86.0184H22.1177V84.9156H19.906ZM19.906 68.3736V66.168H18.8001V68.3736H16.5883V69.4764H18.8001V71.682H19.906V69.4764H22.1177V68.3736H19.906ZM3.31766 84.9156V82.71H2.21177V84.9156H0V86.0184H2.21177V88.224H3.31766V86.0184H5.52943V84.9156H3.31766ZM3.31766 68.3736V66.168H2.21177V68.3736H0V69.4764H2.21177V71.682H3.31766V69.4764H5.52943V68.3736H3.31766Z" fill="#00DB8C" fill-opacity="0.57"/>
<path fill-rule="evenodd" clip-rule="evenodd" d="M185.789 18.7476V16.542H184.683V18.7476H182.471V19.8504H184.683V22.056H185.789V19.8504H188.001V18.7476H185.789ZM185.789 2.2056V0H184.683V2.2056H182.471V3.30841H184.683V5.51401H185.789V3.30841H188.001V2.2056H185.789ZM169.2 18.7476V16.542H168.095V18.7476H165.883V19.8504H168.095V22.056H169.2V19.8504H171.412V18.7476H169.2ZM169.2 2.2056V0H168.095V2.2056H165.883V3.30841H168.095V5.51401H169.2V3.30841H171.412V2.2056H169.2Z" fill="#00DB8C" fill-opacity="0.57"/>
<path fill-rule="evenodd" clip-rule="evenodd" d="M19.906 18.7476V16.542H18.8001V18.7476H16.5883V19.8504H18.8001V22.056H19.906V19.8504H22.1177V18.7476H19.906ZM19.906 2.2056V0H18.8001V2.2056H16.5883V3.30841H18.8001V5.51401H19.906V3.30841H22.1177V2.2056H19.906ZM3.31766 18.7476V16.542H2.21177V18.7476H0V19.8504H2.21177V22.056H3.31766V19.8504H5.52943V18.7476H3.31766ZM3.31766 2.2056V0H2.21177V2.2056H0V3.30841H2.21177V5.51401H3.31766V3.30841H5.52943V2.2056H3.31766Z" fill="#00DB8C" fill-opacity="0.57"/>
<path fill-rule="evenodd" clip-rule="evenodd" d="M185.789 118V115.794H184.683V118H182.471V119.103H184.683V121.308H185.789V119.103H188.001V118H185.789ZM185.789 101.458V99.2524H184.683V101.458H182.471V102.561H184.683V104.766H185.789V102.561H188.001V101.458H185.789ZM169.2 118V115.794H168.095V118H165.883V119.103H168.095V121.308H169.2V119.103H171.412V118H169.2ZM169.2 101.458V99.2524H168.095V101.458H165.883V102.561H168.095V104.766H169.2V102.561H171.412V101.458H169.2Z" fill="#00DB8C" fill-opacity="0.57"/>
<path fill-rule="evenodd" clip-rule="evenodd" d="M19.906 118V115.794H18.8001V118H16.5883V119.103H18.8001V121.308H19.906V119.103H22.1177V118H19.906ZM19.906 101.458V99.2522H18.8001V101.458H16.5883V102.561H18.8001V104.766H19.906V102.561H22.1177V101.458H19.906ZM3.31766 118V115.794H2.21177V118H0V119.103H2.21177V121.308H3.31766V119.103H5.52943V118H3.31766ZM3.31766 101.458V99.2522H2.21177V101.458H0V102.561H2.21177V104.766H3.31766V102.561H5.52943V101.458H3.31766Z" fill="#00DB8C" fill-opacity="0.57"/>
<path fill-rule="evenodd" clip-rule="evenodd" d="M185.789 51.8319V49.6263H184.683V51.8319H182.471V52.9347H184.683V55.1403H185.789V52.9347H188.001V51.8319H185.789ZM185.789 35.2898V33.0842H184.683V35.2898H182.471V36.3926H184.683V38.5982H185.789V36.3926H188.001V35.2898H185.789ZM169.2 51.8319V49.6263H168.095V51.8319H165.883V52.9347H168.095V55.1403H169.2V52.9347H171.412V51.8319H169.2ZM169.2 35.2898V33.0842H168.095V35.2898H165.883V36.3926H168.095V38.5982H169.2V36.3926H171.412V35.2898H169.2Z" fill="#00DB8C" fill-opacity="0.57"/>
<path fill-rule="evenodd" clip-rule="evenodd" d="M19.906 51.8316V49.626H18.8001V51.8316H16.5883V52.9344H18.8001V55.14H19.906V52.9344H22.1177V51.8316H19.906ZM19.906 35.2896V33.084H18.8001V35.2896H16.5883V36.3924H18.8001V38.598H19.906V36.3924H22.1177V35.2896H19.906ZM3.31766 51.8316V49.626H2.21177V51.8316H0V52.9344H2.21177V55.14H3.31766V52.9344H5.52943V51.8316H3.31766ZM3.31766 35.2896V33.084H2.21177V35.2896H0V36.3924H2.21177V38.598H3.31766V36.3924H5.52943V35.2896H3.31766Z" fill="#00DB8C" fill-opacity="0.57"/>
</svg>
