<svg width="42" height="42" viewBox="0 0 42 42" fill="none" xmlns="http://www.w3.org/2000/svg">
<g clip-path="url(#clip0_1_1901)">
<path d="M2.85579 19.9395V34.9692H9.21879L9.54009 35.007C15.4474 36.3846 19.3618 37.3779 21.3127 37.9932C23.9041 38.8101 24.8701 39.0096 26.6278 39.1272C27.9424 39.2175 29.4355 38.7114 30.1159 38.0184C30.4918 37.6362 30.7732 36.8508 30.8845 35.6328C30.9075 35.3774 30.9989 35.1329 31.1489 34.9249C31.2989 34.7169 31.502 34.5531 31.7371 34.4505C32.26 34.2237 32.6947 33.8541 33.058 33.3165C33.394 32.8251 33.6124 31.9095 33.6523 30.5844C33.6593 30.3408 33.7284 30.103 33.853 29.8936C33.9775 29.6841 34.1535 29.5099 34.3642 29.3874C35.5864 28.6797 36.1912 27.8817 36.3172 26.9451C36.4558 25.9098 36.1198 24.7443 35.2399 23.4171C35.0334 23.1059 34.9566 22.7264 35.0256 22.3593C35.0946 21.9922 35.3041 21.6666 35.6095 21.4515C36.4516 20.8593 36.9136 20.0361 37.0291 18.8685C37.2139 17.0079 36.0274 15.6324 33.3415 15.3573C30.9493 15.1207 28.5341 15.3221 26.2141 15.9516C25.9509 16.0204 25.6736 16.0126 25.4147 15.9291C25.1558 15.8456 24.9262 15.6899 24.7528 15.4803C24.5794 15.2708 24.4695 15.016 24.4359 14.7461C24.4024 14.4762 24.4467 14.2023 24.5635 13.9566C25.6135 11.7348 26.1973 9.90154 26.3338 8.48194C26.5123 6.59824 26.0776 5.23324 25.0612 4.10764C24.2905 3.25504 23.0578 2.76784 22.5958 2.86864C21.9868 2.99884 21.5899 3.35164 21.0733 4.58644C20.7688 5.31724 20.6218 5.93884 20.3698 7.38994C20.1283 8.76754 19.996 9.38914 19.7209 10.2039C18.8914 12.6735 16.8565 15.2334 14.1244 16.9995C12.2096 18.2358 10.1344 19.2039 7.95669 19.8765C7.82064 19.9185 7.67906 19.9397 7.53669 19.9395H2.85579ZM2.76759 37.8315C2.08929 37.8504 1.48029 37.6992 0.969993 37.3422C0.318993 36.8865 0.012393 36.1683 0.00609299 35.3409L0.012393 19.9626C-0.059007 19.1436 0.182493 18.3918 0.753693 17.8332C1.28919 17.3082 1.98849 17.0604 2.72769 17.0772H7.31619C9.17229 16.4858 10.9419 15.6512 12.5788 14.595C14.7796 13.1712 16.4008 11.13 17.0203 9.29044C17.2324 8.65624 17.3458 8.13124 17.56 6.89644C17.8498 5.23954 18.0304 4.46884 18.4462 3.47764C19.3072 1.41544 20.437 0.407439 21.9952 0.0693386C23.5282 -0.262461 25.7605 0.621638 27.1717 2.18404C28.7362 3.91444 29.4271 6.07954 29.1709 8.75494C29.0617 9.90574 28.7425 11.193 28.2175 12.6273C30.0104 12.366 31.8287 12.3266 33.6313 12.5097C37.846 12.9402 40.2127 15.6849 39.8683 19.1541C39.7171 20.6493 39.1753 21.9198 38.2534 22.9173C39.0283 24.4104 39.337 25.8867 39.1438 27.3273C38.9212 28.9863 37.9972 30.3681 36.46 31.4412C36.3403 32.8965 36.0064 34.0578 35.4142 34.9272C34.9476 35.6296 34.3388 36.2263 33.6271 36.6786C33.4003 38.115 32.9236 39.2385 32.1445 40.0281C30.853 41.3427 28.5451 42.126 26.4367 41.9832C24.4354 41.8488 23.251 41.6052 20.458 40.7232C18.6163 40.1415 14.8027 39.1755 9.05499 37.8315H2.76549H2.76759ZM6.33969 19.2864C6.33914 19.0986 6.37567 18.9124 6.44719 18.7387C6.5187 18.5649 6.6238 18.407 6.75646 18.274C6.88911 18.1409 7.04672 18.0354 7.22025 17.9633C7.39378 17.8913 7.57981 17.8542 7.76769 17.8542C7.95522 17.8548 8.1408 17.8923 8.31385 17.9645C8.48689 18.0368 8.644 18.1425 8.77621 18.2755C8.90843 18.4084 9.01315 18.5662 9.0844 18.7396C9.15566 18.9131 9.19205 19.0989 9.19149 19.2864V35.4102C9.19177 35.5978 9.15511 35.7835 9.0836 35.9569C9.01209 36.1302 8.90713 36.2878 8.77473 36.4206C8.64232 36.5534 8.48505 36.6588 8.31191 36.7308C8.13876 36.8029 7.95312 36.8401 7.76559 36.8403C7.57807 36.8401 7.39243 36.8029 7.21928 36.7308C7.04613 36.6588 6.88887 36.5534 6.75646 36.4206C6.62405 36.2878 6.5191 36.1302 6.44759 35.9569C6.37608 35.7835 6.33942 35.5978 6.33969 35.4102V19.2864Z" fill="white"/>
</g>
<defs>
<clipPath id="clip0_1_1901">
<rect width="42" height="42" fill="white"/>
</clipPath>
</defs>
</svg>
