<svg width="42" height="42" viewBox="0 0 42 42" fill="none" xmlns="http://www.w3.org/2000/svg">
<path d="M5.96819 8.1165V23.7279C5.96819 32.2266 12.6987 39.1146 21 39.1146C29.3013 39.1146 36.0318 32.2266 36.0318 23.7279V8.1249L20.9097 3.0366L5.96819 8.1165ZM20.9055 0L38.85 6.0354V23.7279C38.85 33.8184 30.8574 42 21 42C11.1426 42 3.14999 33.8184 3.14999 23.7279V6.0354L20.9055 0ZM30.1854 13.6185C30.0483 13.4926 29.8873 13.3956 29.7119 13.3332C29.5365 13.2709 29.3504 13.2445 29.1646 13.2557C28.9788 13.2669 28.7971 13.3154 28.6305 13.3983C28.4638 13.4812 28.3156 13.5968 28.1946 13.7382L19.131 24.1731L13.2762 17.6946C13.1524 17.5559 13.002 17.4436 12.8339 17.3642C12.6658 17.2848 12.4835 17.2401 12.2977 17.2327C12.112 17.2252 11.9266 17.2552 11.7527 17.3209C11.5788 17.3865 11.4199 17.4865 11.2854 17.6148C11.0101 17.878 10.848 18.238 10.8335 18.6186C10.819 18.9992 10.9532 19.3705 11.2077 19.6539L18.1167 27.2979C18.2483 27.4458 18.41 27.5639 18.5911 27.644C18.7721 27.7242 18.9682 27.7647 19.1662 27.7627C19.3642 27.7607 19.5595 27.7163 19.7389 27.6325C19.9182 27.5487 20.0776 27.4275 20.2062 27.2769L30.3009 15.6555C30.55 15.3675 30.6773 14.9938 30.6557 14.6136C30.6342 14.2334 30.4655 13.8765 30.1854 13.6185Z" fill="white"/>
</svg>
