<svg width="213" height="190" viewBox="0 0 213 190" fill="none" xmlns="http://www.w3.org/2000/svg">
<path fill-rule="evenodd" clip-rule="evenodd" d="M60.1387 185.184V182.493H58.8858V185.184H56.3799V186.529H58.8858V189.22H60.1387V186.529H62.6446V185.184H60.1387ZM60.1387 165V162.309H58.8858V165H56.3799V166.346H58.8858V169.037H60.1387V166.346H62.6446V165H60.1387ZM41.3446 185.184V182.493H40.0917V185.184H37.5858V186.529H40.0917V189.22H41.3446V186.529H43.8505V185.184H41.3446ZM41.3446 165V162.309H40.0917V165H37.5858V166.346H40.0917V169.037H41.3446V166.346H43.8505V165H41.3446Z" fill="#00DB8C" fill-opacity="0.57"/>
<path fill-rule="evenodd" clip-rule="evenodd" d="M60.1387 104.451V101.76H58.8858V104.451H56.3799V105.797H58.8858V108.488H60.1387V105.797H62.6446V104.451H60.1387ZM60.1387 84.2678V81.5767H58.8858V84.2678H56.3799V85.6133H58.8858V88.3044H60.1387V85.6133H62.6446V84.2678H60.1387ZM41.3446 104.451V101.76H40.0917V104.451H37.5858V105.797H40.0917V108.488H41.3446V105.797H43.8505V104.451H41.3446ZM41.3446 84.2678V81.5767H40.0917V84.2678H37.5858V85.6133H40.0917V88.3044H41.3446V85.6133H43.8505V84.2678H41.3446Z" fill="#00DB8C" fill-opacity="0.57"/>
<path fill-rule="evenodd" clip-rule="evenodd" d="M60.1387 23.7175V21.0264H58.8858V23.7175H56.3799V25.063H58.8858V27.7542H60.1387V25.063H62.6446V23.7175H60.1387ZM60.1387 3.53413V0.843018H58.8858V3.53413H56.3799V4.87969H58.8858V7.5708H60.1387V4.87969H62.6446V3.53413H60.1387ZM41.3446 23.7175V21.0264H40.0917V23.7175H37.5858V25.063H40.0917V27.7542H41.3446V25.063H43.8505V23.7175H41.3446ZM41.3446 3.53413V0.843018H40.0917V3.53413H37.5858V4.87969H40.0917V7.5708H41.3446V4.87969H43.8505V3.53413H41.3446Z" fill="#00DB8C" fill-opacity="0.57"/>
<path fill-rule="evenodd" clip-rule="evenodd" d="M60.1387 144.818V142.127H58.8858V144.818H56.3799V146.164H58.8858V148.855H60.1387V146.164H62.6446V144.818H60.1387ZM60.1387 124.635V121.944H58.8858V124.635H56.3799V125.98H58.8858V128.671H60.1387V125.98H62.6446V124.635H60.1387ZM41.3446 144.818V142.127H40.0917V144.818H37.5858V146.164H40.0917V148.855H41.3446V146.164H43.8505V144.818H41.3446ZM41.3446 124.635V121.944H40.0917V124.635H37.5858V125.98H40.0917V128.671H41.3446V125.98H43.8505V124.635H41.3446Z" fill="#00DB8C" fill-opacity="0.57"/>
<path fill-rule="evenodd" clip-rule="evenodd" d="M60.1387 64.0839V61.3928H58.8858V64.0839H56.3799V65.4295H58.8858V68.1206H60.1387V65.4295H62.6446V64.0839H60.1387ZM60.1387 43.9006V41.2095H58.8858V43.9006H56.3799V45.2461H58.8858V47.9373H60.1387V45.2461H62.6446V43.9006H60.1387ZM41.3446 64.0839V61.3928H40.0917V64.0839H37.5858V65.4295H40.0917V68.1206H41.3446V65.4295H43.8505V64.0839H41.3446ZM41.3446 43.9006V41.2095H40.0917V43.9006H37.5858V45.2461H40.0917V47.9373H41.3446V45.2461H43.8505V43.9006H41.3446Z" fill="#00DB8C" fill-opacity="0.57"/>
<path fill-rule="evenodd" clip-rule="evenodd" d="M97.7287 185.184V182.492H96.4758V185.184H93.9699V186.529H96.4758V189.22H97.7287V186.529H100.235V185.184H97.7287ZM97.7287 165V162.309H96.4758V165H93.9699V166.346H96.4758V169.037H97.7287V166.346H100.235V165H97.7287ZM78.9346 185.184V182.492H77.6817V185.184H75.1758V186.529H77.6817V189.22H78.9346V186.529H81.4405V185.184H78.9346ZM78.9346 165V162.309H77.6817V165H75.1758V166.346H77.6817V169.037H78.9346V166.346H81.4405V165H78.9346Z" fill="#00DB8C" fill-opacity="0.57"/>
<path fill-rule="evenodd" clip-rule="evenodd" d="M97.7287 104.451V101.76H96.4758V104.451H93.9699V105.797H96.4758V108.488H97.7287V105.797H100.235V104.451H97.7287ZM97.7287 84.2678V81.5767H96.4758V84.2678H93.9699V85.6133H96.4758V88.3044H97.7287V85.6133H100.235V84.2678H97.7287ZM78.9346 104.451V101.76H77.6817V104.451H75.1758V105.797H77.6817V108.488H78.9346V105.797H81.4405V104.451H78.9346ZM78.9346 84.2678V81.5767H77.6817V84.2678H75.1758V85.6133H77.6817V88.3044H78.9346V85.6133H81.4405V84.2678H78.9346Z" fill="#00DB8C" fill-opacity="0.57"/>
<path fill-rule="evenodd" clip-rule="evenodd" d="M97.7287 23.7172V21.0261H96.4758V23.7172H93.9699V25.0628H96.4758V27.7539H97.7287V25.0628H100.235V23.7172H97.7287ZM97.7287 3.53389V0.842773H96.4758V3.53389H93.9699V4.87945H96.4758V7.57056H97.7287V4.87945H100.235V3.53389H97.7287ZM78.9346 23.7172V21.0261H77.6817V23.7172H75.1758V25.0628H77.6817V27.7539H78.9346V25.0628H81.4405V23.7172H78.9346ZM78.9346 3.53389V0.842773H77.6817V3.53389H75.1758V4.87945H77.6817V7.57056H78.9346V4.87945H81.4405V3.53389H78.9346Z" fill="#00DB8C" fill-opacity="0.57"/>
<path fill-rule="evenodd" clip-rule="evenodd" d="M97.7287 144.818V142.127H96.4758V144.818H93.9699V146.164H96.4758V148.855H97.7287V146.164H100.235V144.818H97.7287ZM97.7287 124.635V121.944H96.4758V124.635H93.9699V125.981H96.4758V128.672H97.7287V125.981H100.235V124.635H97.7287ZM78.9346 144.818V142.127H77.6817V144.818H75.1758V146.164H77.6817V148.855H78.9346V146.164H81.4405V144.818H78.9346ZM78.9346 124.635V121.944H77.6817V124.635H75.1758V125.981H77.6817V128.672H78.9346V125.981H81.4405V124.635H78.9346Z" fill="#00DB8C" fill-opacity="0.57"/>
<path fill-rule="evenodd" clip-rule="evenodd" d="M97.7287 64.0839V61.3928H96.4758V64.0839H93.9699V65.4295H96.4758V68.1206H97.7287V65.4295H100.235V64.0839H97.7287ZM97.7287 43.9006V41.2095H96.4758V43.9006H93.9699V45.2461H96.4758V47.9373H97.7287V45.2461H100.235V43.9006H97.7287ZM78.9346 64.0839V61.3928H77.6817V64.0839H75.1758V65.4295H77.6817V68.1206H78.9346V65.4295H81.4405V64.0839H78.9346ZM78.9346 43.9006V41.2095H77.6817V43.9006H75.1758V45.2461H77.6817V47.9373H78.9346V45.2461H81.4405V43.9006H78.9346Z" fill="#00DB8C" fill-opacity="0.57"/>
<path fill-rule="evenodd" clip-rule="evenodd" d="M135.321 185.184V182.492H134.068V185.184H131.562V186.529H134.068V189.22H135.321V186.529H137.826V185.184H135.321ZM135.321 165V162.309H134.068V165H131.562V166.346H134.068V169.037H135.321V166.346H137.826V165H135.321ZM116.526 185.184V182.492H115.273V185.184H112.768V186.529H115.273V189.22H116.526V186.529H119.032V185.184H116.526ZM116.526 165V162.309H115.273V165H112.768V166.346H115.273V169.037H116.526V166.346H119.032V165H116.526Z" fill="#00DB8C" fill-opacity="0.57"/>
<path fill-rule="evenodd" clip-rule="evenodd" d="M135.321 104.451V101.76H134.068V104.451H131.562V105.797H134.068V108.488H135.321V105.797H137.826V104.451H135.321ZM135.321 84.2678V81.5767H134.068V84.2678H131.562V85.6133H134.068V88.3044H135.321V85.6133H137.826V84.2678H135.321ZM116.526 104.451V101.76H115.273V104.451H112.768V105.797H115.273V108.488H116.526V105.797H119.032V104.451H116.526ZM116.526 84.2678V81.5767H115.273V84.2678H112.768V85.6133H115.273V88.3044H116.526V85.6133H119.032V84.2678H116.526Z" fill="#00DB8C" fill-opacity="0.57"/>
<path fill-rule="evenodd" clip-rule="evenodd" d="M135.321 23.7172V21.0261H134.068V23.7172H131.562V25.0628H134.068V27.7539H135.321V25.0628H137.826V23.7172H135.321ZM135.321 3.53389V0.842773H134.068V3.53389H131.562V4.87945H134.068V7.57056H135.321V4.87945H137.826V3.53389H135.321ZM116.526 23.7172V21.0261H115.273V23.7172H112.768V25.0628H115.273V27.7539H116.526V25.0628H119.032V23.7172H116.526ZM116.526 3.53389V0.842773H115.273V3.53389H112.768V4.87945H115.273V7.57056H116.526V4.87945H119.032V3.53389H116.526Z" fill="#00DB8C" fill-opacity="0.57"/>
<path fill-rule="evenodd" clip-rule="evenodd" d="M135.321 144.818V142.127H134.068V144.818H131.562V146.164H134.068V148.855H135.321V146.164H137.826V144.818H135.321ZM135.321 124.635V121.944H134.068V124.635H131.562V125.981H134.068V128.672H135.321V125.981H137.826V124.635H135.321ZM116.526 144.818V142.127H115.273V144.818H112.768V146.164H115.273V148.855H116.526V146.164H119.032V144.818H116.526ZM116.526 124.635V121.944H115.273V124.635H112.768V125.981H115.273V128.672H116.526V125.981H119.032V124.635H116.526Z" fill="#00DB8C" fill-opacity="0.57"/>
<path fill-rule="evenodd" clip-rule="evenodd" d="M135.321 64.0839V61.3928H134.068V64.0839H131.562V65.4295H134.068V68.1206H135.321V65.4295H137.826V64.0839H135.321ZM135.321 43.9006V41.2095H134.068V43.9006H131.562V45.2461H134.068V47.9373H135.321V45.2461H137.826V43.9006H135.321ZM116.526 64.0839V61.3928H115.273V64.0839H112.768V65.4295H115.273V68.1206H116.526V65.4295H119.032V64.0839H116.526ZM116.526 43.9006V41.2095H115.273V43.9006H112.768V45.2461H115.273V47.9373H116.526V45.2461H119.032V43.9006H116.526Z" fill="#00DB8C" fill-opacity="0.57"/>
<path fill-rule="evenodd" clip-rule="evenodd" d="M172.907 185.184V182.493H171.654V185.184H169.148V186.53H171.654V189.221H172.907V186.53H175.412V185.184H172.907ZM172.907 165.001V162.31H171.654V165.001H169.148V166.346H171.654V169.037H172.907V166.346H175.412V165.001H172.907ZM154.112 185.184V182.493H152.86V185.184H150.354V186.53H152.86V189.221H154.112V186.53H156.618V185.184H154.112ZM154.112 165.001V162.31H152.86V165.001H150.354V166.346H152.86V169.037H154.112V166.346H156.618V165.001H154.112Z" fill="#00DB8C" fill-opacity="0.57"/>
<path fill-rule="evenodd" clip-rule="evenodd" d="M172.907 104.45V101.759H171.654V104.45H169.148V105.796H171.654V108.487H172.907V105.796H175.412V104.45H172.907ZM172.907 84.267V81.5759H171.654V84.267H169.148V85.6126H171.654V88.3037H172.907V85.6126H175.412V84.267H172.907ZM154.112 104.45V101.759H152.86V104.45H150.354V105.796H152.86V108.487H154.112V105.796H156.618V104.45H154.112ZM154.112 84.267V81.5759H152.86V84.267H150.354V85.6126H152.86V88.3037H154.112V85.6126H156.618V84.267H154.112Z" fill="#00DB8C" fill-opacity="0.57"/>
<path fill-rule="evenodd" clip-rule="evenodd" d="M172.907 23.7172V21.0261H171.654V23.7172H169.148V25.0628H171.654V27.7539H172.907V25.0628H175.412V23.7172H172.907ZM172.907 3.53389V0.842773H171.654V3.53389H169.148V4.87945H171.654V7.57056H172.907V4.87945H175.412V3.53389H172.907ZM154.112 23.7172V21.0261H152.86V23.7172H150.354V25.0628H152.86V27.7539H154.112V25.0628H156.618V23.7172H154.112ZM154.112 3.53389V0.842773H152.86V3.53389H150.354V4.87945H152.86V7.57056H154.112V4.87945H156.618V3.53389H154.112Z" fill="#00DB8C" fill-opacity="0.57"/>
<path fill-rule="evenodd" clip-rule="evenodd" d="M172.907 144.818V142.127H171.654V144.818H169.148V146.163H171.654V148.855H172.907V146.163H175.412V144.818H172.907ZM172.907 124.634V121.943H171.654V124.634H169.148V125.98H171.654V128.671H172.907V125.98H175.412V124.634H172.907ZM154.112 144.818V142.127H152.86V144.818H150.354V146.163H152.86V148.855H154.112V146.163H156.618V144.818H154.112ZM154.112 124.634V121.943H152.86V124.634H150.354V125.98H152.86V128.671H154.112V125.98H156.618V124.634H154.112Z" fill="#00DB8C" fill-opacity="0.57"/>
<path fill-rule="evenodd" clip-rule="evenodd" d="M172.907 64.0844V61.3933H171.654V64.0844H169.148V65.43H171.654V68.1211H172.907V65.43H175.412V64.0844H172.907ZM172.907 43.9011V41.21H171.654V43.9011H169.148V45.2466H171.654V47.9377H172.907V45.2466H175.412V43.9011H172.907ZM154.112 64.0844V61.3933H152.86V64.0844H150.354V65.43H152.86V68.1211H154.112V65.43H156.618V64.0844H154.112ZM154.112 43.9011V41.21H152.86V43.9011H150.354V45.2466H152.86V47.9377H154.112V45.2466H156.618V43.9011H154.112Z" fill="#00DB8C" fill-opacity="0.57"/>
<path fill-rule="evenodd" clip-rule="evenodd" d="M210.494 185.185V182.493H209.241V185.185H206.736V186.53H209.241V189.221H210.494V186.53H213V185.185H210.494ZM210.494 165.001V162.31H209.241V165.001H206.736V166.347H209.241V169.038H210.494V166.347H213V165.001H210.494ZM191.7 185.185V182.493H190.447V185.185H187.941V186.53H190.447V189.221H191.7V186.53H194.206V185.185H191.7ZM191.7 165.001V162.31H190.447V165.001H187.941V166.347H190.447V169.038H191.7V166.347H194.206V165.001H191.7Z" fill="#00DB8C" fill-opacity="0.57"/>
<path fill-rule="evenodd" clip-rule="evenodd" d="M22.5529 185.184V182.493H21.3V185.184H18.7941V186.53H21.3V189.221H22.5529V186.53H25.0588V185.184H22.5529ZM22.5529 165.001V162.31H21.3V165.001H18.7941V166.346H21.3V169.038H22.5529V166.346H25.0588V165.001H22.5529ZM3.75882 185.184V182.493H2.50588V185.184H0V186.53H2.50588V189.221H3.75882V186.53H6.2647V185.184H3.75882ZM3.75882 165.001V162.31H2.50588V165.001H0V166.346H2.50588V169.038H3.75882V166.346H6.2647V165.001H3.75882Z" fill="#00DB8C" fill-opacity="0.57"/>
<path fill-rule="evenodd" clip-rule="evenodd" d="M210.494 104.451V101.76H209.241V104.451H206.736V105.797H209.241V108.488H210.494V105.797H213V104.451H210.494ZM210.494 84.2678V81.5767H209.241V84.2678H206.736V85.6133H209.241V88.3044H210.494V85.6133H213V84.2678H210.494ZM191.7 104.451V101.76H190.447V104.451H187.941V105.797H190.447V108.488H191.7V105.797H194.206V104.451H191.7ZM191.7 84.2678V81.5767H190.447V84.2678H187.941V85.6133H190.447V88.3044H191.7V85.6133H194.206V84.2678H191.7Z" fill="#00DB8C" fill-opacity="0.57"/>
<path fill-rule="evenodd" clip-rule="evenodd" d="M22.5529 104.451V101.76H21.3V104.451H18.7941V105.796H21.3V108.487H22.5529V105.796H25.0588V104.451H22.5529ZM22.5529 84.2673V81.5762H21.3V84.2673H18.7941V85.6128H21.3V88.304H22.5529V85.6128H25.0588V84.2673H22.5529ZM3.75882 104.451V101.76H2.50588V104.451H0V105.796H2.50588V108.487H3.75882V105.796H6.2647V104.451H3.75882ZM3.75882 84.2673V81.5762H2.50588V84.2673H0V85.6128H2.50588V88.304H3.75882V85.6128H6.2647V84.2673H3.75882Z" fill="#00DB8C" fill-opacity="0.57"/>
<path fill-rule="evenodd" clip-rule="evenodd" d="M210.494 23.7175V21.0264H209.241V23.7175H206.736V25.063H209.241V27.7542H210.494V25.063H213V23.7175H210.494ZM210.494 3.53413V0.843018H209.241V3.53413H206.736V4.87969H209.241V7.5708H210.494V4.87969H213V3.53413H210.494ZM191.7 23.7175V21.0264H190.447V23.7175H187.941V25.063H190.447V27.7542H191.7V25.063H194.206V23.7175H191.7ZM191.7 3.53413V0.843018H190.447V3.53413H187.941V4.87969H190.447V7.5708H191.7V4.87969H194.206V3.53413H191.7Z" fill="#00DB8C" fill-opacity="0.57"/>
<path fill-rule="evenodd" clip-rule="evenodd" d="M22.5529 23.7175V21.0264H21.3V23.7175H18.7941V25.063H21.3V27.7542H22.5529V25.063H25.0588V23.7175H22.5529ZM22.5529 3.53413V0.843018H21.3V3.53413H18.7941V4.87969H21.3V7.5708H22.5529V4.87969H25.0588V3.53413H22.5529ZM3.75882 23.7175V21.0264H2.50588V23.7175H0V25.063H2.50588V27.7542H3.75882V25.063H6.2647V23.7175H3.75882ZM3.75882 3.53413V0.843018H2.50588V3.53413H0V4.87969H2.50588V7.5708H3.75882V4.87969H6.2647V3.53413H3.75882Z" fill="#00DB8C" fill-opacity="0.57"/>
<path fill-rule="evenodd" clip-rule="evenodd" d="M210.494 144.818V142.127H209.241V144.818H206.736V146.164H209.241V148.855H210.494V146.164H213V144.818H210.494ZM210.494 124.635V121.944H209.241V124.635H206.736V125.981H209.241V128.672H210.494V125.981H213V124.635H210.494ZM191.7 144.818V142.127H190.447V144.818H187.941V146.164H190.447V148.855H191.7V146.164H194.206V144.818H191.7ZM191.7 124.635V121.944H190.447V124.635H187.941V125.981H190.447V128.672H191.7V125.981H194.206V124.635H191.7Z" fill="#00DB8C" fill-opacity="0.57"/>
<path fill-rule="evenodd" clip-rule="evenodd" d="M22.5529 144.818V142.126H21.3V144.818H18.7941V146.163H21.3V148.854H22.5529V146.163H25.0588V144.818H22.5529ZM22.5529 124.634V121.943H21.3V124.634H18.7941V125.98H21.3V128.671H22.5529V125.98H25.0588V124.634H22.5529ZM3.75882 144.818V142.126H2.50588V144.818H0V146.163H2.50588V148.854H3.75882V146.163H6.2647V144.818H3.75882ZM3.75882 124.634V121.943H2.50588V124.634H0V125.98H2.50588V128.671H3.75882V125.98H6.2647V124.634H3.75882Z" fill="#00DB8C" fill-opacity="0.57"/>
<path fill-rule="evenodd" clip-rule="evenodd" d="M210.494 64.0844V61.3933H209.241V64.0844H206.736V65.43H209.241V68.1211H210.494V65.43H213V64.0844H210.494ZM210.494 43.9011V41.21H209.241V43.9011H206.736V45.2466H209.241V47.9377H210.494V45.2466H213V43.9011H210.494ZM191.7 64.0844V61.3933H190.447V64.0844H187.941V65.43H190.447V68.1211H191.7V65.43H194.206V64.0844H191.7ZM191.7 43.9011V41.21H190.447V43.9011H187.941V45.2466H190.447V47.9377H191.7V45.2466H194.206V43.9011H191.7Z" fill="#00DB8C" fill-opacity="0.57"/>
<path fill-rule="evenodd" clip-rule="evenodd" d="M22.5529 64.0844V61.3933H21.3V64.0844H18.7941V65.43H21.3V68.1211H22.5529V65.43H25.0588V64.0844H22.5529ZM22.5529 43.9011V41.21H21.3V43.9011H18.7941V45.2466H21.3V47.9377H22.5529V45.2466H25.0588V43.9011H22.5529ZM3.75882 64.0844V61.3933H2.50588V64.0844H0V65.43H2.50588V68.1211H3.75882V65.43H6.2647V64.0844H3.75882ZM3.75882 43.9011V41.21H2.50588V43.9011H0V45.2466H2.50588V47.9377H3.75882V45.2466H6.2647V43.9011H3.75882Z" fill="#00DB8C" fill-opacity="0.57"/>
</svg>
