<svg width="110" height="98" viewBox="0 0 110 98" fill="none" xmlns="http://www.w3.org/2000/svg">
<path fill-rule="evenodd" clip-rule="evenodd" d="M30.7919 94.9341V93.5562H30.1504V94.9341H28.8673V95.6231H30.1504V97.001H30.7919V95.6231H32.075V94.9341H30.7919ZM30.7919 84.5996V83.2217H30.1504V84.5996H28.8673V85.2886H30.1504V86.6665H30.7919V85.2886H32.075V84.5996H30.7919ZM21.1688 94.9341V93.5562H20.5272V94.9341H19.2441V95.6231H20.5272V97.001H21.1688V95.6231H22.4519V94.9341H21.1688ZM21.1688 84.5996V83.2217H20.5272V84.5996H19.2441V85.2886H20.5272V86.6665H21.1688V85.2886H22.4519V84.5996H21.1688Z" fill="#00DB8C" fill-opacity="0.57"/>
<path fill-rule="evenodd" clip-rule="evenodd" d="M30.7919 53.5965V52.2185H30.1504V53.5965H28.8673V54.2854H30.1504V55.6634H30.7919V54.2854H32.075V53.5965H30.7919ZM30.7919 43.262V41.884H30.1504V43.262H28.8673V43.9509H30.1504V45.3289H30.7919V43.9509H32.075V43.262H30.7919ZM21.1688 53.5965V52.2185H20.5272V53.5965H19.2441V54.2854H20.5272V55.6634H21.1688V54.2854H22.4519V53.5965H21.1688ZM21.1688 43.262V41.884H20.5272V43.262H19.2441V43.9509H20.5272V45.3289H21.1688V43.9509H22.4519V43.262H21.1688Z" fill="#00DB8C" fill-opacity="0.57"/>
<path fill-rule="evenodd" clip-rule="evenodd" d="M30.7919 12.2583V10.8804H30.1504V12.2583H28.8673V12.9473H30.1504V14.3252H30.7919V12.9473H32.075V12.2583H30.7919ZM30.7919 1.92383V0.545898H30.1504V1.92383H28.8673V2.6128H30.1504V3.99073H30.7919V2.6128H32.075V1.92383H30.7919ZM21.1688 12.2583V10.8804H20.5272V12.2583H19.2441V12.9473H20.5272V14.3252H21.1688V12.9473H22.4519V12.2583H21.1688ZM21.1688 1.92383V0.545898H20.5272V1.92383H19.2441V2.6128H20.5272V3.99073H21.1688V2.6128H22.4519V1.92383H21.1688Z" fill="#00DB8C" fill-opacity="0.57"/>
<path fill-rule="evenodd" clip-rule="evenodd" d="M30.7919 74.2657V72.8877H30.1504V74.2657H28.8673V74.9546H30.1504V76.3326H30.7919V74.9546H32.075V74.2657H30.7919ZM30.7919 63.9312V62.5532H30.1504V63.9312H28.8673V64.6201H30.1504V65.9981H30.7919V64.6201H32.075V63.9312H30.7919ZM21.1688 74.2657V72.8877H20.5272V74.2657H19.2441V74.9546H20.5272V76.3326H21.1688V74.9546H22.4519V74.2657H21.1688ZM21.1688 63.9312V62.5532H20.5272V63.9312H19.2441V64.6201H20.5272V65.9981H21.1688V64.6201H22.4519V63.9312H21.1688Z" fill="#00DB8C" fill-opacity="0.57"/>
<path fill-rule="evenodd" clip-rule="evenodd" d="M30.7919 32.9273V31.5493H30.1504V32.9273H28.8673V33.6163H30.1504V34.9942H30.7919V33.6163H32.075V32.9273H30.7919ZM30.7919 22.5928V21.2148H30.1504V22.5928H28.8673V23.2817H30.1504V24.6597H30.7919V23.2817H32.075V22.5928H30.7919ZM21.1688 32.9273V31.5493H20.5272V32.9273H19.2441V33.6163H20.5272V34.9942H21.1688V33.6163H22.4519V32.9273H21.1688ZM21.1688 22.5928V21.2148H20.5272V22.5928H19.2441V23.2817H20.5272V24.6597H21.1688V23.2817H22.4519V22.5928H21.1688Z" fill="#00DB8C" fill-opacity="0.57"/>
<path fill-rule="evenodd" clip-rule="evenodd" d="M50.0419 94.9341V93.5562H49.4004V94.9341H48.1173V95.6231H49.4004V97.001H50.0419V95.6231H51.325V94.9341H50.0419ZM50.0419 84.5996V83.2217H49.4004V84.5996H48.1173V85.2886H49.4004V86.6665H50.0419V85.2886H51.325V84.5996H50.0419ZM40.4188 94.9341V93.5562H39.7772V94.9341H38.4941V95.6231H39.7772V97.001H40.4188V95.6231H41.7019V94.9341H40.4188ZM40.4188 84.5996V83.2217H39.7772V84.5996H38.4941V85.2886H39.7772V86.6665H40.4188V85.2886H41.7019V84.5996H40.4188Z" fill="#00DB8C" fill-opacity="0.57"/>
<path fill-rule="evenodd" clip-rule="evenodd" d="M50.0419 53.5965V52.2185H49.4004V53.5965H48.1173V54.2854H49.4004V55.6634H50.0419V54.2854H51.325V53.5965H50.0419ZM50.0419 43.262V41.884H49.4004V43.262H48.1173V43.9509H49.4004V45.3289H50.0419V43.9509H51.325V43.262H50.0419ZM40.4188 53.5965V52.2185H39.7772V53.5965H38.4941V54.2854H39.7772V55.6634H40.4188V54.2854H41.7019V53.5965H40.4188ZM40.4188 43.262V41.884H39.7772V43.262H38.4941V43.9509H39.7772V45.3289H40.4188V43.9509H41.7019V43.262H40.4188Z" fill="#00DB8C" fill-opacity="0.57"/>
<path fill-rule="evenodd" clip-rule="evenodd" d="M50.0419 12.2583V10.8804H49.4004V12.2583H48.1173V12.9473H49.4004V14.3252H50.0419V12.9473H51.325V12.2583H50.0419ZM50.0419 1.92383V0.545898H49.4004V1.92383H48.1173V2.6128H49.4004V3.99073H50.0419V2.6128H51.325V1.92383H50.0419ZM40.4188 12.2583V10.8804H39.7772V12.2583H38.4941V12.9473H39.7772V14.3252H40.4188V12.9473H41.7019V12.2583H40.4188ZM40.4188 1.92383V0.545898H39.7772V1.92383H38.4941V2.6128H39.7772V3.99073H40.4188V2.6128H41.7019V1.92383H40.4188Z" fill="#00DB8C" fill-opacity="0.57"/>
<path fill-rule="evenodd" clip-rule="evenodd" d="M50.0419 74.2657V72.8877H49.4004V74.2657H48.1173V74.9546H49.4004V76.3326H50.0419V74.9546H51.325V74.2657H50.0419ZM50.0419 63.9312V62.5532H49.4004V63.9312H48.1173V64.6201H49.4004V65.9981H50.0419V64.6201H51.325V63.9312H50.0419ZM40.4188 74.2657V72.8877H39.7772V74.2657H38.4941V74.9546H39.7772V76.3326H40.4188V74.9546H41.7019V74.2657H40.4188ZM40.4188 63.9312V62.5532H39.7772V63.9312H38.4941V64.6201H39.7772V65.9981H40.4188V64.6201H41.7019V63.9312H40.4188Z" fill="#00DB8C" fill-opacity="0.57"/>
<path fill-rule="evenodd" clip-rule="evenodd" d="M50.0419 32.9273V31.5493H49.4004V32.9273H48.1173V33.6163H49.4004V34.9942H50.0419V33.6163H51.325V32.9273H50.0419ZM50.0419 22.5928V21.2148H49.4004V22.5928H48.1173V23.2817H49.4004V24.6597H50.0419V23.2817H51.325V22.5928H50.0419ZM40.4188 32.9273V31.5493H39.7772V32.9273H38.4941V33.6163H39.7772V34.9942H40.4188V33.6163H41.7019V32.9273H40.4188ZM40.4188 22.5928V21.2148H39.7772V22.5928H38.4941V23.2817H39.7772V24.6597H40.4188V23.2817H41.7019V22.5928H40.4188Z" fill="#00DB8C" fill-opacity="0.57"/>
<path fill-rule="evenodd" clip-rule="evenodd" d="M69.288 94.9341V93.5562H68.6465V94.9341H67.3634V95.6231H68.6465V97.001H69.288V95.6231H70.5711V94.9341H69.288ZM69.288 84.5996V83.2217H68.6465V84.5996H67.3634V85.2886H68.6465V86.6665H69.288V85.2886H70.5711V84.5996H69.288ZM59.6649 94.9341V93.5562H59.0233V94.9341H57.7402V95.6231H59.0233V97.001H59.6649V95.6231H60.948V94.9341H59.6649ZM59.6649 84.5996V83.2217H59.0233V84.5996H57.7402V85.2886H59.0233V86.6665H59.6649V85.2886H60.948V84.5996H59.6649Z" fill="#00DB8C" fill-opacity="0.57"/>
<path fill-rule="evenodd" clip-rule="evenodd" d="M69.288 53.5965V52.2185H68.6465V53.5965H67.3634V54.2854H68.6465V55.6634H69.288V54.2854H70.5711V53.5965H69.288ZM69.288 43.262V41.884H68.6465V43.262H67.3634V43.9509H68.6465V45.3289H69.288V43.9509H70.5711V43.262H69.288ZM59.6649 53.5965V52.2185H59.0233V53.5965H57.7402V54.2854H59.0233V55.6634H59.6649V54.2854H60.948V53.5965H59.6649ZM59.6649 43.262V41.884H59.0233V43.262H57.7402V43.9509H59.0233V45.3289H59.6649V43.9509H60.948V43.262H59.6649Z" fill="#00DB8C" fill-opacity="0.57"/>
<path fill-rule="evenodd" clip-rule="evenodd" d="M69.288 12.2583V10.8804H68.6465V12.2583H67.3634V12.9473H68.6465V14.3252H69.288V12.9473H70.5711V12.2583H69.288ZM69.288 1.92383V0.545898H68.6465V1.92383H67.3634V2.6128H68.6465V3.99073H69.288V2.6128H70.5711V1.92383H69.288ZM59.6649 12.2583V10.8804H59.0233V12.2583H57.7402V12.9473H59.0233V14.3252H59.6649V12.9473H60.948V12.2583H59.6649ZM59.6649 1.92383V0.545898H59.0233V1.92383H57.7402V2.6128H59.0233V3.99073H59.6649V2.6128H60.948V1.92383H59.6649Z" fill="#00DB8C" fill-opacity="0.57"/>
<path fill-rule="evenodd" clip-rule="evenodd" d="M69.288 74.2657V72.8877H68.6465V74.2657H67.3634V74.9546H68.6465V76.3326H69.288V74.9546H70.5711V74.2657H69.288ZM69.288 63.9312V62.5532H68.6465V63.9312H67.3634V64.6201H68.6465V65.9981H69.288V64.6201H70.5711V63.9312H69.288ZM59.6649 74.2657V72.8877H59.0233V74.2657H57.7402V74.9546H59.0233V76.3326H59.6649V74.9546H60.948V74.2657H59.6649ZM59.6649 63.9312V62.5532H59.0233V63.9312H57.7402V64.6201H59.0233V65.9981H59.6649V64.6201H60.948V63.9312H59.6649Z" fill="#00DB8C" fill-opacity="0.57"/>
<path fill-rule="evenodd" clip-rule="evenodd" d="M69.288 32.9273V31.5493H68.6465V32.9273H67.3634V33.6163H68.6465V34.9942H69.288V33.6163H70.5711V32.9273H69.288ZM69.288 22.5928V21.2148H68.6465V22.5928H67.3634V23.2817H68.6465V24.6597H69.288V23.2817H70.5711V22.5928H69.288ZM59.6649 32.9273V31.5493H59.0233V32.9273H57.7402V33.6163H59.0233V34.9942H59.6649V33.6163H60.948V32.9273H59.6649ZM59.6649 22.5928V21.2148H59.0233V22.5928H57.7402V23.2817H59.0233V24.6597H59.6649V23.2817H60.948V22.5928H59.6649Z" fill="#00DB8C" fill-opacity="0.57"/>
<path fill-rule="evenodd" clip-rule="evenodd" d="M88.5322 94.9344V93.5564H87.8906V94.9344H86.6075V95.6233H87.8906V97.0013H88.5322V95.6233H89.8153V94.9344H88.5322ZM88.5322 84.5999V83.2219H87.8906V84.5999H86.6075V85.2888H87.8906V86.6668H88.5322V85.2888H89.8153V84.5999H88.5322ZM78.909 94.9344V93.5564H78.2675V94.9344H76.9844V95.6233H78.2675V97.0013H78.909V95.6233H80.1921V94.9344H78.909ZM78.909 84.5999V83.2219H78.2675V84.5999H76.9844V85.2888H78.2675V86.6668H78.909V85.2888H80.1921V84.5999H78.909Z" fill="#00DB8C" fill-opacity="0.57"/>
<path fill-rule="evenodd" clip-rule="evenodd" d="M88.5322 53.5962V52.2183H87.8906V53.5962H86.6075V54.2852H87.8906V55.6631H88.5322V54.2852H89.8153V53.5962H88.5322ZM88.5322 43.2617V41.8838H87.8906V43.2617H86.6075V43.9507H87.8906V45.3286H88.5322V43.9507H89.8153V43.2617H88.5322ZM78.909 53.5962V52.2183H78.2675V53.5962H76.9844V54.2852H78.2675V55.6631H78.909V54.2852H80.1921V53.5962H78.909ZM78.909 43.2617V41.8838H78.2675V43.2617H76.9844V43.9507H78.2675V45.3286H78.909V43.9507H80.1921V43.2617H78.909Z" fill="#00DB8C" fill-opacity="0.57"/>
<path fill-rule="evenodd" clip-rule="evenodd" d="M88.5322 12.2583V10.8804H87.8906V12.2583H86.6075V12.9473H87.8906V14.3252H88.5322V12.9473H89.8153V12.2583H88.5322ZM88.5322 1.92383V0.545898H87.8906V1.92383H86.6075V2.6128H87.8906V3.99073H88.5322V2.6128H89.8153V1.92383H88.5322ZM78.909 12.2583V10.8804H78.2675V12.2583H76.9844V12.9473H78.2675V14.3252H78.909V12.9473H80.1921V12.2583H78.909ZM78.909 1.92383V0.545898H78.2675V1.92383H76.9844V2.6128H78.2675V3.99073H78.909V2.6128H80.1921V1.92383H78.909Z" fill="#00DB8C" fill-opacity="0.57"/>
<path fill-rule="evenodd" clip-rule="evenodd" d="M88.5322 74.2654V72.8875H87.8906V74.2654H86.6075V74.9544H87.8906V76.3323H88.5322V74.9544H89.8153V74.2654H88.5322ZM88.5322 63.9309V62.553H87.8906V63.9309H86.6075V64.6199H87.8906V65.9978H88.5322V64.6199H89.8153V63.9309H88.5322ZM78.909 74.2654V72.8875H78.2675V74.2654H76.9844V74.9544H78.2675V76.3323H78.909V74.9544H80.1921V74.2654H78.909ZM78.909 63.9309V62.553H78.2675V63.9309H76.9844V64.6199H78.2675V65.9978H78.909V64.6199H80.1921V63.9309H78.909Z" fill="#00DB8C" fill-opacity="0.57"/>
<path fill-rule="evenodd" clip-rule="evenodd" d="M88.5322 32.9275V31.5496H87.8906V32.9275H86.6075V33.6165H87.8906V34.9944H88.5322V33.6165H89.8153V32.9275H88.5322ZM88.5322 22.593V21.2151H87.8906V22.593H86.6075V23.282H87.8906V24.6599H88.5322V23.282H89.8153V22.593H88.5322ZM78.909 32.9275V31.5496H78.2675V32.9275H76.9844V33.6165H78.2675V34.9944H78.909V33.6165H80.1921V32.9275H78.909ZM78.909 22.593V21.2151H78.2675V22.593H76.9844V23.282H78.2675V24.6599H78.909V23.282H80.1921V22.593H78.909Z" fill="#00DB8C" fill-opacity="0.57"/>
<path fill-rule="evenodd" clip-rule="evenodd" d="M107.78 94.9346V93.5567H107.139V94.9346H105.856V95.6236H107.139V97.0015H107.78V95.6236H109.063V94.9346H107.78ZM107.78 84.6001V83.2222H107.139V84.6001H105.856V85.2891H107.139V86.667H107.78V85.2891H109.063V84.6001H107.78ZM98.1571 94.9346V93.5567H97.5155V94.9346H96.2324V95.6236H97.5155V97.0015H98.1571V95.6236H99.4401V94.9346H98.1571ZM98.1571 84.6001V83.2222H97.5155V84.6001H96.2324V85.2891H97.5155V86.667H98.1571V85.2891H99.4401V84.6001H98.1571Z" fill="#00DB8C" fill-opacity="0.57"/>
<path fill-rule="evenodd" clip-rule="evenodd" d="M11.5478 94.9344V93.5564H10.9063V94.9344H9.62317V95.6233H10.9063V97.0013H11.5478V95.6233H12.8309V94.9344H11.5478ZM11.5478 84.5999V83.2219H10.9063V84.5999H9.62317V85.2888H10.9063V86.6668H11.5478V85.2888H12.8309V84.5999H11.5478ZM1.92463 94.9344V93.5564H1.28309V94.9344H0V95.6233H1.28309V97.0013H1.92463V95.6233H3.20772V94.9344H1.92463ZM1.92463 84.5999V83.2219H1.28309V84.5999H0V85.2888H1.28309V86.6668H1.92463V85.2888H3.20772V84.5999H1.92463Z" fill="#00DB8C" fill-opacity="0.57"/>
<path fill-rule="evenodd" clip-rule="evenodd" d="M107.78 53.5965V52.2185H107.139V53.5965H105.856V54.2854H107.139V55.6634H107.78V54.2854H109.063V53.5965H107.78ZM107.78 43.262V41.884H107.139V43.262H105.856V43.9509H107.139V45.3289H107.78V43.9509H109.063V43.262H107.78ZM98.1571 53.5965V52.2185H97.5155V53.5965H96.2324V54.2854H97.5155V55.6634H98.1571V54.2854H99.4401V53.5965H98.1571ZM98.1571 43.262V41.884H97.5155V43.262H96.2324V43.9509H97.5155V45.3289H98.1571V43.9509H99.4401V43.262H98.1571Z" fill="#00DB8C" fill-opacity="0.57"/>
<path fill-rule="evenodd" clip-rule="evenodd" d="M11.5478 53.5962V52.2183H10.9063V53.5962H9.62317V54.2852H10.9063V55.6631H11.5478V54.2852H12.8309V53.5962H11.5478ZM11.5478 43.2617V41.8838H10.9063V43.2617H9.62317V43.9507H10.9063V45.3286H11.5478V43.9507H12.8309V43.2617H11.5478ZM1.92463 53.5962V52.2183H1.28309V53.5962H0V54.2852H1.28309V55.6631H1.92463V54.2852H3.20772V53.5962H1.92463ZM1.92463 43.2617V41.8838H1.28309V43.2617H0V43.9507H1.28309V45.3286H1.92463V43.9507H3.20772V43.2617H1.92463Z" fill="#00DB8C" fill-opacity="0.57"/>
<path fill-rule="evenodd" clip-rule="evenodd" d="M107.78 12.2583V10.8804H107.139V12.2583H105.856V12.9473H107.139V14.3252H107.78V12.9473H109.063V12.2583H107.78ZM107.78 1.92383V0.545898H107.139V1.92383H105.856V2.6128H107.139V3.99073H107.78V2.6128H109.063V1.92383H107.78ZM98.1571 12.2583V10.8804H97.5155V12.2583H96.2324V12.9473H97.5155V14.3252H98.1571V12.9473H99.4401V12.2583H98.1571ZM98.1571 1.92383V0.545898H97.5155V1.92383H96.2324V2.6128H97.5155V3.99073H98.1571V2.6128H99.4401V1.92383H98.1571Z" fill="#00DB8C" fill-opacity="0.57"/>
<path fill-rule="evenodd" clip-rule="evenodd" d="M11.5478 12.2583V10.8804H10.9063V12.2583H9.62317V12.9473H10.9063V14.3252H11.5478V12.9473H12.8309V12.2583H11.5478ZM11.5478 1.92383V0.545898H10.9063V1.92383H9.62317V2.6128H10.9063V3.99073H11.5478V2.6128H12.8309V1.92383H11.5478ZM1.92463 12.2583V10.8804H1.28309V12.2583H0V12.9473H1.28309V14.3252H1.92463V12.9473H3.20772V12.2583H1.92463ZM1.92463 1.92383V0.545898H1.28309V1.92383H0V2.6128H1.28309V3.99073H1.92463V2.6128H3.20772V1.92383H1.92463Z" fill="#00DB8C" fill-opacity="0.57"/>
<path fill-rule="evenodd" clip-rule="evenodd" d="M107.78 74.2657V72.8877H107.139V74.2657H105.856V74.9546H107.139V76.3326H107.78V74.9546H109.063V74.2657H107.78ZM107.78 63.9312V62.5532H107.139V63.9312H105.856V64.6201H107.139V65.9981H107.78V64.6201H109.063V63.9312H107.78ZM98.1571 74.2657V72.8877H97.5155V74.2657H96.2324V74.9546H97.5155V76.3326H98.1571V74.9546H99.4401V74.2657H98.1571ZM98.1571 63.9312V62.5532H97.5155V63.9312H96.2324V64.6201H97.5155V65.9981H98.1571V64.6201H99.4401V63.9312H98.1571Z" fill="#00DB8C" fill-opacity="0.57"/>
<path fill-rule="evenodd" clip-rule="evenodd" d="M11.5478 74.2654V72.8875H10.9063V74.2654H9.62317V74.9544H10.9063V76.3323H11.5478V74.9544H12.8309V74.2654H11.5478ZM11.5478 63.9309V62.553H10.9063V63.9309H9.62317V64.6199H10.9063V65.9978H11.5478V64.6199H12.8309V63.9309H11.5478ZM1.92463 74.2654V72.8875H1.28309V74.2654H0V74.9544H1.28309V76.3323H1.92463V74.9544H3.20772V74.2654H1.92463ZM1.92463 63.9309V62.553H1.28309V63.9309H0V64.6199H1.28309V65.9978H1.92463V64.6199H3.20772V63.9309H1.92463Z" fill="#00DB8C" fill-opacity="0.57"/>
<path fill-rule="evenodd" clip-rule="evenodd" d="M107.78 32.9275V31.5496H107.139V32.9275H105.856V33.6165H107.139V34.9944H107.78V33.6165H109.063V32.9275H107.78ZM107.78 22.593V21.2151H107.139V22.593H105.856V23.282H107.139V24.6599H107.78V23.282H109.063V22.593H107.78ZM98.1571 32.9275V31.5496H97.5155V32.9275H96.2324V33.6165H97.5155V34.9944H98.1571V33.6165H99.4401V32.9275H98.1571ZM98.1571 22.593V21.2151H97.5155V22.593H96.2324V23.282H97.5155V24.6599H98.1571V23.282H99.4401V22.593H98.1571Z" fill="#00DB8C" fill-opacity="0.57"/>
<path fill-rule="evenodd" clip-rule="evenodd" d="M11.5478 32.9275V31.5496H10.9063V32.9275H9.62317V33.6165H10.9063V34.9944H11.5478V33.6165H12.8309V32.9275H11.5478ZM11.5478 22.593V21.2151H10.9063V22.593H9.62317V23.282H10.9063V24.6599H11.5478V23.282H12.8309V22.593H11.5478ZM1.92463 32.9275V31.5496H1.28309V32.9275H0V33.6165H1.28309V34.9944H1.92463V33.6165H3.20772V32.9275H1.92463ZM1.92463 22.593V21.2151H1.28309V22.593H0V23.282H1.28309V24.6599H1.92463V23.282H3.20772V22.593H1.92463Z" fill="#00DB8C" fill-opacity="0.57"/>
</svg>
