<svg width="18" height="18" viewBox="0 0 18 18" fill="none" xmlns="http://www.w3.org/2000/svg">
<path d="M10.281 0V1.1875C13.8821 1.1875 16.8123 4.11766 16.8123 7.71875H17.9998C17.9998 3.46275 14.537 0 10.281 0ZM4.13569 1.78481C3.81723 1.78374 3.50798 1.89164 3.25931 2.09059L3.23022 2.11434L1.36288 4.04047L1.40266 4.00306C0.785158 4.53506 0.614158 5.37581 0.879564 6.08238C1.3801 7.52519 2.65488 10.3152 5.17178 12.828C7.69285 15.3526 10.512 16.5733 11.9067 17.1178L11.9209 17.1226L11.9346 17.1273C12.2838 17.2428 12.6569 17.2658 13.0177 17.1942C13.3784 17.1226 13.7145 16.9588 13.9931 16.7188L14.0109 16.704L15.8658 14.8485C16.3586 14.3557 16.3586 13.4924 15.8658 13.0002L13.4332 10.5646C12.9392 10.0706 12.0759 10.0706 11.5819 10.5646L10.4039 11.7426C9.98235 11.5413 8.94447 11.0194 7.95766 10.0789C6.9851 9.15028 6.48813 8.07797 6.30822 7.66294L7.49572 6.47544C8.01644 5.95472 8.04613 5.05994 7.44585 4.58138L7.49988 4.63184L5.04056 2.11434L5.01266 2.09059C4.76385 1.89147 4.45436 1.78356 4.13569 1.78481ZM10.281 2.375V3.5625C12.5723 3.5625 14.4373 5.42688 14.4373 7.71875H15.6248C15.6248 4.77256 13.2278 2.375 10.281 2.375ZM4.13688 2.96875C4.17963 2.96875 4.22119 2.98478 4.26216 3.01625L6.67694 5.48863L6.70603 5.51238C6.69891 5.50644 6.7286 5.56344 6.65616 5.63587L4.90044 7.39219L5.03581 7.75081C5.03581 7.75081 5.70616 9.57244 7.13828 10.9387C8.54666 12.2817 10.2834 13.0156 10.2834 13.0156L10.6533 13.1735L12.4215 11.4047C12.5218 11.305 12.4933 11.305 12.5937 11.4047L15.0263 13.8403C15.1272 13.9412 15.1272 13.908 15.0263 14.0095L13.2171 15.8187C12.9416 16.0526 12.6572 16.1138 12.3146 16.0004C10.9721 15.4755 8.34478 14.326 6.01135 11.989C3.66128 9.64191 2.44291 6.97537 1.99641 5.68337L1.99403 5.67625L1.99047 5.66794C1.90081 5.43044 1.96672 5.08547 2.1775 4.90378L2.1971 4.88597L4.01041 3.01625C4.04617 2.98689 4.09063 2.97019 4.13688 2.96875ZM10.281 4.75V5.9375C11.2631 5.9375 12.0623 6.73669 12.0623 7.71875H13.2498C13.2498 6.08178 11.918 4.75 10.281 4.75Z" fill="white"/>
</svg>
