<svg width="21" height="23" viewBox="0 0 21 23" fill="none" xmlns="http://www.w3.org/2000/svg">
<path d="M18.07 2.56772C15.4022 -0.100049 11.0579 -0.100049 8.39296 2.56772L1.00136 9.95366C0.953218 10.0018 0.92773 10.0669 0.92773 10.1349C0.92773 10.2029 0.953218 10.268 1.00136 10.3162L2.04638 11.3612C2.09415 11.4087 2.15881 11.4354 2.22622 11.4354C2.29362 11.4354 2.35828 11.4087 2.40605 11.3612L9.79765 3.97524C10.7152 3.05767 11.9358 2.55356 13.2329 2.55356C14.53 2.55356 15.7506 3.05767 16.6653 3.97524C17.5829 4.89282 18.087 6.11343 18.087 7.40767C18.087 8.70474 17.5829 9.92251 16.6653 10.8401L9.13212 18.3705L7.91152 19.5911C6.77021 20.7324 4.91523 20.7324 3.77392 19.5911C3.22168 19.0388 2.91865 18.3053 2.91865 17.5237C2.91865 16.742 3.22168 16.0085 3.77392 15.4563L11.2477 7.9854C11.4374 7.79849 11.6866 7.6937 11.9528 7.6937H11.9557C12.2219 7.6937 12.4683 7.79849 12.6552 7.9854C12.8449 8.17515 12.9469 8.42436 12.9469 8.69058C12.9469 8.95395 12.8421 9.20317 12.6552 9.39009L6.54648 15.4931C6.49834 15.5413 6.47285 15.6064 6.47285 15.6744C6.47285 15.7423 6.49834 15.8075 6.54648 15.8556L7.5915 16.9006C7.63927 16.9482 7.70393 16.9749 7.77133 16.9749C7.83874 16.9749 7.9034 16.9482 7.95117 16.9006L14.057 10.7948C14.6206 10.2312 14.9293 9.48355 14.9293 8.68774C14.9293 7.89194 14.6178 7.14145 14.057 6.58071C12.8931 5.41675 11.0013 5.41958 9.8373 6.58071L9.1123 7.30854L2.3664 14.0516C1.90855 14.5068 1.54562 15.0483 1.29866 15.6448C1.05169 16.2413 0.925615 16.8809 0.92773 17.5265C0.92773 18.8377 1.44033 20.0697 2.3664 20.9958C3.32646 21.953 4.58388 22.4316 5.8413 22.4316C7.09873 22.4316 8.35615 21.953 9.31337 20.9958L18.07 12.2448C19.3586 10.9534 20.0723 9.23433 20.0723 7.40767C20.0751 5.57817 19.3614 3.85913 18.07 2.56772Z" fill="#FFCA1C"/>
</svg>
