<svg width="119" height="190" viewBox="0 0 119 190" fill="none" xmlns="http://www.w3.org/2000/svg">
<path d="M61.48 0.39999C73.6133 0.39999 83.9267 2.39332 92.42 6.37999C101.087 10.1933 107.587 15.3933 111.92 21.98C116.253 28.5667 118.42 35.8467 118.42 43.82C118.42 50.9267 117.12 56.9933 114.52 62.02C112.093 67.0467 109.147 71.12 105.68 74.24C102.213 77.36 97.62 81 91.9 85.16C84.9667 89.84 79.8533 94.0867 76.56 97.9C73.2667 101.54 71.62 106.307 71.62 112.2V118.7H34.18V110.64C34.18 102.493 35.3933 95.6467 37.82 90.1C40.42 84.38 43.4533 79.96 46.92 76.84C50.56 73.5467 55.0667 69.9933 60.44 66.18C65.64 62.7133 69.4533 59.68 71.88 57.08C74.3067 54.48 75.52 51.2733 75.52 47.46C75.52 42.78 73.8733 39.14 70.58 36.54C67.46 33.94 63.04 32.64 57.32 32.64C46.4 32.64 36.26 37.9267 26.9 48.5L0.64 28.22C16.4133 9.67332 36.6933 0.39999 61.48 0.39999ZM53.42 142.36C59.8333 142.36 65.2933 144.7 69.8 149.38C74.48 153.887 76.82 159.347 76.82 165.76C76.82 172.347 74.48 177.98 69.8 182.66C65.2933 187.167 59.8333 189.42 53.42 189.42C47.0067 189.42 41.46 187.167 36.78 182.66C32.2733 177.98 30.02 172.347 30.02 165.76C30.02 159.347 32.2733 153.887 36.78 149.38C41.46 144.7 47.0067 142.36 53.42 142.36Z" fill="#DFEAFF"/>
</svg>
