<svg width="97" height="97" viewBox="0 0 97 97" fill="none" xmlns="http://www.w3.org/2000/svg">
<circle cx="2.5" cy="2.5" r="2.5" fill="#D1E1FF"/>
<ellipse cx="2.5" cy="54" rx="2.5" ry="3" fill="#D1E1FF"/>
<circle cx="2.5" cy="12.5" r="2.5" fill="#D1E1FF"/>
<circle cx="2.5" cy="63.5" r="2.5" fill="#D1E1FF"/>
<ellipse cx="2.5" cy="23" rx="2.5" ry="2" fill="#D1E1FF"/>
<ellipse cx="2.5" cy="74" rx="2.5" ry="2" fill="#D1E1FF"/>
<circle cx="2.5" cy="33.5" r="2.5" fill="#D1E1FF"/>
<circle cx="2.5" cy="84.5" r="2.5" fill="#D1E1FF"/>
<ellipse cx="2.5" cy="43" rx="2.5" ry="3" fill="#D1E1FF"/>
<circle cx="2.5" cy="94.5" r="2.5" fill="#D1E1FF"/>
<ellipse cx="54" cy="2.5" rx="3" ry="2.5" fill="#D1E1FF"/>
<circle cx="54" cy="54" r="3" fill="#D1E1FF"/>
<ellipse cx="54" cy="12.5" rx="3" ry="2.5" fill="#D1E1FF"/>
<ellipse cx="54" cy="63.5" rx="3" ry="2.5" fill="#D1E1FF"/>
<ellipse cx="54" cy="23" rx="3" ry="2" fill="#D1E1FF"/>
<ellipse cx="54" cy="74" rx="3" ry="2" fill="#D1E1FF"/>
<ellipse cx="54" cy="33.5" rx="3" ry="2.5" fill="#D1E1FF"/>
<ellipse cx="54" cy="84.5" rx="3" ry="2.5" fill="#D1E1FF"/>
<circle cx="54" cy="43" r="3" fill="#D1E1FF"/>
<ellipse cx="54" cy="94.5" rx="3" ry="2.5" fill="#D1E1FF"/>
<circle cx="12.5" cy="2.5" r="2.5" fill="#D1E1FF"/>
<ellipse cx="12.5" cy="54" rx="2.5" ry="3" fill="#D1E1FF"/>
<circle cx="12.5" cy="12.5" r="2.5" fill="#D1E1FF"/>
<circle cx="12.5" cy="63.5" r="2.5" fill="#D1E1FF"/>
<ellipse cx="12.5" cy="23" rx="2.5" ry="2" fill="#D1E1FF"/>
<ellipse cx="12.5" cy="74" rx="2.5" ry="2" fill="#D1E1FF"/>
<circle cx="12.5" cy="33.5" r="2.5" fill="#D1E1FF"/>
<circle cx="12.5" cy="84.5" r="2.5" fill="#D1E1FF"/>
<ellipse cx="12.5" cy="43" rx="2.5" ry="3" fill="#D1E1FF"/>
<circle cx="12.5" cy="94.5" r="2.5" fill="#D1E1FF"/>
<circle cx="63.5" cy="2.5" r="2.5" fill="#D1E1FF"/>
<ellipse cx="63.5" cy="54" rx="2.5" ry="3" fill="#D1E1FF"/>
<circle cx="63.5" cy="12.5" r="2.5" fill="#D1E1FF"/>
<circle cx="63.5" cy="63.5" r="2.5" fill="#D1E1FF"/>
<ellipse cx="63.5" cy="23" rx="2.5" ry="2" fill="#D1E1FF"/>
<ellipse cx="63.5" cy="74" rx="2.5" ry="2" fill="#D1E1FF"/>
<circle cx="63.5" cy="33.5" r="2.5" fill="#D1E1FF"/>
<circle cx="63.5" cy="84.5" r="2.5" fill="#D1E1FF"/>
<ellipse cx="63.5" cy="43" rx="2.5" ry="3" fill="#D1E1FF"/>
<circle cx="63.5" cy="94.5" r="2.5" fill="#D1E1FF"/>
<ellipse cx="23" cy="2.5" rx="2" ry="2.5" fill="#D1E1FF"/>
<ellipse cx="23" cy="54" rx="2" ry="3" fill="#D1E1FF"/>
<ellipse cx="23" cy="12.5" rx="2" ry="2.5" fill="#D1E1FF"/>
<ellipse cx="23" cy="63.5" rx="2" ry="2.5" fill="#D1E1FF"/>
<circle cx="23" cy="23" r="2" fill="#D1E1FF"/>
<circle cx="23" cy="74" r="2" fill="#D1E1FF"/>
<ellipse cx="23" cy="33.5" rx="2" ry="2.5" fill="#D1E1FF"/>
<ellipse cx="23" cy="84.5" rx="2" ry="2.5" fill="#D1E1FF"/>
<ellipse cx="23" cy="43" rx="2" ry="3" fill="#D1E1FF"/>
<ellipse cx="23" cy="94.5" rx="2" ry="2.5" fill="#D1E1FF"/>
<ellipse cx="74" cy="2.5" rx="2" ry="2.5" fill="#D1E1FF"/>
<ellipse cx="74" cy="54" rx="2" ry="3" fill="#D1E1FF"/>
<ellipse cx="74" cy="12.5" rx="2" ry="2.5" fill="#D1E1FF"/>
<ellipse cx="74" cy="63.5" rx="2" ry="2.5" fill="#D1E1FF"/>
<circle cx="74" cy="23" r="2" fill="#D1E1FF"/>
<circle cx="74" cy="74" r="2" fill="#D1E1FF"/>
<ellipse cx="74" cy="33.5" rx="2" ry="2.5" fill="#D1E1FF"/>
<ellipse cx="74" cy="84.5" rx="2" ry="2.5" fill="#D1E1FF"/>
<ellipse cx="74" cy="43" rx="2" ry="3" fill="#D1E1FF"/>
<ellipse cx="74" cy="94.5" rx="2" ry="2.5" fill="#D1E1FF"/>
<circle cx="33.5" cy="2.5" r="2.5" fill="#D1E1FF"/>
<ellipse cx="33.5" cy="54" rx="2.5" ry="3" fill="#D1E1FF"/>
<circle cx="33.5" cy="12.5" r="2.5" fill="#D1E1FF"/>
<circle cx="33.5" cy="63.5" r="2.5" fill="#D1E1FF"/>
<ellipse cx="33.5" cy="23" rx="2.5" ry="2" fill="#D1E1FF"/>
<ellipse cx="33.5" cy="74" rx="2.5" ry="2" fill="#D1E1FF"/>
<circle cx="33.5" cy="33.5" r="2.5" fill="#D1E1FF"/>
<circle cx="33.5" cy="84.5" r="2.5" fill="#D1E1FF"/>
<ellipse cx="33.5" cy="43" rx="2.5" ry="3" fill="#D1E1FF"/>
<circle cx="33.5" cy="94.5" r="2.5" fill="#D1E1FF"/>
<circle cx="84.5" cy="2.5" r="2.5" fill="#D1E1FF"/>
<ellipse cx="84.5" cy="54" rx="2.5" ry="3" fill="#D1E1FF"/>
<circle cx="84.5" cy="12.5" r="2.5" fill="#D1E1FF"/>
<circle cx="84.5" cy="63.5" r="2.5" fill="#D1E1FF"/>
<ellipse cx="84.5" cy="23" rx="2.5" ry="2" fill="#D1E1FF"/>
<ellipse cx="84.5" cy="74" rx="2.5" ry="2" fill="#D1E1FF"/>
<circle cx="84.5" cy="33.5" r="2.5" fill="#D1E1FF"/>
<circle cx="84.5" cy="84.5" r="2.5" fill="#D1E1FF"/>
<ellipse cx="84.5" cy="43" rx="2.5" ry="3" fill="#D1E1FF"/>
<circle cx="84.5" cy="94.5" r="2.5" fill="#D1E1FF"/>
<ellipse cx="43" cy="2.5" rx="3" ry="2.5" fill="#D1E1FF"/>
<circle cx="43" cy="54" r="3" fill="#D1E1FF"/>
<ellipse cx="43" cy="12.5" rx="3" ry="2.5" fill="#D1E1FF"/>
<ellipse cx="43" cy="63.5" rx="3" ry="2.5" fill="#D1E1FF"/>
<ellipse cx="43" cy="23" rx="3" ry="2" fill="#D1E1FF"/>
<ellipse cx="43" cy="74" rx="3" ry="2" fill="#D1E1FF"/>
<ellipse cx="43" cy="33.5" rx="3" ry="2.5" fill="#D1E1FF"/>
<ellipse cx="43" cy="84.5" rx="3" ry="2.5" fill="#D1E1FF"/>
<circle cx="43" cy="43" r="3" fill="#D1E1FF"/>
<ellipse cx="43" cy="94.5" rx="3" ry="2.5" fill="#D1E1FF"/>
<circle cx="94.5" cy="2.5" r="2.5" fill="#D1E1FF"/>
<ellipse cx="94.5" cy="54" rx="2.5" ry="3" fill="#D1E1FF"/>
<circle cx="94.5" cy="12.5" r="2.5" fill="#D1E1FF"/>
<circle cx="94.5" cy="63.5" r="2.5" fill="#D1E1FF"/>
<ellipse cx="94.5" cy="23" rx="2.5" ry="2" fill="#D1E1FF"/>
<ellipse cx="94.5" cy="74" rx="2.5" ry="2" fill="#D1E1FF"/>
<circle cx="94.5" cy="33.5" r="2.5" fill="#D1E1FF"/>
<circle cx="94.5" cy="84.5" r="2.5" fill="#D1E1FF"/>
<ellipse cx="94.5" cy="43" rx="2.5" ry="3" fill="#D1E1FF"/>
<circle cx="94.5" cy="94.5" r="2.5" fill="#D1E1FF"/>
</svg>
