<svg width="30" height="30" viewBox="0 0 30 30" fill="none" xmlns="http://www.w3.org/2000/svg">
<path fill-rule="evenodd" clip-rule="evenodd" d="M15 0.333313C6.9 0.333313 0.333328 6.89998 0.333328 15C0.333328 23.1 6.9 29.6666 15 29.6666C23.1 29.6666 29.6667 23.1 29.6667 15C29.6667 6.89998 23.1 0.333313 15 0.333313ZM9.66666 13.6666C9.31304 13.6666 8.9739 13.8071 8.72385 14.0572C8.4738 14.3072 8.33333 14.6464 8.33333 15C8.33333 15.3536 8.4738 15.6927 8.72385 15.9428C8.9739 16.1928 9.31304 16.3333 9.66666 16.3333H20.3333C20.687 16.3333 21.0261 16.1928 21.2761 15.9428C21.5262 15.6927 21.6667 15.3536 21.6667 15C21.6667 14.6464 21.5262 14.3072 21.2761 14.0572C21.0261 13.8071 20.687 13.6666 20.3333 13.6666H9.66666Z" fill="#FF0000"/>
</svg>
