<svg width="30" height="30" viewBox="0 0 30 30" fill="none" xmlns="http://www.w3.org/2000/svg">
<path fill-rule="evenodd" clip-rule="evenodd" d="M15 0.333313C6.9 0.333313 0.333328 6.89998 0.333328 15C0.333328 23.1 6.9 29.6666 15 29.6666C23.1 29.6666 29.6667 23.1 29.6667 15C29.6667 6.89998 23.1 0.333313 15 0.333313ZM13.5227 10.9133C13.8293 10.3093 14.056 10.0226 14.244 9.87331C14.3853 9.76131 14.5773 9.66665 15 9.66665C15.8333 9.66665 16.3333 10.2933 16.3333 10.9706C16.3333 11.3413 16.2613 11.5253 16.064 11.76C15.788 12.088 15.2773 12.4866 14.2667 13.1546L13.6667 13.5493V16.3333C13.6667 16.6869 13.8071 17.0261 14.0572 17.2761C14.3072 17.5262 14.6464 17.6666 15 17.6666C15.3536 17.6666 15.6928 17.5262 15.9428 17.2761C16.1929 17.0261 16.3333 16.6869 16.3333 16.3333V14.9773C17.056 14.4786 17.6627 14.0013 18.1027 13.4786C18.7387 12.724 19 11.9186 19 10.9706C19 9.01065 17.4893 6.99998 15 6.99998C14.088 6.99998 13.2813 7.23465 12.5893 7.78265C11.944 8.29331 11.504 8.99598 11.144 9.70931C11.0603 9.86594 11.0088 10.0377 10.9924 10.2145C10.9761 10.3913 10.9952 10.5696 11.0486 10.7389C11.1021 10.9083 11.1888 11.0652 11.3038 11.2005C11.4187 11.3359 11.5595 11.4469 11.7179 11.5271C11.8764 11.6073 12.0492 11.655 12.2263 11.6675C12.4035 11.68 12.5813 11.657 12.7494 11.5998C12.9175 11.5426 13.0725 11.4525 13.2053 11.3346C13.3381 11.2167 13.446 11.0735 13.5227 10.9133ZM16.3333 21C16.3333 20.6464 16.1929 20.3072 15.9428 20.0572C15.6928 19.8071 15.3536 19.6666 15 19.6666C14.6464 19.6666 14.3072 19.8071 14.0572 20.0572C13.8071 20.3072 13.6667 20.6464 13.6667 21V21.6666C13.6667 22.0203 13.8071 22.3594 14.0572 22.6095C14.3072 22.8595 14.6464 23 15 23C15.3536 23 15.6928 22.8595 15.9428 22.6095C16.1929 22.3594 16.3333 22.0203 16.3333 21.6666V21Z" fill="#02AD6F"/>
</svg>
