<svg width="56" height="48" viewBox="0 0 56 48" fill="none" xmlns="http://www.w3.org/2000/svg">
<path d="M47.6 9.41178H34.5333V8.47061C34.5279 3.79458 30.7704 0.00551472 26.1333 0H8.4C3.76296 0.00551472 0.00546875 3.79458 0 8.47061V19.7647C0.00546875 24.4408 3.76296 28.2298 8.4 28.2354H9.33333V35.7648C9.33333 36.1453 9.56074 36.4886 9.90938 36.6343C10.258 36.7799 10.6595 36.6991 10.9266 36.4302L19.0531 28.2354H21.4667V29.1765C21.4721 33.8526 25.2296 37.6416 29.8667 37.6471H35.0802L45.0734 47.7244C45.3405 47.9932 45.742 48.0741 46.0906 47.9284C46.4393 47.7827 46.6667 47.4394 46.6667 47.0589V37.6471H47.6C52.237 37.6416 55.9945 33.8526 56 29.1765V17.8824C55.9945 13.2064 52.237 9.4173 47.6 9.41178ZM18.6667 26.353C18.4192 26.353 18.1818 26.4523 18.0068 26.6287L11.2 33.4927V27.2942C11.2 26.7744 10.7821 26.353 10.2667 26.353H8.4C4.79336 26.3489 1.87077 23.4017 1.86667 19.7647V8.47061C1.87077 4.83365 4.79336 1.88649 8.4 1.88236H26.1333C29.74 1.88649 32.6626 4.83365 32.6667 8.47061V9.41178H29.8667C25.2296 9.4173 21.4721 13.2064 21.4667 17.8824V26.353H18.6667ZM54.1333 29.1765C54.1292 32.8135 51.2066 35.7606 47.6 35.7648H45.7333C45.2179 35.7648 44.8 36.1862 44.8 36.706V44.7869L36.1266 36.0405C35.9516 35.864 35.7141 35.7648 35.4667 35.7648H29.8667C26.26 35.7606 23.3374 32.8135 23.3333 29.1765V17.8824C23.3374 14.2454 26.26 11.2983 29.8667 11.2941H47.6C51.2066 11.2983 54.1292 14.2454 54.1333 17.8824V29.1765Z" fill="#01A254"/>
<path d="M49.4664 16.9414H27.9997C27.4843 16.9414 27.0664 17.3628 27.0664 17.8826C27.0664 18.4023 27.4843 18.8238 27.9997 18.8238H49.4664C49.9818 18.8238 50.3997 18.4023 50.3997 17.8826C50.3997 17.3628 49.9818 16.9414 49.4664 16.9414Z" fill="#01A254"/>
<path d="M49.4664 22.5884H27.9997C27.4843 22.5884 27.0664 23.0098 27.0664 23.5296C27.0664 24.0493 27.4843 24.4707 27.9997 24.4707H49.4664C49.9818 24.4707 50.3997 24.0493 50.3997 23.5296C50.3997 23.0098 49.9818 22.5884 49.4664 22.5884Z" fill="#01A254"/>
<path d="M49.4664 28.2354H27.9997C27.4843 28.2354 27.0664 28.6568 27.0664 29.1765C27.0664 29.6963 27.4843 30.1177 27.9997 30.1177H49.4664C49.9818 30.1177 50.3997 29.6963 50.3997 29.1765C50.3997 28.6568 49.9818 28.2354 49.4664 28.2354Z" fill="#01A254"/>
<path d="M5.59935 9.41165H25.1994C25.7148 9.41165 26.1327 8.99024 26.1327 8.47048C26.1327 7.95071 25.7148 7.5293 25.1994 7.5293H5.59935C5.08392 7.5293 4.66602 7.95071 4.66602 8.47048C4.66602 8.99024 5.08392 9.41165 5.59935 9.41165Z" fill="#01A254"/>
<path d="M19.5993 13.1768H5.59935C5.08392 13.1768 4.66602 13.5982 4.66602 14.1179C4.66602 14.6377 5.08392 15.0591 5.59935 15.0591H19.5993C20.1148 15.0591 20.5327 14.6377 20.5327 14.1179C20.5327 13.5982 20.1148 13.1768 19.5993 13.1768Z" fill="#01A254"/>
<path d="M18.666 18.8237H5.59935C5.08392 18.8237 4.66602 19.2451 4.66602 19.7649C4.66602 20.2847 5.08392 20.7061 5.59935 20.7061H18.666C19.1814 20.7061 19.5993 20.2847 19.5993 19.7649C19.5993 19.2451 19.1814 18.8237 18.666 18.8237Z" fill="#01A254"/>
</svg>
