<svg width="24" height="24" viewBox="0 0 24 24" fill="none" xmlns="http://www.w3.org/2000/svg">
<path fill-rule="evenodd" clip-rule="evenodd" d="M6.96912 2.469C6.89928 2.53867 6.84387 2.62143 6.80606 2.71255C6.76825 2.80367 6.74878 2.90135 6.74878 3C6.74878 3.09865 6.76825 3.19633 6.80606 3.28745C6.84387 3.37857 6.89928 3.46133 6.96912 3.531L15.4396 12L6.96912 20.469C6.82829 20.6098 6.74918 20.8008 6.74918 21C6.74918 21.1992 6.82829 21.3902 6.96912 21.531C7.10995 21.6718 7.30096 21.7509 7.50012 21.7509C7.69929 21.7509 7.8903 21.6718 8.03112 21.531L17.0311 12.531C17.101 12.4613 17.1564 12.3786 17.1942 12.2874C17.232 12.1963 17.2515 12.0986 17.2515 12C17.2515 11.9013 17.232 11.8037 17.1942 11.7125C17.1564 11.6214 17.101 11.5387 17.0311 11.469L8.03112 2.469C7.96146 2.39915 7.87869 2.34374 7.78757 2.30593C7.69646 2.26812 7.59878 2.24866 7.50012 2.24866C7.40147 2.24866 7.30379 2.26812 7.21268 2.30593C7.12156 2.34374 7.03879 2.39915 6.96912 2.469Z" fill="white"/>
</svg>
