<svg width="1920" height="664" viewBox="0 0 1920 664" fill="none" xmlns="http://www.w3.org/2000/svg">
<rect width="1920" height="664" transform="matrix(1 0 0 -1 0 664)" fill="url(#paint0_linear_36_6)"/>
<path fill-rule="evenodd" clip-rule="evenodd" d="M1182.68 533.975V529.552H1180.38V533.975H1175.76V536.187H1180.38V540.61H1182.68V536.187H1187.29V533.975H1182.68ZM1182.68 500.803V496.38H1180.38V500.803H1175.76V503.014H1180.38V507.437H1182.68V503.014H1187.29V500.803H1182.68ZM1148.09 533.975V529.552H1145.79V533.975H1141.18V536.187H1145.79V540.61H1148.09V536.187H1152.71V533.975H1148.09ZM1148.09 500.803V496.38H1145.79V500.803H1141.18V503.014H1145.79V507.437H1148.09V503.014H1152.71V500.803H1148.09Z" fill="#15EC9E" fill-opacity="0.47"/>
<path fill-rule="evenodd" clip-rule="evenodd" d="M1182.68 401.285V396.862H1180.38V401.285H1175.76V403.497H1180.38V407.92H1182.68V403.497H1187.29V401.285H1182.68ZM1182.68 368.113V363.69H1180.38V368.113H1175.76V370.324H1180.38V374.747H1182.68V370.324H1187.29V368.113H1182.68ZM1148.09 401.285V396.862H1145.79V401.285H1141.18V403.497H1145.79V407.92H1148.09V403.497H1152.71V401.285H1148.09ZM1148.09 368.113V363.69H1145.79V368.113H1141.18V370.324H1145.79V374.747H1148.09V370.324H1152.71V368.113H1148.09Z" fill="#15EC9E" fill-opacity="0.47"/>
<path fill-rule="evenodd" clip-rule="evenodd" d="M1182.68 268.596V264.173H1180.38V268.596H1175.76V270.807H1180.38V275.23H1182.68V270.807H1187.29V268.596H1182.68ZM1182.68 235.423V231H1180.38V235.423H1175.76V237.635H1180.38V242.058H1182.68V237.635H1187.29V235.423H1182.68ZM1148.09 268.596V264.173H1145.79V268.596H1141.18V270.807H1145.79V275.23H1148.09V270.807H1152.71V268.596H1148.09ZM1148.09 235.423V231H1145.79V235.423H1141.18V237.635H1145.79V242.058H1148.09V237.635H1152.71V235.423H1148.09Z" fill="#15EC9E" fill-opacity="0.47"/>
<path fill-rule="evenodd" clip-rule="evenodd" d="M1182.68 467.631V463.208H1180.38V467.631H1175.76V469.842H1180.38V474.265H1182.68V469.842H1187.29V467.631H1182.68ZM1182.68 434.458V430.035H1180.38V434.458H1175.76V436.67H1180.38V441.093H1182.68V436.67H1187.29V434.458H1182.68ZM1148.09 467.631V463.208H1145.79V467.631H1141.18V469.842H1145.79V474.265H1148.09V469.842H1152.71V467.631H1148.09ZM1148.09 434.458V430.035H1145.79V434.458H1141.18V436.67H1145.79V441.093H1148.09V436.67H1152.71V434.458H1148.09Z" fill="#15EC9E" fill-opacity="0.47"/>
<path fill-rule="evenodd" clip-rule="evenodd" d="M1182.68 334.94V330.517H1180.38V334.94H1175.76V337.152H1180.38V341.575H1182.68V337.152H1187.29V334.94H1182.68ZM1182.68 301.768V297.345H1180.38V301.768H1175.76V303.979H1180.38V308.402H1182.68V303.979H1187.29V301.768H1182.68ZM1148.09 334.94V330.517H1145.79V334.94H1141.18V337.152H1145.79V341.575H1148.09V337.152H1152.71V334.94H1148.09ZM1148.09 301.768V297.345H1145.79V301.768H1141.18V303.979H1145.79V308.402H1148.09V303.979H1152.71V301.768H1148.09Z" fill="#15EC9E" fill-opacity="0.47"/>
<path fill-rule="evenodd" clip-rule="evenodd" d="M1251.86 533.975V529.552H1249.55V533.975H1244.94V536.187H1249.55V540.61H1251.86V536.187H1256.47V533.975H1251.86ZM1251.86 500.803V496.38H1249.55V500.803H1244.94V503.014H1249.55V507.437H1251.86V503.014H1256.47V500.803H1251.86ZM1217.27 533.975V529.552H1214.96V533.975H1210.35V536.187H1214.96V540.61H1217.27V536.187H1221.88V533.975H1217.27ZM1217.27 500.803V496.38H1214.96V500.803H1210.35V503.014H1214.96V507.437H1217.27V503.014H1221.88V500.803H1217.27Z" fill="#15EC9E" fill-opacity="0.47"/>
<path fill-rule="evenodd" clip-rule="evenodd" d="M1251.86 401.285V396.862H1249.55V401.285H1244.94V403.497H1249.55V407.92H1251.86V403.497H1256.47V401.285H1251.86ZM1251.86 368.113V363.69H1249.55V368.113H1244.94V370.324H1249.55V374.747H1251.86V370.324H1256.47V368.113H1251.86ZM1217.27 401.285V396.862H1214.96V401.285H1210.35V403.497H1214.96V407.92H1217.27V403.497H1221.88V401.285H1217.27ZM1217.27 368.113V363.69H1214.96V368.113H1210.35V370.324H1214.96V374.747H1217.27V370.324H1221.88V368.113H1217.27Z" fill="#15EC9E" fill-opacity="0.47"/>
<path fill-rule="evenodd" clip-rule="evenodd" d="M1251.86 268.596V264.173H1249.55V268.596H1244.94V270.807H1249.55V275.23H1251.86V270.807H1256.47V268.596H1251.86ZM1251.86 235.423V231H1249.55V235.423H1244.94V237.635H1249.55V242.058H1251.86V237.635H1256.47V235.423H1251.86ZM1217.27 268.596V264.173H1214.96V268.596H1210.35V270.807H1214.96V275.23H1217.27V270.807H1221.88V268.596H1217.27ZM1217.27 235.423V231H1214.96V235.423H1210.35V237.635H1214.96V242.058H1217.27V237.635H1221.88V235.423H1217.27Z" fill="#15EC9E" fill-opacity="0.47"/>
<path fill-rule="evenodd" clip-rule="evenodd" d="M1251.86 467.631V463.208H1249.55V467.631H1244.94V469.842H1249.55V474.265H1251.86V469.842H1256.47V467.631H1251.86ZM1251.86 434.458V430.035H1249.55V434.458H1244.94V436.67H1249.55V441.093H1251.86V436.67H1256.47V434.458H1251.86ZM1217.27 467.631V463.208H1214.96V467.631H1210.35V469.842H1214.96V474.265H1217.27V469.842H1221.88V467.631H1217.27ZM1217.27 434.458V430.035H1214.96V434.458H1210.35V436.67H1214.96V441.093H1217.27V436.67H1221.88V434.458H1217.27Z" fill="#15EC9E" fill-opacity="0.47"/>
<path fill-rule="evenodd" clip-rule="evenodd" d="M1251.86 334.94V330.517H1249.55V334.94H1244.94V337.152H1249.55V341.575H1251.86V337.152H1256.47V334.94H1251.86ZM1251.86 301.768V297.345H1249.55V301.768H1244.94V303.979H1249.55V308.402H1251.86V303.979H1256.47V301.768H1251.86ZM1217.27 334.94V330.517H1214.96V334.94H1210.35V337.152H1214.96V341.575H1217.27V337.152H1221.88V334.94H1217.27ZM1217.27 301.768V297.345H1214.96V301.768H1210.35V303.979H1214.96V308.402H1217.27V303.979H1221.88V301.768H1217.27Z" fill="#15EC9E" fill-opacity="0.47"/>
<path fill-rule="evenodd" clip-rule="evenodd" d="M1321.04 533.975V529.552H1318.73V533.975H1314.12V536.187H1318.73V540.61H1321.04V536.187H1325.65V533.975H1321.04ZM1321.04 500.803V496.38H1318.73V500.803H1314.12V503.014H1318.73V507.437H1321.04V503.014H1325.65V500.803H1321.04ZM1286.45 533.975V529.552H1284.14V533.975H1279.53V536.187H1284.14V540.61H1286.45V536.187H1291.06V533.975H1286.45ZM1286.45 500.803V496.38H1284.14V500.803H1279.53V503.014H1284.14V507.437H1286.45V503.014H1291.06V500.803H1286.45Z" fill="#15EC9E" fill-opacity="0.47"/>
<path fill-rule="evenodd" clip-rule="evenodd" d="M1321.04 401.285V396.862H1318.73V401.285H1314.12V403.497H1318.73V407.92H1321.04V403.497H1325.65V401.285H1321.04ZM1321.04 368.113V363.69H1318.73V368.113H1314.12V370.324H1318.73V374.747H1321.04V370.324H1325.65V368.113H1321.04ZM1286.45 401.285V396.862H1284.14V401.285H1279.53V403.497H1284.14V407.92H1286.45V403.497H1291.06V401.285H1286.45ZM1286.45 368.113V363.69H1284.14V368.113H1279.53V370.324H1284.14V374.747H1286.45V370.324H1291.06V368.113H1286.45Z" fill="#15EC9E" fill-opacity="0.47"/>
<path fill-rule="evenodd" clip-rule="evenodd" d="M1321.04 268.596V264.173H1318.73V268.596H1314.12V270.807H1318.73V275.23H1321.04V270.807H1325.65V268.596H1321.04ZM1321.04 235.423V231H1318.73V235.423H1314.12V237.635H1318.73V242.058H1321.04V237.635H1325.65V235.423H1321.04ZM1286.45 268.596V264.173H1284.14V268.596H1279.53V270.807H1284.14V275.23H1286.45V270.807H1291.06V268.596H1286.45ZM1286.45 235.423V231H1284.14V235.423H1279.53V237.635H1284.14V242.058H1286.45V237.635H1291.06V235.423H1286.45Z" fill="#15EC9E" fill-opacity="0.47"/>
<path fill-rule="evenodd" clip-rule="evenodd" d="M1321.04 467.631V463.208H1318.73V467.631H1314.12V469.842H1318.73V474.265H1321.04V469.842H1325.65V467.631H1321.04ZM1321.04 434.458V430.035H1318.73V434.458H1314.12V436.67H1318.73V441.093H1321.04V436.67H1325.65V434.458H1321.04ZM1286.45 467.631V463.208H1284.14V467.631H1279.53V469.842H1284.14V474.265H1286.45V469.842H1291.06V467.631H1286.45ZM1286.45 434.458V430.035H1284.14V434.458H1279.53V436.67H1284.14V441.093H1286.45V436.67H1291.06V434.458H1286.45Z" fill="#15EC9E" fill-opacity="0.47"/>
<path fill-rule="evenodd" clip-rule="evenodd" d="M1321.04 334.94V330.517H1318.73V334.94H1314.12V337.152H1318.73V341.575H1321.04V337.152H1325.65V334.94H1321.04ZM1321.04 301.768V297.345H1318.73V301.768H1314.12V303.979H1318.73V308.402H1321.04V303.979H1325.65V301.768H1321.04ZM1286.45 334.94V330.517H1284.14V334.94H1279.53V337.152H1284.14V341.575H1286.45V337.152H1291.06V334.94H1286.45ZM1286.45 301.768V297.345H1284.14V301.768H1279.53V303.979H1284.14V308.402H1286.45V303.979H1291.06V301.768H1286.45Z" fill="#15EC9E" fill-opacity="0.47"/>
<path fill-rule="evenodd" clip-rule="evenodd" d="M1390.21 533.975V529.552H1387.91V533.975H1383.3V536.187H1387.91V540.61H1390.21V536.187H1394.83V533.975H1390.21ZM1390.21 500.803V496.38H1387.91V500.803H1383.3V503.014H1387.91V507.437H1390.21V503.014H1394.83V500.803H1390.21ZM1355.63 533.975V529.552H1353.32V533.975H1348.71V536.187H1353.32V540.61H1355.63V536.187H1360.24V533.975H1355.63ZM1355.63 500.803V496.38H1353.32V500.803H1348.71V503.014H1353.32V507.437H1355.63V503.014H1360.24V500.803H1355.63Z" fill="#15EC9E" fill-opacity="0.47"/>
<path fill-rule="evenodd" clip-rule="evenodd" d="M1390.21 401.285V396.862H1387.91V401.285H1383.3V403.497H1387.91V407.92H1390.21V403.497H1394.83V401.285H1390.21ZM1390.21 368.113V363.69H1387.91V368.113H1383.3V370.324H1387.91V374.747H1390.21V370.324H1394.83V368.113H1390.21ZM1355.63 401.285V396.862H1353.32V401.285H1348.71V403.497H1353.32V407.92H1355.63V403.497H1360.24V401.285H1355.63ZM1355.63 368.113V363.69H1353.32V368.113H1348.71V370.324H1353.32V374.747H1355.63V370.324H1360.24V368.113H1355.63Z" fill="#15EC9E" fill-opacity="0.47"/>
<path fill-rule="evenodd" clip-rule="evenodd" d="M1390.21 268.596V264.173H1387.91V268.596H1383.3V270.807H1387.91V275.23H1390.21V270.807H1394.83V268.596H1390.21ZM1390.21 235.423V231H1387.91V235.423H1383.3V237.635H1387.91V242.058H1390.21V237.635H1394.83V235.423H1390.21ZM1355.63 268.596V264.173H1353.32V268.596H1348.71V270.807H1353.32V275.23H1355.63V270.807H1360.24V268.596H1355.63ZM1355.63 235.423V231H1353.32V235.423H1348.71V237.635H1353.32V242.058H1355.63V237.635H1360.24V235.423H1355.63Z" fill="#15EC9E" fill-opacity="0.47"/>
<path fill-rule="evenodd" clip-rule="evenodd" d="M1390.21 467.631V463.208H1387.91V467.631H1383.3V469.842H1387.91V474.265H1390.21V469.842H1394.83V467.631H1390.21ZM1390.21 434.458V430.035H1387.91V434.458H1383.3V436.67H1387.91V441.093H1390.21V436.67H1394.83V434.458H1390.21ZM1355.63 467.631V463.208H1353.32V467.631H1348.71V469.842H1353.32V474.265H1355.63V469.842H1360.24V467.631H1355.63ZM1355.63 434.458V430.035H1353.32V434.458H1348.71V436.67H1353.32V441.093H1355.63V436.67H1360.24V434.458H1355.63Z" fill="#15EC9E" fill-opacity="0.47"/>
<path fill-rule="evenodd" clip-rule="evenodd" d="M1390.21 334.94V330.517H1387.91V334.94H1383.3V337.152H1387.91V341.575H1390.21V337.152H1394.83V334.94H1390.21ZM1390.21 301.768V297.345H1387.91V301.768H1383.3V303.979H1387.91V308.402H1390.21V303.979H1394.83V301.768H1390.21ZM1355.63 334.94V330.517H1353.32V334.94H1348.71V337.152H1353.32V341.575H1355.63V337.152H1360.24V334.94H1355.63ZM1355.63 301.768V297.345H1353.32V301.768H1348.71V303.979H1353.32V308.402H1355.63V303.979H1360.24V301.768H1355.63Z" fill="#15EC9E" fill-opacity="0.47"/>
<path fill-rule="evenodd" clip-rule="evenodd" d="M1459.39 533.975V529.552H1457.08V533.975H1452.47V536.187H1457.08V540.61H1459.39V536.187H1464V533.975H1459.39ZM1459.39 500.803V496.38H1457.08V500.803H1452.47V503.014H1457.08V507.437H1459.39V503.014H1464V500.803H1459.39ZM1424.8 533.975V529.552H1422.49V533.975H1417.88V536.187H1422.49V540.61H1424.8V536.187H1429.41V533.975H1424.8ZM1424.8 500.803V496.38H1422.49V500.803H1417.88V503.014H1422.49V507.437H1424.8V503.014H1429.41V500.803H1424.8Z" fill="#15EC9E" fill-opacity="0.47"/>
<path fill-rule="evenodd" clip-rule="evenodd" d="M1113.51 533.975V529.552H1111.2V533.975H1106.59V536.187H1111.2V540.61H1113.51V536.187H1118.12V533.975H1113.51ZM1113.51 500.803V496.38H1111.2V500.803H1106.59V503.014H1111.2V507.437H1113.51V503.014H1118.12V500.803H1113.51ZM1078.92 533.975V529.552H1076.61V533.975H1072V536.187H1076.61V540.61H1078.92V536.187H1083.53V533.975H1078.92ZM1078.92 500.803V496.38H1076.61V500.803H1072V503.014H1076.61V507.437H1078.92V503.014H1083.53V500.803H1078.92Z" fill="#15EC9E" fill-opacity="0.47"/>
<path fill-rule="evenodd" clip-rule="evenodd" d="M1459.39 401.285V396.862H1457.08V401.285H1452.47V403.497H1457.08V407.92H1459.39V403.497H1464V401.285H1459.39ZM1459.39 368.113V363.69H1457.08V368.113H1452.47V370.324H1457.08V374.747H1459.39V370.324H1464V368.113H1459.39ZM1424.8 401.285V396.862H1422.49V401.285H1417.88V403.497H1422.49V407.92H1424.8V403.497H1429.41V401.285H1424.8ZM1424.8 368.113V363.69H1422.49V368.113H1417.88V370.324H1422.49V374.747H1424.8V370.324H1429.41V368.113H1424.8Z" fill="#15EC9E" fill-opacity="0.47"/>
<path fill-rule="evenodd" clip-rule="evenodd" d="M1113.51 401.285V396.862H1111.2V401.285H1106.59V403.497H1111.2V407.92H1113.51V403.497H1118.12V401.285H1113.51ZM1113.51 368.113V363.69H1111.2V368.113H1106.59V370.324H1111.2V374.747H1113.51V370.324H1118.12V368.113H1113.51ZM1078.92 401.285V396.862H1076.61V401.285H1072V403.497H1076.61V407.92H1078.92V403.497H1083.53V401.285H1078.92ZM1078.92 368.113V363.69H1076.61V368.113H1072V370.324H1076.61V374.747H1078.92V370.324H1083.53V368.113H1078.92Z" fill="#15EC9E" fill-opacity="0.47"/>
<path fill-rule="evenodd" clip-rule="evenodd" d="M1459.39 268.596V264.173H1457.08V268.596H1452.47V270.807H1457.08V275.23H1459.39V270.807H1464V268.596H1459.39ZM1459.39 235.423V231H1457.08V235.423H1452.47V237.635H1457.08V242.058H1459.39V237.635H1464V235.423H1459.39ZM1424.8 268.596V264.173H1422.49V268.596H1417.88V270.807H1422.49V275.23H1424.8V270.807H1429.41V268.596H1424.8ZM1424.8 235.423V231H1422.49V235.423H1417.88V237.635H1422.49V242.058H1424.8V237.635H1429.41V235.423H1424.8Z" fill="#15EC9E" fill-opacity="0.47"/>
<path fill-rule="evenodd" clip-rule="evenodd" d="M1113.51 268.596V264.173H1111.2V268.596H1106.59V270.807H1111.2V275.23H1113.51V270.807H1118.12V268.596H1113.51ZM1113.51 235.423V231H1111.2V235.423H1106.59V237.635H1111.2V242.058H1113.51V237.635H1118.12V235.423H1113.51ZM1078.92 268.596V264.173H1076.61V268.596H1072V270.807H1076.61V275.23H1078.92V270.807H1083.53V268.596H1078.92ZM1078.92 235.423V231H1076.61V235.423H1072V237.635H1076.61V242.058H1078.92V237.635H1083.53V235.423H1078.92Z" fill="#15EC9E" fill-opacity="0.47"/>
<path fill-rule="evenodd" clip-rule="evenodd" d="M1459.39 467.631V463.208H1457.08V467.631H1452.47V469.842H1457.08V474.265H1459.39V469.842H1464V467.631H1459.39ZM1459.39 434.458V430.035H1457.08V434.458H1452.47V436.67H1457.08V441.093H1459.39V436.67H1464V434.458H1459.39ZM1424.8 467.631V463.208H1422.49V467.631H1417.88V469.842H1422.49V474.265H1424.8V469.842H1429.41V467.631H1424.8ZM1424.8 434.458V430.035H1422.49V434.458H1417.88V436.67H1422.49V441.093H1424.8V436.67H1429.41V434.458H1424.8Z" fill="#15EC9E" fill-opacity="0.47"/>
<path fill-rule="evenodd" clip-rule="evenodd" d="M1113.51 467.631V463.208H1111.2V467.631H1106.59V469.842H1111.2V474.265H1113.51V469.842H1118.12V467.631H1113.51ZM1113.51 434.458V430.035H1111.2V434.458H1106.59V436.67H1111.2V441.093H1113.51V436.67H1118.12V434.458H1113.51ZM1078.92 467.631V463.208H1076.61V467.631H1072V469.842H1076.61V474.265H1078.92V469.842H1083.53V467.631H1078.92ZM1078.92 434.458V430.035H1076.61V434.458H1072V436.67H1076.61V441.093H1078.92V436.67H1083.53V434.458H1078.92Z" fill="#15EC9E" fill-opacity="0.47"/>
<path fill-rule="evenodd" clip-rule="evenodd" d="M1459.39 334.941V330.518H1457.08V334.941H1452.47V337.152H1457.08V341.575H1459.39V337.152H1464V334.941H1459.39ZM1459.39 301.768V297.345H1457.08V301.768H1452.47V303.98H1457.08V308.403H1459.39V303.98H1464V301.768H1459.39ZM1424.8 334.941V330.518H1422.49V334.941H1417.88V337.152H1422.49V341.575H1424.8V337.152H1429.41V334.941H1424.8ZM1424.8 301.768V297.345H1422.49V301.768H1417.88V303.98H1422.49V308.403H1424.8V303.98H1429.41V301.768H1424.8Z" fill="#15EC9E" fill-opacity="0.47"/>
<path fill-rule="evenodd" clip-rule="evenodd" d="M1113.51 334.941V330.518H1111.2V334.941H1106.59V337.152H1111.2V341.575H1113.51V337.152H1118.12V334.941H1113.51ZM1113.51 301.768V297.345H1111.2V301.768H1106.59V303.98H1111.2V308.403H1113.51V303.98H1118.12V301.768H1113.51ZM1078.92 334.941V330.518H1076.61V334.941H1072V337.152H1076.61V341.575H1078.92V337.152H1083.53V334.941H1078.92ZM1078.92 301.768V297.345H1076.61V301.768H1072V303.98H1076.61V308.403H1078.92V303.98H1083.53V301.768H1078.92Z" fill="#15EC9E" fill-opacity="0.47"/>
<circle cx="1458" cy="376" r="239" fill="#12B87B"/>
<path fill-rule="evenodd" clip-rule="evenodd" d="M1601.65 292.265V289.239H1600.22V292.265H1597.36V293.778H1600.22V296.804H1601.65V293.778H1604.51V292.265H1601.65ZM1601.65 269.572V266.546H1600.22V269.572H1597.36V271.085H1600.22V274.11H1601.65V271.085H1604.51V269.572H1601.65ZM1580.2 292.265V289.239H1578.77V292.265H1575.91V293.778H1578.77V296.804H1580.2V293.778H1583.06V292.265H1580.2ZM1580.2 269.572V266.546H1578.77V269.572H1575.91V271.085H1578.77V274.11H1580.2V271.085H1583.06V269.572H1580.2Z" fill="#00DB8C" fill-opacity="0.57"/>
<path fill-rule="evenodd" clip-rule="evenodd" d="M1601.65 201.492V198.466H1600.22V201.492H1597.36V203.005H1600.22V206.031H1601.65V203.005H1604.51V201.492H1601.65ZM1601.65 178.799V175.773H1600.22V178.799H1597.36V180.312H1600.22V183.337H1601.65V180.312H1604.51V178.799H1601.65ZM1580.2 201.492V198.466H1578.77V201.492H1575.91V203.005H1578.77V206.031H1580.2V203.005H1583.06V201.492H1580.2ZM1580.2 178.799V175.773H1578.77V178.799H1575.91V180.312H1578.77V183.337H1580.2V180.312H1583.06V178.799H1580.2Z" fill="#00DB8C" fill-opacity="0.57"/>
<path fill-rule="evenodd" clip-rule="evenodd" d="M1601.65 110.719V107.693H1600.22V110.719H1597.36V112.232H1600.22V115.258H1601.65V112.232H1604.51V110.719H1601.65ZM1601.65 88.0258V85H1600.22V88.0258H1597.36V89.5387H1600.22V92.5644H1601.65V89.5387H1604.51V88.0258H1601.65ZM1580.2 110.719V107.693H1578.77V110.719H1575.91V112.232H1578.77V115.258H1580.2V112.232H1583.06V110.719H1580.2ZM1580.2 88.0258V85H1578.77V88.0258H1575.91V89.5387H1578.77V92.5644H1580.2V89.5387H1583.06V88.0258H1580.2Z" fill="#00DB8C" fill-opacity="0.57"/>
<path fill-rule="evenodd" clip-rule="evenodd" d="M1601.65 246.879V243.853H1600.22V246.879H1597.36V248.392H1600.22V251.417H1601.65V248.392H1604.51V246.879H1601.65ZM1601.65 224.185V221.16H1600.22V224.185H1597.36V225.698H1600.22V228.724H1601.65V225.698H1604.51V224.185H1601.65ZM1580.2 246.879V243.853H1578.77V246.879H1575.91V248.392H1578.77V251.417H1580.2V248.392H1583.06V246.879H1580.2ZM1580.2 224.185V221.16H1578.77V224.185H1575.91V225.698H1578.77V228.724H1580.2V225.698H1583.06V224.185H1580.2Z" fill="#00DB8C" fill-opacity="0.57"/>
<path fill-rule="evenodd" clip-rule="evenodd" d="M1601.65 156.106V153.08H1600.22V156.106H1597.36V157.619H1600.22V160.644H1601.65V157.619H1604.51V156.106H1601.65ZM1601.65 133.412V130.387H1600.22V133.412H1597.36V134.925H1600.22V137.951H1601.65V134.925H1604.51V133.412H1601.65ZM1580.2 156.106V153.08H1578.77V156.106H1575.91V157.619H1578.77V160.644H1580.2V157.619H1583.06V156.106H1580.2ZM1580.2 133.412V130.387H1578.77V133.412H1575.91V134.925H1578.77V137.951H1580.2V134.925H1583.06V133.412H1580.2Z" fill="#00DB8C" fill-opacity="0.57"/>
<path fill-rule="evenodd" clip-rule="evenodd" d="M1644.56 292.265V289.24H1643.13V292.265H1640.27V293.778H1643.13V296.804H1644.56V293.778H1647.43V292.265H1644.56ZM1644.56 269.572V266.546H1643.13V269.572H1640.27V271.085H1643.13V274.111H1644.56V271.085H1647.43V269.572H1644.56ZM1623.11 292.265V289.24H1621.68V292.265H1618.82V293.778H1621.68V296.804H1623.11V293.778H1625.97V292.265H1623.11ZM1623.11 269.572V266.546H1621.68V269.572H1618.82V271.085H1621.68V274.111H1623.11V271.085H1625.97V269.572H1623.11Z" fill="#00DB8C" fill-opacity="0.57"/>
<path fill-rule="evenodd" clip-rule="evenodd" d="M1644.56 201.492V198.466H1643.13V201.492H1640.27V203.005H1643.13V206.031H1644.56V203.005H1647.43V201.492H1644.56ZM1644.56 178.799V175.773H1643.13V178.799H1640.27V180.312H1643.13V183.337H1644.56V180.312H1647.43V178.799H1644.56ZM1623.11 201.492V198.466H1621.68V201.492H1618.82V203.005H1621.68V206.031H1623.11V203.005H1625.97V201.492H1623.11ZM1623.11 178.799V175.773H1621.68V178.799H1618.82V180.312H1621.68V183.337H1623.11V180.312H1625.97V178.799H1623.11Z" fill="#00DB8C" fill-opacity="0.57"/>
<path fill-rule="evenodd" clip-rule="evenodd" d="M1644.56 110.719V107.693H1643.13V110.719H1640.27V112.232H1643.13V115.258H1644.56V112.232H1647.43V110.719H1644.56ZM1644.56 88.0258V85H1643.13V88.0258H1640.27V89.5387H1643.13V92.5644H1644.56V89.5387H1647.43V88.0258H1644.56ZM1623.11 110.719V107.693H1621.68V110.719H1618.82V112.232H1621.68V115.258H1623.11V112.232H1625.97V110.719H1623.11ZM1623.11 88.0258V85H1621.68V88.0258H1618.82V89.5387H1621.68V92.5644H1623.11V89.5387H1625.97V88.0258H1623.11Z" fill="#00DB8C" fill-opacity="0.57"/>
<path fill-rule="evenodd" clip-rule="evenodd" d="M1644.56 246.879V243.853H1643.13V246.879H1640.27V248.392H1643.13V251.417H1644.56V248.392H1647.43V246.879H1644.56ZM1644.56 224.185V221.16H1643.13V224.185H1640.27V225.698H1643.13V228.724H1644.56V225.698H1647.43V224.185H1644.56ZM1623.11 246.879V243.853H1621.68V246.879H1618.82V248.392H1621.68V251.417H1623.11V248.392H1625.97V246.879H1623.11ZM1623.11 224.185V221.16H1621.68V224.185H1618.82V225.698H1621.68V228.724H1623.11V225.698H1625.97V224.185H1623.11Z" fill="#00DB8C" fill-opacity="0.57"/>
<path fill-rule="evenodd" clip-rule="evenodd" d="M1644.56 156.106V153.08H1643.13V156.106H1640.27V157.619H1643.13V160.644H1644.56V157.619H1647.43V156.106H1644.56ZM1644.56 133.412V130.387H1643.13V133.412H1640.27V134.925H1643.13V137.951H1644.56V134.925H1647.43V133.412H1644.56ZM1623.11 156.106V153.08H1621.68V156.106H1618.82V157.619H1621.68V160.644H1623.11V157.619H1625.97V156.106H1623.11ZM1623.11 133.412V130.387H1621.68V133.412H1618.82V134.925H1621.68V137.951H1623.11V134.925H1625.97V133.412H1623.11Z" fill="#00DB8C" fill-opacity="0.57"/>
<path fill-rule="evenodd" clip-rule="evenodd" d="M1687.48 292.265V289.239H1686.05V292.265H1683.19V293.778H1686.05V296.804H1687.48V293.778H1690.34V292.265H1687.48ZM1687.48 269.572V266.546H1686.05V269.572H1683.19V271.085H1686.05V274.11H1687.48V271.085H1690.34V269.572H1687.48ZM1666.02 292.265V289.239H1664.59V292.265H1661.73V293.778H1664.59V296.804H1666.02V293.778H1668.88V292.265H1666.02ZM1666.02 269.572V266.546H1664.59V269.572H1661.73V271.085H1664.59V274.11H1666.02V271.085H1668.88V269.572H1666.02Z" fill="#00DB8C" fill-opacity="0.57"/>
<path fill-rule="evenodd" clip-rule="evenodd" d="M1687.48 201.492V198.466H1686.05V201.492H1683.19V203.005H1686.05V206.031H1687.48V203.005H1690.34V201.492H1687.48ZM1687.48 178.799V175.773H1686.05V178.799H1683.19V180.312H1686.05V183.337H1687.48V180.312H1690.34V178.799H1687.48ZM1666.02 201.492V198.466H1664.59V201.492H1661.73V203.005H1664.59V206.031H1666.02V203.005H1668.88V201.492H1666.02ZM1666.02 178.799V175.773H1664.59V178.799H1661.73V180.312H1664.59V183.337H1666.02V180.312H1668.88V178.799H1666.02Z" fill="#00DB8C" fill-opacity="0.57"/>
<path fill-rule="evenodd" clip-rule="evenodd" d="M1687.48 110.719V107.693H1686.05V110.719H1683.19V112.232H1686.05V115.258H1687.48V112.232H1690.34V110.719H1687.48ZM1687.48 88.0258V85H1686.05V88.0258H1683.19V89.5387H1686.05V92.5644H1687.48V89.5387H1690.34V88.0258H1687.48ZM1666.02 110.719V107.693H1664.59V110.719H1661.73V112.232H1664.59V115.258H1666.02V112.232H1668.88V110.719H1666.02ZM1666.02 88.0258V85H1664.59V88.0258H1661.73V89.5387H1664.59V92.5644H1666.02V89.5387H1668.88V88.0258H1666.02Z" fill="#00DB8C" fill-opacity="0.57"/>
<path fill-rule="evenodd" clip-rule="evenodd" d="M1687.48 246.879V243.853H1686.05V246.879H1683.19V248.392H1686.05V251.417H1687.48V248.392H1690.34V246.879H1687.48ZM1687.48 224.185V221.16H1686.05V224.185H1683.19V225.698H1686.05V228.724H1687.48V225.698H1690.34V224.185H1687.48ZM1666.02 246.879V243.853H1664.59V246.879H1661.73V248.392H1664.59V251.417H1666.02V248.392H1668.88V246.879H1666.02ZM1666.02 224.185V221.16H1664.59V224.185H1661.73V225.698H1664.59V228.724H1666.02V225.698H1668.88V224.185H1666.02Z" fill="#00DB8C" fill-opacity="0.57"/>
<path fill-rule="evenodd" clip-rule="evenodd" d="M1687.48 156.106V153.08H1686.05V156.106H1683.19V157.619H1686.05V160.644H1687.48V157.619H1690.34V156.106H1687.48ZM1687.48 133.412V130.387H1686.05V133.412H1683.19V134.925H1686.05V137.951H1687.48V134.925H1690.34V133.412H1687.48ZM1666.02 156.106V153.08H1664.59V156.106H1661.73V157.619H1664.59V160.644H1666.02V157.619H1668.88V156.106H1666.02ZM1666.02 133.412V130.387H1664.59V133.412H1661.73V134.925H1664.59V137.951H1666.02V134.925H1668.88V133.412H1666.02Z" fill="#00DB8C" fill-opacity="0.57"/>
<path fill-rule="evenodd" clip-rule="evenodd" d="M1730.38 292.265V289.239H1728.95V292.265H1726.09V293.778H1728.95V296.804H1730.38V293.778H1733.25V292.265H1730.38ZM1730.38 269.572V266.546H1728.95V269.572H1726.09V271.085H1728.95V274.11H1730.38V271.085H1733.25V269.572H1730.38ZM1708.93 292.265V289.239H1707.5V292.265H1704.64V293.778H1707.5V296.804H1708.93V293.778H1711.79V292.265H1708.93ZM1708.93 269.572V266.546H1707.5V269.572H1704.64V271.085H1707.5V274.11H1708.93V271.085H1711.79V269.572H1708.93Z" fill="#00DB8C" fill-opacity="0.57"/>
<path fill-rule="evenodd" clip-rule="evenodd" d="M1730.38 201.492V198.466H1728.95V201.492H1726.09V203.005H1728.95V206.031H1730.38V203.005H1733.25V201.492H1730.38ZM1730.38 178.799V175.773H1728.95V178.799H1726.09V180.312H1728.95V183.337H1730.38V180.312H1733.25V178.799H1730.38ZM1708.93 201.492V198.466H1707.5V201.492H1704.64V203.005H1707.5V206.031H1708.93V203.005H1711.79V201.492H1708.93ZM1708.93 178.799V175.773H1707.5V178.799H1704.64V180.312H1707.5V183.337H1708.93V180.312H1711.79V178.799H1708.93Z" fill="#00DB8C" fill-opacity="0.57"/>
<path fill-rule="evenodd" clip-rule="evenodd" d="M1730.38 110.719V107.693H1728.95V110.719H1726.09V112.232H1728.95V115.258H1730.38V112.232H1733.25V110.719H1730.38ZM1730.38 88.0258V85H1728.95V88.0258H1726.09V89.5387H1728.95V92.5644H1730.38V89.5387H1733.25V88.0258H1730.38ZM1708.93 110.719V107.693H1707.5V110.719H1704.64V112.232H1707.5V115.258H1708.93V112.232H1711.79V110.719H1708.93ZM1708.93 88.0258V85H1707.5V88.0258H1704.64V89.5387H1707.5V92.5644H1708.93V89.5387H1711.79V88.0258H1708.93Z" fill="#00DB8C" fill-opacity="0.57"/>
<path fill-rule="evenodd" clip-rule="evenodd" d="M1730.38 246.879V243.853H1728.95V246.879H1726.09V248.392H1728.95V251.417H1730.38V248.392H1733.25V246.879H1730.38ZM1730.38 224.185V221.16H1728.95V224.185H1726.09V225.698H1728.95V228.724H1730.38V225.698H1733.25V224.185H1730.38ZM1708.93 246.879V243.853H1707.5V246.879H1704.64V248.392H1707.5V251.417H1708.93V248.392H1711.79V246.879H1708.93ZM1708.93 224.185V221.16H1707.5V224.185H1704.64V225.698H1707.5V228.724H1708.93V225.698H1711.79V224.185H1708.93Z" fill="#00DB8C" fill-opacity="0.57"/>
<path fill-rule="evenodd" clip-rule="evenodd" d="M1730.38 156.106V153.08H1728.95V156.106H1726.09V157.619H1728.95V160.644H1730.38V157.619H1733.25V156.106H1730.38ZM1730.38 133.412V130.387H1728.95V133.412H1726.09V134.925H1728.95V137.951H1730.38V134.925H1733.25V133.412H1730.38ZM1708.93 156.106V153.08H1707.5V156.106H1704.64V157.619H1707.5V160.644H1708.93V157.619H1711.79V156.106H1708.93ZM1708.93 133.412V130.387H1707.5V133.412H1704.64V134.925H1707.5V137.951H1708.93V134.925H1711.79V133.412H1708.93Z" fill="#00DB8C" fill-opacity="0.57"/>
<path fill-rule="evenodd" clip-rule="evenodd" d="M1773.29 292.265V289.239H1771.86V292.265H1769V293.778H1771.86V296.804H1773.29V293.778H1776.16V292.265H1773.29ZM1773.29 269.572V266.546H1771.86V269.572H1769V271.085H1771.86V274.11H1773.29V271.085H1776.16V269.572H1773.29ZM1751.84 292.265V289.239H1750.41V292.265H1747.55V293.778H1750.41V296.804H1751.84V293.778H1754.7V292.265H1751.84ZM1751.84 269.572V266.546H1750.41V269.572H1747.55V271.085H1750.41V274.11H1751.84V271.085H1754.7V269.572H1751.84Z" fill="#00DB8C" fill-opacity="0.57"/>
<path fill-rule="evenodd" clip-rule="evenodd" d="M1558.75 292.265V289.24H1557.32V292.265H1554.45V293.778H1557.32V296.804H1558.75V293.778H1561.61V292.265H1558.75ZM1558.75 269.572V266.546H1557.32V269.572H1554.45V271.085H1557.32V274.111H1558.75V271.085H1561.61V269.572H1558.75ZM1537.29 292.265V289.24H1535.86V292.265H1533V293.778H1535.86V296.804H1537.29V293.778H1540.15V292.265H1537.29ZM1537.29 269.572V266.546H1535.86V269.572H1533V271.085H1535.86V274.111H1537.29V271.085H1540.15V269.572H1537.29Z" fill="#00DB8C" fill-opacity="0.57"/>
<path fill-rule="evenodd" clip-rule="evenodd" d="M1773.29 201.492V198.466H1771.86V201.492H1769V203.005H1771.86V206.031H1773.29V203.005H1776.16V201.492H1773.29ZM1773.29 178.799V175.773H1771.86V178.799H1769V180.312H1771.86V183.337H1773.29V180.312H1776.16V178.799H1773.29ZM1751.84 201.492V198.466H1750.41V201.492H1747.55V203.005H1750.41V206.031H1751.84V203.005H1754.7V201.492H1751.84ZM1751.84 178.799V175.773H1750.41V178.799H1747.55V180.312H1750.41V183.337H1751.84V180.312H1754.7V178.799H1751.84Z" fill="#00DB8C" fill-opacity="0.57"/>
<path fill-rule="evenodd" clip-rule="evenodd" d="M1558.75 201.492V198.466H1557.32V201.492H1554.45V203.005H1557.32V206.031H1558.75V203.005H1561.61V201.492H1558.75ZM1558.75 178.799V175.773H1557.32V178.799H1554.45V180.312H1557.32V183.337H1558.75V180.312H1561.61V178.799H1558.75ZM1537.29 201.492V198.466H1535.86V201.492H1533V203.005H1535.86V206.031H1537.29V203.005H1540.15V201.492H1537.29ZM1537.29 178.799V175.773H1535.86V178.799H1533V180.312H1535.86V183.337H1537.29V180.312H1540.15V178.799H1537.29Z" fill="#00DB8C" fill-opacity="0.57"/>
<path fill-rule="evenodd" clip-rule="evenodd" d="M1773.29 110.719V107.693H1771.86V110.719H1769V112.232H1771.86V115.258H1773.29V112.232H1776.16V110.719H1773.29ZM1773.29 88.0258V85H1771.86V88.0258H1769V89.5387H1771.86V92.5644H1773.29V89.5387H1776.16V88.0258H1773.29ZM1751.84 110.719V107.693H1750.41V110.719H1747.55V112.232H1750.41V115.258H1751.84V112.232H1754.7V110.719H1751.84ZM1751.84 88.0258V85H1750.41V88.0258H1747.55V89.5387H1750.41V92.5644H1751.84V89.5387H1754.7V88.0258H1751.84Z" fill="#00DB8C" fill-opacity="0.57"/>
<path fill-rule="evenodd" clip-rule="evenodd" d="M1558.75 110.719V107.693H1557.32V110.719H1554.45V112.232H1557.32V115.258H1558.75V112.232H1561.61V110.719H1558.75ZM1558.75 88.0258V85H1557.32V88.0258H1554.45V89.5387H1557.32V92.5644H1558.75V89.5387H1561.61V88.0258H1558.75ZM1537.29 110.719V107.693H1535.86V110.719H1533V112.232H1535.86V115.258H1537.29V112.232H1540.15V110.719H1537.29ZM1537.29 88.0258V85H1535.86V88.0258H1533V89.5387H1535.86V92.5644H1537.29V89.5387H1540.15V88.0258H1537.29Z" fill="#00DB8C" fill-opacity="0.57"/>
<path fill-rule="evenodd" clip-rule="evenodd" d="M1773.29 246.879V243.853H1771.86V246.879H1769V248.392H1771.86V251.417H1773.29V248.392H1776.16V246.879H1773.29ZM1773.29 224.185V221.16H1771.86V224.185H1769V225.698H1771.86V228.724H1773.29V225.698H1776.16V224.185H1773.29ZM1751.84 246.879V243.853H1750.41V246.879H1747.55V248.392H1750.41V251.417H1751.84V248.392H1754.7V246.879H1751.84ZM1751.84 224.185V221.16H1750.41V224.185H1747.55V225.698H1750.41V228.724H1751.84V225.698H1754.7V224.185H1751.84Z" fill="#00DB8C" fill-opacity="0.57"/>
<path fill-rule="evenodd" clip-rule="evenodd" d="M1558.75 246.879V243.853H1557.32V246.879H1554.45V248.392H1557.32V251.417H1558.75V248.392H1561.61V246.879H1558.75ZM1558.75 224.185V221.16H1557.32V224.185H1554.45V225.698H1557.32V228.724H1558.75V225.698H1561.61V224.185H1558.75ZM1537.29 246.879V243.853H1535.86V246.879H1533V248.392H1535.86V251.417H1537.29V248.392H1540.15V246.879H1537.29ZM1537.29 224.185V221.16H1535.86V224.185H1533V225.698H1535.86V228.724H1537.29V225.698H1540.15V224.185H1537.29Z" fill="#00DB8C" fill-opacity="0.57"/>
<path fill-rule="evenodd" clip-rule="evenodd" d="M1773.29 156.106V153.08H1771.86V156.106H1769V157.619H1771.86V160.644H1773.29V157.619H1776.16V156.106H1773.29ZM1773.29 133.412V130.387H1771.86V133.412H1769V134.925H1771.86V137.951H1773.29V134.925H1776.16V133.412H1773.29ZM1751.84 156.106V153.08H1750.41V156.106H1747.55V157.619H1750.41V160.644H1751.84V157.619H1754.7V156.106H1751.84ZM1751.84 133.412V130.387H1750.41V133.412H1747.55V134.925H1750.41V137.951H1751.84V134.925H1754.7V133.412H1751.84Z" fill="#00DB8C" fill-opacity="0.57"/>
<path fill-rule="evenodd" clip-rule="evenodd" d="M1558.75 156.106V153.08H1557.32V156.106H1554.45V157.619H1557.32V160.644H1558.75V157.619H1561.61V156.106H1558.75ZM1558.75 133.412V130.387H1557.32V133.412H1554.45V134.925H1557.32V137.951H1558.75V134.925H1561.61V133.412H1558.75ZM1537.29 156.106V153.08H1535.86V156.106H1533V157.619H1535.86V160.644H1537.29V157.619H1540.15V156.106H1537.29ZM1537.29 133.412V130.387H1535.86V133.412H1533V134.925H1535.86V137.951H1537.29V134.925H1540.15V133.412H1537.29Z" fill="#00DB8C" fill-opacity="0.57"/>
<defs>
<linearGradient id="paint0_linear_36_6" x1="823.5" y1="651.5" x2="806.955" y2="-40.3315" gradientUnits="userSpaceOnUse">
<stop stop-color="#01AC6E"/>
<stop offset="1" stop-color="#76DEAD"/>
</linearGradient>
</defs>
</svg>
