<svg width="29" height="29" viewBox="0 0 29 29" fill="none" xmlns="http://www.w3.org/2000/svg">
<path d="M28.7637 8.04297C28.6806 7.92491 28.5703 7.82855 28.4422 7.76201C28.314 7.69546 28.1718 7.66068 28.0274 7.66059H8.79407L7.33818 2.63996C6.76724 0.662976 5.41056 0.449554 4.85412 0.449554H0.9722C0.474641 0.449554 0.0722656 0.852383 0.0722656 1.34946C0.0722656 1.84654 0.475094 2.24934 0.972172 2.24934H4.85364C4.97644 2.24934 5.35117 2.24934 5.60676 3.13248L10.6152 21.5389C10.7239 21.9272 11.0778 22.1954 11.4815 22.1954H23.715C24.0947 22.1954 24.4336 21.9575 24.5619 21.6L28.8738 8.86493C28.9731 8.58898 28.9318 8.28176 28.7637 8.04297H28.7637ZM23.0817 20.3961H12.1646L9.2999 9.46085H26.7479L23.0817 20.3961ZM21.2968 24.0193C20.0453 24.0193 19.0312 25.0334 19.0312 26.2849C19.0312 27.5365 20.0453 28.5506 21.2968 28.5506C22.5484 28.5506 23.5625 27.5365 23.5625 26.2849C23.5625 25.0334 22.5484 24.0193 21.2968 24.0193ZM13.1406 24.0193C11.8891 24.0193 10.875 25.0334 10.875 26.2849C10.875 27.5365 11.8891 28.5506 13.1406 28.5506C14.3921 28.5506 15.4062 27.5365 15.4062 26.2849C15.4062 25.0334 14.3921 24.0193 13.1406 24.0193Z" fill="white"/>
</svg>
