<svg width="33" height="33" viewBox="0 0 33 33" fill="none" xmlns="http://www.w3.org/2000/svg">
<circle cx="16.5" cy="16.5" r="16.5" fill="#00BB6C"/>
<path d="M13.1924 20.1924L9.69244 16.6924C9.60092 16.5998 9.49192 16.5262 9.37176 16.476C9.25159 16.4258 9.12266 16.4 8.99244 16.4C8.86221 16.4 8.73328 16.4258 8.61312 16.476C8.49296 16.5262 8.38396 16.5998 8.29244 16.6924C8.1998 16.784 8.12625 16.893 8.07605 17.0131C8.02585 17.1333 8 17.2622 8 17.3924C8 17.5227 8.02585 17.6516 8.07605 17.7718C8.12625 17.8919 8.1998 18.0009 8.29244 18.0924L12.4824 22.2824C12.8724 22.6724 13.5024 22.6724 13.8924 22.2824L24.4924 11.6924C24.5851 11.6009 24.6586 11.4919 24.7088 11.3718C24.759 11.2516 24.7849 11.1227 24.7849 10.9924C24.7849 10.8622 24.759 10.7333 24.7088 10.6131C24.6586 10.493 24.5851 10.384 24.4924 10.2924C24.4009 10.1998 24.2919 10.1262 24.1718 10.076C24.0516 10.0258 23.9227 10 23.7924 10C23.6622 10 23.5333 10.0258 23.4131 10.076C23.293 10.1262 23.184 10.1998 23.0924 10.2924L13.1924 20.1924Z" fill="white"/>
</svg>
