<svg width="33" height="33" viewBox="0 0 33 33" fill="none" xmlns="http://www.w3.org/2000/svg">
<circle cx="16.5" cy="16.5" r="16.5" fill="#1A3FA9"/>
<path d="M12.836 10.579C13.078 10.359 13.342 10.1537 13.628 9.963C13.914 9.77233 14.222 9.60367 14.552 9.457C14.8893 9.31033 15.2523 9.19667 15.641 9.116C16.037 9.028 16.4623 8.984 16.917 8.984C17.5257 8.984 18.083 9.072 18.589 9.248C19.1023 9.41667 19.5423 9.66233 19.909 9.985C20.283 10.3003 20.5727 10.6853 20.778 11.14C20.9833 11.5873 21.086 12.0897 21.086 12.647C21.086 13.2043 21.0053 13.6883 20.844 14.099C20.6827 14.5023 20.4773 14.8543 20.228 15.155C19.9787 15.4557 19.7073 15.7197 19.414 15.947C19.1207 16.167 18.842 16.376 18.578 16.574C18.3213 16.7647 18.0977 16.959 17.907 17.157C17.7237 17.3477 17.6137 17.5603 17.577 17.795L17.346 19.445H15.74L15.575 17.63C15.5383 17.2853 15.5933 16.9883 15.74 16.739C15.8867 16.4897 16.081 16.255 16.323 16.035C16.5723 15.815 16.8437 15.606 17.137 15.408C17.4377 15.2027 17.7163 14.9753 17.973 14.726C18.2297 14.4767 18.446 14.198 18.622 13.89C18.798 13.582 18.886 13.2117 18.886 12.779C18.886 12.493 18.831 12.2363 18.721 12.009C18.611 11.7743 18.457 11.5763 18.259 11.415C18.061 11.2537 17.83 11.129 17.566 11.041C17.302 10.953 17.016 10.909 16.708 10.909C16.2753 10.909 15.9087 10.9603 15.608 11.063C15.3073 11.1657 15.0507 11.2793 14.838 11.404C14.6253 11.5213 14.4493 11.6313 14.31 11.734C14.1707 11.8293 14.0533 11.877 13.958 11.877C13.7307 11.877 13.562 11.778 13.452 11.58L12.836 10.579ZM14.948 23.636C14.948 23.4233 14.9847 23.2253 15.058 23.042C15.1387 22.8513 15.245 22.6863 15.377 22.547C15.5163 22.4077 15.6777 22.2977 15.861 22.217C16.0517 22.1363 16.2533 22.096 16.466 22.096C16.6787 22.096 16.8767 22.1363 17.06 22.217C17.2507 22.2977 17.4157 22.4077 17.555 22.547C17.6943 22.6863 17.8043 22.8513 17.885 23.042C17.9657 23.2253 18.006 23.4233 18.006 23.636C18.006 23.856 17.9657 24.0577 17.885 24.241C17.8043 24.4243 17.6943 24.5857 17.555 24.725C17.4157 24.8643 17.2507 24.9707 17.06 25.044C16.8767 25.1247 16.6787 25.165 16.466 25.165C16.2533 25.165 16.0517 25.1247 15.861 25.044C15.6777 24.9707 15.5163 24.8643 15.377 24.725C15.245 24.5857 15.1387 24.4243 15.058 24.241C14.9847 24.0577 14.948 23.856 14.948 23.636Z" fill="white"/>
</svg>
