<svg width="33" height="33" viewBox="0 0 33 33" fill="none" xmlns="http://www.w3.org/2000/svg">
<circle cx="16.5" cy="16.5" r="16.5" fill="#1A3FA9"/>
<path d="M10.4161 11.2853V17.6041C10.4161 21.0441 13.1403 23.8321 16.5004 23.8321C19.8604 23.8321 22.5847 21.0441 22.5847 17.6041V11.2887L16.4638 9.2291L10.4161 11.2853ZM16.4621 8L23.7254 10.4429V17.6041C23.7254 21.6884 20.4903 25 16.5004 25C12.5105 25 9.27539 21.6884 9.27539 17.6041V10.4429L16.4621 8ZM20.2183 13.5123C20.1628 13.4613 20.0976 13.422 20.0266 13.3968C19.9557 13.3716 19.8803 13.3609 19.8051 13.3654C19.7299 13.3699 19.6564 13.3896 19.5889 13.4231C19.5215 13.4567 19.4615 13.5035 19.4125 13.5607L15.7439 17.7844L13.3741 15.1621C13.324 15.106 13.2631 15.0605 13.1951 15.0284C13.127 14.9962 13.0532 14.9781 12.978 14.9751C12.9029 14.9721 12.8278 14.9843 12.7574 15.0108C12.6871 15.0374 12.6227 15.0779 12.5683 15.1298C12.4568 15.2363 12.3912 15.382 12.3854 15.5361C12.3795 15.6902 12.4338 15.8405 12.5368 15.9552L15.3333 19.0491C15.3866 19.109 15.4521 19.1568 15.5254 19.1893C15.5986 19.2217 15.678 19.2381 15.7581 19.2373C15.8383 19.2365 15.9173 19.2185 15.9899 19.1846C16.0625 19.1507 16.127 19.1016 16.1791 19.0407L20.265 14.3368C20.3659 14.2202 20.4174 14.0689 20.4087 13.915C20.3999 13.7611 20.3317 13.6167 20.2183 13.5123Z" fill="white"/>
</svg>
