<svg width="48" height="48" viewBox="0 0 48 48" fill="none" xmlns="http://www.w3.org/2000/svg">
<path d="M24 44C26.627 44.0034 29.2287 43.4876 31.6556 42.4823C34.0826 41.477 36.2869 40.002 38.142 38.142C40.002 36.2869 41.477 34.0826 42.4823 31.6556C43.4876 29.2286 44.0034 26.6269 44 24C44.0034 21.3731 43.4876 18.7714 42.4823 16.3444C41.4769 13.9175 40.0019 11.7131 38.142 9.85799C36.2869 7.99801 34.0826 6.52298 31.6556 5.51767C29.2287 4.51236 26.627 3.99658 24 3.99999C21.3731 3.99664 18.7714 4.51244 16.3444 5.51775C13.9175 6.52306 11.7131 7.99806 9.85802 9.85799C7.99809 11.7131 6.52309 13.9175 5.51778 16.3444C4.51247 18.7714 3.99667 21.3731 4.00002 24C3.99661 26.6269 4.51239 29.2286 5.5177 31.6556C6.52302 34.0826 7.99804 36.2869 9.85802 38.142C11.7131 40.0019 13.9175 41.4769 16.3444 42.4822C18.7714 43.4875 21.3731 44.0033 24 44V44Z" stroke="#1A3FA9" stroke-width="4" stroke-linejoin="round"/>
<path fill-rule="evenodd" clip-rule="evenodd" d="M24 37C24.663 37 25.2989 36.7366 25.7678 36.2678C26.2366 35.7989 26.5 35.163 26.5 34.5C26.5 33.837 26.2366 33.2011 25.7678 32.7322C25.2989 32.2634 24.663 32 24 32C23.337 32 22.7011 32.2634 22.2322 32.7322C21.7634 33.2011 21.5 33.837 21.5 34.5C21.5 35.163 21.7634 35.7989 22.2322 36.2678C22.7011 36.7366 23.337 37 24 37Z" fill="#1A3FA9"/>
<path d="M24 12V28" stroke="#1A3FA9" stroke-width="4" stroke-linecap="round" stroke-linejoin="round"/>
</svg>
