<svg width="19" height="19" viewBox="0 0 19 19" fill="none" xmlns="http://www.w3.org/2000/svg">
<path d="M14.8438 7.71875C14.8438 6.3015 14.2807 4.9423 13.2786 3.94015C12.2765 2.938 10.9173 2.375 9.5 2.375C8.08275 2.375 6.72355 2.938 5.7214 3.94015C4.71925 4.9423 4.15625 6.3015 4.15625 7.71875C4.15625 9.91088 5.91019 12.768 9.5 16.1904C13.0898 12.768 14.8438 9.91088 14.8438 7.71875ZM9.5 17.8125C5.14544 13.8546 2.96875 10.4892 2.96875 7.71875C2.96875 5.98656 3.65686 4.32531 4.88171 3.10046C6.10656 1.87561 7.76781 1.1875 9.5 1.1875C11.2322 1.1875 12.8934 1.87561 14.1183 3.10046C15.3431 4.32531 16.0312 5.98656 16.0312 7.71875C16.0312 10.4892 13.8546 13.8546 9.5 17.8125Z" fill="#E94F1D"/>
<path d="M9.5 9.5C9.97242 9.5 10.4255 9.31233 10.7595 8.97828C11.0936 8.64423 11.2812 8.19117 11.2812 7.71875C11.2812 7.24633 11.0936 6.79327 10.7595 6.45922C10.4255 6.12517 9.97242 5.9375 9.5 5.9375C9.02758 5.9375 8.57452 6.12517 8.24047 6.45922C7.90642 6.79327 7.71875 7.24633 7.71875 7.71875C7.71875 8.19117 7.90642 8.64423 8.24047 8.97828C8.57452 9.31233 9.02758 9.5 9.5 9.5ZM9.5 10.6875C8.71264 10.6875 7.95753 10.3747 7.40078 9.81797C6.84403 9.26122 6.53125 8.50611 6.53125 7.71875C6.53125 6.93139 6.84403 6.17628 7.40078 5.61953C7.95753 5.06278 8.71264 4.75 9.5 4.75C10.2874 4.75 11.0425 5.06278 11.5992 5.61953C12.156 6.17628 12.4688 6.93139 12.4688 7.71875C12.4688 8.50611 12.156 9.26122 11.5992 9.81797C11.0425 10.3747 10.2874 10.6875 9.5 10.6875Z" fill="#E94F1D"/>
</svg>
