<svg width="45" height="48" viewBox="0 0 45 48" fill="none" xmlns="http://www.w3.org/2000/svg">
<path d="M43.401 25.2999H38.18C38.0198 23.175 36.489 21.4362 34.4919 21.0079V12.0372C34.4919 11.5382 34.0984 11.1337 33.613 11.1337H28.1974V8.89437C28.1974 4.51745 24.7168 0.956696 20.4385 0.956696C19.4589 0.956696 18.5212 1.14337 17.6575 1.48373C16.7938 1.14337 15.8561 0.956696 14.8766 0.956696C10.5982 0.956696 7.11767 4.51745 7.11767 8.89437V11.1337H1.70203C1.21661 11.1337 0.82312 11.5382 0.82312 12.0372V42.9327C0.82312 45.2955 2.69572 47.2178 4.9974 47.2178H39.9606C42.3423 47.2178 44.2799 45.2259 44.2799 42.7775V26.2034C44.2799 25.7044 43.8864 25.2999 43.401 25.2999ZM36.4135 25.2999H30.6538C30.8327 23.8439 32.0559 22.7138 33.5336 22.7138C35.0113 22.7138 36.2346 23.8439 36.4135 25.2999ZM32.734 12.9408V20.9768C30.6599 21.3448 29.0516 23.119 28.8873 25.2999H23.6934C23.2081 25.2999 22.8145 25.7045 22.8145 26.2034V42.7776C22.8145 43.7625 23.1281 44.6736 23.658 45.4108H7.99649V12.9408H12.6795V17.5747C12.6795 18.0737 13.073 18.4782 13.5584 18.4782C14.0438 18.4782 14.4373 18.0737 14.4373 17.5747V12.9408H26.4395V17.5747C26.4395 18.0737 26.8331 18.4782 27.3184 18.4782C27.8038 18.4782 28.1974 18.0737 28.1974 17.5747V12.9408H32.734ZM17.6575 3.46266C19.5702 4.48872 20.8776 6.53848 20.8776 8.89437V11.1337H14.4374V8.89437C14.4374 6.53848 15.7448 4.48872 17.6575 3.46266ZM20.4385 2.76377C23.7474 2.76377 26.4395 5.51396 26.4395 8.89437V11.1337H22.6355V8.89437C22.6355 6.44524 21.5456 4.25163 19.8361 2.79449C20.0342 2.77416 20.2352 2.76377 20.4385 2.76377ZM14.8766 2.76377C15.0799 2.76377 15.2808 2.77416 15.479 2.7944C13.7694 4.25163 12.6796 6.44515 12.6796 8.89427V11.1336H8.87548V8.89437C8.87539 5.51396 11.5675 2.76377 14.8766 2.76377ZM2.58093 42.9327V12.9408H6.23868V45.4108H4.9974C3.66497 45.4108 2.58093 44.2991 2.58093 42.9327ZM42.5221 42.7775C42.5221 44.2294 41.373 45.4108 39.9606 45.4108H27.1337C25.7214 45.4108 24.5723 44.2295 24.5723 42.7775V27.107H28.8735V30.6778C28.8735 31.1767 29.2671 31.5813 29.7524 31.5813C30.2377 31.5813 30.6313 31.1767 30.6313 30.6778V27.107H36.436V30.6778C36.436 31.1767 36.8295 31.5813 37.3149 31.5813C37.8003 31.5813 38.1939 31.1767 38.1939 30.6778V27.107H42.5221V42.7775Z" fill="#E94F1D"/>
</svg>
