<svg width="42" height="41" viewBox="0 0 42 41" fill="none" xmlns="http://www.w3.org/2000/svg">
<path d="M7.77197 24.2963C7.0487 24.7254 6.5625 25.5139 6.5625 26.4141C6.5625 27.771 7.66648 28.875 9.02344 28.875C10.0928 28.875 11.0047 28.1891 11.3433 27.2344H17.7188C19.0757 27.2344 20.1797 28.3384 20.1797 29.6953C20.1797 31.0523 19.0757 32.1562 17.7188 32.1562H7.875C5.6134 32.1562 3.77344 33.9962 3.77344 36.2578C3.77344 38.5194 5.6134 40.3594 7.875 40.3594H16.0781C16.5312 40.3594 16.8984 39.9921 16.8984 39.5391C16.8984 39.086 16.5312 38.7188 16.0781 38.7188H7.875C6.51804 38.7188 5.41406 37.6148 5.41406 36.2578C5.41406 34.9009 6.51804 33.7969 7.875 33.7969H17.7188C19.9804 33.7969 21.8203 31.9569 21.8203 29.6953C21.8203 27.4337 19.9804 25.5938 17.7188 25.5938H11.3433C11.1493 25.0468 10.7672 24.5883 10.2749 24.2963L16.5403 14.0165C17.5259 12.535 18.0469 10.8088 18.0469 9.02344C18.0469 4.04791 13.999 0 9.02344 0C4.04791 0 0 4.04791 0 9.02344C0 10.8088 0.52098 12.535 1.50659 14.0165L7.77197 24.2963ZM9.02344 27.2344C8.57112 27.2344 8.20312 26.8664 8.20312 26.4141C8.20312 25.9617 8.57112 25.5938 9.02344 25.5938C9.47576 25.5938 9.84375 25.9617 9.84375 26.4141C9.84375 26.8664 9.47576 27.2344 9.02344 27.2344ZM9.02344 1.64062C13.0943 1.64062 16.4062 4.95255 16.4062 9.02344C16.4062 10.4892 15.9775 11.9056 15.1663 13.1197C15.16 13.1291 15.1539 13.1387 15.148 13.1485L9.02344 23.1972C9.02344 23.1972 2.88684 13.1291 2.88053 13.1197C2.0694 11.9056 1.64062 10.4892 1.64062 9.02344C1.64062 4.95255 4.95255 1.64062 9.02344 1.64062Z" fill="#E94F1D"/>
<path d="M9.02344 13.125C11.285 13.125 13.125 11.285 13.125 9.02344C13.125 6.76184 11.285 4.92188 9.02344 4.92188C6.76184 4.92188 4.92188 6.76184 4.92188 9.02344C4.92188 11.285 6.76184 13.125 9.02344 13.125ZM9.02344 6.5625C10.3804 6.5625 11.4844 7.66648 11.4844 9.02344C11.4844 10.3804 10.3804 11.4844 9.02344 11.4844C7.66648 11.4844 6.5625 10.3804 6.5625 9.02344C6.5625 7.66648 7.66648 6.5625 9.02344 6.5625Z" fill="#E94F1D"/>
<path d="M32.9766 13.6172C28.001 13.6172 23.9531 17.6651 23.9531 22.6406C23.9531 24.4288 24.4757 26.1577 25.4645 27.6408L31.7065 37.432C31.2231 37.7244 30.8483 38.1786 30.6568 38.7188H23.4609C23.0079 38.7188 22.6406 39.086 22.6406 39.5391C22.6406 39.9921 23.0079 40.3594 23.4609 40.3594H30.6567C30.9953 41.3141 31.9071 42 32.9766 42C34.3335 42 35.4375 40.896 35.4375 39.5391C35.4375 38.6465 34.9598 37.8635 34.2467 37.432L40.4887 27.6408C41.4774 26.1577 42 24.4288 42 22.6406C42 17.6651 37.9521 13.6172 32.9766 13.6172ZM32.9766 40.3594C32.5242 40.3594 32.1562 39.9914 32.1562 39.5391C32.1562 39.0867 32.5242 38.7188 32.9766 38.7188C33.4289 38.7188 33.7969 39.0867 33.7969 39.5391C33.7969 39.9914 33.4289 40.3594 32.9766 40.3594ZM39.1195 26.7369C39.1163 26.7418 32.9766 36.3724 32.9766 36.3724C32.9766 36.3724 26.8369 26.7417 26.8337 26.7369C26.0225 25.5228 25.5938 24.1064 25.5938 22.6406C25.5938 18.5697 28.9057 15.2578 32.9766 15.2578C37.0474 15.2578 40.3594 18.5697 40.3594 22.6406C40.3594 24.1064 39.9306 25.5228 39.1195 26.7369Z" fill="#E94F1D"/>
<path d="M32.9766 18.5391C30.715 18.5391 28.875 20.379 28.875 22.6406C28.875 24.9022 30.715 26.7422 32.9766 26.7422C35.2382 26.7422 37.0781 24.9022 37.0781 22.6406C37.0781 20.379 35.2382 18.5391 32.9766 18.5391ZM32.9766 25.1016C31.6196 25.1016 30.5156 23.9976 30.5156 22.6406C30.5156 21.2837 31.6196 20.1797 32.9766 20.1797C34.3335 20.1797 35.4375 21.2837 35.4375 22.6406C35.4375 23.9976 34.3335 25.1016 32.9766 25.1016Z" fill="#E94F1D"/>
<path d="M19.7695 40.3594C20.2226 40.3594 20.5898 39.9921 20.5898 39.5391C20.5898 39.086 20.2226 38.7188 19.7695 38.7188C19.3165 38.7188 18.9492 39.086 18.9492 39.5391C18.9492 39.9921 19.3165 40.3594 19.7695 40.3594Z" fill="#E94F1D"/>
</svg>
