<svg width="57" height="39" viewBox="0 0 57 39" fill="none" xmlns="http://www.w3.org/2000/svg">
<path d="M56.853 23.7054L53.9678 19.3041C52.6937 17.3593 50.5291 16.1979 48.1761 16.1979H40.7144V11.9169C40.7144 9.30314 38.5824 7.17762 35.9607 7.17762H21.9924C21.2086 3.0964 17.6053 0 13.2865 0C8.39624 0 4.41815 3.96664 4.41815 8.8417C4.41815 11.9071 5.99251 14.6113 8.37605 16.1979H0.904959C0.40485 16.1979 0 16.6015 0 17.1001C0 17.5988 0.40485 18.0024 0.904959 18.0024H9.95248V19.8063H6.33316C5.83357 19.8063 5.42872 20.21 5.42872 20.7086C5.42872 21.2072 5.83357 21.6103 6.33316 21.6103H9.95248V23.4142H0.904959C0.40485 23.4142 0 23.8179 0 24.3165C0 24.8151 0.40485 25.2187 0.904959 25.2187H9.95248V29.2137C8.35741 29.9152 7.23812 31.5018 7.23812 33.3486V34.239C7.23812 34.7376 7.64349 35.1412 8.14308 35.1412H16.1676C16.6822 37.3483 18.6671 39 21.0356 39C23.4047 39 25.3891 37.3483 25.9037 35.1412H43.3107C43.8258 37.3483 45.8107 39 48.1787 39C50.5467 39 52.5322 37.3483 53.0468 35.1412H56.0956C56.5957 35.1412 57 34.7376 57 34.239V24.1988C57 24.0233 56.9487 23.8514 56.853 23.7054ZM6.22755 8.8417C6.22755 4.96126 9.39439 1.80395 13.2865 1.80395C17.1792 1.80395 20.3455 4.96126 20.3455 8.8417C20.3455 12.7221 17.1792 15.8794 13.2865 15.8794C9.39439 15.8794 6.22755 12.7221 6.22755 8.8417ZM11.7619 25.2187H13.5713C14.0714 25.2187 14.4762 24.8151 14.4762 24.3165C14.4762 23.8179 14.0714 23.4142 13.5713 23.4142H11.7619V21.6103H18.0956C18.5951 21.6103 19 21.2072 19 20.7086C19 20.21 18.5951 19.8063 18.0956 19.8063H11.7619V18.0024H23.5238C24.0234 18.0024 24.4287 17.5988 24.4287 17.1001C24.4287 16.6015 24.0234 16.1979 23.5238 16.1979H18.197C20.5438 14.6355 22.1006 11.9887 22.1482 8.98158H35.9613C37.5843 8.98158 38.905 10.2988 38.905 11.9169V28.8266H11.7733C11.7696 28.8266 11.766 28.8277 11.7619 28.8277V25.2187ZM38.905 33.3368H25.986C25.8436 32.2993 25.3818 31.364 24.7 30.6306H38.905V33.3368ZM11.7733 30.6306H17.3713C16.69 31.364 16.2277 32.2993 16.0858 33.3368H9.04752C9.05373 31.8441 10.2745 30.6306 11.7733 30.6306ZM21.0356 37.196C19.2759 37.196 17.8434 35.7684 17.8434 34.0134C17.8434 32.259 19.2759 30.8308 21.0356 30.8308C22.7959 30.8308 24.2278 32.259 24.2278 34.0134C24.2278 35.7684 22.7959 37.196 21.0356 37.196ZM48.1787 37.196C46.419 37.196 44.9865 35.7684 44.9865 34.0134C44.9865 32.259 46.419 30.8308 48.1787 30.8308C49.9389 30.8308 51.3709 32.259 51.3709 34.0134C51.3709 35.7684 49.9389 37.196 48.1787 37.196ZM55.1906 33.3368H53.1291C52.7962 30.9072 50.7057 29.0269 48.1787 29.0269C45.6518 29.0269 43.5618 30.9072 43.2284 33.3368H40.7144V18.0024H48.1761C49.9151 18.0024 51.5143 18.8576 52.4535 20.2905L55.1906 24.4672V33.3368Z" fill="#E94F1D"/>
<path d="M49.6588 34.0134C49.6588 34.8285 48.9962 35.4891 48.1787 35.4891C47.3612 35.4891 46.6986 34.8285 46.6986 34.0134C46.6986 33.1984 47.3612 32.5378 48.1787 32.5378C48.9962 32.5378 49.6588 33.1984 49.6588 34.0134Z" fill="#E94F1D"/>
<path d="M22.5158 34.0134C22.5158 34.8285 21.8531 35.4891 21.0356 35.4891C20.2187 35.4891 19.556 34.8285 19.556 34.0134C19.556 33.1984 20.2187 32.5378 21.0356 32.5378C21.8531 32.5378 22.5158 33.1984 22.5158 34.0134Z" fill="#E94F1D"/>
<path d="M14.4762 8.84169V4.89519C14.4762 4.39658 14.0714 3.99347 13.5713 3.99347C13.0717 3.99347 12.6668 4.39658 12.6668 4.89519V8.54749L10.8202 11.073C10.5256 11.4756 10.6141 12.0393 11.0179 12.3324C11.1794 12.4501 11.3658 12.5064 11.5506 12.5064C11.8297 12.5064 12.1051 12.3779 12.2822 12.1353L14.3028 9.37281C14.4151 9.219 14.4762 9.03319 14.4762 8.84169Z" fill="#E94F1D"/>
<path d="M47.8738 18.9041H46.1431C45.643 18.9041 45.2382 19.3077 45.2382 19.8063V26.1204C45.2382 26.619 45.643 27.0227 46.1431 27.0227H52.2324C52.7998 27.0227 53.3077 26.73 53.5925 26.2412C53.8772 25.7524 53.8777 25.1671 53.5971 24.6793L51.4843 20.9925C50.7466 19.7052 49.3628 18.9041 47.8738 18.9041ZM47.0481 25.2187V20.7086H47.8738C48.7151 20.7086 49.4963 21.1602 49.9131 21.888L51.8219 25.2187H47.0481Z" fill="#E94F1D"/>
</svg>
