<svg width="21" height="23" viewBox="0 0 21 23" fill="none" xmlns="http://www.w3.org/2000/svg">
<path d="M10.5028 6.71875C9.60772 6.71875 8.74928 7.07433 8.11634 7.70726C7.48341 8.3402 7.12783 9.19864 7.12783 10.0938C7.12783 10.9889 7.48341 11.8473 8.11634 12.4802C8.74928 13.1132 9.60772 13.4687 10.5028 13.4688C11.3979 13.4688 12.2564 13.1132 12.8893 12.4802C13.5222 11.8473 13.8778 10.9889 13.8778 10.0938C13.8778 9.19864 13.5222 8.3402 12.8893 7.70726C12.2564 7.07433 11.3979 6.71875 10.5028 6.71875V6.71875ZM8.53408 10.0938C8.53408 9.57161 8.7415 9.07085 9.11071 8.70163C9.47992 8.33242 9.98068 8.125 10.5028 8.125C11.025 8.125 11.5257 8.33242 11.8949 8.70163C12.2642 9.07085 12.4716 9.57161 12.4716 10.0938C12.4716 10.6159 12.2642 11.1167 11.8949 11.4859C11.5257 11.8551 11.025 12.0625 10.5028 12.0625C9.98068 12.0625 9.47992 11.8551 9.11071 11.4859C8.7415 11.1167 8.53408 10.6159 8.53408 10.0938ZM17.8125 16L12.138 22.0244C11.9277 22.2478 11.6738 22.4257 11.3921 22.5474C11.1104 22.6691 10.8069 22.7318 10.5 22.7318C10.1932 22.7318 9.88958 22.6691 9.60789 22.5474C9.3262 22.4257 9.07237 22.2478 8.86201 22.0244L3.18751 16H3.20889L3.19933 15.9887L3.18751 15.9747C1.73103 14.2521 0.933643 12.0683 0.937514 9.8125C0.937514 4.53119 5.2187 0.25 10.5 0.25C15.7813 0.25 20.0625 4.53119 20.0625 9.8125C20.0664 12.0683 19.269 14.2521 17.8125 15.9747L17.8007 15.9887L17.7911 16H17.8125V16ZM16.7196 15.0893C17.9729 13.6171 18.6596 11.7459 18.6563 9.8125C18.6563 5.308 15.0045 1.65625 10.5 1.65625C5.99551 1.65625 2.34376 5.308 2.34376 9.8125C2.34025 11.746 3.02702 13.6172 4.28045 15.0893L4.4537 15.2935L9.88576 21.0597C9.96465 21.1435 10.0598 21.2102 10.1655 21.2558C10.2711 21.3014 10.3849 21.325 10.5 21.325C10.6151 21.325 10.7289 21.3014 10.8346 21.2558C10.9402 21.2102 11.0354 21.1435 11.1143 21.0597L16.5463 15.2935L16.7196 15.0893Z" fill="#01A254"/>
</svg>
