<svg width="24" height="24" viewBox="0 0 24 24" fill="none" xmlns="http://www.w3.org/2000/svg">
<path d="M16.793 5.793L12.293 10.293L13.707 11.707L18.207 7.207L21 10V3H14L16.793 5.793Z" fill="white"/>
<path d="M16.4223 13.4462C16.2301 13.2715 15.9776 13.1784 15.7181 13.1864C15.4585 13.1944 15.2123 13.303 15.0313 13.4892L12.6383 15.9502C12.0623 15.8402 10.9043 15.4792 9.71228 14.2902C8.52028 13.0972 8.15928 11.9362 8.05228 11.3642L10.5113 8.97017C10.6977 8.7893 10.8064 8.54299 10.8144 8.28338C10.8225 8.02376 10.7292 7.77121 10.5543 7.57917L6.85928 3.51617C6.68432 3.32353 6.44116 3.20667 6.18143 3.19043C5.92171 3.17418 5.66588 3.25983 5.46828 3.42917L3.29928 5.29017C3.12594 5.46306 3.02234 5.69374 3.00828 5.93817C2.99328 6.18817 2.70728 12.1102 7.29928 16.7042C11.3053 20.7102 16.3233 21.0032 17.7053 21.0032C17.9073 21.0032 18.0313 20.9972 18.0643 20.9952C18.3088 20.9815 18.5396 20.8778 18.7123 20.7042L20.5723 18.5332C20.7417 18.3357 20.8276 18.0799 20.8115 17.8202C20.7954 17.5605 20.6788 17.3173 20.4863 17.1422L16.4223 13.4462Z" fill="white"/>
</svg>
