<svg width="22" height="22" viewBox="0 0 22 22" fill="none" xmlns="http://www.w3.org/2000/svg">
<g clip-path="url(#clip0_1_2932)">
<path fill-rule="evenodd" clip-rule="evenodd" d="M21.4958 5.4525C21.648 4.952 21.4958 4.5835 20.7671 4.5835H18.3608C17.7485 4.5835 17.4662 4.90158 17.3131 5.25266C17.3131 5.25266 16.0893 8.18233 14.3559 10.0853C13.7949 10.6372 13.5401 10.8122 13.2339 10.8122C13.0808 10.8122 12.8507 10.6372 12.8507 10.1357V5.4525C12.8507 4.85116 12.6821 4.5835 12.1724 4.5835H8.38842C8.00617 4.5835 7.77608 4.86216 7.77608 5.12708C7.77608 5.69633 8.64325 5.82833 8.73217 7.43066V10.9122C8.73217 11.6757 8.59192 11.8142 8.28575 11.8142C7.46992 11.8142 5.48533 8.87075 4.30742 5.50291C4.07917 4.8475 3.84817 4.5835 3.23308 4.5835H0.825C0.1375 4.5835 0 4.90158 0 5.25266C0 5.87783 0.815833 8.9835 3.79958 13.0911C5.78875 15.8961 8.58917 17.4168 11.1403 17.4168C12.6702 17.4168 12.859 17.0795 12.859 16.4974V14.3772C12.859 13.7016 13.0038 13.5668 13.4888 13.5668C13.8463 13.5668 14.4577 13.7428 15.8858 15.0949C17.5175 16.6982 17.7861 17.4168 18.7046 17.4168H21.1108C21.7983 17.4168 22.143 17.0795 21.945 16.4122C21.7268 15.7485 20.9477 14.7851 19.9146 13.642C19.3536 12.9912 18.5121 12.2899 18.2563 11.9388C17.8998 11.4887 18.0015 11.288 18.2563 10.8874C18.2563 10.8874 21.1897 6.83025 21.4949 5.4525H21.4958Z" fill="#01A254"/>
</g>
<defs>
<clipPath id="clip0_1_2932">
<rect width="22" height="22" fill="white"/>
</clipPath>
</defs>
</svg>
