<svg width="164" height="24" viewBox="0 0 164 24" fill="none" xmlns="http://www.w3.org/2000/svg">
<path d="M17.56 21.0002C17.4001 21.0008 17.2423 20.9631 17.1 20.8902L12 18.2202L6.90001 20.8902C6.7344 20.9773 6.54768 21.0162 6.36108 21.0024C6.17448 20.9887 5.99548 20.9228 5.84444 20.8124C5.69339 20.702 5.57635 20.5514 5.50662 20.3778C5.4369 20.2041 5.41728 20.0144 5.45001 19.8302L6.45001 14.2002L2.33001 10.2002C2.20146 10.0719 2.11028 9.91107 2.06623 9.7349C2.02219 9.55872 2.02695 9.37388 2.08001 9.2002C2.13797 9.02248 2.24458 8.86456 2.38776 8.74436C2.53093 8.62417 2.70493 8.54651 2.89001 8.5202L8.59001 7.6902L11.1 2.5602C11.1819 2.39113 11.3097 2.24855 11.4689 2.14878C11.6281 2.04901 11.8122 1.99609 12 1.99609C12.1879 1.99609 12.3719 2.04901 12.5311 2.14878C12.6903 2.24855 12.8181 2.39113 12.9 2.5602L15.44 7.6802L21.14 8.5102C21.3251 8.53651 21.4991 8.61417 21.6423 8.73436C21.7854 8.85456 21.892 9.01248 21.95 9.1902C22.0031 9.36388 22.0078 9.54872 21.9638 9.7249C21.9197 9.90107 21.8286 10.0619 21.7 10.1902L17.58 14.1902L18.58 19.8202C18.6157 20.0077 18.597 20.2015 18.5261 20.3787C18.4553 20.5559 18.3352 20.7091 18.18 20.8202C17.9989 20.9471 17.7809 21.0104 17.56 21.0002Z" fill="#FFE600"/>
<path d="M52.56 21.0002C52.4001 21.0008 52.2423 20.9631 52.1 20.8902L47 18.2202L41.9 20.8902C41.7344 20.9773 41.5477 21.0162 41.3611 21.0024C41.1745 20.9887 40.9955 20.9228 40.8444 20.8124C40.6934 20.702 40.5763 20.5514 40.5066 20.3778C40.4369 20.2041 40.4173 20.0144 40.45 19.8302L41.45 14.2002L37.33 10.2002C37.2015 10.0719 37.1103 9.91107 37.0662 9.7349C37.0222 9.55872 37.027 9.37388 37.08 9.2002C37.138 9.02248 37.2446 8.86456 37.3878 8.74436C37.5309 8.62417 37.7049 8.54651 37.89 8.5202L43.59 7.6902L46.1 2.5602C46.1819 2.39113 46.3097 2.24855 46.4689 2.14878C46.6281 2.04901 46.8122 1.99609 47 1.99609C47.1879 1.99609 47.3719 2.04901 47.5311 2.14878C47.6903 2.24855 47.8181 2.39113 47.9 2.5602L50.44 7.6802L56.14 8.5102C56.3251 8.53651 56.4991 8.61417 56.6423 8.73436C56.7854 8.85456 56.892 9.01248 56.95 9.1902C57.0031 9.36388 57.0078 9.54872 56.9638 9.7249C56.9197 9.90107 56.8286 10.0619 56.7 10.1902L52.58 14.1902L53.58 19.8202C53.6157 20.0077 53.597 20.2015 53.5261 20.3787C53.4553 20.5559 53.3352 20.7091 53.18 20.8202C52.9989 20.9471 52.7809 21.0104 52.56 21.0002Z" fill="#FFE600"/>
<path d="M87.56 21.0002C87.4001 21.0008 87.2423 20.9631 87.1 20.8902L82 18.2202L76.9 20.8902C76.7344 20.9773 76.5477 21.0162 76.3611 21.0024C76.1745 20.9887 75.9955 20.9228 75.8444 20.8124C75.6934 20.702 75.5763 20.5514 75.5066 20.3778C75.4369 20.2041 75.4173 20.0144 75.45 19.8302L76.45 14.2002L72.33 10.2002C72.2015 10.0719 72.1103 9.91107 72.0662 9.7349C72.0222 9.55872 72.027 9.37388 72.08 9.2002C72.138 9.02248 72.2446 8.86456 72.3878 8.74436C72.5309 8.62417 72.7049 8.54651 72.89 8.5202L78.59 7.6902L81.1 2.5602C81.1819 2.39113 81.3097 2.24855 81.4689 2.14878C81.6281 2.04901 81.8122 1.99609 82 1.99609C82.1879 1.99609 82.3719 2.04901 82.5311 2.14878C82.6903 2.24855 82.8181 2.39113 82.9 2.5602L85.44 7.6802L91.14 8.5102C91.3251 8.53651 91.4991 8.61417 91.6423 8.73436C91.7854 8.85456 91.892 9.01248 91.95 9.1902C92.0031 9.36388 92.0078 9.54872 91.9638 9.7249C91.9197 9.90107 91.8286 10.0619 91.7 10.1902L87.58 14.1902L88.58 19.8202C88.6157 20.0077 88.597 20.2015 88.5261 20.3787C88.4553 20.5559 88.3352 20.7091 88.18 20.8202C87.9989 20.9471 87.7809 21.0104 87.56 21.0002Z" fill="#FFE600"/>
<path d="M122.56 21.0002C122.4 21.0008 122.242 20.9631 122.1 20.8902L117 18.2202L111.9 20.8902C111.734 20.9773 111.548 21.0162 111.361 21.0024C111.174 20.9887 110.995 20.9228 110.844 20.8124C110.693 20.702 110.576 20.5514 110.507 20.3778C110.437 20.2041 110.417 20.0144 110.45 19.8302L111.45 14.2002L107.33 10.2002C107.201 10.0719 107.11 9.91107 107.066 9.7349C107.022 9.55872 107.027 9.37388 107.08 9.2002C107.138 9.02248 107.245 8.86456 107.388 8.74436C107.531 8.62417 107.705 8.54651 107.89 8.5202L113.59 7.6902L116.1 2.5602C116.182 2.39113 116.31 2.24855 116.469 2.14878C116.628 2.04901 116.812 1.99609 117 1.99609C117.188 1.99609 117.372 2.04901 117.531 2.14878C117.69 2.24855 117.818 2.39113 117.9 2.5602L120.44 7.6802L126.14 8.5102C126.325 8.53651 126.499 8.61417 126.642 8.73436C126.785 8.85456 126.892 9.01248 126.95 9.1902C127.003 9.36388 127.008 9.54872 126.964 9.7249C126.92 9.90107 126.829 10.0619 126.7 10.1902L122.58 14.1902L123.58 19.8202C123.616 20.0077 123.597 20.2015 123.526 20.3787C123.455 20.5559 123.335 20.7091 123.18 20.8202C122.999 20.9471 122.781 21.0104 122.56 21.0002Z" fill="#FFE600"/>
<path d="M157.56 21.0002C157.4 21.0008 157.242 20.9631 157.1 20.8902L152 18.2202L146.9 20.8902C146.734 20.9773 146.548 21.0162 146.361 21.0024C146.174 20.9887 145.995 20.9228 145.844 20.8124C145.693 20.702 145.576 20.5514 145.507 20.3778C145.437 20.2041 145.417 20.0144 145.45 19.8302L146.45 14.2002L142.33 10.2002C142.201 10.0719 142.11 9.91107 142.066 9.7349C142.022 9.55872 142.027 9.37388 142.08 9.2002C142.138 9.02248 142.245 8.86456 142.388 8.74436C142.531 8.62417 142.705 8.54651 142.89 8.5202L148.59 7.6902L151.1 2.5602C151.182 2.39113 151.31 2.24855 151.469 2.14878C151.628 2.04901 151.812 1.99609 152 1.99609C152.188 1.99609 152.372 2.04901 152.531 2.14878C152.69 2.24855 152.818 2.39113 152.9 2.5602L155.44 7.6802L161.14 8.5102C161.325 8.53651 161.499 8.61417 161.642 8.73436C161.785 8.85456 161.892 9.01248 161.95 9.1902C162.003 9.36388 162.008 9.54872 161.964 9.7249C161.92 9.90107 161.829 10.0619 161.7 10.1902L157.58 14.1902L158.58 19.8202C158.616 20.0077 158.597 20.2015 158.526 20.3787C158.455 20.5559 158.335 20.7091 158.18 20.8202C157.999 20.9471 157.781 21.0104 157.56 21.0002Z" fill="#FFE600"/>
</svg>
