<svg width="28" height="36" viewBox="0 0 28 36" fill="none" xmlns="http://www.w3.org/2000/svg">
<path fill-rule="evenodd" clip-rule="evenodd" d="M5.517 5.535C6.62808 4.41558 7.94958 3.52695 9.40545 2.92027C10.8613 2.31359 12.4228 2.00083 14 2C17.18 2 20.232 3.27 22.483 5.535C24.7374 7.80615 26.0017 10.8769 26 14.077C26 19.603 22.936 24.605 19.744 28.298C18.3989 29.8467 16.9405 31.2934 15.381 32.626C14.9301 33.0128 14.4696 33.3882 14 33.752C13.5306 33.388 13.0701 33.0125 12.619 32.626C11.0595 31.2934 9.60113 29.8467 8.256 28.298C5.064 24.605 2 19.603 2 14.077C2 10.872 3.266 7.8 5.517 5.535ZM13.424 35.817L14 35L14.576 35.817C14.4073 35.9355 14.2062 35.9991 14 35.9991C13.7938 35.9991 13.5927 35.9355 13.424 35.817ZM13.424 35.817L14 35L14.576 35.817L14.58 35.815L14.59 35.808L14.62 35.785L14.738 35.7C14.838 35.626 14.984 35.518 15.168 35.376C15.536 35.094 16.058 34.679 16.681 34.146C18.3164 32.7481 19.8456 31.2306 21.256 29.606C24.564 25.78 28 20.319 28 14.076C28 10.346 26.526 6.766 23.902 4.126C22.605 2.81939 21.0625 1.78218 19.3631 1.07408C17.6637 0.365966 15.841 0.000938336 14 0C12.1591 0.000807344 10.3364 0.365678 8.63705 1.07361C6.93766 1.78155 5.39505 2.81857 4.098 4.125C1.47142 6.77104 -0.00176302 10.3487 1.58342e-06 14.077C1.58342e-06 20.319 3.436 25.78 6.744 29.606C8.15437 31.2306 9.68359 32.7481 11.319 34.146C11.943 34.679 12.464 35.094 12.832 35.376C13.0125 35.5151 13.1948 35.6518 13.379 35.786L13.411 35.808L13.42 35.815L13.424 35.817ZM10 14C10 12.9391 10.4214 11.9217 11.1716 11.1716C11.9217 10.4214 12.9391 10 14 10C15.0609 10 16.0783 10.4214 16.8284 11.1716C17.5786 11.9217 18 12.9391 18 14C18 15.0609 17.5786 16.0783 16.8284 16.8284C16.0783 17.5786 15.0609 18 14 18C12.9391 18 11.9217 17.5786 11.1716 16.8284C10.4214 16.0783 10 15.0609 10 14ZM14 8C12.4087 8 10.8826 8.63214 9.75736 9.75736C8.63214 10.8826 8 12.4087 8 14C8 15.5913 8.63214 17.1174 9.75736 18.2426C10.8826 19.3679 12.4087 20 14 20C15.5913 20 17.1174 19.3679 18.2426 18.2426C19.3679 17.1174 20 15.5913 20 14C20 12.4087 19.3679 10.8826 18.2426 9.75736C17.1174 8.63214 15.5913 8 14 8Z" fill="black"/>
</svg>
