<svg width="29" height="25" viewBox="0 0 29 25" fill="none" xmlns="http://www.w3.org/2000/svg">
<path fill-rule="evenodd" clip-rule="evenodd" d="M1 4.85714V20.2857C1 21.3087 1.40638 22.2898 2.12973 23.0131C2.85309 23.7365 3.83416 24.1429 4.85714 24.1429H24.1429C25.1658 24.1429 26.1469 23.7365 26.8703 23.0131C27.5936 22.2898 28 21.3087 28 20.2857V4.85714C28 3.83417 27.5936 2.85309 26.8703 2.12973C26.1469 1.40638 25.1658 1 24.1429 1H4.85714C3.83416 1 2.85309 1.40638 2.12973 2.12973C1.40638 2.85309 1 3.83417 1 4.85714V4.85714Z" stroke="black" stroke-width="1.5" stroke-linecap="round" stroke-linejoin="round"/>
<path d="M4.85715 6.78516L14.5 12.5709L24.1429 6.78516" stroke="black" stroke-width="1.5" stroke-linecap="round" stroke-linejoin="round"/>
</svg>
