<svg width="29" height="29" viewBox="0 0 29 29" fill="none" xmlns="http://www.w3.org/2000/svg">
<path d="M22.4242 28.9999C22.142 28.9991 21.8606 28.9675 21.5849 28.9055C16.3364 27.7952 11.501 25.1919 7.63549 21.3952C3.85242 17.5902 1.22866 12.7456 0.0816526 7.44754C-0.0535935 6.78724 -0.0203987 6.10246 0.178043 5.45908C0.376485 4.8157 0.733496 4.23537 1.21473 3.77393L4.57199 0.469401C4.74347 0.303563 4.94721 0.176568 5.16993 0.0967033C5.39265 0.0168391 5.62933 -0.014099 5.86453 0.00590837C6.10841 0.0319266 6.34375 0.112266 6.554 0.241276C6.76426 0.370286 6.94433 0.544834 7.08154 0.752646L11.2781 7.09563C11.4355 7.34174 11.5115 7.63302 11.4948 7.92659C11.4782 8.22017 11.3699 8.50053 11.1858 8.72643L9.07911 11.3014C9.91813 13.2004 11.1063 14.9167 12.5791 16.3569C14.0422 17.8493 15.7717 19.041 17.6737 19.8674L20.284 17.7474C20.5032 17.5702 20.77 17.4654 21.0488 17.447C21.3277 17.4286 21.6054 17.4975 21.8451 17.6444L28.1819 21.833C28.3994 21.9658 28.5846 22.1471 28.7238 22.3635C28.863 22.5799 28.9525 22.8257 28.9856 23.0825C29.0187 23.3393 28.9946 23.6004 28.915 23.8463C28.8354 24.0922 28.7024 24.3165 28.526 24.5023L25.2527 27.8155C24.8809 28.1938 24.4396 28.4933 23.9541 28.6966C23.4687 28.8998 22.9488 29.0029 22.4242 28.9999ZM5.73024 1.70538L2.37298 5.00991C2.10226 5.26788 1.90186 5.59346 1.79149 5.95465C1.68112 6.31583 1.66458 6.70017 1.7435 7.06988C2.81003 12.0414 5.26167 16.5906 8.80214 20.1678C12.4399 23.7398 16.9902 26.1884 21.929 27.2318C22.3029 27.3117 22.6902 27.2955 23.0565 27.1847C23.4227 27.0738 23.7562 26.8718 24.0273 26.5966L27.3006 23.2835L21.182 19.2408L18.3787 21.524C18.2714 21.6108 18.1449 21.6695 18.0104 21.695C17.8758 21.7204 17.7371 21.7118 17.6066 21.6699C15.2789 20.7929 13.1695 19.4007 11.4292 17.5929C9.62916 15.8738 8.23192 13.7613 7.34173 11.413C7.30407 11.2708 7.30282 11.1211 7.33809 10.9783C7.37337 10.8355 7.44399 10.7044 7.54316 10.5976L9.80931 7.8252L5.73024 1.70538Z" fill="black"/>
</svg>
