<svg width="17" height="21" viewBox="0 0 17 21" fill="none" xmlns="http://www.w3.org/2000/svg">
<path d="M8.50273 6.42716C7.74024 6.42716 7.00897 6.73007 6.4698 7.26923C5.93063 7.8084 5.62773 8.53967 5.62773 9.30216C5.62773 10.0647 5.93063 10.7959 6.4698 11.3351C7.00897 11.8743 7.74024 12.1772 8.50273 12.1772C9.26523 12.1772 9.9965 11.8743 10.5357 11.3351C11.0748 10.7959 11.3777 10.0647 11.3777 9.30216C11.3777 8.53967 11.0748 7.8084 10.5357 7.26923C9.9965 6.73007 9.26523 6.42716 8.50273 6.42716ZM6.82565 9.30216C6.82565 8.85737 7.00234 8.4308 7.31686 8.11629C7.63137 7.80177 8.05794 7.62508 8.50273 7.62508C8.94752 7.62508 9.3741 7.80177 9.68861 8.11629C10.0031 8.4308 10.1798 8.85737 10.1798 9.30216C10.1798 9.74695 10.0031 10.1735 9.68861 10.488C9.3741 10.8026 8.94752 10.9792 8.50273 10.9792C8.05794 10.9792 7.63137 10.8026 7.31686 10.488C7.00234 10.1735 6.82565 9.74695 6.82565 9.30216ZM14.7295 14.3334L9.89567 19.4653C9.71647 19.6556 9.50025 19.8072 9.26029 19.9108C9.02034 20.0145 8.76172 20.0679 8.50034 20.0679C8.23896 20.0679 7.98034 20.0145 7.74038 19.9108C7.50042 19.8072 7.2842 19.6556 7.105 19.4653L2.27117 14.3334H2.28938L2.28123 14.3238L2.27117 14.3119C1.03046 12.8445 0.351207 10.9842 0.354504 9.06258C0.354504 4.56369 4.00144 0.916748 8.50034 0.916748C12.9992 0.916748 16.6462 4.56369 16.6462 9.06258C16.6495 10.9842 15.9702 12.8445 14.7295 14.3119L14.7194 14.3238L14.7113 14.3334H14.7295ZM13.7985 13.5576C14.8661 12.3035 15.4511 10.7096 15.4483 9.06258C15.4483 5.22541 12.3375 2.11466 8.50034 2.11466C4.66317 2.11466 1.55242 5.22541 1.55242 9.06258C1.54942 10.7096 2.13445 12.3036 3.20219 13.5576L3.34978 13.7316L7.97709 18.6435C8.04429 18.7149 8.12537 18.7717 8.21535 18.8106C8.30534 18.8495 8.40232 18.8695 8.50034 18.8695C8.59836 18.8695 8.69534 18.8495 8.78532 18.8106C8.87531 18.7717 8.95639 18.7149 9.02359 18.6435L13.6509 13.7316L13.7985 13.5576Z" fill="white"/>
</svg>
