<svg width="264" height="66" viewBox="0 0 264 66" fill="none" xmlns="http://www.w3.org/2000/svg">
<path d="M17.204 8.472H2.482V32H7.48V12.484H16.66L17.204 8.472ZM37.5288 8.472H31.5448L23.9968 26.934C24.3368 24.724 24.7108 22.31 24.7108 18.026V8.472H19.7808V32H25.9008L33.3128 13.504C32.9728 15.51 32.5988 18.536 32.5988 22.548V32H37.5288V8.472ZM58.5398 28.124V8.472H45.2458L44.3618 15.714C43.2738 24.044 42.7978 26.458 41.2678 28.124H39.6018V37.508H43.1378L43.7158 32H56.4658L57.0438 37.508H60.5798V28.124H58.5398ZM53.6438 28.124H45.2798C47.5238 26.322 48.3058 23.466 49.1558 15.408L49.4958 12.212H53.6438V28.124ZM71.051 8.472H63.775V32H68.773V23.976H71.459C76.831 23.976 80.707 21.494 80.707 16.054C80.707 10.92 77.035 8.472 71.051 8.472ZM71.051 20.304H68.773V12.076H70.983C73.907 12.076 75.539 13.3 75.539 16.054C75.539 19.25 73.805 20.304 71.051 20.304ZM93.2777 7.928C86.8177 7.928 82.8057 12.552 82.8057 20.236C82.8057 28.09 86.8177 32.544 93.2777 32.544C99.7377 32.544 103.716 27.954 103.716 20.236C103.716 12.348 99.7377 7.928 93.2777 7.928ZM93.2777 11.668C96.6437 11.668 98.4457 14.082 98.4457 20.236C98.4457 26.39 96.6437 28.804 93.2777 28.804C90.0137 28.804 88.0757 26.39 88.0757 20.236C88.0757 14.082 89.9457 11.668 93.2777 11.668ZM106.653 23.262H117.193V19.454H106.653V23.262ZM130.598 7.928C124.682 7.928 120.126 12.28 120.126 20.202C120.126 28.226 124.41 32.544 130.7 32.544C133.93 32.544 136.412 31.116 137.908 29.586L135.596 26.696C134.236 27.75 132.842 28.6 130.904 28.6C127.64 28.6 125.396 26.118 125.396 20.202C125.396 14.082 127.708 11.702 130.87 11.702C132.468 11.702 133.828 12.28 135.154 13.368L137.636 10.478C135.664 8.846 133.658 7.928 130.598 7.928ZM158.488 8.472H152.504L144.956 26.934C145.296 24.724 145.67 22.31 145.67 18.026V8.472H140.74V32H146.86L154.272 13.504C153.932 15.51 153.558 18.536 153.558 22.548V32H158.488V8.472ZM172.733 7.928C166.817 7.928 162.261 12.28 162.261 20.202C162.261 28.226 166.545 32.544 172.835 32.544C176.065 32.544 178.547 31.116 180.043 29.586L177.731 26.696C176.371 27.75 174.977 28.6 173.039 28.6C169.775 28.6 167.531 26.118 167.531 20.202C167.531 14.082 169.843 11.702 173.005 11.702C174.603 11.702 175.963 12.28 177.289 13.368L179.771 10.478C177.799 8.846 175.793 7.928 172.733 7.928ZM198.149 8.472H180.401V12.382H186.657V32H191.655V12.382H197.605L198.149 8.472ZM214.747 8.472H200.705V32H214.815V28.328H205.703V21.834H213.115V18.23H205.703V12.11H214.203L214.747 8.472ZM239.68 8.472H233.254L229.616 24.69L225.74 8.472H219.382L217.546 32H222.408L222.918 22.548C223.088 19.25 223.122 16.122 222.918 12.824L227.168 29.484H231.894L235.872 12.858C235.77 15.544 235.872 19.08 236.076 22.446L236.586 32H241.482L239.68 8.472ZM257.774 32H263.078L255.87 8.472H249.784L242.542 32H247.744L249.07 26.73H256.448L257.774 32ZM250.022 23.024L252.742 12.178L255.496 23.024H250.022Z" fill="white"/>
<path d="M7.12 50.08C6.02 50.08 4.88 50.56 4.04 51.64L3.9 50.4H1.4V65.4L4.24 65.08V60.18C4.9 60.94 5.8 61.32 6.86 61.32C9.52 61.32 11.06 58.92 11.06 55.68C11.06 52.26 9.88 50.08 7.12 50.08ZM6.02 59.2C5.28 59.2 4.7 58.86 4.24 58.16V53.54C4.72 52.74 5.42 52.18 6.24 52.18C7.42 52.18 8.1 53.04 8.1 55.7C8.1 58.18 7.32 59.2 6.02 59.2ZM23.6573 50.4H20.7173L18.4773 59.16L16.3573 50.4H13.3373L16.6373 61H17.6173C17.0373 62.44 16.3173 63.08 14.2173 63.36L14.5173 65.4C17.7573 65.18 19.4173 63.6 20.2373 61.02L23.6573 50.4ZM27.2588 50.4L26.9188 54.92C26.6788 58.24 26.5588 58.62 25.3188 59.16L25.9988 61.24C28.8188 60.56 29.1988 59.24 29.5588 55.1L29.7788 52.52H32.1188V61H34.9588V50.4H27.2588ZM48.3241 55.46C48.3241 52.08 46.5441 50.08 43.5441 50.08C40.4441 50.08 38.7241 52.56 38.7241 55.76C38.7241 59.08 40.5041 61.32 43.9041 61.32C45.5641 61.32 46.8841 60.72 47.9241 59.88L46.7441 58.28C45.8241 58.92 45.0641 59.2 44.1641 59.2C42.8041 59.2 41.8441 58.6 41.6441 56.56H48.2641C48.2841 56.26 48.3241 55.82 48.3241 55.46ZM45.5041 54.78H41.6441C41.7841 52.78 42.4841 52.02 43.6041 52.02C44.9641 52.02 45.5041 53.06 45.5041 54.66V54.78ZM58.2797 55.2C59.7397 54.94 60.4997 54.14 60.4997 52.96C60.4997 51.04 58.7397 50.08 55.9997 50.08C54.6997 50.08 53.3997 50.24 51.9797 50.52V61H56.2997C59.0197 61 60.9797 60.04 60.9797 57.76C60.9797 56.3 60.1397 55.4 58.2797 55.2ZM55.9597 51.96C57.0997 51.96 57.6797 52.36 57.6797 53.26C57.6797 54.2 57.0597 54.58 56.1397 54.58H54.8197V52.02C55.2197 51.98 55.5397 51.96 55.9597 51.96ZM56.2397 59.08H54.8197V56.18H56.2597C57.5397 56.18 58.0597 56.64 58.0597 57.56C58.0597 58.7 57.3197 59.08 56.2397 59.08ZM68.272 53.72H67.572V50.4H64.732V61H68.712C71.192 61 73.132 59.82 73.132 57.36C73.132 55.06 71.732 53.72 68.272 53.72ZM74.192 50.4V61H77.032V50.4H74.192ZM68.432 59.08H67.572V55.6H68.252C69.732 55.6 70.212 56.2 70.212 57.32C70.212 58.56 69.532 59.08 68.432 59.08ZM90.3897 55.46C90.3897 52.08 88.6097 50.08 85.6097 50.08C82.5097 50.08 80.7897 52.56 80.7897 55.76C80.7897 59.08 82.5697 61.32 85.9697 61.32C87.6297 61.32 88.9497 60.72 89.9897 59.88L88.8097 58.28C87.8897 58.92 87.1297 59.2 86.2297 59.2C84.8697 59.2 83.9097 58.6 83.7097 56.56H90.3297C90.3497 56.26 90.3897 55.82 90.3897 55.46ZM87.5697 54.78H83.7097C83.8497 52.78 84.5497 52.02 85.6697 52.02C87.0297 52.02 87.5697 53.06 87.5697 54.66V54.78ZM106.248 50.08C105.148 50.08 104.008 50.56 103.168 51.64L103.028 50.4H100.528V65.4L103.368 65.08V60.18C104.028 60.94 104.928 61.32 105.988 61.32C108.648 61.32 110.188 58.92 110.188 55.68C110.188 52.26 109.008 50.08 106.248 50.08ZM105.148 59.2C104.408 59.2 103.828 58.86 103.368 58.16V53.54C103.848 52.74 104.548 52.18 105.368 52.18C106.548 52.18 107.228 53.04 107.228 55.7C107.228 58.18 106.448 59.2 105.148 59.2ZM123.002 55.46C123.002 52.08 121.222 50.08 118.222 50.08C115.122 50.08 113.402 52.56 113.402 55.76C113.402 59.08 115.182 61.32 118.582 61.32C120.242 61.32 121.562 60.72 122.602 59.88L121.422 58.28C120.502 58.92 119.742 59.2 118.842 59.2C117.482 59.2 116.522 58.6 116.322 56.56H122.942C122.962 56.26 123.002 55.82 123.002 55.46ZM120.182 54.78H116.322C116.462 52.78 117.162 52.02 118.282 52.02C119.642 52.02 120.182 53.06 120.182 54.66V54.78ZM131.178 48.3C133.158 48.3 134.378 47.12 134.538 45.4L132.918 45.1C132.658 45.96 132.098 46.3 131.178 46.3C130.238 46.3 129.698 45.96 129.458 45.1L127.838 45.4C127.998 47.12 129.198 48.3 131.178 48.3ZM135.718 50.4H132.718L129.018 58.2C129.178 57.54 129.378 56.02 129.378 54.46V50.4H126.658V61H129.618L133.378 53.2C133.218 53.86 132.998 55.3 132.998 56.98V61H135.718V50.4ZM149.253 50.4H146.453L144.073 54.56H142.953V50.4H140.113V61H142.953V56.36H144.013L146.473 61H149.533L146.333 55.32L149.253 50.4ZM161.594 50.4H158.594L154.894 58.2C155.054 57.54 155.254 56.02 155.254 54.46V50.4H152.534V61H155.494L159.254 53.2C159.094 53.86 158.874 55.3 158.874 56.98V61H161.594V50.4Z" fill="white"/>
</svg>
