<svg width="152" height="69" viewBox="0 0 152 69" fill="none" xmlns="http://www.w3.org/2000/svg">
<path d="M36.518 32.484C36.5753 32.484 36.604 32.57 36.604 32.742C36.604 32.914 36.5753 33 36.518 33C35.572 33 34.8123 32.9857 34.239 32.957L31.143 32.914L28.133 32.957C27.617 32.9857 26.886 33 25.94 33C25.8827 33 25.854 32.914 25.854 32.742C25.854 32.57 25.8827 32.484 25.94 32.484C27.2013 32.484 28.047 32.3407 28.477 32.054C28.907 31.7673 29.122 31.1653 29.122 30.248L29.079 29.517L28.219 11.285L19.06 32.699C19.0027 32.8137 18.888 32.871 18.716 32.871C18.5727 32.871 18.4437 32.8137 18.329 32.699L7.579 11.457L7.192 27.797C7.16333 29.3163 7.45 30.4773 8.052 31.28C8.68267 32.0827 9.61433 32.484 10.847 32.484C10.933 32.484 10.976 32.57 10.976 32.742C10.976 32.914 10.933 33 10.847 33C10.073 33 9.471 32.9857 9.041 32.957L6.676 32.914L4.139 32.957C3.709 32.9857 3.107 33 2.333 33C2.247 33 2.204 32.914 2.204 32.742C2.204 32.57 2.247 32.484 2.333 32.484C3.50833 32.484 4.41133 32.0827 5.042 31.28C5.70133 30.4773 6.04533 29.3163 6.074 27.797L6.461 9.307C5.945 8.38967 5.37167 7.716 4.741 7.286C4.139 6.856 3.43667 6.641 2.634 6.641C2.548 6.641 2.505 6.555 2.505 6.383C2.505 6.211 2.548 6.125 2.634 6.125L4.483 6.168C4.85567 6.19667 5.343 6.211 5.945 6.211L7.966 6.168C8.19533 6.13933 8.482 6.125 8.826 6.125C9.19867 6.125 9.49967 6.26833 9.729 6.555C9.95833 6.813 10.3167 7.415 10.804 8.361L20.264 26.808L28.821 7.2C28.993 6.79867 29.1793 6.52633 29.38 6.383C29.5807 6.211 29.8243 6.125 30.111 6.125C30.3117 6.125 30.5697 6.13933 30.885 6.168C31.2003 6.19667 31.5873 6.211 32.046 6.211L34.368 6.168C34.7407 6.13933 35.2997 6.125 36.045 6.125C36.1023 6.125 36.131 6.211 36.131 6.383C36.131 6.555 36.1023 6.641 36.045 6.641C34.669 6.641 33.6657 6.899 33.035 7.415C32.433 7.90233 32.1607 8.71933 32.218 9.866L33.207 29.517C33.2643 30.4057 33.3647 31.0507 33.508 31.452C33.68 31.8533 33.981 32.1257 34.411 32.269C34.841 32.4123 35.5433 32.484 36.518 32.484ZM53.8732 30.291C53.9305 30.291 53.9879 30.3483 54.0452 30.463C54.1312 30.5777 54.1455 30.6637 54.0882 30.721C53.0562 31.6957 52.0099 32.4123 50.9492 32.871C49.8885 33.301 48.7275 33.516 47.4662 33.516C45.6889 33.516 44.1552 33.1433 42.8652 32.398C41.6039 31.624 40.6292 30.6063 39.9412 29.345C39.2819 28.055 38.9522 26.679 38.9522 25.217C38.9522 23.5257 39.3679 21.9777 40.1992 20.573C41.0592 19.1683 42.2202 18.0647 43.6822 17.262C45.1729 16.4307 46.8069 16.015 48.5842 16.015C50.2755 16.015 51.5799 16.402 52.4972 17.176C53.4145 17.9213 53.8732 18.9533 53.8732 20.272C53.8732 21.046 53.7155 21.433 53.4002 21.433H51.0352L42.9512 21.519C42.8652 22.121 42.8222 22.766 42.8222 23.454C42.8222 25.948 43.3955 27.9403 44.5422 29.431C45.7175 30.893 47.3372 31.624 49.4012 31.624C50.1465 31.624 50.9062 31.5237 51.6802 31.323C52.4542 31.0937 53.1565 30.764 53.7872 30.334L53.8732 30.291ZM47.0362 16.875C46.0902 16.875 45.2732 17.219 44.5852 17.907C43.8972 18.595 43.4099 19.541 43.1232 20.745L49.8312 20.616C49.7739 19.4407 49.5159 18.5233 49.0572 17.864C48.5985 17.2047 47.9249 16.875 47.0362 16.875ZM68.9679 15.843C70.2292 15.843 71.3902 16.144 72.4509 16.746C73.5402 17.348 74.4002 18.251 75.0309 19.455C75.6902 20.659 76.0199 22.121 76.0199 23.841C76.0199 25.905 75.5756 27.668 74.6869 29.13C73.8269 30.592 72.6802 31.6957 71.2469 32.441C69.8135 33.1863 68.2942 33.559 66.6889 33.559C64.4529 33.559 62.4462 32.8997 60.6689 31.581L57.0139 33.258H56.9279C56.8132 33.258 56.7415 33.2007 56.7129 33.086C56.6842 33 56.7129 32.9283 56.7989 32.871C57.5729 32.3837 58.1319 31.8247 58.4759 31.194C58.8485 30.5347 59.0349 29.6603 59.0349 28.571V7.544C59.0349 6.54067 58.9345 5.824 58.7339 5.394C58.5332 4.93533 58.1892 4.706 57.7019 4.706C57.3579 4.706 56.7989 4.878 56.0249 5.222H55.9819C55.8672 5.222 55.7812 5.15033 55.7239 5.007C55.6665 4.86367 55.6665 4.76333 55.7239 4.706L61.7009 1.868L61.9159 1.825C62.0305 1.825 62.1595 1.88233 62.3029 1.997C62.4462 2.11167 62.5179 2.212 62.5179 2.298V19.025C63.4639 18.0503 64.4529 17.2763 65.4849 16.703C66.5169 16.1297 67.6779 15.843 68.9679 15.843ZM67.8069 32.699C69.2116 32.699 70.2866 32.0683 71.0319 30.807C71.7772 29.5457 72.1499 27.754 72.1499 25.432C72.1499 22.9093 71.6912 21.0173 70.7739 19.756C69.8852 18.466 68.6812 17.821 67.1619 17.821C65.6999 17.821 64.1519 18.4803 62.5179 19.799V26.378C62.5179 27.8687 62.7902 29.087 63.3349 30.033C63.9082 30.979 64.5962 31.667 65.3989 32.097C66.2302 32.4983 67.0329 32.699 67.8069 32.699ZM93.8078 30.291C93.8651 30.291 93.9224 30.3483 93.9798 30.463C94.0658 30.5777 94.0801 30.6637 94.0228 30.721C92.9908 31.6957 91.9444 32.4123 90.8838 32.871C89.8231 33.301 88.6621 33.516 87.4008 33.516C85.6234 33.516 84.0898 33.1433 82.7998 32.398C81.5384 31.624 80.5638 30.6063 79.8758 29.345C79.2164 28.055 78.8868 26.679 78.8868 25.217C78.8868 23.5257 79.3024 21.9777 80.1338 20.573C80.9938 19.1683 82.1548 18.0647 83.6168 17.262C85.1074 16.4307 86.7414 16.015 88.5188 16.015C90.2101 16.015 91.5144 16.402 92.4318 17.176C93.3491 17.9213 93.8078 18.9533 93.8078 20.272C93.8078 21.046 93.6501 21.433 93.3348 21.433H90.9698L82.8858 21.519C82.7998 22.121 82.7568 22.766 82.7568 23.454C82.7568 25.948 83.3301 27.9403 84.4768 29.431C85.6521 30.893 87.2718 31.624 89.3358 31.624C90.0811 31.624 90.8408 31.5237 91.6148 31.323C92.3888 31.0937 93.0911 30.764 93.7218 30.334L93.8078 30.291ZM86.9708 16.875C86.0248 16.875 85.2078 17.219 84.5198 17.907C83.8318 18.595 83.3444 19.541 83.0578 20.745L89.7658 20.616C89.7084 19.4407 89.4504 18.5233 88.9918 17.864C88.5331 17.2047 87.8594 16.875 86.9708 16.875ZM96.9055 33C96.8195 33 96.7765 32.914 96.7765 32.742C96.7765 32.57 96.8195 32.484 96.9055 32.484C97.8515 32.484 98.4965 32.2833 98.8405 31.882C99.1845 31.452 99.3565 30.6637 99.3565 29.517V7.544C99.3565 6.54067 99.2561 5.824 99.0555 5.394C98.8835 4.93533 98.5538 4.706 98.0665 4.706C97.6365 4.706 97.0631 4.878 96.3465 5.222H96.3035C96.1888 5.222 96.1028 5.15033 96.0455 5.007C95.9881 4.86367 95.9881 4.76333 96.0455 4.706L102.108 1.868L102.28 1.825C102.395 1.825 102.524 1.88233 102.667 1.997C102.839 2.11167 102.925 2.212 102.925 2.298V29.517C102.925 30.6923 103.083 31.4807 103.398 31.882C103.714 32.2833 104.359 32.484 105.333 32.484C105.419 32.484 105.462 32.57 105.462 32.742C105.462 32.914 105.419 33 105.333 33C104.645 33 104.086 32.9857 103.656 32.957L101.119 32.914L98.6255 32.957C98.1955 32.9857 97.6221 33 96.9055 33ZM108.285 33C108.199 33 108.156 32.914 108.156 32.742C108.156 32.57 108.199 32.484 108.285 32.484C109.231 32.484 109.876 32.2833 110.22 31.882C110.564 31.452 110.736 30.6637 110.736 29.517V7.544C110.736 6.54067 110.636 5.824 110.435 5.394C110.263 4.93533 109.934 4.706 109.446 4.706C109.016 4.706 108.443 4.878 107.726 5.222H107.683C107.569 5.222 107.483 5.15033 107.425 5.007C107.368 4.86367 107.368 4.76333 107.425 4.706L113.488 1.868L113.66 1.825C113.775 1.825 113.904 1.88233 114.047 1.997C114.219 2.11167 114.305 2.212 114.305 2.298V29.517C114.305 30.6923 114.463 31.4807 114.778 31.882C115.094 32.2833 115.739 32.484 116.713 32.484C116.799 32.484 116.842 32.57 116.842 32.742C116.842 32.914 116.799 33 116.713 33C116.025 33 115.466 32.9857 115.036 32.957L112.499 32.914L110.005 32.957C109.575 32.9857 109.002 33 108.285 33ZM119.966 33C119.88 33 119.837 32.914 119.837 32.742C119.837 32.57 119.88 32.484 119.966 32.484C120.941 32.484 121.586 32.2833 121.901 31.882C122.217 31.4807 122.374 30.6923 122.374 29.517V21.691C122.374 20.7163 122.274 20.014 122.073 19.584C121.873 19.1253 121.529 18.896 121.041 18.896C120.611 18.896 120.052 19.068 119.364 19.412H119.321C119.207 19.412 119.121 19.3403 119.063 19.197C119.006 19.0537 119.02 18.9533 119.106 18.896L125.298 16.015L125.427 15.972C125.542 15.972 125.657 16.0437 125.771 16.187C125.915 16.3017 125.986 16.402 125.986 16.488V17.391C125.929 18.595 125.9 20.014 125.9 21.648V29.517C125.9 30.6923 126.058 31.4807 126.373 31.882C126.717 32.2833 127.377 32.484 128.351 32.484C128.437 32.484 128.48 32.57 128.48 32.742C128.48 32.914 128.437 33 128.351 33C127.635 33 127.061 32.9857 126.631 32.957L124.137 32.914L121.643 32.957C121.242 32.9857 120.683 33 119.966 33ZM123.922 11.457C123.177 11.457 122.589 11.2563 122.159 10.855C121.758 10.4537 121.557 9.88033 121.557 9.135C121.557 8.41833 121.758 7.87366 122.159 7.501C122.589 7.09966 123.177 6.899 123.922 6.899C124.639 6.899 125.198 7.09966 125.599 7.501C126.001 7.87366 126.201 8.41833 126.201 9.135C126.201 9.88033 126.001 10.4537 125.599 10.855C125.227 11.2563 124.668 11.457 123.922 11.457ZM151.168 32.484C151.254 32.484 151.297 32.57 151.297 32.742C151.297 32.914 151.254 33 151.168 33C150.451 33 149.892 32.9857 149.491 32.957L146.997 32.914L144.546 32.957C144.116 32.9857 143.543 33 142.826 33C142.74 33 142.697 32.914 142.697 32.742C142.697 32.57 142.74 32.484 142.826 32.484C143.801 32.484 144.446 32.2833 144.761 31.882C145.076 31.4807 145.234 30.6923 145.234 29.517V23.067C145.234 21.4617 144.933 20.2863 144.331 19.541C143.758 18.767 142.84 18.38 141.579 18.38C140.834 18.38 140.074 18.552 139.3 18.896C138.526 19.24 137.824 19.6987 137.193 20.272V29.517C137.193 30.6923 137.351 31.4807 137.666 31.882C137.981 32.2833 138.626 32.484 139.601 32.484C139.687 32.484 139.73 32.57 139.73 32.742C139.73 32.914 139.687 33 139.601 33C138.884 33 138.325 32.9857 137.924 32.957L135.43 32.914L132.936 32.957C132.535 32.9857 131.976 33 131.259 33C131.173 33 131.13 32.914 131.13 32.742C131.13 32.57 131.173 32.484 131.259 32.484C132.234 32.484 132.879 32.2833 133.194 31.882C133.509 31.4807 133.667 30.6923 133.667 29.517V21.304C133.667 20.3867 133.552 19.713 133.323 19.283C133.122 18.853 132.778 18.638 132.291 18.638C131.861 18.638 131.144 18.853 130.141 19.283H130.098C129.983 19.283 129.897 19.2113 129.84 19.068C129.783 18.9247 129.797 18.8387 129.883 18.81L135.516 16.058C135.688 16.0007 135.788 15.972 135.817 15.972C136.104 15.972 136.39 16.3017 136.677 16.961C136.992 17.5917 137.164 18.423 137.193 19.455C139.2 17.0757 141.378 15.886 143.729 15.886C145.306 15.886 146.538 16.3733 147.427 17.348C148.316 18.294 148.76 19.584 148.76 21.218V29.517C148.76 30.6923 148.918 31.4807 149.233 31.882C149.548 32.2833 150.193 32.484 151.168 32.484Z" fill="black"/>
<path d="M16.834 54.625H17.0684L19.2305 61H18.375L16.7988 56.3066L14.3496 61H14.1973L11.7422 56.3066L10.1719 61H9.31641L11.4902 54.625H11.7129L14.2793 59.6113L16.834 54.625ZM28.2281 58.8848L28.9195 59.248C28.693 59.6934 28.4312 60.0527 28.1344 60.3262C27.8375 60.5996 27.5035 60.8086 27.1324 60.9531C26.7613 61.0938 26.3414 61.1641 25.8727 61.1641C24.8336 61.1641 24.0211 60.8242 23.4352 60.1445C22.8492 59.4609 22.5562 58.6895 22.5562 57.8301C22.5562 57.0215 22.8043 56.3008 23.3004 55.668C23.9293 54.8633 24.7711 54.4609 25.8258 54.4609C26.9117 54.4609 27.7789 54.873 28.4273 55.6973C28.8883 56.2793 29.1227 57.0059 29.1305 57.877H23.4C23.4156 58.6191 23.652 59.2285 24.109 59.7051C24.566 60.1777 25.1305 60.4141 25.8023 60.4141C26.1266 60.4141 26.441 60.3574 26.7457 60.2441C27.0543 60.1309 27.316 59.9805 27.5309 59.793C27.7457 59.6055 27.9781 59.3027 28.2281 58.8848ZM28.2281 57.168C28.1187 56.7305 27.9586 56.3809 27.7477 56.1191C27.5406 55.8574 27.2652 55.6465 26.9215 55.4863C26.5777 55.3262 26.2164 55.2461 25.8375 55.2461C25.2125 55.2461 24.6754 55.4473 24.2262 55.8496C23.898 56.1426 23.65 56.582 23.482 57.168H28.2281ZM39.1652 52.0293V52.8145C38.7746 52.8809 38.1047 52.9277 37.1555 52.9551C36.468 52.9785 35.9367 53.0254 35.5617 53.0957C35.1906 53.1621 34.8664 53.293 34.5891 53.4883C34.3117 53.6797 34.0773 53.9727 33.8859 54.3672C33.6984 54.7578 33.5812 55.1953 33.5344 55.6797L33.4523 56.5762C33.675 55.8457 34.0402 55.3105 34.548 54.9707C35.0598 54.6309 35.6262 54.4609 36.2473 54.4609C37.1926 54.4609 37.9816 54.793 38.6145 55.457C39.2512 56.1211 39.5695 56.9121 39.5695 57.8301C39.5695 58.7402 39.2531 59.5234 38.6203 60.1797C37.9875 60.8359 37.1965 61.1641 36.2473 61.1641C35.2746 61.1641 34.4504 60.8008 33.7746 60.0742C33.0988 59.3477 32.7609 58.2031 32.7609 56.6406C32.7609 55.5508 32.884 54.7266 33.1301 54.168C33.3801 53.6055 33.6652 53.2012 33.9855 52.9551C34.3059 52.709 34.7199 52.5156 35.2277 52.375C35.7355 52.2344 36.6867 52.1465 38.0812 52.1113C38.5109 52.0996 38.8723 52.0723 39.1652 52.0293ZM38.7375 57.8477C38.7375 57.1406 38.4914 56.5332 37.9992 56.0254C37.507 55.5176 36.923 55.2637 36.2473 55.2637C35.5754 55.2637 34.9934 55.5176 34.5012 56.0254C34.009 56.5332 33.7629 57.1406 33.7629 57.8477C33.7629 58.5508 33.9992 59.1504 34.4719 59.6465C34.9484 60.1387 35.5402 60.3848 36.2473 60.3848C36.9582 60.3848 37.55 60.1387 38.0227 59.6465C38.4992 59.1504 38.7375 58.5508 38.7375 57.8477ZM48.8602 58.8848L49.5516 59.248C49.325 59.6934 49.0633 60.0527 48.7664 60.3262C48.4695 60.5996 48.1355 60.8086 47.7645 60.9531C47.3934 61.0938 46.9734 61.1641 46.5047 61.1641C45.4656 61.1641 44.6531 60.8242 44.0672 60.1445C43.4813 59.4609 43.1883 58.6895 43.1883 57.8301C43.1883 57.0215 43.4363 56.3008 43.9324 55.668C44.5613 54.8633 45.4031 54.4609 46.4578 54.4609C47.5438 54.4609 48.4109 54.873 49.0594 55.6973C49.5203 56.2793 49.7547 57.0059 49.7625 57.877H44.032C44.0477 58.6191 44.284 59.2285 44.741 59.7051C45.198 60.1777 45.7625 60.4141 46.4344 60.4141C46.7586 60.4141 47.073 60.3574 47.3777 60.2441C47.6863 60.1309 47.948 59.9805 48.1629 59.793C48.3777 59.6055 48.6102 59.3027 48.8602 58.8848ZM48.8602 57.168C48.7508 56.7305 48.5906 56.3809 48.3797 56.1191C48.1727 55.8574 47.8973 55.6465 47.5535 55.4863C47.2098 55.3262 46.8484 55.2461 46.4695 55.2461C45.8445 55.2461 45.3074 55.4473 44.8582 55.8496C44.5301 56.1426 44.282 56.582 44.1141 57.168H48.8602ZM59.0941 61H58.2211L56.0883 56.3594L53.973 61H53.0941L56.0121 54.625H56.1586L59.0941 61ZM63.5684 57.1504H64.3477C64.9688 57.1504 65.4551 57.1992 65.8066 57.2969C66.1582 57.3945 66.4609 57.6113 66.7148 57.9473C66.9688 58.2793 67.0957 58.6621 67.0957 59.0957C67.0957 59.6191 66.9121 60.0684 66.5449 60.4434C66.1777 60.8145 65.6211 61 64.875 61H62.7539V54.625H63.5684V57.1504ZM63.5977 57.9004V60.3086H64.541C65.6504 60.3086 66.2051 59.918 66.2051 59.1367C66.2051 58.9141 66.1445 58.6953 66.0234 58.4805C65.9062 58.2656 65.7324 58.1152 65.502 58.0293C65.2754 57.9434 64.873 57.9004 64.2949 57.9004H63.5977ZM81.0715 57.9297H77.3684V61H76.5422V54.625H77.3684V57.1562H81.0715V54.625H81.8918V61H81.0715V57.9297ZM92.4773 54.625V61H91.6687V59.9043C91.325 60.3223 90.9383 60.6367 90.5086 60.8477C90.0828 61.0586 89.616 61.1641 89.1082 61.1641C88.2059 61.1641 87.4344 60.8379 86.7937 60.1855C86.157 59.5293 85.8387 58.7324 85.8387 57.7949C85.8387 56.877 86.1609 56.0918 86.8055 55.4395C87.45 54.7871 88.2254 54.4609 89.1316 54.4609C89.6551 54.4609 90.1277 54.5723 90.5496 54.7949C90.9754 55.0176 91.3484 55.3516 91.6687 55.7969V54.625H92.4773ZM89.1961 55.252C88.7391 55.252 88.3172 55.3652 87.9305 55.5918C87.5437 55.8145 87.2352 56.1289 87.0047 56.5352C86.7781 56.9414 86.6648 57.3711 86.6648 57.8242C86.6648 58.2734 86.7801 58.7031 87.0105 59.1133C87.241 59.5234 87.5496 59.8438 87.9363 60.0742C88.327 60.3008 88.7449 60.4141 89.1902 60.4141C89.6395 60.4141 90.0652 60.3008 90.4676 60.0742C90.8699 59.8477 91.1785 59.541 91.3934 59.1543C91.6121 58.7676 91.7215 58.332 91.7215 57.8477C91.7215 57.1094 91.4773 56.4922 90.9891 55.9961C90.5047 55.5 89.907 55.252 89.1961 55.252ZM103.523 57.3086H103.951C104.225 57.3086 104.475 57.2188 104.701 57.0391C104.932 56.8594 105.047 56.6016 105.047 56.2656C105.047 55.9805 104.955 55.7363 104.771 55.5332C104.588 55.3262 104.307 55.2227 103.928 55.2227C103.486 55.2227 103.043 55.3945 102.598 55.7383L102.135 55.1699C102.709 54.6895 103.318 54.4492 103.963 54.4492C104.494 54.4492 104.939 54.6074 105.299 54.9238C105.658 55.2402 105.838 55.6484 105.838 56.1484C105.838 56.8125 105.545 57.2637 104.959 57.502C105.725 57.8223 106.107 58.3828 106.107 59.1836C106.107 59.6914 105.928 60.1504 105.568 60.5605C105.213 60.9668 104.68 61.1699 103.969 61.1699C103.098 61.1699 102.396 60.8867 101.865 60.3203L102.381 59.7344C102.775 60.1797 103.281 60.4023 103.898 60.4023C104.312 60.4023 104.637 60.291 104.871 60.0684C105.109 59.8457 105.229 59.5527 105.229 59.1895C105.229 58.834 105.109 58.5488 104.871 58.334C104.633 58.1191 104.352 58.0117 104.027 58.0117H103.523V57.3086ZM116.283 54.625V61H115.474V59.9043C115.13 60.3223 114.744 60.6367 114.314 60.8477C113.888 61.0586 113.421 61.1641 112.914 61.1641C112.011 61.1641 111.24 60.8379 110.599 60.1855C109.963 59.5293 109.644 58.7324 109.644 57.7949C109.644 56.877 109.966 56.0918 110.611 55.4395C111.255 54.7871 112.031 54.4609 112.937 54.4609C113.461 54.4609 113.933 54.5723 114.355 54.7949C114.781 55.0176 115.154 55.3516 115.474 55.7969V54.625H116.283ZM113.002 55.252C112.545 55.252 112.123 55.3652 111.736 55.5918C111.349 55.8145 111.041 56.1289 110.81 56.5352C110.584 56.9414 110.47 57.3711 110.47 57.8242C110.47 58.2734 110.586 58.7031 110.816 59.1133C111.046 59.5234 111.355 59.8438 111.742 60.0742C112.132 60.3008 112.55 60.4141 112.996 60.4141C113.445 60.4141 113.871 60.3008 114.273 60.0742C114.675 59.8477 114.984 59.541 115.199 59.1543C115.418 58.7676 115.527 58.332 115.527 57.8477C115.527 57.1094 115.283 56.4922 114.795 55.9961C114.31 55.5 113.713 55.252 113.002 55.252ZM120.534 54.625H121.361V57.3086L124.308 54.625H125.45L122.222 57.543L125.708 61H124.548L121.618 58.0527L121.361 58.2812V61H120.534V54.625ZM135.309 54.625V61H134.501V59.9043C134.157 60.3223 133.77 60.6367 133.341 60.8477C132.915 61.0586 132.448 61.1641 131.94 61.1641C131.038 61.1641 130.266 60.8379 129.626 60.1855C128.989 59.5293 128.671 58.7324 128.671 57.7949C128.671 56.877 128.993 56.0918 129.638 55.4395C130.282 54.7871 131.057 54.4609 131.964 54.4609C132.487 54.4609 132.96 54.5723 133.382 54.7949C133.807 55.0176 134.18 55.3516 134.501 55.7969V54.625H135.309ZM132.028 55.252C131.571 55.252 131.149 55.3652 130.763 55.5918C130.376 55.8145 130.067 56.1289 129.837 56.5352C129.61 56.9414 129.497 57.3711 129.497 57.8242C129.497 58.2734 129.612 58.7031 129.843 59.1133C130.073 59.5234 130.382 59.8438 130.768 60.0742C131.159 60.3008 131.577 60.4141 132.022 60.4141C132.471 60.4141 132.897 60.3008 133.3 60.0742C133.702 59.8477 134.011 59.541 134.225 59.1543C134.444 58.7676 134.554 58.332 134.554 57.8477C134.554 57.1094 134.309 56.4922 133.821 55.9961C133.337 55.5 132.739 55.252 132.028 55.252ZM140.627 57.3086H141.055C141.329 57.3086 141.579 57.2188 141.805 57.0391C142.036 56.8594 142.151 56.6016 142.151 56.2656C142.151 55.9805 142.059 55.7363 141.875 55.5332C141.692 55.3262 141.411 55.2227 141.032 55.2227C140.59 55.2227 140.147 55.3945 139.702 55.7383L139.239 55.1699C139.813 54.6895 140.422 54.4492 141.067 54.4492C141.598 54.4492 142.043 54.6074 142.403 54.9238C142.762 55.2402 142.942 55.6484 142.942 56.1484C142.942 56.8125 142.649 57.2637 142.063 57.502C142.829 57.8223 143.211 58.3828 143.211 59.1836C143.211 59.6914 143.032 60.1504 142.672 60.5605C142.317 60.9668 141.784 61.1699 141.073 61.1699C140.202 61.1699 139.5 60.8867 138.969 60.3203L139.485 59.7344C139.879 60.1797 140.385 60.4023 141.002 60.4023C141.416 60.4023 141.741 60.291 141.975 60.0684C142.213 59.8457 142.332 59.5527 142.332 59.1895C142.332 58.834 142.213 58.5488 141.975 58.334C141.737 58.1191 141.455 58.0117 141.131 58.0117H140.627V57.3086Z" fill="#878787"/>
<path d="M124 3C123.75 3 123.5 3.095 123.295 3.295L119.295 7.295C118.9 7.685 118.9 8.315 119.295 8.705L123.295 12.705C123.685 13.1 124.315 13.1 124.705 12.705L128.705 8.705C129.1 8.315 129.1 7.685 128.705 7.295L124.705 3.295C124.5 3.095 124.25 3 124 3Z" fill="#F4CB43"/>
<path d="M152 44L2 44" stroke="#F4CB43"/>
</svg>
