<svg width="16" height="13" viewBox="0 0 16 13" fill="none" xmlns="http://www.w3.org/2000/svg">
<path d="M2.6 5.66734e-09H13.4C14.0641 -4.41567e-05 14.7031 0.258013 15.1858 0.721233C15.6685 1.18445 15.9584 1.81772 15.996 2.49113L16 2.64062V10.3594C16 11.0339 15.746 11.6828 15.2899 12.1731C14.8338 12.6633 14.2102 12.9578 13.5472 12.9959L13.4 13H2.6C1.93589 13 1.29694 12.742 0.814215 12.2788C0.331493 11.8155 0.0415989 11.1823 0.0040001 10.5089L5.58015e-09 10.3594V2.64062C-4.34774e-05 1.96614 0.254043 1.3172 0.710137 0.826938C1.16623 0.336673 1.78976 0.0422489 2.4528 0.0040626L2.6 5.66734e-09H13.4H2.6ZM14.8 4.36556L8.28 7.85119C8.20638 7.89069 8.12547 7.91419 8.04242 7.92021C7.95937 7.92622 7.87599 7.91461 7.7976 7.88613L7.7208 7.852L1.2 4.36637V10.3594C1.20001 10.7162 1.33214 11.06 1.57014 11.3225C1.80815 11.585 2.13464 11.747 2.4848 11.7764L2.6 11.7812H13.4C13.7515 11.7812 14.0901 11.6469 14.3486 11.405C14.607 11.1631 14.7665 10.8313 14.7952 10.4756L14.8 10.3594V4.36556ZM13.4 1.21875H2.6C2.24865 1.21876 1.91015 1.35295 1.65169 1.59468C1.39323 1.8364 1.23371 2.16799 1.2048 2.52362L1.2 2.64062V2.98919L8 6.6235L14.8 2.98837V2.64062C14.8 2.28365 14.6677 1.93975 14.4296 1.67724C14.1914 1.41472 13.8647 1.25279 13.5144 1.22363L13.4 1.21875Z" fill="black"/>
</svg>
