<svg width="20" height="21" viewBox="0 0 20 21" fill="none" xmlns="http://www.w3.org/2000/svg">
<path d="M10 0.180847C4.475 0.180847 0 4.79867 0 10.5C0 12.7702 0.7 14.8598 1.9 16.5625L0.525 20.3032L4.5 19.1165C6.075 20.2 7.975 20.8191 10 20.8191C15.525 20.8191 20 16.2013 20 10.5C20 4.79867 15.525 0.180847 10 0.180847ZM15.325 14.7824L14.25 15.866C13.125 17.0269 10.15 15.7628 7.525 13.0282C4.9 10.3194 3.725 7.24946 4.775 6.11436L5.85 5.00505C6.25 4.59228 6.925 4.59228 7.35 5.00505L8.925 6.63032C9.475 7.19787 9.25 8.17819 8.525 8.41037C8.025 8.59095 7.675 9.15851 7.85 9.67446C8.125 10.887 9.65 12.3832 10.775 12.667C11.275 12.796 11.85 12.4864 12 11.9705C12.225 11.2223 13.175 10.9902 13.725 11.5577L15.3 13.183C15.7 13.6215 15.7 14.3181 15.325 14.7824Z" fill="black"/>
</svg>
