<svg width="75" height="75" viewBox="0 0 75 75" fill="none" xmlns="http://www.w3.org/2000/svg">
<path d="M66.7969 70.3125H8.20312C4.97109 70.3125 2.34375 67.6852 2.34375 64.4531C2.34375 63.8063 2.86875 63.2812 3.51562 63.2812H29.2969C29.9438 63.2812 30.4688 63.8063 30.4688 64.4531C30.4688 65.1 29.9438 65.625 29.2969 65.625H4.88906C5.37187 66.9891 6.675 67.9688 8.20312 67.9688H66.7969C68.325 67.9688 69.6281 66.9891 70.1109 65.625H45.7031C45.0563 65.625 44.5312 65.1 44.5312 64.4531C44.5312 63.8063 45.0563 63.2812 45.7031 63.2812H71.4844C72.1312 63.2812 72.6562 63.8063 72.6562 64.4531C72.6562 67.6852 70.0289 70.3125 66.7969 70.3125Z" fill="#FF8A1E"/>
<path d="M8.20312 60.9375C7.55625 60.9375 7.03125 60.4125 7.03125 59.7656V22.2656C7.03125 20.3273 8.60859 18.75 10.5469 18.75H22.2656C22.9125 18.75 23.4375 19.275 23.4375 19.9219C23.4375 20.5688 22.9125 21.0938 22.2656 21.0938H10.5469C9.90234 21.0938 9.375 21.6211 9.375 22.2656V59.7656C9.375 60.4125 8.85 60.9375 8.20312 60.9375Z" fill="#FF8A1E"/>
<path d="M66.7969 60.9375C66.15 60.9375 65.625 60.4125 65.625 59.7656V52.7344C65.625 52.0875 66.15 51.5625 66.7969 51.5625C67.4438 51.5625 67.9688 52.0875 67.9688 52.7344V59.7656C67.9688 60.4125 67.4438 60.9375 66.7969 60.9375Z" fill="#FF8A1E"/>
<path d="M66.7969 35.1562C66.15 35.1562 65.625 34.6313 65.625 33.9844V22.2656C65.625 21.6211 65.0977 21.0938 64.4531 21.0938H62.1094C61.4625 21.0938 60.9375 20.5688 60.9375 19.9219C60.9375 19.275 61.4625 18.75 62.1094 18.75H64.4531C66.3914 18.75 67.9688 20.3273 67.9688 22.2656V33.9844C67.9688 34.6313 67.4437 35.1562 66.7969 35.1562Z" fill="#FF8A1E"/>
<path d="M33.9844 60.9375H29.2969C28.65 60.9375 28.125 60.4125 28.125 59.7656V41.0156C28.125 40.3688 28.65 39.8438 29.2969 39.8438H33.9844C34.6312 39.8438 35.1562 40.3688 35.1562 41.0156V59.7656C35.1562 60.4125 34.6312 60.9375 33.9844 60.9375ZM30.4688 58.5938H32.8125V42.1875H30.4688V58.5938Z" fill="#FF8A1E"/>
<path d="M24.6094 60.9375H19.9219C19.275 60.9375 18.75 60.4125 18.75 59.7656V36.3281C18.75 35.6813 19.275 35.1562 19.9219 35.1562H24.6094C25.2562 35.1562 25.7812 35.6813 25.7812 36.3281V59.7656C25.7812 60.4125 25.2562 60.9375 24.6094 60.9375ZM21.0938 58.5938H23.4375V37.5H21.0938V58.5938Z" fill="#FF8A1E"/>
<path d="M52.7344 60.9375H48.0469C47.4 60.9375 46.875 60.4125 46.875 59.7656V50.3906C46.875 49.7438 47.4 49.2188 48.0469 49.2188H52.7344C53.3812 49.2188 53.9062 49.7438 53.9062 50.3906V59.7656C53.9062 60.4125 53.3812 60.9375 52.7344 60.9375ZM49.2188 58.5938H51.5625V51.5625H49.2188V58.5938Z" fill="#FF8A1E"/>
<path d="M43.3594 60.9375H38.6719C38.025 60.9375 37.5 60.4125 37.5 59.7656V45.7031C37.5 45.0563 38.025 44.5312 38.6719 44.5312H43.3594C44.0062 44.5312 44.5312 45.0563 44.5312 45.7031V59.7656C44.5312 60.4125 44.0062 60.9375 43.3594 60.9375ZM39.8438 58.5938H42.1875V46.875H39.8438V58.5938Z" fill="#FF8A1E"/>
<path d="M52.7603 31.6641L51.5884 32.1516L54.9024 35.4656C55.3595 35.9227 56.1024 35.9227 56.5595 35.4656C57.0165 35.0086 57.0165 34.2656 56.5595 33.8086L53.2454 30.4922L52.7603 31.6641Z" fill="#FF8A1E"/>
<path d="M42.1875 37.5C33.143 37.5 25.7812 30.1383 25.7812 21.0938C25.7812 12.0492 33.143 4.6875 42.1875 4.6875C51.232 4.6875 58.5938 12.0492 58.5938 21.0938C58.5938 30.1383 51.232 37.5 42.1875 37.5ZM42.1875 7.03125C34.432 7.03125 28.125 13.3383 28.125 21.0938C28.125 28.8492 34.432 35.1562 42.1875 35.1562C49.943 35.1562 56.25 28.8492 56.25 21.0938C56.25 13.3383 49.943 7.03125 42.1875 7.03125Z" fill="#FF8A1E"/>
<path d="M52.7344 22.2656C53.3816 22.2656 53.9062 21.741 53.9062 21.0938C53.9062 20.4465 53.3816 19.9219 52.7344 19.9219C52.0872 19.9219 51.5625 20.4465 51.5625 21.0938C51.5625 21.741 52.0872 22.2656 52.7344 22.2656Z" fill="#FF8A1E"/>
<path d="M42.1875 32.8125C41.5406 32.8125 41.0156 32.2875 41.0156 31.6407C41.0156 30.9938 41.5406 30.4688 42.1875 30.4688C46.0125 30.4688 49.4227 28.179 50.8711 24.6375C51.1148 24.0375 51.8016 23.754 52.3992 23.9977C52.9992 24.2415 53.2852 24.9258 53.0391 25.5258C51.2273 29.9508 46.9688 32.8125 42.1875 32.8125Z" fill="#FF8A1E"/>
<path d="M58.5938 35.1562C59.1937 35.1562 59.7938 35.3859 60.2508 35.843L67.282 42.8742C68.1984 43.7906 68.1984 45.2719 67.282 46.1883C66.825 46.6453 66.225 46.875 65.625 46.875C65.025 46.875 64.425 46.6453 63.968 46.1883L56.9367 39.157C56.0203 38.2406 56.0203 36.7594 56.9367 35.843C57.3937 35.3859 57.9938 35.1562 58.5938 35.1562ZM58.5938 32.8125C57.3422 32.8125 56.1656 33.3 55.2797 34.1859C54.3938 35.0719 53.9062 36.2484 53.9062 37.5C53.9062 38.7516 54.3938 39.9281 55.2797 40.8141L62.3109 47.8453C63.1969 48.7312 64.3734 49.2188 65.625 49.2188C66.8766 49.2188 68.0531 48.7312 68.9391 47.8453C69.825 46.9594 70.3125 45.7828 70.3125 44.5312C70.3125 43.2797 69.825 42.1031 68.9391 41.2172L61.9078 34.1859C61.0219 33.3 59.8453 32.8125 58.5938 32.8125Z" fill="#FF8A1E"/>
</svg>
