<svg width="69" height="69" viewBox="0 0 69 69" fill="none" xmlns="http://www.w3.org/2000/svg">
<rect width="69" height="69" fill="white"/>
<path d="M68.8752 54.1095C68.5515 52.5513 67.6355 51.2199 66.2957 50.3603C64.956 49.5011 63.3646 49.2237 61.8127 49.5785L54.6206 51.2252V48.2851C56.063 46.9264 57.5649 45.1523 58.6331 43.5309C60.5061 40.6877 61.8316 37.5654 62.5728 34.2526C63.4541 30.3113 63.473 26.1388 62.6271 22.1848C62.4712 21.4573 61.7548 20.993 61.0273 21.1493C60.2992 21.3046 59.8359 22.0211 59.9912 22.7491C60.7567 26.3251 60.7398 30.0996 59.9423 33.6641C59.2727 36.6573 58.0745 39.4785 56.382 42.048C55.8804 42.8097 55.2718 43.6088 54.6206 44.3722V29.4342C54.6206 28.6899 54.0173 28.0866 53.273 28.0866H42.6123V13.6951C42.6123 12.9528 42.0116 12.3501 41.2693 12.3474L29.261 12.3069C29.2594 12.3069 29.2584 12.3069 29.2568 12.3069C28.8999 12.3069 28.5577 12.448 28.3055 12.7001C28.0518 12.9528 27.9091 13.296 27.9091 13.6545V21.1409H17.2468C16.503 21.1409 15.8992 21.7442 15.8992 22.4885V35.834H12.8964V34.0036C12.8964 33.2598 12.2932 32.6565 11.5488 32.6565H10.1664C9.93107 31.361 9.79472 30.0449 9.76261 28.7309C9.68365 25.536 10.1901 22.4101 11.2671 19.4389C11.5183 18.7462 11.8036 18.0555 12.1147 17.3869C12.429 16.712 12.1363 15.9103 11.4619 15.596C10.787 15.2828 9.98529 15.5744 9.67154 16.2493C9.32673 16.9895 9.01087 17.7538 8.73345 18.5203C7.54161 21.8079 6.98149 25.266 7.06783 28.7972C7.09994 30.0881 7.22312 31.3799 7.43211 32.6565H1.34766C0.603287 32.6565 0 33.2598 0 34.0042V57.6924C0 58.4367 0.603287 59.04 1.34766 59.04H11.5488C12.2932 59.04 12.8964 58.4367 12.8964 57.6924V56.411H17.9659L38.5014 64.4654C40.4186 65.2177 42.427 65.5962 44.4458 65.5962C45.7919 65.5962 47.1438 65.4277 48.4751 65.0892L64.5706 60.9983C67.626 60.2219 69.5164 57.1959 68.8752 54.1095V54.1095ZM51.9258 30.7819V51.8422L48.323 52.6671C47.9355 52.7555 47.5438 52.8255 47.1501 52.8803C45.6487 53.0872 44.1168 53.0435 42.6312 52.7492C42.6249 52.7476 42.6186 52.7466 42.6123 52.745V50.7014C43.6399 49.1684 43.9805 47.2249 43.4419 45.4508C43.2919 44.956 43.0787 44.4785 42.8076 44.0379C42.746 43.9379 42.6818 43.8399 42.6149 43.7441C42.6144 43.7425 42.6133 43.7415 42.6123 43.7399V30.7814H51.9258V30.7819ZM30.6044 15.0069L39.9175 15.038V41.5995L34.7127 39.4453L30.6044 37.7444V15.0069ZM18.5945 23.8362H27.9075V36.6279L26.2361 35.9361C26.0724 35.8682 25.8971 35.8335 25.7208 35.8335H18.5945V23.8362ZM10.2011 56.3447H2.69531V35.3513H9.05351C9.05615 35.3513 9.0593 35.3518 9.06246 35.3518C9.06509 35.3518 9.0672 35.3513 9.06983 35.3513H10.2011V56.3447ZM63.9068 58.3862L47.8113 62.4771C45.0328 63.183 42.1537 63.0024 39.4853 61.9564L18.7129 53.8089C18.5561 53.7473 18.3892 53.7163 18.2207 53.7163H12.8964V38.5293H25.4523L34.172 42.1385L38.9436 44.1137C40.6318 44.8138 41.4399 46.7943 40.7477 48.4804C40.6087 48.8189 40.4365 49.1405 40.2081 49.4274C39.3642 50.4924 37.975 50.962 36.6757 50.6461C36.6652 50.6435 36.6547 50.6409 36.6441 50.6382C36.5662 50.6188 36.4888 50.5961 36.412 50.5708L27.3443 47.0848C27.2706 47.0564 27.2316 47.0417 27.2316 47.0417C26.5372 46.7742 25.7576 47.1212 25.4902 47.816C25.2233 48.5104 25.5697 49.2906 26.2646 49.5575C26.2646 49.5575 31.3772 51.5232 35.276 53.0266C35.3544 53.0572 35.4323 53.0856 35.5107 53.1119L38.5045 54.2632C39.4095 54.6112 40.3102 54.9576 41.252 55.1982C42.8513 55.6067 44.5111 55.7709 46.1599 55.6809C47.0895 55.6303 48.0176 55.5019 48.9252 55.2945L53.5741 54.2306C53.5788 54.2295 53.5836 54.2274 53.5883 54.2264L62.4144 52.2059C63.254 52.0138 64.1158 52.1638 64.8402 52.6287C65.5656 53.094 66.061 53.8147 66.2363 54.658C66.5837 56.3284 65.5603 57.9661 63.9068 58.3862V58.3862Z" fill="#FF8A1E"/>
<path d="M17.2337 9.5852C17.5559 9.5852 17.8791 9.47044 18.1365 9.23776C20.5412 7.06572 23.4129 5.33324 26.4425 4.22722C29.7248 3.02906 33.3229 2.5179 36.8484 2.74953C39.3716 2.91536 41.8437 3.45389 44.1958 4.34987C44.8907 4.61467 45.6698 4.26617 45.9346 3.57023C46.1999 2.87482 45.8509 2.09623 45.1549 1.83144C42.5523 0.83965 39.8169 0.243733 37.0253 0.0600097C33.1287 -0.195834 29.1494 0.36955 25.5181 1.69562C22.1663 2.91904 18.9893 4.83577 16.3303 7.23733C15.7776 7.73639 15.7344 8.58867 16.2335 9.1409C16.4993 9.4357 16.8657 9.5852 17.2337 9.5852V9.5852Z" fill="#FF8A1E"/>
<path d="M47.8265 19.2032C48.0819 19.4248 48.3967 19.5332 48.7099 19.5332C49.0863 19.5332 49.4611 19.3764 49.728 19.07L60.8156 6.30673C61.3042 5.74503 61.2442 4.89379 60.6825 4.40579C60.1202 3.9178 59.2695 3.97728 58.7815 4.53898L47.6934 17.3022C47.2048 17.8639 47.2648 18.7152 47.8265 19.2032Z" fill="#FF8A1E"/>
<path d="M57.7627 13.4414C55.8971 13.4414 54.3794 14.9591 54.3794 16.8248C54.3794 18.6904 55.8971 20.2081 57.7627 20.2081C59.6284 20.2081 61.1461 18.6899 61.1461 16.8248C61.1461 14.9591 59.6284 13.4414 57.7627 13.4414V13.4414ZM57.7627 17.5128C57.3832 17.5128 57.0747 17.2043 57.0747 16.8248C57.0747 16.4457 57.3832 16.1367 57.7627 16.1367C58.1418 16.1367 58.4508 16.4457 58.4508 16.8248C58.4508 17.2043 58.1418 17.5128 57.7627 17.5128Z" fill="#FF8A1E"/>
<path d="M50.2791 10.4413C52.1448 10.4413 53.6625 8.92358 53.6625 7.05791C53.6625 5.19225 52.1448 3.67456 50.2791 3.67456C48.4134 3.67456 46.8958 5.19225 46.8958 7.05791C46.8958 8.92358 48.4134 10.4413 50.2791 10.4413V10.4413ZM50.2791 6.36935C50.6587 6.36935 50.9671 6.67836 50.9671 7.05791C50.9671 7.43694 50.6587 7.74596 50.2791 7.74596C49.8996 7.74596 49.5911 7.43694 49.5911 7.05791C49.5911 6.67836 49.8996 6.36935 50.2791 6.36935Z" fill="#FF8A1E"/>
<path d="M12.4427 12.7522C12.6586 13.2702 13.1897 13.6124 13.7525 13.5829C14.3089 13.554 14.7964 13.1776 14.9685 12.649C15.1423 12.1158 14.9527 11.5083 14.5069 11.1677C14.0525 10.8213 13.4145 10.7997 12.9386 11.1161C12.4106 11.4672 12.199 12.1674 12.4427 12.7522Z" fill="#FF8A1E"/>
</svg>
