<svg width="59" height="60" viewBox="0 0 59 60" fill="none" xmlns="http://www.w3.org/2000/svg">
<path d="M55.7875 19.9373C55.0188 19.9373 54.3241 20.2369 53.7938 20.7151C53.2635 20.2369 52.5688 19.9373 51.8 19.9373C51.0313 19.9373 50.3366 20.2369 49.8063 20.7151C49.276 20.2369 48.5813 19.9373 47.8125 19.9373C47.4613 19.9373 47.129 20.0092 46.8157 20.1209V12.9591C46.8157 11.31 45.4742 9.96851 43.825 9.96851C42.1759 9.96851 40.8344 11.31 40.8344 12.9591V25.568L37.065 30.2798C36.9238 30.457 36.8469 30.676 36.8469 30.9029V36.8841C36.8469 37.1489 36.9521 37.402 37.139 37.5889L39.8375 40.2875V43.8622C39.8375 44.4132 40.2834 44.8591 40.8344 44.8591H55.7875C56.3385 44.8591 56.7844 44.4132 56.7844 43.8622V40.2875L58.4861 38.5858C58.673 38.3989 58.7782 38.1458 58.7782 37.881V22.9279C58.7782 21.2787 57.4367 19.9373 55.7875 19.9373ZM54.7907 42.8654H41.8313V40.8716H54.7907V42.8654ZM56.7844 37.4682L55.3748 38.8779H41.2472L38.8407 36.4714V31.2524L40.8344 28.7607V31.8997H42.8282V12.9591C42.8282 12.4091 43.275 11.9623 43.825 11.9623C44.3751 11.9623 44.8219 12.4091 44.8219 12.9591V22.9279V27.9122H46.8157V22.9279C46.8157 22.3778 47.2625 21.931 47.8125 21.931C48.3626 21.931 48.8094 22.3778 48.8094 22.9279V27.9122H50.8032V22.9279C50.8032 22.3778 51.25 21.931 51.8 21.931C52.3501 21.931 52.7969 22.3778 52.7969 22.9279V27.9122H54.7907V22.9279C54.7907 22.3778 55.2375 21.931 55.7875 21.931C56.3376 21.931 56.7844 22.3778 56.7844 22.9279V37.4682Z" fill="#FF8A1E"/>
<path d="M14.1091 39.4639C14.3281 39.7667 14.6951 39.9205 15.068 39.8631C15.437 39.8056 15.7426 39.5477 15.8604 39.1933L23.0751 17.5512L26.9828 25.3675C27.1415 25.6849 27.4578 25.8942 27.8122 25.9166C28.1851 25.9302 28.5063 25.7696 28.7039 25.4746L42.8276 4.28907V7.97478H44.8214V0.996658C44.8214 0.684158 44.6744 0.389183 44.4252 0.200325C44.1759 0.0124343 43.8498 -0.0469495 43.551 0.037745L36.5728 2.03149L37.12 3.94931L41.4905 2.70073L27.9981 22.9396L23.7819 14.507C23.6018 14.1459 23.2338 13.9239 22.8191 13.959C22.417 13.9872 22.0724 14.2549 21.9449 14.6375L14.5822 36.7245L7.74622 27.3262C7.52232 27.0176 7.14654 26.8619 6.7659 26.931C6.39109 26.9972 6.08639 27.2717 5.98125 27.6387L0 48.5731L1.91782 49.1202L7.33638 30.1523L14.1091 39.4639Z" fill="#FF8A1E"/>
<path d="M47.8126 34.4776L46.5237 33.1886L45.114 34.5983L47.1078 36.592C47.3025 36.7867 47.5575 36.8841 47.8126 36.8841C48.0676 36.8841 48.3227 36.7867 48.5174 36.592L53.5018 31.6076L52.0921 30.198L47.8126 34.4776Z" fill="#FF8A1E"/>
<path d="M38.8406 47.8497C38.8406 47.2986 38.3947 46.8528 37.8437 46.8528H34.8531V41.8684C34.8531 41.3174 34.4072 40.8715 33.8562 40.8715H30.8656V32.8965C30.8656 32.3455 30.4197 31.8997 29.8687 31.8997H25.8812C25.3302 31.8997 24.8844 32.3455 24.8844 32.8965V42.8653H22.8906V41.8684C22.8906 41.3174 22.4447 40.8715 21.8937 40.8715H17.9062C17.3552 40.8715 16.9094 41.3174 16.9094 41.8684V48.8465H14.9156V46.8528C14.9156 46.3018 14.4697 45.8559 13.9187 45.8559H9.93125C9.38024 45.8559 8.93437 46.3018 8.93437 46.8528V51.8371H5.94375C5.39275 51.8371 4.94687 52.283 4.94687 52.834V57.8184H2.95312V59.8121H5.94375H9.93125H13.9187H17.9062H21.8937H25.8812H29.8687H33.8562H37.8437H40.8344V57.8184H38.8406V47.8497ZM6.94062 53.8309H8.93437V57.8184H6.94062V53.8309ZM10.9281 52.834V47.8497H12.9219V49.8434V57.8184H10.9281V52.834ZM14.9156 50.8403H16.9094V57.8184H14.9156V50.8403ZM18.9031 49.8434V42.8653H20.8969V43.8622V57.8184H18.9031V49.8434ZM22.8906 44.859H24.8844V57.8184H22.8906V44.859ZM26.8781 43.8622V33.8934H28.8719V41.8684V57.8184H26.8781V43.8622ZM30.8656 42.8653H32.8594V47.8497V57.8184H30.8656V42.8653ZM34.8531 57.8184V48.8465H36.8469V57.8184H34.8531Z" fill="#FF8A1E"/>
</svg>
