<svg width="19" height="17" viewBox="0 0 19 17" fill="none" xmlns="http://www.w3.org/2000/svg">
<path d="M13.532 1.75C13.987 1.74962 14.4376 1.84008 14.8572 2.01609C15.2768 2.1921 15.6571 2.45011 15.9757 2.775C16.6322 3.44149 17.0002 4.33947 17.0002 5.275C17.0002 6.21053 16.6322 7.10851 15.9757 7.775L9.50071 14.3313L3.02571 7.775C2.3692 7.10851 2.00121 6.21053 2.00121 5.275C2.00121 4.33947 2.3692 3.44149 3.02571 2.775C3.34452 2.45035 3.72482 2.19247 4.14441 2.01643C4.56399 1.8404 5.01445 1.74973 5.46946 1.74973C5.92448 1.74973 6.37493 1.8404 6.79452 2.01643C7.2141 2.19247 7.59441 2.45035 7.91321 2.775L9.50071 4.4L11.082 2.7875C11.3996 2.45874 11.7803 2.19741 12.2013 2.01915C12.6222 1.84089 13.0748 1.74935 13.532 1.75V1.75ZM13.532 0.500002C12.9105 0.499475 12.2951 0.623036 11.722 0.86344C11.1489 1.10384 10.6296 1.45625 10.1945 1.9L9.50071 2.6L8.80696 1.9C8.37131 1.45705 7.85184 1.10526 7.27883 0.865121C6.70583 0.624984 6.09075 0.501311 5.46946 0.501311C4.84817 0.501311 4.2331 0.624984 3.6601 0.865121C3.08709 1.10526 2.56762 1.45705 2.13196 1.9C1.24564 2.80227 0.749023 4.01648 0.749023 5.28125C0.749023 6.54603 1.24564 7.76024 2.13196 8.6625L9.50071 16.125L16.8695 8.6625C17.7558 7.76024 18.2524 6.54603 18.2524 5.28125C18.2524 4.01648 17.7558 2.80227 16.8695 1.9C16.4339 1.45682 15.9145 1.10478 15.3415 0.864415C14.7685 0.624051 14.1533 0.500173 13.532 0.500002V0.500002Z" fill="white"/>
<path d="M13.532 1.75C13.987 1.74962 14.4376 1.84008 14.8572 2.01609C15.2768 2.1921 15.6571 2.45011 15.9757 2.775C16.6322 3.44149 17.0002 4.33947 17.0002 5.275C17.0002 6.21053 16.6322 7.10851 15.9757 7.775L9.50071 14.3313L3.02571 7.775C2.3692 7.10851 2.00121 6.21053 2.00121 5.275C2.00121 4.33947 2.3692 3.44149 3.02571 2.775C3.34452 2.45035 3.72482 2.19247 4.14441 2.01643C4.56399 1.8404 5.01445 1.74973 5.46946 1.74973C5.92448 1.74973 6.37493 1.8404 6.79452 2.01643C7.2141 2.19247 7.59441 2.45035 7.91321 2.775L9.50071 4.4L11.082 2.7875C11.3996 2.45874 11.7803 2.19741 12.2013 2.01915C12.6222 1.84089 13.0748 1.74935 13.532 1.75ZM13.532 1.75V1.75ZM13.532 0.500002C12.9105 0.499475 12.2951 0.623036 11.722 0.86344C11.1489 1.10384 10.6296 1.45625 10.1945 1.9L9.50071 2.6L8.80696 1.9C8.37131 1.45705 7.85184 1.10526 7.27883 0.865121C6.70583 0.624984 6.09075 0.501311 5.46946 0.501311C4.84817 0.501311 4.2331 0.624984 3.6601 0.865121C3.08709 1.10526 2.56762 1.45705 2.13196 1.9C1.24564 2.80227 0.749023 4.01648 0.749023 5.28125C0.749023 6.54603 1.24564 7.76024 2.13196 8.6625L9.50071 16.125L16.8695 8.6625C17.7558 7.76024 18.2524 6.54603 18.2524 5.28125C18.2524 4.01648 17.7558 2.80227 16.8695 1.9C16.4339 1.45682 15.9145 1.10478 15.3415 0.864415C14.7685 0.624051 14.1533 0.500173 13.532 0.500002ZM13.532 0.500002V0.500002Z" stroke="white" stroke-width="0.625"/>
</svg>
