<svg width="17" height="14" viewBox="0 0 17 14" fill="none" xmlns="http://www.w3.org/2000/svg">
<path d="M1 8.8999C1.13261 8.8999 1.25979 8.95258 1.35355 9.04635C1.44732 9.14012 1.5 9.26729 1.5 9.3999V11.8999C1.5 12.1651 1.60536 12.4195 1.79289 12.607C1.98043 12.7945 2.23478 12.8999 2.5 12.8999H14.5C14.7652 12.8999 15.0196 12.7945 15.2071 12.607C15.3946 12.4195 15.5 12.1651 15.5 11.8999V9.3999C15.5 9.26729 15.5527 9.14012 15.6464 9.04635C15.7402 8.95258 15.8674 8.8999 16 8.8999C16.1326 8.8999 16.2598 8.95258 16.3536 9.04635C16.4473 9.14012 16.5 9.26729 16.5 9.3999V11.8999C16.5 12.4303 16.2893 12.939 15.9142 13.3141C15.5391 13.6892 15.0304 13.8999 14.5 13.8999H2.5C1.96957 13.8999 1.46086 13.6892 1.08579 13.3141C0.710714 12.939 0.5 12.4303 0.5 11.8999V9.3999C0.5 9.26729 0.552678 9.14012 0.646447 9.04635C0.740215 8.95258 0.867392 8.8999 1 8.8999Z" fill="#737373"/>
<path d="M8.14566 10.854C8.1921 10.9006 8.24728 10.9375 8.30802 10.9627C8.36877 10.9879 8.43389 11.0009 8.49966 11.0009C8.56542 11.0009 8.63054 10.9879 8.69129 10.9627C8.75203 10.9375 8.80721 10.9006 8.85366 10.854L11.8537 7.854C11.9475 7.76011 12.0003 7.63278 12.0003 7.5C12.0003 7.36722 11.9475 7.23989 11.8537 7.146C11.7598 7.05211 11.6324 6.99937 11.4997 6.99937C11.3669 6.99937 11.2395 7.05211 11.1457 7.146L8.99966 9.293V0.5C8.99966 0.367392 8.94698 0.240215 8.85321 0.146447C8.75944 0.0526784 8.63226 0 8.49966 0C8.36705 0 8.23987 0.0526784 8.1461 0.146447C8.05233 0.240215 7.99966 0.367392 7.99966 0.5V9.293L5.85366 7.146C5.75977 7.05211 5.63243 6.99937 5.49966 6.99937C5.36688 6.99937 5.23954 7.05211 5.14566 7.146C5.05177 7.23989 4.99902 7.36722 4.99902 7.5C4.99902 7.63278 5.05177 7.76011 5.14566 7.854L8.14566 10.854Z" fill="#737373"/>
</svg>
