<svg width="32" height="32" viewBox="0 0 32 32" fill="none" xmlns="http://www.w3.org/2000/svg">
<g clip-path="url(#clip0_80_607)">
<path d="M24.875 22.5631C25.3928 22.5631 25.8125 22.1434 25.8125 21.6256C25.8125 21.1078 25.3928 20.6881 24.875 20.6881C24.3572 20.6881 23.9375 21.1078 23.9375 21.6256C23.9375 22.1434 24.3572 22.5631 24.875 22.5631Z" fill="white"/>
<path d="M13.625 0.000671387C12.0742 0.000671387 10.8125 1.26236 10.8125 2.81317V4.75067C10.8125 6.30148 12.0742 7.56317 13.625 7.56317C15.1758 7.56317 16.4375 6.30148 16.4375 4.75067V2.81317C16.4375 1.26236 15.1758 0.000671387 13.625 0.000671387ZM14.5625 4.75067C14.5625 5.26761 14.1419 5.68817 13.625 5.68817C13.1081 5.68817 12.6875 5.26761 12.6875 4.75067V2.81317C12.6875 2.29623 13.1081 1.87567 13.625 1.87567C14.1419 1.87567 14.5625 2.29623 14.5625 2.81317V4.75067Z" fill="white"/>
<path d="M24.875 0.000671387C23.3242 0.000671387 22.0625 1.26236 22.0625 2.81317V4.75067C22.0625 6.30148 23.3242 7.56317 24.875 7.56317C26.4258 7.56317 27.6875 6.30148 27.6875 4.75067V2.81317C27.6875 1.26236 26.4258 0.000671387 24.875 0.000671387ZM25.8125 4.75067C25.8125 5.26761 25.3919 5.68817 24.875 5.68817C24.3581 5.68817 23.9375 5.26761 23.9375 4.75067V2.81317C23.9375 2.29623 24.3581 1.87567 24.875 1.87567C25.3919 1.87567 25.8125 2.29623 25.8125 2.81317V4.75067Z" fill="white"/>
<path d="M11.8174 10.2472C11.2717 9.72548 10.5596 9.43817 9.8125 9.43817C8.26169 9.43817 7 10.6999 7 12.2507V14.1257C7 15.6765 8.26169 16.9382 9.8125 16.9382C10.5596 16.9382 11.2717 16.6509 11.8174 16.1292C12.3785 15.5927 12.6875 14.8812 12.6875 14.1257V12.2507C12.6875 11.4951 12.3785 10.7835 11.8174 10.2472ZM10.8125 14.1257C10.8125 14.6251 10.3452 15.0632 9.8125 15.0632C9.29556 15.0632 8.875 14.6426 8.875 14.1257V12.2507C8.875 11.7337 9.29556 11.3132 9.8125 11.3132C10.3452 11.3132 10.8125 11.7512 10.8125 12.2507V14.1257Z" fill="white"/>
<path d="M38.1763 27.1994C38.1746 27.1977 38.1729 27.196 38.1712 27.1944L32.4599 21.5693C33.0056 20.4531 33.3125 19.1996 33.3125 17.8757C33.3125 17.5118 33.2893 17.1532 33.2444 16.8013C34.4232 16.4263 35.25 15.3462 35.25 14.1257V12.2507C35.25 11.4951 34.941 10.7835 34.3799 10.2472C33.8342 9.72548 33.1221 9.43817 32.375 9.43817C31.2528 9.43817 30.2823 10.099 29.8314 11.0519C28.4389 10.0376 26.7257 9.43817 24.875 9.43817C23.0243 9.43817 21.3111 10.0376 19.9186 11.0519C19.4677 10.0991 18.4973 9.43817 17.375 9.43817C15.8242 9.43817 14.5625 10.6999 14.5625 12.2507V14.1257C14.5625 15.3502 15.3632 16.4285 16.5057 16.8003C16.4607 17.1525 16.4375 17.5114 16.4375 17.8757C16.4375 22.5281 20.2226 26.3132 24.875 26.3132C26.1529 26.3132 27.3652 26.027 28.4517 25.5164L34.2016 31.1797C35.2986 32.2735 37.0806 32.2725 38.1763 31.1769C39.2729 30.0804 39.2729 28.296 38.1763 27.1994ZM31.4375 12.2507C31.4375 11.7337 31.8581 11.3132 32.375 11.3132C32.9077 11.3132 33.375 11.7512 33.375 12.2507V14.1257C33.375 14.5055 33.1074 14.8164 32.7951 14.9655C32.4737 14.0935 32.0118 13.289 31.4375 12.5789V12.2507ZM16.4375 14.1256V12.2506C16.4375 11.7337 16.8581 11.3131 17.375 11.3131C17.8919 11.3131 18.3125 11.7337 18.3125 12.2507V12.5789C17.7384 13.2887 17.2767 14.0928 16.9553 14.9644C16.6451 14.8086 16.4375 14.486 16.4375 14.1256ZM24.875 24.4382C21.2564 24.4382 18.3125 21.4942 18.3125 17.8757C18.3125 14.254 21.2609 11.3132 24.875 11.3132C28.4963 11.3132 31.4375 14.2616 31.4375 17.8757C31.4375 21.4942 28.4936 24.4382 24.875 24.4382ZM36.8504 29.8511C36.4849 30.2167 35.8901 30.2167 35.5246 29.8511C35.523 29.8495 35.5212 29.8478 35.5196 29.8461L30.0934 24.5014C30.5854 24.1131 31.0329 23.671 31.4278 23.1845L36.8525 28.5274C37.2159 28.8931 37.2153 29.4862 36.8504 29.8511Z" fill="white"/>
<path d="M7.9375 0.000366211C7.41975 0.000366211 7 0.420116 7 0.937866V6.62537C7 7.14312 7.41975 7.56287 7.9375 7.56287C8.45525 7.56287 8.875 7.14312 8.875 6.62537V0.937866C8.875 0.420116 8.45525 0.000366211 7.9375 0.000366211Z" fill="white"/>
<path d="M13.625 18.8132C12.0742 18.8132 10.8125 20.0749 10.8125 21.6257V23.5007C10.8125 25.0515 12.0742 26.3132 13.625 26.3132C15.1758 26.3132 16.4375 25.0515 16.4375 23.5007V21.6257C16.4375 20.0749 15.1758 18.8132 13.625 18.8132ZM14.5625 23.5007C14.5625 24.0176 14.1419 24.4382 13.625 24.4382C13.1081 24.4382 12.6875 24.0176 12.6875 23.5007V21.6257C12.6875 21.1087 13.1081 20.6882 13.625 20.6882C14.1419 20.6882 14.5625 21.1087 14.5625 21.6257V23.5007Z" fill="white"/>
<path d="M7.9375 18.8132C7.41975 18.8132 7 19.2329 7 19.7507V25.3757C7 25.8934 7.41975 26.3132 7.9375 26.3132C8.45525 26.3132 8.875 25.8934 8.875 25.3757V19.7507C8.875 19.2329 8.45525 18.8132 7.9375 18.8132Z" fill="white"/>
<path d="M19.25 0.000671387C18.7322 0.000671387 18.3125 0.420421 18.3125 0.938171V6.62567C18.3125 7.14342 18.7322 7.56317 19.25 7.56317C19.7678 7.56317 20.1875 7.14342 20.1875 6.62567V0.938171C20.1875 0.420421 19.7678 0.000671387 19.25 0.000671387Z" fill="white"/>
<path d="M30.5 0.000671387C29.9822 0.000671387 29.5625 0.420421 29.5625 0.938171V6.62567C29.5625 7.14342 29.9822 7.56317 30.5 7.56317C31.0178 7.56317 31.4375 7.14342 31.4375 6.62567V0.938171C31.4375 0.420421 31.0178 0.000671387 30.5 0.000671387Z" fill="white"/>
<path d="M24.875 13.1882C24.3572 13.1882 23.9375 13.6079 23.9375 14.1257V17.8757C23.9375 18.3934 24.3572 18.8132 24.875 18.8132C25.3928 18.8132 25.8125 18.3934 25.8125 17.8757V14.1257C25.8125 13.6079 25.3928 13.1882 24.875 13.1882Z" fill="white"/>
</g>
<defs>
<clipPath id="clip0_80_607">
<rect width="32" height="32" fill="white"/>
</clipPath>
</defs>
</svg>
