<svg width="28" height="28" viewBox="0 0 28 28" fill="none" xmlns="http://www.w3.org/2000/svg">
<path d="M27 13H10.858C10.3157 10.8693 8.1488 9.58166 6.01804 10.1239C4.605 10.4836 3.50162 11.587 3.14197 13H1.00002C0.447715 13 0 13.4477 0 14C0 14.5523 0.447715 15 1.00002 15H3.14203C3.68431 17.1307 5.85123 18.4184 7.98199 17.8761C9.39503 17.5164 10.4984 16.413 10.8581 15H27C27.5523 15 28 14.5523 28 14C28 13.4477 27.5523 13 27 13ZM7.00001 16C5.89546 16 5.00004 15.1046 5.00004 14C5.00004 12.8955 5.89546 12.0001 7.00001 12.0001C8.10456 12.0001 8.99999 12.8955 8.99999 14C8.99999 15.1046 8.10456 16 7.00001 16Z" fill="white"/>
<path d="M27 2.99996H23.858C23.3157 0.869255 21.1488 -0.418401 19.0181 0.123884C17.605 0.483533 16.5016 1.58691 16.142 2.99996H1.00002C0.447715 2.99996 0 3.44767 0 3.99998C0 4.55228 0.447715 4.99999 1.00002 4.99999H16.142C16.6843 7.1307 18.8512 8.41835 20.9819 7.87607C22.395 7.51642 23.4984 6.41304 23.858 4.99999H27C27.5523 4.99999 28 4.55228 28 3.99998C28 3.44767 27.5523 2.99996 27 2.99996ZM20 5.99996C18.8955 5.99996 18 5.10453 18 3.99998C18 2.89543 18.8955 2 20 2C21.1046 2 22 2.89543 22 3.99998C22 5.10453 21.1046 5.99996 20 5.99996Z" fill="white"/>
<path d="M27 23H21.858C21.3157 20.8693 19.1488 19.5817 17.018 20.1239C15.605 20.4836 14.5016 21.587 14.1419 23H1.00002C0.447715 23 0 23.4477 0 24C0 24.5522 0.447715 25 1.00002 25H14.142C14.6843 27.1307 16.8512 28.4184 18.982 27.8761C20.395 27.5164 21.4984 26.413 21.858 25H27C27.5523 25 28 24.5523 28 24C28 23.4477 27.5523 23 27 23ZM18 26C16.8954 26 16 25.1046 16 24C16 22.8955 16.8954 22.0001 18 22.0001C19.1045 22.0001 20 22.8955 20 24C20 25.1046 19.1046 26 18 26Z" fill="white"/>
</svg>
