<svg width="1920" height="566" viewBox="0 0 1920 566" fill="none" xmlns="http://www.w3.org/2000/svg">
<rect width="1920" height="567" fill="url(#paint0_linear_161_7)"/>
<path d="M288.85 679.467L66.5571 312.045L-220.874 402.892L-220.473 469.124L288.85 679.467Z" fill="url(#paint1_linear_161_7)"/>
<path d="M817 593.389L1908.5 -76.6114L2294 49.8887L2594 404.888L1996.5 572.889L817 593.389Z" fill="url(#paint2_linear_161_7)"/>
<circle cx="1245" cy="392" r="239" fill="#12B87B"/>
<path fill-rule="evenodd" clip-rule="evenodd" d="M1748.46 531.847V525.744H1745.58V531.847H1739.81V534.898H1745.58V541H1748.46V534.898H1754.23V531.847H1748.46ZM1748.46 486.078V479.976H1745.58V486.078H1739.81V489.129H1745.58V495.232H1748.46V489.129H1754.23V486.078H1748.46ZM1705.19 531.847V525.744H1702.31V531.847H1696.54V534.898H1702.31V541H1705.19V534.898H1710.96V531.847H1705.19ZM1705.19 486.078V479.976H1702.31V486.078H1696.54V489.129H1702.31V495.232H1705.19V489.129H1710.96V486.078H1705.19Z" fill="#24FFB0" fill-opacity="0.34"/>
<path fill-rule="evenodd" clip-rule="evenodd" d="M1748.46 357.359V351.257H1745.58V357.359H1739.81V360.411H1745.58V366.513H1748.46V360.411H1754.23V357.359H1748.46ZM1748.46 311.591V305.488H1745.58V311.591H1739.81V314.642H1745.58V320.744H1748.46V314.642H1754.23V311.591H1748.46ZM1705.19 357.359V351.257H1702.31V357.359H1696.54V360.411H1702.31V366.513H1705.19V360.411H1710.96V357.359H1705.19ZM1705.19 311.591V305.488H1702.31V311.591H1696.54V314.642H1702.31V320.744H1705.19V314.642H1710.96V311.591H1705.19Z" fill="#24FFB0" fill-opacity="0.34"/>
<path fill-rule="evenodd" clip-rule="evenodd" d="M1748.46 182.871V176.769H1745.58V182.871H1739.81V185.922H1745.58V192.025H1748.46V185.922H1754.23V182.871H1748.46ZM1748.46 137.102V131H1745.58V137.102H1739.81V140.154H1745.58V146.256H1748.46V140.154H1754.23V137.102H1748.46ZM1705.19 182.871V176.769H1702.31V182.871H1696.54V185.922H1702.31V192.025H1705.19V185.922H1710.96V182.871H1705.19ZM1705.19 137.102V131H1702.31V137.102H1696.54V140.154H1702.31V146.256H1705.19V140.154H1710.96V137.102H1705.19Z" fill="#24FFB0" fill-opacity="0.34"/>
<path fill-rule="evenodd" clip-rule="evenodd" d="M1748.46 444.602V438.499H1745.58V444.602H1739.81V447.653H1745.58V453.756H1748.46V447.653H1754.23V444.602H1748.46ZM1748.46 398.833V392.731H1745.58V398.833H1739.81V401.885H1745.58V407.987H1748.46V401.885H1754.23V398.833H1748.46ZM1705.19 444.602V438.499H1702.31V444.602H1696.54V447.653H1702.31V453.756H1705.19V447.653H1710.96V444.602H1705.19ZM1705.19 398.833V392.731H1702.31V398.833H1696.54V401.885H1702.31V407.987H1705.19V401.885H1710.96V398.833H1705.19Z" fill="#24FFB0" fill-opacity="0.34"/>
<path fill-rule="evenodd" clip-rule="evenodd" d="M1748.46 270.115V264.013H1745.58V270.115H1739.81V273.166H1745.58V279.269H1748.46V273.166H1754.23V270.115H1748.46ZM1748.46 224.347V218.244H1745.58V224.347H1739.81V227.398H1745.58V233.5H1748.46V227.398H1754.23V224.347H1748.46ZM1705.19 270.115V264.013H1702.31V270.115H1696.54V273.166H1702.31V279.269H1705.19V273.166H1710.96V270.115H1705.19ZM1705.19 224.347V218.244H1702.31V224.347H1696.54V227.398H1702.31V233.5H1705.19V227.398H1710.96V224.347H1705.19Z" fill="#24FFB0" fill-opacity="0.34"/>
<path fill-rule="evenodd" clip-rule="evenodd" d="M1835.01 531.846V525.744H1832.12V531.846H1826.35V534.897H1832.12V541H1835.01V534.897H1840.77V531.846H1835.01ZM1835.01 486.078V479.975H1832.12V486.078H1826.35V489.129H1832.12V495.231H1835.01V489.129H1840.77V486.078H1835.01ZM1791.73 531.846V525.744H1788.85V531.846H1783.08V534.897H1788.85V541H1791.73V534.897H1797.5V531.846H1791.73ZM1791.73 486.078V479.975H1788.85V486.078H1783.08V489.129H1788.85V495.231H1791.73V489.129H1797.5V486.078H1791.73Z" fill="#24FFB0" fill-opacity="0.34"/>
<path fill-rule="evenodd" clip-rule="evenodd" d="M1835.01 357.359V351.257H1832.12V357.359H1826.35V360.411H1832.12V366.513H1835.01V360.411H1840.77V357.359H1835.01ZM1835.01 311.591V305.488H1832.12V311.591H1826.35V314.642H1832.12V320.744H1835.01V314.642H1840.77V311.591H1835.01ZM1791.73 357.359V351.257H1788.85V357.359H1783.08V360.411H1788.85V366.513H1791.73V360.411H1797.5V357.359H1791.73ZM1791.73 311.591V305.488H1788.85V311.591H1783.08V314.642H1788.85V320.744H1791.73V314.642H1797.5V311.591H1791.73Z" fill="#24FFB0" fill-opacity="0.34"/>
<path fill-rule="evenodd" clip-rule="evenodd" d="M1835.01 182.871V176.769H1832.12V182.871H1826.35V185.922H1832.12V192.025H1835.01V185.922H1840.77V182.871H1835.01ZM1835.01 137.102V131H1832.12V137.102H1826.35V140.154H1832.12V146.256H1835.01V140.154H1840.77V137.102H1835.01ZM1791.73 182.871V176.769H1788.85V182.871H1783.08V185.922H1788.85V192.025H1791.73V185.922H1797.5V182.871H1791.73ZM1791.73 137.102V131H1788.85V137.102H1783.08V140.154H1788.85V146.256H1791.73V140.154H1797.5V137.102H1791.73Z" fill="#24FFB0" fill-opacity="0.34"/>
<path fill-rule="evenodd" clip-rule="evenodd" d="M1835.01 444.602V438.499H1832.12V444.602H1826.35V447.653H1832.12V453.756H1835.01V447.653H1840.77V444.602H1835.01ZM1835.01 398.833V392.731H1832.12V398.833H1826.35V401.885H1832.12V407.987H1835.01V401.885H1840.77V398.833H1835.01ZM1791.73 444.602V438.499H1788.85V444.602H1783.08V447.653H1788.85V453.756H1791.73V447.653H1797.5V444.602H1791.73ZM1791.73 398.833V392.731H1788.85V398.833H1783.08V401.885H1788.85V407.987H1791.73V401.885H1797.5V398.833H1791.73Z" fill="#24FFB0" fill-opacity="0.34"/>
<path fill-rule="evenodd" clip-rule="evenodd" d="M1835.01 270.116V264.013H1832.12V270.116H1826.35V273.167H1832.12V279.269H1835.01V273.167H1840.77V270.116H1835.01ZM1835.01 224.347V218.245H1832.12V224.347H1826.35V227.398H1832.12V233.501H1835.01V227.398H1840.77V224.347H1835.01ZM1791.73 270.116V264.013H1788.85V270.116H1783.08V273.167H1788.85V279.269H1791.73V273.167H1797.5V270.116H1791.73ZM1791.73 224.347V218.245H1788.85V224.347H1783.08V227.398H1788.85V233.501H1791.73V227.398H1797.5V224.347H1791.73Z" fill="#24FFB0" fill-opacity="0.34"/>
<path fill-rule="evenodd" clip-rule="evenodd" d="M1921.56 531.847V525.744H1918.67V531.847H1912.9V534.898H1918.67V541H1921.56V534.898H1927.33V531.847H1921.56ZM1921.56 486.078V479.976H1918.67V486.078H1912.9V489.129H1918.67V495.232H1921.56V489.129H1927.33V486.078H1921.56ZM1878.29 531.847V525.744H1875.4V531.847H1869.63V534.898H1875.4V541H1878.29V534.898H1884.06V531.847H1878.29ZM1878.29 486.078V479.976H1875.4V486.078H1869.63V489.129H1875.4V495.232H1878.29V489.129H1884.06V486.078H1878.29Z" fill="#24FFB0" fill-opacity="0.34"/>
<path fill-rule="evenodd" clip-rule="evenodd" d="M1921.56 357.359V351.257H1918.67V357.359H1912.9V360.411H1918.67V366.513H1921.56V360.411H1927.33V357.359H1921.56ZM1921.56 311.591V305.488H1918.67V311.591H1912.9V314.642H1918.67V320.744H1921.56V314.642H1927.33V311.591H1921.56ZM1878.29 357.359V351.257H1875.4V357.359H1869.63V360.411H1875.4V366.513H1878.29V360.411H1884.06V357.359H1878.29ZM1878.29 311.591V305.488H1875.4V311.591H1869.63V314.642H1875.4V320.744H1878.29V314.642H1884.06V311.591H1878.29Z" fill="#24FFB0" fill-opacity="0.34"/>
<path fill-rule="evenodd" clip-rule="evenodd" d="M1921.56 182.871V176.769H1918.67V182.871H1912.9V185.922H1918.67V192.025H1921.56V185.922H1927.33V182.871H1921.56ZM1921.56 137.102V131H1918.67V137.102H1912.9V140.154H1918.67V146.256H1921.56V140.154H1927.33V137.102H1921.56ZM1878.29 182.871V176.769H1875.4V182.871H1869.63V185.922H1875.4V192.025H1878.29V185.922H1884.06V182.871H1878.29ZM1878.29 137.102V131H1875.4V137.102H1869.63V140.154H1875.4V146.256H1878.29V140.154H1884.06V137.102H1878.29Z" fill="#24FFB0" fill-opacity="0.34"/>
<path fill-rule="evenodd" clip-rule="evenodd" d="M1921.56 444.602V438.499H1918.67V444.602H1912.9V447.653H1918.67V453.756H1921.56V447.653H1927.33V444.602H1921.56ZM1921.56 398.833V392.731H1918.67V398.833H1912.9V401.885H1918.67V407.987H1921.56V401.885H1927.33V398.833H1921.56ZM1878.29 444.602V438.499H1875.4V444.602H1869.63V447.653H1875.4V453.756H1878.29V447.653H1884.06V444.602H1878.29ZM1878.29 398.833V392.731H1875.4V398.833H1869.63V401.885H1875.4V407.987H1878.29V401.885H1884.06V398.833H1878.29Z" fill="#24FFB0" fill-opacity="0.34"/>
<path fill-rule="evenodd" clip-rule="evenodd" d="M1921.56 270.115V264.013H1918.67V270.115H1912.9V273.166H1918.67V279.269H1921.56V273.166H1927.33V270.115H1921.56ZM1921.56 224.347V218.244H1918.67V224.347H1912.9V227.398H1918.67V233.5H1921.56V227.398H1927.33V224.347H1921.56ZM1878.29 270.115V264.013H1875.4V270.115H1869.63V273.166H1875.4V279.269H1878.29V273.166H1884.06V270.115H1878.29ZM1878.29 224.347V218.244H1875.4V224.347H1869.63V227.398H1875.4V233.5H1878.29V227.398H1884.06V224.347H1878.29Z" fill="#24FFB0" fill-opacity="0.34"/>
<path fill-rule="evenodd" clip-rule="evenodd" d="M1661.93 531.847V525.744H1659.04V531.847H1653.27V534.898H1659.04V541H1661.93V534.898H1667.69V531.847H1661.93ZM1661.93 486.078V479.976H1659.04V486.078H1653.27V489.129H1659.04V495.232H1661.93V489.129H1667.69V486.078H1661.93ZM1618.65 531.847V525.744H1615.77V531.847H1610V534.898H1615.77V541H1618.65V534.898H1624.42V531.847H1618.65ZM1618.65 486.078V479.976H1615.77V486.078H1610V489.129H1615.77V495.232H1618.65V489.129H1624.42V486.078H1618.65Z" fill="#24FFB0" fill-opacity="0.34"/>
<path fill-rule="evenodd" clip-rule="evenodd" d="M1661.93 357.359V351.257H1659.04V357.359H1653.27V360.411H1659.04V366.513H1661.93V360.411H1667.69V357.359H1661.93ZM1661.93 311.591V305.488H1659.04V311.591H1653.27V314.642H1659.04V320.744H1661.93V314.642H1667.69V311.591H1661.93ZM1618.65 357.359V351.257H1615.77V357.359H1610V360.411H1615.77V366.513H1618.65V360.411H1624.42V357.359H1618.65ZM1618.65 311.591V305.488H1615.77V311.591H1610V314.642H1615.77V320.744H1618.65V314.642H1624.42V311.591H1618.65Z" fill="#24FFB0" fill-opacity="0.34"/>
<path fill-rule="evenodd" clip-rule="evenodd" d="M1661.93 182.871V176.769H1659.04V182.871H1653.27V185.922H1659.04V192.025H1661.93V185.922H1667.69V182.871H1661.93ZM1661.93 137.102V131H1659.04V137.102H1653.27V140.154H1659.04V146.256H1661.93V140.154H1667.69V137.102H1661.93ZM1618.65 182.871V176.769H1615.77V182.871H1610V185.922H1615.77V192.025H1618.65V185.922H1624.42V182.871H1618.65ZM1618.65 137.102V131H1615.77V137.102H1610V140.154H1615.77V146.256H1618.65V140.154H1624.42V137.102H1618.65Z" fill="#24FFB0" fill-opacity="0.34"/>
<path fill-rule="evenodd" clip-rule="evenodd" d="M1661.93 444.602V438.499H1659.04V444.602H1653.27V447.653H1659.04V453.756H1661.93V447.653H1667.69V444.602H1661.93ZM1661.93 398.833V392.731H1659.04V398.833H1653.27V401.885H1659.04V407.987H1661.93V401.885H1667.69V398.833H1661.93ZM1618.65 444.602V438.499H1615.77V444.602H1610V447.653H1615.77V453.756H1618.65V447.653H1624.42V444.602H1618.65ZM1618.65 398.833V392.731H1615.77V398.833H1610V401.885H1615.77V407.987H1618.65V401.885H1624.42V398.833H1618.65Z" fill="#24FFB0" fill-opacity="0.34"/>
<path fill-rule="evenodd" clip-rule="evenodd" d="M1661.93 270.115V264.013H1659.04V270.115H1653.27V273.166H1659.04V279.269H1661.93V273.166H1667.69V270.115H1661.93ZM1661.93 224.347V218.244H1659.04V224.347H1653.27V227.398H1659.04V233.5H1661.93V227.398H1667.69V224.347H1661.93ZM1618.65 270.115V264.013H1615.77V270.115H1610V273.166H1615.77V279.269H1618.65V273.166H1624.42V270.115H1618.65ZM1618.65 224.347V218.244H1615.77V224.347H1610V227.398H1615.77V233.5H1618.65V227.398H1624.42V224.347H1618.65Z" fill="#24FFB0" fill-opacity="0.34"/>
<path fill-rule="evenodd" clip-rule="evenodd" d="M1170.68 558.285V553.862H1168.38V558.285H1163.76V560.496H1168.38V564.919H1170.68V560.496H1175.29V558.285H1170.68ZM1170.68 525.112V520.689H1168.38V525.112H1163.76V527.324H1168.38V531.747H1170.68V527.324H1175.29V525.112H1170.68ZM1136.09 558.285V553.862H1133.79V558.285H1129.18V560.496H1133.79V564.919H1136.09V560.496H1140.71V558.285H1136.09ZM1136.09 525.112V520.689H1133.79V525.112H1129.18V527.324H1133.79V531.747H1136.09V527.324H1140.71V525.112H1136.09Z" fill="#15EC9E" fill-opacity="0.47"/>
<path fill-rule="evenodd" clip-rule="evenodd" d="M1170.68 425.596V421.173H1168.38V425.596H1163.76V427.807H1168.38V432.23H1170.68V427.807H1175.29V425.596H1170.68ZM1170.68 392.423V388H1168.38V392.423H1163.76V394.635H1168.38V399.058H1170.68V394.635H1175.29V392.423H1170.68ZM1136.09 425.596V421.173H1133.79V425.596H1129.18V427.807H1133.79V432.23H1136.09V427.807H1140.71V425.596H1136.09ZM1136.09 392.423V388H1133.79V392.423H1129.18V394.635H1133.79V399.058H1136.09V394.635H1140.71V392.423H1136.09Z" fill="#15EC9E" fill-opacity="0.47"/>
<path fill-rule="evenodd" clip-rule="evenodd" d="M1170.68 491.94V487.517H1168.38V491.94H1163.76V494.152H1168.38V498.575H1170.68V494.152H1175.29V491.94H1170.68ZM1170.68 458.768V454.345H1168.38V458.768H1163.76V460.979H1168.38V465.402H1170.68V460.979H1175.29V458.768H1170.68ZM1136.09 491.94V487.517H1133.79V491.94H1129.18V494.152H1133.79V498.575H1136.09V494.152H1140.71V491.94H1136.09ZM1136.09 458.768V454.345H1133.79V458.768H1129.18V460.979H1133.79V465.402H1136.09V460.979H1140.71V458.768H1136.09Z" fill="#15EC9E" fill-opacity="0.47"/>
<path fill-rule="evenodd" clip-rule="evenodd" d="M1101.51 558.286V553.863H1099.2V558.286H1094.59V560.497H1099.2V564.92H1101.51V560.497H1106.12V558.286H1101.51ZM1101.51 525.113V520.69H1099.2V525.113H1094.59V527.325H1099.2V531.748H1101.51V527.325H1106.12V525.113H1101.51ZM1066.92 558.286V553.863H1064.61V558.286H1060V560.497H1064.61V564.92H1066.92V560.497H1071.53V558.286H1066.92ZM1066.92 525.113V520.69H1064.61V525.113H1060V527.325H1064.61V531.748H1066.92V527.325H1071.53V525.113H1066.92Z" fill="#15EC9E" fill-opacity="0.47"/>
<path fill-rule="evenodd" clip-rule="evenodd" d="M1101.51 425.596V421.173H1099.2V425.596H1094.59V427.807H1099.2V432.23H1101.51V427.807H1106.12V425.596H1101.51ZM1101.51 392.423V388H1099.2V392.423H1094.59V394.635H1099.2V399.058H1101.51V394.635H1106.12V392.423H1101.51ZM1066.92 425.596V421.173H1064.61V425.596H1060V427.807H1064.61V432.23H1066.92V427.807H1071.53V425.596H1066.92ZM1066.92 392.423V388H1064.61V392.423H1060V394.635H1064.61V399.058H1066.92V394.635H1071.53V392.423H1066.92Z" fill="#15EC9E" fill-opacity="0.47"/>
<path fill-rule="evenodd" clip-rule="evenodd" d="M1101.51 491.941V487.518H1099.2V491.941H1094.59V494.153H1099.2V498.576H1101.51V494.153H1106.12V491.941H1101.51ZM1101.51 458.769V454.346H1099.2V458.769H1094.59V460.98H1099.2V465.403H1101.51V460.98H1106.12V458.769H1101.51ZM1066.92 491.941V487.518H1064.61V491.941H1060V494.153H1064.61V498.576H1066.92V494.153H1071.53V491.941H1066.92ZM1066.92 458.769V454.346H1064.61V458.769H1060V460.98H1064.61V465.403H1066.92V460.98H1071.53V458.769H1066.92Z" fill="#15EC9E" fill-opacity="0.47"/>
<defs>
<linearGradient id="paint0_linear_161_7" x1="777.03" y1="583.52" x2="743.364" y2="36.7541" gradientUnits="userSpaceOnUse">
<stop stop-color="#02AD6F"/>
<stop offset="1" stop-color="#6EDBA9"/>
</linearGradient>
<linearGradient id="paint1_linear_161_7" x1="134.139" y1="340.957" x2="-74.3084" y2="493.501" gradientUnits="userSpaceOnUse">
<stop stop-color="#1BDA7D"/>
<stop offset="1" stop-color="#01A254" stop-opacity="0"/>
</linearGradient>
<linearGradient id="paint2_linear_161_7" x1="1448.08" y1="241.847" x2="1797.22" y2="668.799" gradientUnits="userSpaceOnUse">
<stop stop-color="#1BDA7D"/>
<stop offset="1" stop-color="#01A254" stop-opacity="0"/>
</linearGradient>
</defs>
</svg>
