<svg width="38" height="17" viewBox="0 0 38 17" fill="none" xmlns="http://www.w3.org/2000/svg">
<path d="M-2.7866e-07 6.375C-1.25007e-07 2.85982 2.99651 -1.53005e-06 6.67969 -1.36905e-06L29.0938 -3.89305e-07C34.0047 -1.74642e-07 38 3.8131 38 8.5C38 13.1869 34.0047 17 29.0937 17L6.67969 17L6.67969 14.875L29.0937 14.875C32.7769 14.875 35.7734 12.0152 35.7734 8.5C35.7734 4.98483 32.7769 2.125 29.0937 2.125L6.67969 2.125C4.22424 2.125 2.22656 4.03155 2.22656 6.375C2.22656 8.71845 4.22424 10.625 6.67969 10.625L24.6406 10.625C25.8684 10.625 26.8672 9.67173 26.8672 8.5C26.8672 7.32828 25.8684 6.375 24.6406 6.375L6.67969 6.375L6.67969 4.25L24.6406 4.25C27.0961 4.25 29.0937 6.15655 29.0937 8.5C29.0937 10.8435 27.0961 12.75 24.6406 12.75L6.67969 12.75C2.99651 12.75 -4.32313e-07 9.89017 -2.7866e-07 6.375Z" fill="white"/>
</svg>
