<svg width="144" height="143" viewBox="0 0 144 143" fill="none" xmlns="http://www.w3.org/2000/svg">
<g opacity="0.5">
<rect x="36" y="26" width="7.2" height="6.86118" fill="#F28B42"/>
<rect x="36" y="39.7224" width="7.2" height="6.86118" fill="#F28B42"/>
<rect x="36" y="53.4448" width="7.2" height="6.86118" fill="#F28B42"/>
<rect x="36" y="67.1669" width="7.2" height="6.86118" fill="#F28B42"/>
<rect x="36" y="80.8893" width="7.2" height="6.86118" fill="#F28B42"/>
<rect x="36" y="94.6118" width="7.2" height="6.86118" fill="#F28B42"/>
<rect x="36" y="108.334" width="7.2" height="6.86118" fill="#F28B42"/>
<rect x="36" y="122.057" width="7.2" height="6.86118" fill="#F28B42"/>
<rect x="36" y="135.779" width="7.2" height="6.86118" fill="#F28B42"/>
<rect x="50.4004" y="26" width="7.2" height="6.86118" fill="#F28B42"/>
<rect x="50.4004" y="39.7224" width="7.2" height="6.86118" fill="#F28B42"/>
<rect x="50.4004" y="53.4448" width="7.2" height="6.86118" fill="#F28B42"/>
<rect x="50.4004" y="67.1669" width="7.2" height="6.86118" fill="#F28B42"/>
<rect x="50.4004" y="80.8893" width="7.2" height="6.86118" fill="#F28B42"/>
<rect x="50.4004" y="94.6118" width="7.2" height="6.86118" fill="#F28B42"/>
<rect x="50.4004" y="108.334" width="7.2" height="6.86118" fill="#F28B42"/>
<rect x="50.4004" y="122.057" width="7.2" height="6.86118" fill="#F28B42"/>
<rect x="50.4004" y="135.779" width="7.2" height="6.86118" fill="#F28B42"/>
<rect x="64.8008" y="26" width="7.2" height="6.86118" fill="#F28B42"/>
<rect x="64.8008" y="39.7224" width="7.2" height="6.86118" fill="#F28B42"/>
<rect x="64.8008" y="53.4448" width="7.2" height="6.86118" fill="#F28B42"/>
<rect x="64.8008" y="67.1669" width="7.2" height="6.86118" fill="#F28B42"/>
<rect x="64.8008" y="80.8893" width="7.2" height="6.86118" fill="#F28B42"/>
<rect x="64.8008" y="94.6118" width="7.2" height="6.86118" fill="#F28B42"/>
<rect x="64.8008" y="108.334" width="7.2" height="6.86118" fill="#F28B42"/>
<rect x="64.8008" y="122.057" width="7.2" height="6.86118" fill="#F28B42"/>
<rect x="64.8008" y="135.779" width="7.2" height="6.86118" fill="#F28B42"/>
<rect x="79.1992" y="26" width="7.2" height="6.86118" fill="#F28B42"/>
<rect x="79.1992" y="39.7224" width="7.2" height="6.86118" fill="#F28B42"/>
<rect x="79.1992" y="53.4448" width="7.2" height="6.86118" fill="#F28B42"/>
<rect x="79.1992" y="67.1669" width="7.2" height="6.86118" fill="#F28B42"/>
<rect x="79.1992" y="80.8893" width="7.2" height="6.86118" fill="#F28B42"/>
<rect x="79.1992" y="94.6118" width="7.2" height="6.86118" fill="#F28B42"/>
<rect x="79.1992" y="108.334" width="7.2" height="6.86118" fill="#F28B42"/>
<rect x="79.1992" y="122.057" width="7.2" height="6.86118" fill="#F28B42"/>
<rect x="79.1992" y="135.779" width="7.2" height="6.86118" fill="#F28B42"/>
<rect x="93.5996" y="26" width="7.2" height="6.86118" fill="#F28B42"/>
<rect x="93.5996" y="39.7224" width="7.2" height="6.86118" fill="#F28B42"/>
<rect x="93.5996" y="53.4448" width="7.2" height="6.86118" fill="#F28B42"/>
<rect x="93.5996" y="67.1669" width="7.2" height="6.86118" fill="#F28B42"/>
<rect x="93.5996" y="80.8893" width="7.2" height="6.86118" fill="#F28B42"/>
<rect x="93.5996" y="94.6118" width="7.2" height="6.86118" fill="#F28B42"/>
<rect x="93.5996" y="108.334" width="7.2" height="6.86118" fill="#F28B42"/>
<rect x="93.5996" y="122.057" width="7.2" height="6.86118" fill="#F28B42"/>
<rect x="93.5996" y="135.779" width="7.2" height="6.86118" fill="#F28B42"/>
<rect x="108" y="26" width="7.2" height="6.86118" fill="#F28B42"/>
<rect x="108" y="39.7224" width="7.2" height="6.86118" fill="#F28B42"/>
<rect x="108" y="53.4448" width="7.2" height="6.86118" fill="#F28B42"/>
<rect x="108" y="67.1669" width="7.2" height="6.86118" fill="#F28B42"/>
<rect x="108" y="80.8893" width="7.2" height="6.86118" fill="#F28B42"/>
<rect x="108" y="94.6118" width="7.2" height="6.86118" fill="#F28B42"/>
<rect x="108" y="108.334" width="7.2" height="6.86118" fill="#F28B42"/>
<rect x="108" y="122.057" width="7.2" height="6.86118" fill="#F28B42"/>
<rect x="108" y="135.779" width="7.2" height="6.86118" fill="#F28B42"/>
<rect x="122.4" y="26" width="7.2" height="6.86118" fill="#F28B42"/>
<rect x="122.4" y="39.7224" width="7.2" height="6.86118" fill="#F28B42"/>
<rect x="122.4" y="53.4448" width="7.2" height="6.86118" fill="#F28B42"/>
<rect x="122.4" y="67.1669" width="7.2" height="6.86118" fill="#F28B42"/>
<rect x="122.4" y="80.8893" width="7.2" height="6.86118" fill="#F28B42"/>
<rect x="122.4" y="94.6118" width="7.2" height="6.86118" fill="#F28B42"/>
<rect x="122.4" y="108.334" width="7.2" height="6.86118" fill="#F28B42"/>
<rect x="122.4" y="122.057" width="7.2" height="6.86118" fill="#F28B42"/>
<rect x="122.4" y="135.779" width="7.2" height="6.86118" fill="#F28B42"/>
<rect x="136.801" y="26" width="7.2" height="6.86118" fill="#F28B42"/>
<rect x="136.801" y="39.7224" width="7.2" height="6.86118" fill="#F28B42"/>
<rect x="136.801" y="53.4448" width="7.2" height="6.86118" fill="#F28B42"/>
<rect x="136.801" y="67.1669" width="7.2" height="6.86118" fill="#F28B42"/>
<rect x="136.801" y="80.8893" width="7.2" height="6.86118" fill="#F28B42"/>
<rect x="136.801" y="94.6118" width="7.2" height="6.86118" fill="#F28B42"/>
<rect x="136.801" y="108.334" width="7.2" height="6.86118" fill="#F28B42"/>
<rect x="136.801" y="122.057" width="7.2" height="6.86118" fill="#F28B42"/>
<rect x="136.801" y="135.779" width="7.2" height="6.86118" fill="#F28B42"/>
</g>
<rect width="72" height="74" rx="20" fill="#E94F1D" fill-opacity="0.71"/>
</svg>
