<svg width="108" height="117" viewBox="0 0 108 117" fill="none" xmlns="http://www.w3.org/2000/svg">
<g opacity="0.5">
<rect width="7.2" height="6.86118" fill="#F28B42"/>
<rect y="13.7224" width="7.2" height="6.86118" fill="#F28B42"/>
<rect y="27.4448" width="7.2" height="6.86118" fill="#F28B42"/>
<rect y="41.1669" width="7.2" height="6.86118" fill="#F28B42"/>
<rect y="54.8893" width="7.2" height="6.86118" fill="#F28B42"/>
<rect y="68.6118" width="7.2" height="6.86118" fill="#F28B42"/>
<rect y="82.3342" width="7.2" height="6.86118" fill="#F28B42"/>
<rect y="96.0566" width="7.2" height="6.86118" fill="#F28B42"/>
<rect y="109.779" width="7.2" height="6.86118" fill="#F28B42"/>
<rect x="14.4004" width="7.2" height="6.86118" fill="#F28B42"/>
<rect x="14.4004" y="13.7224" width="7.2" height="6.86118" fill="#F28B42"/>
<rect x="14.4004" y="27.4448" width="7.2" height="6.86118" fill="#F28B42"/>
<rect x="14.4004" y="41.1669" width="7.2" height="6.86118" fill="#F28B42"/>
<rect x="14.4004" y="54.8893" width="7.2" height="6.86118" fill="#F28B42"/>
<rect x="14.4004" y="68.6118" width="7.2" height="6.86118" fill="#F28B42"/>
<rect x="14.4004" y="82.3342" width="7.2" height="6.86118" fill="#F28B42"/>
<rect x="14.4004" y="96.0566" width="7.2" height="6.86118" fill="#F28B42"/>
<rect x="14.4004" y="109.779" width="7.2" height="6.86118" fill="#F28B42"/>
<rect x="28.7998" width="7.2" height="6.86118" fill="#F28B42"/>
<rect x="28.7998" y="13.7224" width="7.2" height="6.86118" fill="#F28B42"/>
<rect x="28.7998" y="27.4448" width="7.2" height="6.86118" fill="#F28B42"/>
<rect x="28.7998" y="41.1669" width="7.2" height="6.86118" fill="#F28B42"/>
<rect x="28.7998" y="54.8893" width="7.2" height="6.86118" fill="#F28B42"/>
<rect x="28.7998" y="68.6118" width="7.2" height="6.86118" fill="#F28B42"/>
<rect x="28.7998" y="82.3342" width="7.2" height="6.86118" fill="#F28B42"/>
<rect x="28.7998" y="96.0566" width="7.2" height="6.86118" fill="#F28B42"/>
<rect x="28.7998" y="109.779" width="7.2" height="6.86118" fill="#F28B42"/>
<rect x="43.2002" width="7.2" height="6.86118" fill="#F28B42"/>
<rect x="43.2002" y="13.7224" width="7.2" height="6.86118" fill="#F28B42"/>
<rect x="43.2002" y="27.4448" width="7.2" height="6.86118" fill="#F28B42"/>
<rect x="43.2002" y="41.1669" width="7.2" height="6.86118" fill="#F28B42"/>
<rect x="43.2002" y="54.8893" width="7.2" height="6.86118" fill="#F28B42"/>
<rect x="43.2002" y="68.6118" width="7.2" height="6.86118" fill="#F28B42"/>
<rect x="43.2002" y="82.3342" width="7.2" height="6.86118" fill="#F28B42"/>
<rect x="43.2002" y="96.0566" width="7.2" height="6.86118" fill="#F28B42"/>
<rect x="43.2002" y="109.779" width="7.2" height="6.86118" fill="#F28B42"/>
<rect x="57.5996" width="7.2" height="6.86118" fill="#F28B42"/>
<rect x="57.5996" y="13.7224" width="7.2" height="6.86118" fill="#F28B42"/>
<rect x="57.5996" y="27.4448" width="7.2" height="6.86118" fill="#F28B42"/>
<rect x="57.5996" y="41.1669" width="7.2" height="6.86118" fill="#F28B42"/>
<rect x="57.5996" y="54.8893" width="7.2" height="6.86118" fill="#F28B42"/>
<rect x="57.5996" y="68.6118" width="7.2" height="6.86118" fill="#F28B42"/>
<rect x="57.5996" y="82.3342" width="7.2" height="6.86118" fill="#F28B42"/>
<rect x="57.5996" y="96.0566" width="7.2" height="6.86118" fill="#F28B42"/>
<rect x="57.5996" y="109.779" width="7.2" height="6.86118" fill="#F28B42"/>
<rect x="72" width="7.2" height="6.86118" fill="#F28B42"/>
<rect x="72" y="13.7224" width="7.2" height="6.86118" fill="#F28B42"/>
<rect x="72" y="27.4448" width="7.2" height="6.86118" fill="#F28B42"/>
<rect x="72" y="41.1669" width="7.2" height="6.86118" fill="#F28B42"/>
<rect x="72" y="54.8893" width="7.2" height="6.86118" fill="#F28B42"/>
<rect x="72" y="68.6118" width="7.2" height="6.86118" fill="#F28B42"/>
<rect x="72" y="82.3342" width="7.2" height="6.86118" fill="#F28B42"/>
<rect x="72" y="96.0566" width="7.2" height="6.86118" fill="#F28B42"/>
<rect x="72" y="109.779" width="7.2" height="6.86118" fill="#F28B42"/>
<rect x="86.4004" width="7.2" height="6.86118" fill="#F28B42"/>
<rect x="86.4004" y="13.7224" width="7.2" height="6.86118" fill="#F28B42"/>
<rect x="86.4004" y="27.4448" width="7.2" height="6.86118" fill="#F28B42"/>
<rect x="86.4004" y="41.1669" width="7.2" height="6.86118" fill="#F28B42"/>
<rect x="86.4004" y="54.8893" width="7.2" height="6.86118" fill="#F28B42"/>
<rect x="86.4004" y="68.6118" width="7.2" height="6.86118" fill="#F28B42"/>
<rect x="86.4004" y="82.3342" width="7.2" height="6.86118" fill="#F28B42"/>
<rect x="86.4004" y="96.0566" width="7.2" height="6.86118" fill="#F28B42"/>
<rect x="86.4004" y="109.779" width="7.2" height="6.86118" fill="#F28B42"/>
<rect x="100.8" width="7.2" height="6.86118" fill="#F28B42"/>
<rect x="100.8" y="13.7224" width="7.2" height="6.86118" fill="#F28B42"/>
<rect x="100.8" y="27.4448" width="7.2" height="6.86118" fill="#F28B42"/>
<rect x="100.8" y="41.1669" width="7.2" height="6.86118" fill="#F28B42"/>
<rect x="100.8" y="54.8893" width="7.2" height="6.86118" fill="#F28B42"/>
<rect x="100.8" y="68.6118" width="7.2" height="6.86118" fill="#F28B42"/>
<rect x="100.8" y="82.3342" width="7.2" height="6.86118" fill="#F28B42"/>
<rect x="100.8" y="96.0566" width="7.2" height="6.86118" fill="#F28B42"/>
<rect x="100.8" y="109.779" width="7.2" height="6.86118" fill="#F28B42"/>
</g>
</svg>
