<svg width="33" height="32" viewBox="0 0 33 32" fill="none" xmlns="http://www.w3.org/2000/svg">
<path d="M16.0039 2C13.0876 2.00344 10.2917 3.16347 8.22954 5.22563C6.16739 7.28778 5.00736 10.0837 5.00392 13C5.00043 15.3832 5.7789 17.7018 7.21992 19.6C7.21992 19.6 7.51992 19.995 7.56892 20.052L16.0039 30L24.4429 20.047C24.4869 19.994 24.7879 19.6 24.7879 19.6L24.7889 19.597C26.2292 17.6996 27.0073 15.3821 27.0039 13C27.0005 10.0837 25.8404 7.28778 23.7783 5.22563C21.7161 3.16347 18.9202 2.00344 16.0039 2ZM16.0039 17C15.2128 17 14.4394 16.7654 13.7816 16.3259C13.1238 15.8864 12.6112 15.2616 12.3084 14.5307C12.0056 13.7998 11.9264 12.9956 12.0808 12.2196C12.2351 11.4437 12.6161 10.731 13.1755 10.1716C13.7349 9.61216 14.4476 9.2312 15.2236 9.07686C15.9995 8.92252 16.8037 9.00173 17.5347 9.30448C18.2656 9.60723 18.8903 10.1199 19.3298 10.7777C19.7693 11.4355 20.0039 12.2089 20.0039 13C20.0026 14.0605 19.5807 15.0771 18.8309 15.827C18.081 16.5768 17.0644 16.9987 16.0039 17Z" fill="#01A254"/>
</svg>
