<svg width="29" height="30" viewBox="0 0 29 30" fill="none" xmlns="http://www.w3.org/2000/svg">
<path d="M14.4961 9.99787C11.8336 9.99787 9.6608 12.2456 9.6608 15C9.6608 17.7544 11.8336 20.0021 14.4961 20.0021C17.1586 20.0021 19.3314 17.7544 19.3314 15C19.3314 12.2456 17.1586 9.99787 14.4961 9.99787ZM28.9984 15C28.9984 12.9286 29.0165 10.876 28.9041 8.80832C28.7916 6.40669 28.262 4.27525 26.5644 2.51907C24.8632 0.759128 22.8064 0.215011 20.4849 0.098682C18.4826 -0.0176466 16.4984 0.00111617 14.4997 0.00111617C12.4974 0.00111617 10.5132 -0.0176466 8.51455 0.098682C6.19302 0.215011 4.13267 0.762881 2.43505 2.51907C0.73381 4.27901 0.20784 6.40669 0.0953909 8.80832C-0.017058 10.8797 0.00107894 12.9324 0.00107894 15C0.00107894 17.0676 -0.017058 19.124 0.0953909 21.1917C0.20784 23.5933 0.737438 25.7247 2.43505 27.4809C4.1363 29.2409 6.19302 29.785 8.51455 29.9013C10.5169 30.0176 12.501 29.9989 14.4997 29.9989C16.502 29.9989 18.4862 30.0176 20.4849 29.9013C22.8064 29.785 24.8668 29.2371 26.5644 27.4809C28.2657 25.721 28.7916 23.5933 28.9041 21.1917C29.0201 19.124 28.9984 17.0714 28.9984 15ZM14.4961 22.6964C10.379 22.6964 7.05634 19.2591 7.05634 15C7.05634 10.7409 10.379 7.30355 14.4961 7.30355C18.6132 7.30355 21.9359 10.7409 21.9359 15C21.9359 19.2591 18.6132 22.6964 14.4961 22.6964ZM22.2406 8.7858C21.2793 8.7858 20.503 7.98276 20.503 6.98834C20.503 5.99392 21.2793 5.19087 22.2406 5.19087C23.2018 5.19087 23.9781 5.99392 23.9781 6.98834C23.9784 7.22447 23.9336 7.45834 23.8464 7.67655C23.7592 7.89476 23.6312 8.09303 23.4698 8.26C23.3084 8.42697 23.1168 8.55936 22.9058 8.64958C22.6949 8.73981 22.4688 8.7861 22.2406 8.7858Z" fill="#01A254"/>
</svg>
