<svg width="41" height="40" viewBox="0 0 41 40" fill="none" xmlns="http://www.w3.org/2000/svg">
<path d="M33.3374 33.3334H6.67074C5.78668 33.3334 4.93883 32.9822 4.31371 32.3571C3.68859 31.732 3.3374 30.8841 3.3374 30.0001V9.85508C3.37479 8.9964 3.74242 8.18535 4.36353 7.59125C4.98465 6.99715 5.81124 6.66594 6.67074 6.66675H33.3374C34.2215 6.66675 35.0693 7.01794 35.6944 7.64306C36.3195 8.26818 36.6707 9.11603 36.6707 10.0001V30.0001C36.6707 30.8841 36.3195 31.732 35.6944 32.3571C35.0693 32.9822 34.2215 33.3334 33.3374 33.3334ZM6.67074 13.1134V30.0001H33.3374V13.1134L20.0041 22.0001L6.67074 13.1134ZM8.00407 10.0001L20.0041 18.0001L32.0041 10.0001H8.00407Z" fill="#01A254"/>
</svg>
