<svg width="33" height="32" viewBox="0 0 33 32" fill="none" xmlns="http://www.w3.org/2000/svg">
<path d="M27.6789 7.19375L24.3508 3.86875C24.116 3.63295 23.837 3.44586 23.5297 3.31822C23.2224 3.19058 22.8929 3.12492 22.5602 3.125C21.882 3.125 21.2445 3.39063 20.7664 3.86875L17.1852 7.45C16.9494 7.68477 16.7623 7.96382 16.6346 8.27111C16.507 8.5784 16.4413 8.90788 16.4414 9.24063C16.4414 9.91875 16.707 10.5563 17.1852 11.0344L19.8039 13.6531C19.1909 15.0043 18.3387 16.2334 17.2883 17.2812C16.2405 18.3342 15.0115 19.1895 13.6602 19.8062L11.0414 17.1875C10.8066 16.9517 10.5276 16.7646 10.2203 16.637C9.91301 16.5093 9.58353 16.4437 9.25078 16.4438C8.57266 16.4438 7.93516 16.7094 7.45703 17.1875L3.87266 20.7656C3.63657 21.0008 3.44931 21.2804 3.32167 21.5882C3.19403 21.8961 3.12852 22.2261 3.12891 22.5594C3.12891 23.2375 3.39453 23.875 3.87266 24.3531L7.19453 27.675C7.95703 28.4406 9.01016 28.875 10.0914 28.875C10.3195 28.875 10.5383 28.8563 10.7539 28.8188C14.9664 28.125 19.1445 25.8844 22.5164 22.5156C25.8852 19.15 28.1227 14.975 28.8258 10.75C29.0383 9.45937 28.6102 8.13125 27.6789 7.19375Z" fill="#01A254"/>
</svg>
