<svg width="30" height="32" viewBox="0 0 30 32" fill="none" xmlns="http://www.w3.org/2000/svg">
<g clip-path="url(#clip0_1_5211)">
<path fill-rule="evenodd" clip-rule="evenodd" d="M29.3125 7.93075C29.52 7.20275 29.3125 6.66675 28.3188 6.66675H25.0375C24.2025 6.66675 23.8175 7.12941 23.6087 7.64008C23.6087 7.64008 21.94 11.9014 19.5763 14.6694C18.8113 15.4721 18.4638 15.7267 18.0462 15.7267C17.8375 15.7267 17.5238 15.4721 17.5238 14.7427V7.93075C17.5238 7.05608 17.2938 6.66675 16.5988 6.66675H11.4388C10.9175 6.66675 10.6038 7.07208 10.6038 7.45741C10.6038 8.28541 11.7863 8.47741 11.9075 10.8081V15.8721C11.9075 16.9827 11.7162 17.1841 11.2987 17.1841C10.1862 17.1841 7.48 12.9027 5.87375 8.00408C5.5625 7.05075 5.2475 6.66675 4.40875 6.66675H1.125C0.1875 6.66675 0 7.12941 0 7.64008C0 8.54941 1.1125 13.0667 5.18125 19.0414C7.89375 23.1214 11.7125 25.3334 15.1912 25.3334C17.2775 25.3334 17.535 24.8427 17.535 23.9961V20.9121C17.535 19.9294 17.7325 19.7334 18.3937 19.7334C18.8813 19.7334 19.715 19.9894 21.6625 21.9561C23.8875 24.2881 24.2538 25.3334 25.5063 25.3334H28.7875C29.725 25.3334 30.195 24.8427 29.925 23.8721C29.6275 22.9067 28.565 21.5054 27.1562 19.8427C26.3913 18.8961 25.2437 17.8761 24.895 17.3654C24.4088 16.7107 24.5475 16.4187 24.895 15.8361C24.895 15.8361 28.895 9.93475 29.3112 7.93075H29.3125Z" fill="#01A254"/>
</g>
<defs>
<clipPath id="clip0_1_5211">
<rect width="30" height="32" fill="white"/>
</clipPath>
</defs>
</svg>
