<svg width="35" height="35" viewBox="0 0 35 35" fill="none" xmlns="http://www.w3.org/2000/svg">
<path d="M24.3872 20.5044C24.0146 20.313 22.1587 19.4038 21.8135 19.2808C21.4683 19.1509 21.2153 19.0894 20.9658 19.4722C20.7129 19.8516 19.9951 20.6958 19.7695 20.9521C19.5508 21.2051 19.3286 21.2358 18.9561 21.0479C16.7412 19.9404 15.2886 19.0723 13.8291 16.5669C13.4429 15.9004 14.2153 15.9482 14.9365 14.5093C15.0596 14.2563 14.998 14.041 14.9023 13.8496C14.8066 13.6582 14.0547 11.8057 13.7402 11.0503C13.436 10.3154 13.1216 10.418 12.8926 10.4043C12.6738 10.3906 12.4243 10.3906 12.1714 10.3906C11.9185 10.3906 11.5117 10.4863 11.1665 10.8589C10.8213 11.2383 9.84717 12.1509 9.84717 14.0034C9.84717 15.856 11.1973 17.6504 11.3818 17.9033C11.5732 18.1563 14.0376 21.957 17.8213 23.5942C20.2139 24.6265 21.1504 24.7153 22.3467 24.5376C23.0747 24.4282 24.5752 23.6284 24.8862 22.7432C25.1973 21.8613 25.1973 21.106 25.105 20.9487C25.0127 20.7813 24.7598 20.6855 24.3872 20.5044Z" fill="#01A254"/>
<path d="M31.6232 11.5664C30.8508 9.73096 29.7434 8.0835 28.3317 6.66846C26.9201 5.25684 25.2727 4.146 23.4338 3.37695C21.5539 2.5874 19.5578 2.1875 17.5002 2.1875H17.4318C15.3605 2.19775 13.3542 2.60791 11.4675 3.41455C9.6457 4.19385 8.01191 5.30127 6.61396 6.71289C5.21601 8.12451 4.11885 9.76514 3.36006 11.5938C2.57392 13.4873 2.17744 15.5005 2.18769 17.5718C2.19795 19.9438 2.76533 22.2988 3.82832 24.4043V29.5996C3.82832 30.4678 4.53242 31.1719 5.40058 31.1719H10.5993C12.7048 32.2349 15.0598 32.8022 17.4318 32.8125H17.5036C19.551 32.8125 21.5368 32.416 23.4064 31.6401C25.2351 30.8779 26.8791 29.7842 28.2873 28.3862C29.6989 26.9883 30.8098 25.3545 31.5856 23.5327C32.3923 21.646 32.8024 19.6396 32.8127 17.5684C32.8229 15.4868 32.4196 13.4668 31.6232 11.5664ZM26.4587 26.5371C24.0627 28.9092 20.884 30.2148 17.5002 30.2148H17.4421C15.3811 30.2046 13.3337 29.6919 11.5256 28.728L11.2385 28.5742H6.42598V23.7617L6.27217 23.4746C5.3083 21.6665 4.7956 19.6191 4.78535 17.5581C4.77168 14.1504 6.07392 10.9512 8.46308 8.5415C10.8488 6.13184 14.0378 4.79883 17.4455 4.78516H17.5036C19.2126 4.78516 20.8703 5.1167 22.4323 5.77295C23.9567 6.41211 25.3239 7.33154 26.4997 8.50732C27.6721 9.67969 28.5949 11.0503 29.2341 12.5747C29.8972 14.1538 30.2287 15.8286 30.2219 17.5581C30.2014 20.9624 28.8649 24.1514 26.4587 26.5371Z" fill="#01A254"/>
</svg>
