<svg width="41" height="41" viewBox="0 0 41 41" fill="none" xmlns="http://www.w3.org/2000/svg">
<path d="M20.4998 34.1667C24.1245 34.1667 27.6006 32.7269 30.1636 30.1639C32.7266 27.6009 34.1665 24.1247 34.1665 20.5001C34.1665 16.8755 32.7266 13.3993 30.1636 10.8363C27.6006 8.27329 24.1245 6.83341 20.4998 6.83341C16.8752 6.83341 13.399 8.27329 10.836 10.8363C8.27305 13.3993 6.83317 16.8755 6.83317 20.5001C6.83317 24.1247 8.27305 27.6009 10.836 30.1639C13.399 32.7269 16.8752 34.1667 20.4998 34.1667ZM20.4998 37.5834C11.0647 37.5834 3.4165 29.9352 3.4165 20.5001C3.4165 11.065 11.0647 3.41675 20.4998 3.41675C29.935 3.41675 37.5832 11.065 37.5832 20.5001C37.5832 29.9352 29.935 37.5834 20.4998 37.5834Z" fill="#01A254"/>
<path d="M26.7252 19.4819C26.7457 16.933 24.6428 14.596 22.0376 14.2732L21.8667 14.2475C21.7361 14.2216 21.6035 14.2067 21.4704 14.2031C20.9357 14.2031 20.7939 14.5892 20.7563 14.8198C20.735 14.9156 20.7331 15.0147 20.7507 15.1112C20.7683 15.2078 20.8051 15.2998 20.8588 15.3819C21.0365 15.6296 21.3474 15.6723 21.5968 15.7099C21.6703 15.7201 21.7403 15.7287 21.7967 15.744C24.1388 16.2822 24.9281 17.1312 25.3124 19.528C25.3227 19.5878 25.3261 19.6595 25.3295 19.7364C25.3466 20.0217 25.3825 20.6179 26.0043 20.6179C26.0556 20.6179 26.1102 20.6145 26.1683 20.6042C26.7474 20.5137 26.7287 19.9688 26.7201 19.7074C26.7158 19.6442 26.7158 19.5809 26.7201 19.5178C26.722 19.5064 26.7231 19.495 26.7235 19.4836L26.7252 19.4819Z" fill="#01A254"/>
<path d="M21.3197 13.3371C21.388 13.3422 21.4563 13.3473 21.5093 13.3559C25.353 13.9675 27.1229 15.8466 27.6132 19.8476C27.6217 19.9159 27.6217 19.9979 27.6234 20.0867C27.6285 20.3993 27.6388 21.0485 28.3153 21.0622H28.3358C28.4287 21.0671 28.5215 21.0521 28.6082 21.0183C28.6948 20.9844 28.7732 20.9324 28.838 20.8657C29.0482 20.6385 29.0345 20.302 29.0225 20.0286C29.0191 19.9637 29.0157 19.9005 29.0174 19.8458C29.0652 15.7544 25.6349 12.0439 21.675 11.9072L21.6272 11.9089C21.6119 11.9112 21.5965 11.9123 21.581 11.9123C21.5417 11.9123 21.4922 11.9089 21.4409 11.9055C21.3728 11.8993 21.3044 11.8959 21.2359 11.8953C20.6056 11.8953 20.486 12.3565 20.4706 12.6333C20.4364 13.2705 21.0327 13.3166 21.3197 13.3371ZM27.427 25.017C27.3447 24.9525 27.2633 24.887 27.1827 24.8205C26.7624 24.472 26.3148 24.1508 25.8843 23.8399C25.7942 23.7752 25.7043 23.7102 25.6144 23.6452C25.0609 23.2454 24.5638 23.049 24.094 23.049C23.4619 23.049 22.9101 23.4111 22.454 24.1235C22.2524 24.4378 22.0064 24.5916 21.7057 24.5916C21.4958 24.5841 21.2901 24.5311 21.1027 24.4361C19.3175 23.5991 18.0414 22.3178 17.3119 20.6266C16.96 19.8066 17.0727 19.2736 17.6946 18.8379C18.0465 18.5919 18.7025 18.1324 18.6564 17.2526C18.6051 16.2532 16.468 13.2466 15.5677 12.9049C15.1837 12.76 14.7602 12.7587 14.3753 12.9015C13.3417 13.2602 12.5986 13.8923 12.2279 14.7243C11.8692 15.5306 11.8862 16.4753 12.2757 17.4593C13.3981 20.3054 14.9749 22.7859 16.9668 24.8325C18.9143 26.8363 21.3094 28.4763 24.0837 29.7098C24.3332 29.8208 24.5962 29.8806 24.7876 29.925L24.9499 29.966C24.9721 29.9724 24.9951 29.9758 25.0182 29.9763H25.0404C26.3456 29.9763 27.9121 28.7463 28.3939 27.342C28.8158 26.112 28.0454 25.5056 27.427 25.0187V25.017ZM21.8971 16.5881C21.675 16.5932 21.2086 16.6051 21.0446 17.0937C20.9694 17.3226 20.978 17.5208 21.0719 17.6831C21.2103 17.9223 21.4768 17.9957 21.7177 18.035C22.5924 18.1802 23.0434 18.6808 23.1322 19.6067C23.1749 20.0406 23.4568 20.3413 23.8189 20.3413C23.8463 20.3418 23.8737 20.3407 23.9009 20.3378C24.3366 20.2832 24.5467 19.9535 24.5279 19.3556C24.5347 18.7303 24.2187 18.0231 23.6806 17.4593C23.1407 16.8921 22.4899 16.5727 21.8971 16.5881Z" fill="#01A254"/>
</svg>
