<svg width="19" height="17" viewBox="0 0 19 17" fill="none" xmlns="http://www.w3.org/2000/svg">
<path d="M2.5379 0H14.4624C14.7698 0 15.019 0.222992 15.019 0.498047V16.502C15.019 16.7034 14.8834 16.885 14.6754 16.9621C14.6065 16.9876 14.5342 17 14.4625 17C14.3176 17 14.1753 16.9494 14.0688 16.8541L8.50004 11.8716L2.93152 16.8541C2.77232 16.9965 2.53289 17.0391 2.32489 16.9621C2.11689 16.885 1.98126 16.7034 1.98126 16.502V0.498047C1.98126 0.222992 2.23048 0 2.5379 0ZM8.50008 10.6692C8.6477 10.6692 8.78927 10.7217 8.89366 10.8151L13.9058 15.2996V0.996094H3.09458V15.2995L8.10646 10.8151C8.21084 10.7217 8.35242 10.6692 8.50008 10.6692Z" fill="#565656"/>
</svg>
