<svg width="17" height="17" viewBox="0 0 17 17" fill="none" xmlns="http://www.w3.org/2000/svg">
<path d="M17 17H16.4333C14.1042 16.9999 11.8531 16.1602 10.0929 14.6348L9.49691 14.1183C9.16558 14.1505 8.83289 14.1666 8.5 14.1667C6.25009 14.1667 4.13012 13.4431 2.53059 12.1292C0.898698 10.7887 0 8.99672 0 7.08333C0 5.16995 0.898698 3.37794 2.53059 2.03749C4.13012 0.723598 6.25009 0 8.5 0C10.7499 0 12.8699 0.723598 14.4694 2.03749C16.1013 3.37794 17 5.16995 17 7.08333C16.9992 8.10044 16.7425 9.10099 16.2535 9.99285C15.8291 10.7696 15.2638 11.4606 14.5866 12.0306C15.0927 13.3175 15.8576 14.4868 16.834 15.466L17 15.632V17ZM9.86198 12.9349L10.8351 13.7784C12.1773 14.9415 13.8485 15.6577 15.6164 15.8276C14.6409 14.7372 13.8876 13.467 13.3987 12.0882L13.243 11.6468L13.5692 11.3964C15.0508 10.2594 15.8667 8.72769 15.8667 7.08333C15.8667 3.80248 12.562 1.13333 8.5 1.13333C4.43803 1.13333 1.13333 3.80248 1.13333 7.08333C1.13333 10.3642 4.43803 13.0333 8.5 13.0333C8.87173 13.0333 9.2431 13.0107 9.61208 12.9656L9.86198 12.9349Z" fill="#565656"/>
</svg>
