<svg width="18" height="19" viewBox="0 0 18 19" fill="none" xmlns="http://www.w3.org/2000/svg">
<path d="M8.99998 17.943C8.74373 17.943 8.49667 17.845 8.30414 17.667C7.57698 16.9958 6.87592 16.3651 6.25739 15.8087L6.25423 15.8058C4.4408 14.1746 2.87484 12.7659 1.78528 11.3782C0.567306 9.82688 0 8.35599 0 6.74912C0 5.18792 0.507155 3.74761 1.42795 2.69333C2.35972 1.62658 3.63825 1.03906 5.02843 1.03906C6.06746 1.03906 7.01901 1.3858 7.85658 2.06957C8.27928 2.41472 8.66243 2.83713 8.99998 3.32984C9.33768 2.83713 9.72069 2.41472 10.1435 2.06957C10.9811 1.3858 11.9326 1.03906 12.9717 1.03906C14.3617 1.03906 15.6404 1.62658 16.5722 2.69333C17.4929 3.74761 18 5.18792 18 6.74912C18 8.35599 17.4328 9.82688 16.2148 11.3781C15.1253 12.7659 13.5594 14.1745 11.7463 15.8055C11.1267 16.3628 10.4245 16.9945 9.69569 17.6673C9.50329 17.845 9.2561 17.943 8.99998 17.943ZM5.02843 2.15205C3.93626 2.15205 2.93293 2.61215 2.20303 3.44769C1.46228 4.29585 1.05427 5.46827 1.05427 6.74912C1.05427 8.10057 1.53012 9.30923 2.59703 10.6681C3.62823 11.9815 5.16205 13.3613 6.93799 14.9588L6.94129 14.9617C7.56215 15.5203 8.26596 16.1535 8.99847 16.8295C9.73538 16.1521 10.4403 15.518 11.0624 14.9586C12.8382 13.361 14.3719 11.9815 15.4031 10.6681C16.4698 9.30923 16.9457 8.10057 16.9457 6.74912C16.9457 5.46827 16.5377 4.29585 15.7969 3.44769C15.0672 2.61215 14.0637 2.15205 12.9717 2.15205C12.1716 2.15205 11.437 2.42052 10.7884 2.94991C10.2104 3.42189 9.80775 4.01854 9.57168 4.43602C9.45028 4.6507 9.2366 4.77885 8.99998 4.77885C8.76337 4.77885 8.54968 4.6507 8.42828 4.43602C8.19235 4.01854 7.7897 3.42189 7.21155 2.94991C6.56295 2.42052 5.82837 2.15205 5.02843 2.15205Z" fill="#565656"/>
</svg>
