<svg width="20" height="18" viewBox="0 0 20 18" fill="none" xmlns="http://www.w3.org/2000/svg">
<path d="M19.4223 0.146243C19.258 0.00945196 19.0138 -0.0298672 18.8018 0.0461699L0.450769 6.62607C0.240798 6.70136 0.101948 6.87549 0.0965937 7.07018C0.0912771 7.26484 0.220543 7.44333 0.426199 7.52538L7.74069 10.4435L11.3557 16.6227C11.4543 16.7912 11.6566 16.8956 11.8758 16.8925C11.8826 16.8924 11.8895 16.8922 11.8963 16.8919C12.1233 16.8817 12.3226 16.7579 12.4044 16.5759L19.5568 0.674654C19.6395 0.490832 19.5866 0.283002 19.4223 0.146243ZM2.0901 7.10261L16.6577 1.87929L8.03954 9.47612L2.0901 7.10261ZM11.8013 15.1859L8.86097 10.1598L17.4792 2.56298L11.8013 15.1859Z" fill="#565656"/>
</svg>
