<svg width="22" height="13" viewBox="0 0 22 13" fill="none" xmlns="http://www.w3.org/2000/svg">
<path fill-rule="evenodd" clip-rule="evenodd" d="M21.4954 0.880286C21.6475 0.373286 21.4954 0 20.7666 0H18.3604C17.7481 0 17.4658 0.322214 17.3127 0.677857C17.3127 0.677857 16.089 3.64557 14.3556 5.57329C13.7946 6.13229 13.5398 6.30964 13.2336 6.30964C13.0806 6.30964 12.8505 6.13229 12.8505 5.62436V0.880286C12.8505 0.271143 12.6818 0 12.1722 0H8.38824C8.006 0 7.77592 0.282286 7.77592 0.550643C7.77592 1.12729 8.64307 1.261 8.73198 2.88414V6.41086C8.73198 7.18436 8.59174 7.32457 8.28558 7.32457C7.46976 7.32457 5.48522 4.34293 4.30733 0.931357C4.07908 0.267428 3.84809 0 3.23302 0H0.824983C0.137497 0 0 0.322214 0 0.677857C0 1.31114 0.815816 4.45714 3.7995 8.61807C5.78863 11.4595 8.58899 13 11.14 13C12.6699 13 12.8587 12.6583 12.8587 12.0686V9.92086C12.8587 9.2365 13.0036 9.1 13.4885 9.1C13.846 9.1 14.4574 9.27829 15.8855 10.6479C17.5171 12.272 17.7857 13 18.7042 13H21.1104C21.7979 13 22.1425 12.6583 21.9445 11.9823C21.7264 11.31 20.9472 10.3341 19.9142 9.17614C19.3532 8.51686 18.5117 7.8065 18.256 7.45086C17.8994 6.99493 18.0011 6.79157 18.256 6.38579C18.256 6.38579 21.1892 2.27593 21.4945 0.880286H21.4954Z" fill="black"/>
</svg>
