<svg width="19" height="20" viewBox="0 0 19 20" fill="none" xmlns="http://www.w3.org/2000/svg">
<path d="M9.5 0C4.25125 0 0 4.38693 0 9.80319C0 11.9599 0.665 13.945 1.805 15.5626L0.49875 19.1162L4.275 17.9889C5.77125 19.0182 7.57625 19.6064 9.5 19.6064C14.7487 19.6064 19 15.2195 19 9.80319C19 4.38693 14.7487 0 9.5 0ZM14.5588 13.8715L13.5375 14.9009C12.4688 16.0037 9.6425 14.8028 7.14875 12.205C4.655 9.63164 3.53875 6.71519 4.53625 5.63684L5.5575 4.58299C5.9375 4.19086 6.57875 4.19086 6.9825 4.58299L8.47875 6.127C9.00125 6.66617 8.7875 7.59747 8.09875 7.81805C7.62375 7.9896 7.29125 8.52878 7.4575 9.01894C7.71875 10.1708 9.1675 11.5923 10.2362 11.8619C10.7112 11.9844 11.2575 11.6903 11.4 11.2001C11.6137 10.4894 12.5163 10.2688 13.0388 10.808L14.535 12.352C14.915 12.7687 14.915 13.4304 14.5588 13.8715Z" fill="black"/>
</svg>
