<svg width="15" height="19" viewBox="0 0 15 19" fill="none" xmlns="http://www.w3.org/2000/svg">
<path fill-rule="evenodd" clip-rule="evenodd" d="M2.95554 2.92132C3.55076 2.3305 4.2587 1.86149 5.03863 1.54129C5.81856 1.22109 6.65507 1.05602 7.5 1.05558C9.20357 1.05558 10.8386 1.72588 12.0445 2.92132C13.2522 4.12002 13.9295 5.74075 13.9286 7.42971C13.9286 10.3463 12.2871 12.9863 10.5771 14.9354C9.85654 15.7528 9.07528 16.5164 8.23982 17.2197C7.99827 17.4238 7.75158 17.622 7.5 17.814C7.24853 17.6219 7.00184 17.4237 6.76018 17.2197C5.92472 16.5164 5.14346 15.7528 4.42286 14.9354C2.71286 12.9863 1.07143 10.3463 1.07143 7.42971C1.07143 5.73814 1.74964 4.11677 2.95554 2.92132ZM7.19143 18.9039L7.5 18.4727L7.80857 18.9039C7.7182 18.9664 7.61044 19 7.5 19C7.38956 19 7.2818 18.9664 7.19143 18.9039ZM7.19143 18.9039L7.5 18.4727L7.80857 18.9039L7.81072 18.9028L7.81607 18.8991L7.83214 18.887L7.89536 18.8421C7.94893 18.8031 8.02714 18.7461 8.12571 18.6711C8.32286 18.5223 8.6025 18.3033 8.93625 18.0219C9.81236 17.2842 10.6316 16.4832 11.3871 15.6258C13.1593 13.6064 15 10.7242 15 7.42918C15 5.46052 14.2104 3.57103 12.8046 2.17767C12.1098 1.48805 11.2835 0.94062 10.3731 0.566887C9.46268 0.193154 8.48626 0.000495245 7.5 0C6.51378 0.000426109 5.53738 0.193002 4.62699 0.566644C3.7166 0.940285 2.89021 1.48762 2.19536 2.17714C0.788263 3.57369 -0.000944474 5.46194 8.48259e-07 7.42971C8.48259e-07 10.7242 1.84071 13.6064 3.61286 15.6258C4.36841 16.4832 5.18764 17.2842 6.06375 18.0219C6.39804 18.3033 6.67714 18.5223 6.87429 18.6711C6.97098 18.7445 7.06867 18.8167 7.16732 18.8875L7.18446 18.8991L7.18929 18.9028L7.19143 18.9039ZM5.35714 7.38907C5.35714 6.82916 5.58291 6.29217 5.98477 5.89626C6.38664 5.50034 6.93168 5.27791 7.5 5.27791C8.06832 5.27791 8.61337 5.50034 9.01523 5.89626C9.41709 6.29217 9.64286 6.82916 9.64286 7.38907C9.64286 7.94899 9.41709 8.48597 9.01523 8.88189C8.61337 9.27781 8.06832 9.50024 7.5 9.50024C6.93168 9.50024 6.38664 9.27781 5.98477 8.88189C5.58291 8.48597 5.35714 7.94899 5.35714 7.38907ZM7.5 4.22233C6.64752 4.22233 5.82995 4.55597 5.22716 5.14985C4.62436 5.74373 4.28572 6.5492 4.28572 7.38907C4.28572 8.22895 4.62436 9.03442 5.22716 9.6283C5.82995 10.2222 6.64752 10.5558 7.5 10.5558C8.35248 10.5558 9.17005 10.2222 9.77284 9.6283C10.3756 9.03442 10.7143 8.22895 10.7143 7.38907C10.7143 6.5492 10.3756 5.74373 9.77284 5.14985C9.17005 4.55597 8.35248 4.22233 7.5 4.22233Z" fill="white"/>
</svg>
