<svg width="158" height="77" viewBox="0 0 158 77" fill="none" xmlns="http://www.w3.org/2000/svg">
<g filter="url(#filter0_d_85_3)">
<path d="M38.518 39.484C38.5753 39.484 38.604 39.57 38.604 39.742C38.604 39.914 38.5753 40 38.518 40C37.572 40 36.8123 39.9857 36.239 39.957L33.143 39.914L30.133 39.957C29.617 39.9857 28.886 40 27.94 40C27.8827 40 27.854 39.914 27.854 39.742C27.854 39.57 27.8827 39.484 27.94 39.484C29.2013 39.484 30.047 39.3407 30.477 39.054C30.907 38.7673 31.122 38.1653 31.122 37.248L31.079 36.517L30.219 18.285L21.06 39.699C21.0027 39.8137 20.888 39.871 20.716 39.871C20.5727 39.871 20.4437 39.8137 20.329 39.699L9.579 18.457L9.192 34.797C9.16333 36.3163 9.45 37.4773 10.052 38.28C10.6827 39.0827 11.6143 39.484 12.847 39.484C12.933 39.484 12.976 39.57 12.976 39.742C12.976 39.914 12.933 40 12.847 40C12.073 40 11.471 39.9857 11.041 39.957L8.676 39.914L6.139 39.957C5.709 39.9857 5.107 40 4.333 40C4.247 40 4.204 39.914 4.204 39.742C4.204 39.57 4.247 39.484 4.333 39.484C5.50833 39.484 6.41133 39.0827 7.042 38.28C7.70133 37.4773 8.04533 36.3163 8.074 34.797L8.461 16.307C7.945 15.3897 7.37167 14.716 6.741 14.286C6.139 13.856 5.43667 13.641 4.634 13.641C4.548 13.641 4.505 13.555 4.505 13.383C4.505 13.211 4.548 13.125 4.634 13.125L6.483 13.168C6.85567 13.1967 7.343 13.211 7.945 13.211L9.966 13.168C10.1953 13.1393 10.482 13.125 10.826 13.125C11.1987 13.125 11.4997 13.2683 11.729 13.555C11.9583 13.813 12.3167 14.415 12.804 15.361L22.264 33.808L30.821 14.2C30.993 13.7987 31.1793 13.5263 31.38 13.383C31.5807 13.211 31.8243 13.125 32.111 13.125C32.3117 13.125 32.5697 13.1393 32.885 13.168C33.2003 13.1967 33.5873 13.211 34.046 13.211L36.368 13.168C36.7407 13.1393 37.2997 13.125 38.045 13.125C38.1023 13.125 38.131 13.211 38.131 13.383C38.131 13.555 38.1023 13.641 38.045 13.641C36.669 13.641 35.6657 13.899 35.035 14.415C34.433 14.9023 34.1607 15.7193 34.218 16.866L35.207 36.517C35.2643 37.4057 35.3647 38.0507 35.508 38.452C35.68 38.8533 35.981 39.1257 36.411 39.269C36.841 39.4123 37.5433 39.484 38.518 39.484ZM55.8732 37.291C55.9305 37.291 55.9879 37.3483 56.0452 37.463C56.1312 37.5777 56.1455 37.6637 56.0882 37.721C55.0562 38.6957 54.0099 39.4123 52.9492 39.871C51.8885 40.301 50.7275 40.516 49.4662 40.516C47.6889 40.516 46.1552 40.1433 44.8652 39.398C43.6039 38.624 42.6292 37.6063 41.9412 36.345C41.2819 35.055 40.9522 33.679 40.9522 32.217C40.9522 30.5257 41.3679 28.9777 42.1992 27.573C43.0592 26.1683 44.2202 25.0647 45.6822 24.262C47.1729 23.4307 48.8069 23.015 50.5842 23.015C52.2755 23.015 53.5799 23.402 54.4972 24.176C55.4145 24.9213 55.8732 25.9533 55.8732 27.272C55.8732 28.046 55.7155 28.433 55.4002 28.433H53.0352L44.9512 28.519C44.8652 29.121 44.8222 29.766 44.8222 30.454C44.8222 32.948 45.3955 34.9403 46.5422 36.431C47.7175 37.893 49.3372 38.624 51.4012 38.624C52.1465 38.624 52.9062 38.5237 53.6802 38.323C54.4542 38.0937 55.1565 37.764 55.7872 37.334L55.8732 37.291ZM49.0362 23.875C48.0902 23.875 47.2732 24.219 46.5852 24.907C45.8972 25.595 45.4099 26.541 45.1232 27.745L51.8312 27.616C51.7739 26.4407 51.5159 25.5233 51.0572 24.864C50.5985 24.2047 49.9249 23.875 49.0362 23.875ZM70.9679 22.843C72.2292 22.843 73.3902 23.144 74.4509 23.746C75.5402 24.348 76.4002 25.251 77.0309 26.455C77.6902 27.659 78.0199 29.121 78.0199 30.841C78.0199 32.905 77.5756 34.668 76.6869 36.13C75.8269 37.592 74.6802 38.6957 73.2469 39.441C71.8135 40.1863 70.2942 40.559 68.6889 40.559C66.4529 40.559 64.4462 39.8997 62.6689 38.581L59.0139 40.258H58.9279C58.8132 40.258 58.7415 40.2007 58.7129 40.086C58.6842 40 58.7129 39.9283 58.7989 39.871C59.5729 39.3837 60.1319 38.8247 60.4759 38.194C60.8485 37.5347 61.0349 36.6603 61.0349 35.571V14.544C61.0349 13.5407 60.9345 12.824 60.7339 12.394C60.5332 11.9353 60.1892 11.706 59.7019 11.706C59.3579 11.706 58.7989 11.878 58.0249 12.222H57.9819C57.8672 12.222 57.7812 12.1503 57.7239 12.007C57.6665 11.8637 57.6665 11.7633 57.7239 11.706L63.7009 8.868L63.9159 8.825C64.0305 8.825 64.1595 8.88233 64.3029 8.997C64.4462 9.11167 64.5179 9.212 64.5179 9.298V26.025C65.4639 25.0503 66.4529 24.2763 67.4849 23.703C68.5169 23.1297 69.6779 22.843 70.9679 22.843ZM69.8069 39.699C71.2116 39.699 72.2866 39.0683 73.0319 37.807C73.7772 36.5457 74.1499 34.754 74.1499 32.432C74.1499 29.9093 73.6912 28.0173 72.7739 26.756C71.8852 25.466 70.6812 24.821 69.1619 24.821C67.6999 24.821 66.1519 25.4803 64.5179 26.799V33.378C64.5179 34.8687 64.7902 36.087 65.3349 37.033C65.9082 37.979 66.5962 38.667 67.3989 39.097C68.2302 39.4983 69.0329 39.699 69.8069 39.699ZM95.8078 37.291C95.8651 37.291 95.9224 37.3483 95.9798 37.463C96.0658 37.5777 96.0801 37.6637 96.0228 37.721C94.9908 38.6957 93.9444 39.4123 92.8838 39.871C91.8231 40.301 90.6621 40.516 89.4008 40.516C87.6234 40.516 86.0898 40.1433 84.7998 39.398C83.5384 38.624 82.5638 37.6063 81.8758 36.345C81.2164 35.055 80.8868 33.679 80.8868 32.217C80.8868 30.5257 81.3024 28.9777 82.1338 27.573C82.9938 26.1683 84.1548 25.0647 85.6168 24.262C87.1074 23.4307 88.7414 23.015 90.5188 23.015C92.2101 23.015 93.5144 23.402 94.4318 24.176C95.3491 24.9213 95.8078 25.9533 95.8078 27.272C95.8078 28.046 95.6501 28.433 95.3348 28.433H92.9698L84.8858 28.519C84.7998 29.121 84.7568 29.766 84.7568 30.454C84.7568 32.948 85.3301 34.9403 86.4768 36.431C87.6521 37.893 89.2718 38.624 91.3358 38.624C92.0811 38.624 92.8408 38.5237 93.6148 38.323C94.3888 38.0937 95.0911 37.764 95.7218 37.334L95.8078 37.291ZM88.9708 23.875C88.0248 23.875 87.2078 24.219 86.5198 24.907C85.8318 25.595 85.3444 26.541 85.0578 27.745L91.7658 27.616C91.7084 26.4407 91.4504 25.5233 90.9918 24.864C90.5331 24.2047 89.8594 23.875 88.9708 23.875ZM98.9055 40C98.8195 40 98.7765 39.914 98.7765 39.742C98.7765 39.57 98.8195 39.484 98.9055 39.484C99.8515 39.484 100.496 39.2833 100.84 38.882C101.184 38.452 101.356 37.6637 101.356 36.517V14.544C101.356 13.5407 101.256 12.824 101.055 12.394C100.883 11.9353 100.554 11.706 100.066 11.706C99.6365 11.706 99.0631 11.878 98.3465 12.222H98.3035C98.1888 12.222 98.1028 12.1503 98.0455 12.007C97.9881 11.8637 97.9881 11.7633 98.0455 11.706L104.108 8.868L104.28 8.825C104.395 8.825 104.524 8.88233 104.667 8.997C104.839 9.11167 104.925 9.212 104.925 9.298V36.517C104.925 37.6923 105.083 38.4807 105.398 38.882C105.714 39.2833 106.359 39.484 107.333 39.484C107.419 39.484 107.462 39.57 107.462 39.742C107.462 39.914 107.419 40 107.333 40C106.645 40 106.086 39.9857 105.656 39.957L103.119 39.914L100.625 39.957C100.195 39.9857 99.6221 40 98.9055 40ZM110.285 40C110.199 40 110.156 39.914 110.156 39.742C110.156 39.57 110.199 39.484 110.285 39.484C111.231 39.484 111.876 39.2833 112.22 38.882C112.564 38.452 112.736 37.6637 112.736 36.517V14.544C112.736 13.5407 112.636 12.824 112.435 12.394C112.263 11.9353 111.934 11.706 111.446 11.706C111.016 11.706 110.443 11.878 109.726 12.222H109.683C109.569 12.222 109.483 12.1503 109.425 12.007C109.368 11.8637 109.368 11.7633 109.425 11.706L115.488 8.868L115.66 8.825C115.775 8.825 115.904 8.88233 116.047 8.997C116.219 9.11167 116.305 9.212 116.305 9.298V36.517C116.305 37.6923 116.463 38.4807 116.778 38.882C117.094 39.2833 117.739 39.484 118.713 39.484C118.799 39.484 118.842 39.57 118.842 39.742C118.842 39.914 118.799 40 118.713 40C118.025 40 117.466 39.9857 117.036 39.957L114.499 39.914L112.005 39.957C111.575 39.9857 111.002 40 110.285 40ZM121.966 40C121.88 40 121.837 39.914 121.837 39.742C121.837 39.57 121.88 39.484 121.966 39.484C122.941 39.484 123.586 39.2833 123.901 38.882C124.217 38.4807 124.374 37.6923 124.374 36.517V28.691C124.374 27.7163 124.274 27.014 124.073 26.584C123.873 26.1253 123.529 25.896 123.041 25.896C122.611 25.896 122.052 26.068 121.364 26.412H121.321C121.207 26.412 121.121 26.3403 121.063 26.197C121.006 26.0537 121.02 25.9533 121.106 25.896L127.298 23.015L127.427 22.972C127.542 22.972 127.657 23.0437 127.771 23.187C127.915 23.3017 127.986 23.402 127.986 23.488V24.391C127.929 25.595 127.9 27.014 127.9 28.648V36.517C127.9 37.6923 128.058 38.4807 128.373 38.882C128.717 39.2833 129.377 39.484 130.351 39.484C130.437 39.484 130.48 39.57 130.48 39.742C130.48 39.914 130.437 40 130.351 40C129.635 40 129.061 39.9857 128.631 39.957L126.137 39.914L123.643 39.957C123.242 39.9857 122.683 40 121.966 40ZM125.922 18.457C125.177 18.457 124.589 18.2563 124.159 17.855C123.758 17.4537 123.557 16.8803 123.557 16.135C123.557 15.4183 123.758 14.8737 124.159 14.501C124.589 14.0997 125.177 13.899 125.922 13.899C126.639 13.899 127.198 14.0997 127.599 14.501C128.001 14.8737 128.201 15.4183 128.201 16.135C128.201 16.8803 128.001 17.4537 127.599 17.855C127.227 18.2563 126.668 18.457 125.922 18.457ZM153.168 39.484C153.254 39.484 153.297 39.57 153.297 39.742C153.297 39.914 153.254 40 153.168 40C152.451 40 151.892 39.9857 151.491 39.957L148.997 39.914L146.546 39.957C146.116 39.9857 145.543 40 144.826 40C144.74 40 144.697 39.914 144.697 39.742C144.697 39.57 144.74 39.484 144.826 39.484C145.801 39.484 146.446 39.2833 146.761 38.882C147.076 38.4807 147.234 37.6923 147.234 36.517V30.067C147.234 28.4617 146.933 27.2863 146.331 26.541C145.758 25.767 144.84 25.38 143.579 25.38C142.834 25.38 142.074 25.552 141.3 25.896C140.526 26.24 139.824 26.6987 139.193 27.272V36.517C139.193 37.6923 139.351 38.4807 139.666 38.882C139.981 39.2833 140.626 39.484 141.601 39.484C141.687 39.484 141.73 39.57 141.73 39.742C141.73 39.914 141.687 40 141.601 40C140.884 40 140.325 39.9857 139.924 39.957L137.43 39.914L134.936 39.957C134.535 39.9857 133.976 40 133.259 40C133.173 40 133.13 39.914 133.13 39.742C133.13 39.57 133.173 39.484 133.259 39.484C134.234 39.484 134.879 39.2833 135.194 38.882C135.509 38.4807 135.667 37.6923 135.667 36.517V28.304C135.667 27.3867 135.552 26.713 135.323 26.283C135.122 25.853 134.778 25.638 134.291 25.638C133.861 25.638 133.144 25.853 132.141 26.283H132.098C131.983 26.283 131.897 26.2113 131.84 26.068C131.783 25.9247 131.797 25.8387 131.883 25.81L137.516 23.058C137.688 23.0007 137.788 22.972 137.817 22.972C138.104 22.972 138.39 23.3017 138.677 23.961C138.992 24.5917 139.164 25.423 139.193 26.455C141.2 24.0757 143.378 22.886 145.729 22.886C147.306 22.886 148.538 23.3733 149.427 24.348C150.316 25.294 150.76 26.584 150.76 28.218V36.517C150.76 37.6923 150.918 38.4807 151.233 38.882C151.548 39.2833 152.193 39.484 153.168 39.484Z" fill="white"/>
<path d="M18.834 61.625H19.0684L21.2305 68H20.375L18.7988 63.3066L16.3496 68H16.1973L13.7422 63.3066L12.1719 68H11.3164L13.4902 61.625H13.7129L16.2793 66.6113L18.834 61.625ZM30.2281 65.8848L30.9195 66.248C30.693 66.6934 30.4312 67.0527 30.1344 67.3262C29.8375 67.5996 29.5035 67.8086 29.1324 67.9531C28.7613 68.0938 28.3414 68.1641 27.8727 68.1641C26.8336 68.1641 26.0211 67.8242 25.4352 67.1445C24.8492 66.4609 24.5562 65.6895 24.5562 64.8301C24.5562 64.0215 24.8043 63.3008 25.3004 62.668C25.9293 61.8633 26.7711 61.4609 27.8258 61.4609C28.9117 61.4609 29.7789 61.873 30.4273 62.6973C30.8883 63.2793 31.1227 64.0059 31.1305 64.877H25.4C25.4156 65.6191 25.652 66.2285 26.109 66.7051C26.566 67.1777 27.1305 67.4141 27.8023 67.4141C28.1266 67.4141 28.441 67.3574 28.7457 67.2441C29.0543 67.1309 29.316 66.9805 29.5309 66.793C29.7457 66.6055 29.9781 66.3027 30.2281 65.8848ZM30.2281 64.168C30.1187 63.7305 29.9586 63.3809 29.7477 63.1191C29.5406 62.8574 29.2652 62.6465 28.9215 62.4863C28.5777 62.3262 28.2164 62.2461 27.8375 62.2461C27.2125 62.2461 26.6754 62.4473 26.2262 62.8496C25.898 63.1426 25.65 63.582 25.482 64.168H30.2281ZM41.1652 59.0293V59.8145C40.7746 59.8809 40.1047 59.9277 39.1555 59.9551C38.468 59.9785 37.9367 60.0254 37.5617 60.0957C37.1906 60.1621 36.8664 60.293 36.5891 60.4883C36.3117 60.6797 36.0773 60.9727 35.8859 61.3672C35.6984 61.7578 35.5812 62.1953 35.5344 62.6797L35.4523 63.5762C35.675 62.8457 36.0402 62.3105 36.548 61.9707C37.0598 61.6309 37.6262 61.4609 38.2473 61.4609C39.1926 61.4609 39.9816 61.793 40.6145 62.457C41.2512 63.1211 41.5695 63.9121 41.5695 64.8301C41.5695 65.7402 41.2531 66.5234 40.6203 67.1797C39.9875 67.8359 39.1965 68.1641 38.2473 68.1641C37.2746 68.1641 36.4504 67.8008 35.7746 67.0742C35.0988 66.3477 34.7609 65.2031 34.7609 63.6406C34.7609 62.5508 34.884 61.7266 35.1301 61.168C35.3801 60.6055 35.6652 60.2012 35.9855 59.9551C36.3059 59.709 36.7199 59.5156 37.2277 59.375C37.7355 59.2344 38.6867 59.1465 40.0812 59.1113C40.5109 59.0996 40.8723 59.0723 41.1652 59.0293ZM40.7375 64.8477C40.7375 64.1406 40.4914 63.5332 39.9992 63.0254C39.507 62.5176 38.923 62.2637 38.2473 62.2637C37.5754 62.2637 36.9934 62.5176 36.5012 63.0254C36.009 63.5332 35.7629 64.1406 35.7629 64.8477C35.7629 65.5508 35.9992 66.1504 36.4719 66.6465C36.9484 67.1387 37.5402 67.3848 38.2473 67.3848C38.9582 67.3848 39.55 67.1387 40.0227 66.6465C40.4992 66.1504 40.7375 65.5508 40.7375 64.8477ZM50.8602 65.8848L51.5516 66.248C51.325 66.6934 51.0633 67.0527 50.7664 67.3262C50.4695 67.5996 50.1355 67.8086 49.7645 67.9531C49.3934 68.0938 48.9734 68.1641 48.5047 68.1641C47.4656 68.1641 46.6531 67.8242 46.0672 67.1445C45.4813 66.4609 45.1883 65.6895 45.1883 64.8301C45.1883 64.0215 45.4363 63.3008 45.9324 62.668C46.5613 61.8633 47.4031 61.4609 48.4578 61.4609C49.5438 61.4609 50.4109 61.873 51.0594 62.6973C51.5203 63.2793 51.7547 64.0059 51.7625 64.877H46.032C46.0477 65.6191 46.284 66.2285 46.741 66.7051C47.198 67.1777 47.7625 67.4141 48.4344 67.4141C48.7586 67.4141 49.073 67.3574 49.3777 67.2441C49.6863 67.1309 49.948 66.9805 50.1629 66.793C50.3777 66.6055 50.6102 66.3027 50.8602 65.8848ZM50.8602 64.168C50.7508 63.7305 50.5906 63.3809 50.3797 63.1191C50.1727 62.8574 49.8973 62.6465 49.5535 62.4863C49.2098 62.3262 48.8484 62.2461 48.4695 62.2461C47.8445 62.2461 47.3074 62.4473 46.8582 62.8496C46.5301 63.1426 46.282 63.582 46.1141 64.168H50.8602ZM61.0941 68H60.2211L58.0883 63.3594L55.973 68H55.0941L58.0121 61.625H58.1586L61.0941 68ZM65.5684 64.1504H66.3477C66.9688 64.1504 67.4551 64.1992 67.8066 64.2969C68.1582 64.3945 68.4609 64.6113 68.7148 64.9473C68.9688 65.2793 69.0957 65.6621 69.0957 66.0957C69.0957 66.6191 68.9121 67.0684 68.5449 67.4434C68.1777 67.8145 67.6211 68 66.875 68H64.7539V61.625H65.5684V64.1504ZM65.5977 64.9004V67.3086H66.541C67.6504 67.3086 68.2051 66.918 68.2051 66.1367C68.2051 65.9141 68.1445 65.6953 68.0234 65.4805C67.9062 65.2656 67.7324 65.1152 67.502 65.0293C67.2754 64.9434 66.873 64.9004 66.2949 64.9004H65.5977ZM83.0715 64.9297H79.3684V68H78.5422V61.625H79.3684V64.1562H83.0715V61.625H83.8918V68H83.0715V64.9297ZM94.4773 61.625V68H93.6687V66.9043C93.325 67.3223 92.9383 67.6367 92.5086 67.8477C92.0828 68.0586 91.616 68.1641 91.1082 68.1641C90.2059 68.1641 89.4344 67.8379 88.7937 67.1855C88.157 66.5293 87.8387 65.7324 87.8387 64.7949C87.8387 63.877 88.1609 63.0918 88.8055 62.4395C89.45 61.7871 90.2254 61.4609 91.1316 61.4609C91.6551 61.4609 92.1277 61.5723 92.5496 61.7949C92.9754 62.0176 93.3484 62.3516 93.6687 62.7969V61.625H94.4773ZM91.1961 62.252C90.7391 62.252 90.3172 62.3652 89.9305 62.5918C89.5437 62.8145 89.2352 63.1289 89.0047 63.5352C88.7781 63.9414 88.6648 64.3711 88.6648 64.8242C88.6648 65.2734 88.7801 65.7031 89.0105 66.1133C89.241 66.5234 89.5496 66.8438 89.9363 67.0742C90.327 67.3008 90.7449 67.4141 91.1902 67.4141C91.6395 67.4141 92.0652 67.3008 92.4676 67.0742C92.8699 66.8477 93.1785 66.541 93.3934 66.1543C93.6121 65.7676 93.7215 65.332 93.7215 64.8477C93.7215 64.1094 93.4773 63.4922 92.9891 62.9961C92.5047 62.5 91.907 62.252 91.1961 62.252ZM105.523 64.3086H105.951C106.225 64.3086 106.475 64.2188 106.701 64.0391C106.932 63.8594 107.047 63.6016 107.047 63.2656C107.047 62.9805 106.955 62.7363 106.771 62.5332C106.588 62.3262 106.307 62.2227 105.928 62.2227C105.486 62.2227 105.043 62.3945 104.598 62.7383L104.135 62.1699C104.709 61.6895 105.318 61.4492 105.963 61.4492C106.494 61.4492 106.939 61.6074 107.299 61.9238C107.658 62.2402 107.838 62.6484 107.838 63.1484C107.838 63.8125 107.545 64.2637 106.959 64.502C107.725 64.8223 108.107 65.3828 108.107 66.1836C108.107 66.6914 107.928 67.1504 107.568 67.5605C107.213 67.9668 106.68 68.1699 105.969 68.1699C105.098 68.1699 104.396 67.8867 103.865 67.3203L104.381 66.7344C104.775 67.1797 105.281 67.4023 105.898 67.4023C106.312 67.4023 106.637 67.291 106.871 67.0684C107.109 66.8457 107.229 66.5527 107.229 66.1895C107.229 65.834 107.109 65.5488 106.871 65.334C106.633 65.1191 106.352 65.0117 106.027 65.0117H105.523V64.3086ZM118.283 61.625V68H117.474V66.9043C117.13 67.3223 116.744 67.6367 116.314 67.8477C115.888 68.0586 115.421 68.1641 114.914 68.1641C114.011 68.1641 113.24 67.8379 112.599 67.1855C111.963 66.5293 111.644 65.7324 111.644 64.7949C111.644 63.877 111.966 63.0918 112.611 62.4395C113.255 61.7871 114.031 61.4609 114.937 61.4609C115.461 61.4609 115.933 61.5723 116.355 61.7949C116.781 62.0176 117.154 62.3516 117.474 62.7969V61.625H118.283ZM115.002 62.252C114.545 62.252 114.123 62.3652 113.736 62.5918C113.349 62.8145 113.041 63.1289 112.81 63.5352C112.584 63.9414 112.47 64.3711 112.47 64.8242C112.47 65.2734 112.586 65.7031 112.816 66.1133C113.046 66.5234 113.355 66.8438 113.742 67.0742C114.132 67.3008 114.55 67.4141 114.996 67.4141C115.445 67.4141 115.871 67.3008 116.273 67.0742C116.675 66.8477 116.984 66.541 117.199 66.1543C117.418 65.7676 117.527 65.332 117.527 64.8477C117.527 64.1094 117.283 63.4922 116.795 62.9961C116.31 62.5 115.713 62.252 115.002 62.252ZM122.534 61.625H123.361V64.3086L126.308 61.625H127.45L124.222 64.543L127.708 68H126.548L123.618 65.0527L123.361 65.2812V68H122.534V61.625ZM137.309 61.625V68H136.501V66.9043C136.157 67.3223 135.77 67.6367 135.341 67.8477C134.915 68.0586 134.448 68.1641 133.94 68.1641C133.038 68.1641 132.266 67.8379 131.626 67.1855C130.989 66.5293 130.671 65.7324 130.671 64.7949C130.671 63.877 130.993 63.0918 131.638 62.4395C132.282 61.7871 133.057 61.4609 133.964 61.4609C134.487 61.4609 134.96 61.5723 135.382 61.7949C135.807 62.0176 136.18 62.3516 136.501 62.7969V61.625H137.309ZM134.028 62.252C133.571 62.252 133.149 62.3652 132.763 62.5918C132.376 62.8145 132.067 63.1289 131.837 63.5352C131.61 63.9414 131.497 64.3711 131.497 64.8242C131.497 65.2734 131.612 65.7031 131.843 66.1133C132.073 66.5234 132.382 66.8438 132.768 67.0742C133.159 67.3008 133.577 67.4141 134.022 67.4141C134.471 67.4141 134.897 67.3008 135.3 67.0742C135.702 66.8477 136.011 66.541 136.225 66.1543C136.444 65.7676 136.554 65.332 136.554 64.8477C136.554 64.1094 136.309 63.4922 135.821 62.9961C135.337 62.5 134.739 62.252 134.028 62.252ZM142.627 64.3086H143.055C143.329 64.3086 143.579 64.2188 143.805 64.0391C144.036 63.8594 144.151 63.6016 144.151 63.2656C144.151 62.9805 144.059 62.7363 143.875 62.5332C143.692 62.3262 143.411 62.2227 143.032 62.2227C142.59 62.2227 142.147 62.3945 141.702 62.7383L141.239 62.1699C141.813 61.6895 142.422 61.4492 143.067 61.4492C143.598 61.4492 144.043 61.6074 144.403 61.9238C144.762 62.2402 144.942 62.6484 144.942 63.1484C144.942 63.8125 144.649 64.2637 144.063 64.502C144.829 64.8223 145.211 65.3828 145.211 66.1836C145.211 66.6914 145.032 67.1504 144.672 67.5605C144.317 67.9668 143.784 68.1699 143.073 68.1699C142.202 68.1699 141.5 67.8867 140.969 67.3203L141.485 66.7344C141.879 67.1797 142.385 67.4023 143.002 67.4023C143.416 67.4023 143.741 67.291 143.975 67.0684C144.213 66.8457 144.332 66.5527 144.332 66.1895C144.332 65.834 144.213 65.5488 143.975 65.334C143.737 65.1191 143.455 65.0117 143.131 65.0117H142.627V64.3086Z" fill="white"/>
<path d="M154 51L4 51" stroke="#F4CB43"/>
<path d="M126 10C125.75 10 125.5 10.095 125.295 10.295L121.295 14.295C120.9 14.685 120.9 15.315 121.295 15.705L125.295 19.705C125.685 20.1 126.315 20.1 126.705 19.705L130.705 15.705C131.1 15.315 131.1 14.685 130.705 14.295L126.705 10.295C126.5 10.095 126.25 10 126 10Z" fill="#F4CB43"/>
</g>
<defs>
<filter id="filter0_d_85_3" x="0" y="8.8252" width="158" height="67.3447" filterUnits="userSpaceOnUse" color-interpolation-filters="sRGB">
<feFlood flood-opacity="0" result="BackgroundImageFix"/>
<feColorMatrix in="SourceAlpha" type="matrix" values="0 0 0 0 0 0 0 0 0 0 0 0 0 0 0 0 0 0 127 0" result="hardAlpha"/>
<feOffset dy="4"/>
<feGaussianBlur stdDeviation="2"/>
<feComposite in2="hardAlpha" operator="out"/>
<feColorMatrix type="matrix" values="0 0 0 0 0 0 0 0 0 0 0 0 0 0 0 0 0 0 0.25 0"/>
<feBlend mode="normal" in2="BackgroundImageFix" result="effect1_dropShadow_85_3"/>
<feBlend mode="normal" in="SourceGraphic" in2="effect1_dropShadow_85_3" result="shape"/>
</filter>
</defs>
</svg>
