<svg width="20" height="21" viewBox="0 0 20 21" fill="none" xmlns="http://www.w3.org/2000/svg">
<path d="M10 0.180664C4.475 0.180664 0 4.79848 0 10.4998C0 12.77 0.7 14.8597 1.9 16.5623L0.525 20.303L4.5 19.1163C6.075 20.1998 7.975 20.819 10 20.819C15.525 20.819 20 16.2011 20 10.4998C20 4.79848 15.525 0.180664 10 0.180664ZM15.325 14.7823L14.25 15.8658C13.125 17.0267 10.15 15.7626 7.525 13.028C4.9 10.3192 3.725 7.24928 4.775 6.11417L5.85 5.00487C6.25 4.5921 6.925 4.5921 7.35 5.00487L8.925 6.63013C9.475 7.19769 9.25 8.17801 8.525 8.41019C8.025 8.59077 7.675 9.15832 7.85 9.67428C8.125 10.8868 9.65 12.3831 10.775 12.6668C11.275 12.7958 11.85 12.4862 12 11.9703C12.225 11.2222 13.175 10.99 13.725 11.5575L15.3 13.1828C15.7 13.6214 15.7 14.3179 15.325 14.7823Z" fill="white"/>
</svg>
