<svg width="35" height="35" viewBox="0 0 35 35" fill="none" xmlns="http://www.w3.org/2000/svg">
<g clip-path="url(#clip0_78_319)">
<path d="M4.00001 20.0968C3.30168 19.3569 2.9374 18.3576 2.96972 17.2565C3.04427 14.8126 5.09256 12.8793 7.53565 12.9463L27.1683 12.9238C30.1394 13.0072 32.2099 15.4762 32.1119 18.7967C32.0676 20.285 31.368 21.7569 30.1916 22.8369C29.0275 23.9052 27.5043 24.4942 26.0117 24.4524L11.1542 24.4882C10.7392 24.4905 10.4033 24.1548 10.4028 23.7396C10.4031 23.3248 10.7388 22.9877 11.1538 22.987L26.0339 22.9511C27.1614 22.9826 28.2988 22.5376 29.1773 21.7316C30.0563 20.9251 30.5785 19.8398 30.6111 18.755C30.6721 16.7173 29.6123 14.4936 27.1453 14.4253L7.51296 14.4481C5.87488 14.403 4.52004 15.6823 4.47126 17.2985C4.44912 18.0557 4.69561 18.6971 5.18996 19.1613C5.6794 19.6203 6.40179 19.8852 7.22349 19.9079L22.8636 19.8719C23.4128 19.8872 24.6414 19.8001 24.6752 18.6766C24.6941 18.0405 24.4571 17.8299 24.3796 17.7603C24.1569 17.5626 23.7699 17.4514 23.2607 17.4375L11.4935 17.4601C11.078 17.4608 10.7413 17.1254 10.7426 16.711C10.7421 16.2964 11.0789 15.9594 11.493 15.9589L23.2821 15.9359C24.1817 15.9597 24.8787 16.1945 25.3753 16.6343C25.7626 16.9779 26.209 17.611 26.1755 18.7183C26.1264 20.3611 24.7865 21.4273 22.8409 21.3732L7.20141 21.4087C5.99058 21.3758 4.91951 20.9671 4.16223 20.2577C4.10615 20.2059 4.05227 20.1521 4.00001 20.0967L4.00001 20.0968Z" fill="#F28B42"/>
</g>
<defs>
<clipPath id="clip0_78_319">
<rect width="24" height="24" fill="white" transform="translate(18.3958 0.942627) rotate(46.6539)"/>
</clipPath>
</defs>
</svg>
