<svg width="354" height="165" viewBox="0 0 354 165" fill="none" xmlns="http://www.w3.org/2000/svg">
<path d="M322.242 163.574L335.171 164.001L326.313 155.135C321.536 150.354 318.657 144.246 318.045 137.703C339.583 125.424 350.711 106.971 351.363 87.2619C352.566 50.9004 318.115 12.7683 262.246 10.9197C203.058 8.96133 -12.1167 -17.4287 3.35026 87.0146C11.1341 139.576 84.1872 155.697 257.598 151.39C267.907 151.731 278.708 150.798 288.391 148.75C297.194 157.787 309.349 163.147 322.242 163.574Z" fill="#F7683A"/>
<path d="M65.0633 65.6383C63.3033 63.9103 62.4233 61.8063 62.4233 59.3263C62.4233 56.8463 63.3033 54.7503 65.0633 53.0383C66.8393 51.3103 69.0393 50.4463 71.6633 50.4463C74.2873 50.4463 76.4793 51.3103 78.2393 53.0383C80.0153 54.7503 80.9033 56.8463 80.9033 59.3263C80.9033 61.8063 80.0153 63.9103 78.2393 65.6383C76.4793 67.3503 74.2873 68.2063 71.6633 68.2063C69.0393 68.2063 66.8393 67.3503 65.0633 65.6383ZM67.7753 55.3663C66.7673 56.3903 66.2633 57.7103 66.2633 59.3263C66.2633 60.9423 66.7673 62.2703 67.7753 63.3103C68.7993 64.3343 70.0953 64.8463 71.6633 64.8463C73.2313 64.8463 74.5193 64.3343 75.5273 63.3103C76.5513 62.2703 77.0633 60.9423 77.0633 59.3263C77.0633 57.7103 76.5513 56.3903 75.5273 55.3663C74.5193 54.3263 73.2313 53.8063 71.6633 53.8063C70.0953 53.8063 68.7993 54.3263 67.7753 55.3663ZM84.2355 66.2143C82.9715 64.9503 82.3395 63.4143 82.3395 61.6063C82.3395 59.7983 82.9715 58.2703 84.2355 57.0223C85.5155 55.7583 87.0835 55.1263 88.9395 55.1263C91.1635 55.1263 92.8595 55.9263 94.0275 57.5263C94.5555 58.2143 94.9395 59.0143 95.1795 59.9263H91.6995C91.5555 59.5743 91.3635 59.2543 91.1235 58.9663C90.5155 58.3263 89.7875 58.0063 88.9395 58.0063C88.0915 58.0063 87.3555 58.3423 86.7315 59.0143C86.1235 59.6863 85.8195 60.5503 85.8195 61.6063C85.8195 62.6623 86.1235 63.5263 86.7315 64.1983C87.3555 64.8703 88.0915 65.2063 88.9395 65.2063C89.7875 65.2063 90.5155 64.8863 91.1235 64.2463C91.3635 63.9583 91.5555 63.6383 91.6995 63.2863H95.1795C94.9555 64.2143 94.5875 65.0143 94.0755 65.6863C92.9075 67.2863 91.1955 68.0863 88.9395 68.0863C87.0835 68.0863 85.5155 67.4623 84.2355 66.2143ZM95.8986 58.3663V55.4863H107.419V58.3663H103.339V67.7263H99.9786V58.3663H95.8986ZM109.872 66.3103C108.8 65.1103 108.264 63.5423 108.264 61.6063C108.264 59.6703 108.8 58.1103 109.872 56.9263C110.96 55.7263 112.304 55.1263 113.904 55.1263C114.976 55.1263 115.944 55.4463 116.808 56.0863C117.176 56.3903 117.488 56.7103 117.744 57.0463H117.864V55.4863H121.224V67.7263H117.864V66.1663H117.744C117.488 66.5023 117.176 66.8223 116.808 67.1263C115.944 67.7663 114.976 68.0863 113.904 68.0863C112.304 68.0863 110.96 67.4943 109.872 66.3103ZM112.584 58.9663C112.024 59.6063 111.744 60.4863 111.744 61.6063C111.744 62.7263 112.024 63.6063 112.584 64.2463C113.144 64.8863 113.864 65.2063 114.744 65.2063C115.672 65.2063 116.424 64.8943 117 64.2703C117.576 63.6303 117.864 62.7423 117.864 61.6063C117.864 60.4703 117.576 59.5903 117 58.9663C116.424 58.3263 115.672 58.0063 114.744 58.0063C113.864 58.0063 113.144 58.3263 112.584 58.9663ZM122.544 67.7263L125.784 55.4863H132.264L135.504 67.7263H132.144L129.624 58.3663H128.424L125.904 67.7263H122.544ZM136.825 67.7263V55.4863H140.185V60.7663L140.065 62.9263H140.305L145.225 55.4863H148.825V67.7263H145.465V62.4463L145.585 60.2863H145.345L140.425 67.7263H136.825ZM152.65 66.2143C151.386 64.9503 150.754 63.4143 150.754 61.6063C150.754 59.7983 151.386 58.2703 152.65 57.0223C153.93 55.7583 155.498 55.1263 157.354 55.1263C159.578 55.1263 161.274 55.9263 162.442 57.5263C162.97 58.2143 163.354 59.0143 163.594 59.9263H160.114C159.97 59.5743 159.778 59.2543 159.538 58.9663C158.93 58.3263 158.202 58.0063 157.354 58.0063C156.506 58.0063 155.77 58.3423 155.146 59.0143C154.538 59.6863 154.234 60.5503 154.234 61.6063C154.234 62.6623 154.538 63.5263 155.146 64.1983C155.77 64.8703 156.506 65.2063 157.354 65.2063C158.202 65.2063 158.93 64.8863 159.538 64.2463C159.778 63.9583 159.97 63.6383 160.114 63.2863H163.594C163.37 64.2143 163.002 65.0143 162.49 65.6863C161.322 67.2863 159.61 68.0863 157.354 68.0863C155.498 68.0863 153.93 67.4623 152.65 66.2143ZM165.513 67.7263V55.4863H168.873V59.3263H171.633C173.089 59.3263 174.273 59.7343 175.185 60.5503C176.097 61.3663 176.553 62.3583 176.553 63.5263C176.553 64.6943 176.097 65.6863 175.185 66.5023C174.273 67.3183 173.089 67.7263 171.633 67.7263H165.513ZM168.873 64.9663H171.393C171.921 64.9663 172.329 64.8383 172.617 64.5823C172.921 64.3103 173.073 63.9583 173.073 63.5263C173.073 63.0943 172.921 62.7503 172.617 62.4943C172.329 62.2223 171.921 62.0863 171.393 62.0863H168.873V64.9663ZM185.083 67.7263V55.4863H191.803C193.067 55.4863 194.043 55.7663 194.731 56.3263C195.419 56.8863 195.763 57.6063 195.763 58.4863C195.763 59.4143 195.419 60.1423 194.731 60.6703C194.411 60.9103 194.075 61.0623 193.723 61.1263V61.2463C194.187 61.3423 194.627 61.5103 195.043 61.7503C195.923 62.3743 196.363 63.2063 196.363 64.2463C196.363 65.2703 195.963 66.1103 195.163 66.7663C194.363 67.4063 193.243 67.7263 191.803 67.7263H185.083ZM188.443 60.1663H191.323C191.691 60.1663 191.979 60.0623 192.187 59.8543C192.411 59.6463 192.523 59.3903 192.523 59.0863C192.523 58.7823 192.411 58.5263 192.187 58.3183C191.979 58.1103 191.691 58.0063 191.323 58.0063H188.443V60.1663ZM188.443 65.2063H191.563C191.979 65.2063 192.323 65.0783 192.595 64.8223C192.867 64.5663 193.003 64.2543 193.003 63.8863C193.003 63.5183 192.867 63.2063 192.595 62.9503C192.323 62.6943 191.979 62.5663 191.563 62.5663H188.443V65.2063ZM199.595 66.2143C198.315 64.9503 197.675 63.4143 197.675 61.6063C197.675 59.7983 198.315 58.2703 199.595 57.0223C200.875 55.7583 202.475 55.1263 204.395 55.1263C206.299 55.1263 207.891 55.7583 209.171 57.0223C210.467 58.2703 211.115 59.7983 211.115 61.6063C211.115 63.4143 210.467 64.9503 209.171 66.2143C207.891 67.4623 206.299 68.0863 204.395 68.0863C202.475 68.0863 200.875 67.4623 199.595 66.2143ZM202.091 59.0143C201.467 59.6863 201.155 60.5503 201.155 61.6063C201.155 62.6623 201.467 63.5263 202.091 64.1983C202.715 64.8703 203.483 65.2063 204.395 65.2063C205.307 65.2063 206.075 64.8703 206.699 64.1983C207.323 63.5263 207.635 62.6623 207.635 61.6063C207.635 60.5503 207.323 59.6863 206.699 59.0143C206.075 58.3423 205.307 58.0063 204.395 58.0063C203.483 58.0063 202.715 58.3423 202.091 59.0143ZM213.044 67.7263V55.4863H224.804V67.7263H221.444V58.3663H216.404V67.7263H213.044ZM227.435 72.2863V55.4863H230.795V57.0463H230.915C231.171 56.7103 231.483 56.3903 231.851 56.0863C232.715 55.4463 233.683 55.1263 234.755 55.1263C236.355 55.1263 237.691 55.7263 238.763 56.9263C239.851 58.1103 240.395 59.6703 240.395 61.6063C240.395 63.5423 239.851 65.1103 238.763 66.3103C237.691 67.4943 236.355 68.0863 234.755 68.0863C233.683 68.0863 232.715 67.7663 231.851 67.1263C231.483 66.8223 231.171 66.5023 230.915 66.1663H230.795V72.2863H227.435ZM231.659 58.9663C231.083 59.5903 230.795 60.4703 230.795 61.6063C230.795 62.7423 231.083 63.6303 231.659 64.2703C232.235 64.8943 232.987 65.2063 233.915 65.2063C234.795 65.2063 235.515 64.8863 236.075 64.2463C236.635 63.6063 236.915 62.7263 236.915 61.6063C236.915 60.4863 236.635 59.6063 236.075 58.9663C235.515 58.3263 234.795 58.0063 233.915 58.0063C232.987 58.0063 232.235 58.3263 231.659 58.9663ZM243.635 66.2143C242.355 64.9503 241.715 63.4143 241.715 61.6063C241.715 59.7983 242.355 58.2703 243.635 57.0223C244.915 55.7583 246.515 55.1263 248.435 55.1263C250.339 55.1263 251.931 55.7583 253.211 57.0223C254.507 58.2703 255.155 59.7983 255.155 61.6063C255.155 63.4143 254.507 64.9503 253.211 66.2143C251.931 67.4623 250.339 68.0863 248.435 68.0863C246.515 68.0863 244.915 67.4623 243.635 66.2143ZM246.131 59.0143C245.507 59.6863 245.195 60.5503 245.195 61.6063C245.195 62.6623 245.507 63.5263 246.131 64.1983C246.755 64.8703 247.523 65.2063 248.435 65.2063C249.347 65.2063 250.115 64.8703 250.739 64.1983C251.363 63.5263 251.675 62.6623 251.675 61.6063C251.675 60.5503 251.363 59.6863 250.739 59.0143C250.115 58.3423 249.347 58.0063 248.435 58.0063C247.523 58.0063 246.755 58.3423 246.131 59.0143ZM258.259 66.2143C256.995 64.9503 256.363 63.4143 256.363 61.6063C256.363 59.7983 256.995 58.2703 258.259 57.0223C259.539 55.7583 261.107 55.1263 262.963 55.1263C265.187 55.1263 266.883 55.9263 268.051 57.5263C268.579 58.2143 268.963 59.0143 269.203 59.9263H265.723C265.579 59.5743 265.387 59.2543 265.147 58.9663C264.539 58.3263 263.811 58.0063 262.963 58.0063C262.115 58.0063 261.379 58.3423 260.755 59.0143C260.147 59.6863 259.843 60.5503 259.843 61.6063C259.843 62.6623 260.147 63.5263 260.755 64.1983C261.379 64.8703 262.115 65.2063 262.963 65.2063C263.811 65.2063 264.539 64.8863 265.147 64.2463C265.387 63.9583 265.579 63.6383 265.723 63.2863H269.203C268.979 64.2143 268.611 65.0143 268.099 65.6863C266.931 67.2863 265.219 68.0863 262.963 68.0863C261.107 68.0863 259.539 67.4623 258.259 66.2143ZM282.882 67.7263V55.4863H286.242V67.7263H282.882ZM271.122 67.7263V55.4863H274.482V59.3263H276.762C278.218 59.3263 279.402 59.7343 280.314 60.5503C281.226 61.3663 281.682 62.3583 281.682 63.5263C281.682 64.6943 281.226 65.6863 280.314 66.5023C279.402 67.3183 278.218 67.7263 276.762 67.7263H271.122ZM274.482 64.9663H276.522C277.05 64.9663 277.458 64.8383 277.746 64.5823C278.05 64.3103 278.202 63.9583 278.202 63.5263C278.202 63.0943 278.05 62.7503 277.746 62.4943C277.458 62.2223 277.05 62.0863 276.522 62.0863H274.482V64.9663ZM291.408 55.8463H287.808C288.032 54.8223 288.408 53.9263 288.936 53.1583C290.232 51.3503 292.056 50.4463 294.408 50.4463C296.264 50.4463 297.768 50.9503 298.92 51.9583C300.072 52.9503 300.648 54.1263 300.648 55.4863C300.648 57.1983 299.848 58.5183 298.248 59.4463C297.72 59.7663 297.32 60.0303 297.048 60.2383C296.776 60.4463 296.504 60.7503 296.232 61.1503C295.976 61.5503 295.848 61.9823 295.848 62.4463H292.368C292.368 60.6863 293.128 59.3183 294.648 58.3423C295.144 58.0543 295.528 57.8063 295.8 57.5983C296.072 57.3903 296.328 57.1103 296.568 56.7583C296.808 56.4063 296.928 56.0223 296.928 55.6063C296.928 55.0943 296.704 54.6703 296.256 54.3343C295.808 53.9823 295.152 53.8063 294.288 53.8063C293.28 53.8063 292.496 54.1503 291.936 54.8383C291.68 55.1103 291.504 55.4463 291.408 55.8463ZM292.68 67.5343C292.312 67.1663 292.128 66.7103 292.128 66.1663C292.128 65.6223 292.312 65.1663 292.68 64.7983C293.048 64.4303 293.504 64.2463 294.048 64.2463C294.592 64.2463 295.048 64.4303 295.416 64.7983C295.784 65.1663 295.968 65.6223 295.968 66.1663C295.968 66.7103 295.784 67.1663 295.416 67.5343C295.048 67.9023 294.592 68.0863 294.048 68.0863C293.504 68.0863 293.048 67.9023 292.68 67.5343ZM63.1433 98.7263V81.9263H75.7433V85.2863H66.7433V88.6463H73.9433V91.7663H66.7433V95.3663H75.7433V98.7263H63.1433ZM79.1964 97.2143C77.9324 95.9503 77.3004 94.4143 77.3004 92.6063C77.3004 90.7983 77.9324 89.2703 79.1964 88.0223C80.4764 86.7583 82.0444 86.1263 83.9004 86.1263C86.1244 86.1263 87.8204 86.9263 88.9884 88.5263C89.5164 89.2143 89.9004 90.0143 90.1404 90.9263H86.6604C86.5164 90.5743 86.3244 90.2543 86.0844 89.9663C85.4764 89.3263 84.7484 89.0063 83.9004 89.0063C83.0524 89.0063 82.3164 89.3423 81.6924 90.0143C81.0844 90.6863 80.7804 91.5503 80.7804 92.6063C80.7804 93.6623 81.0844 94.5263 81.6924 95.1983C82.3164 95.8703 83.0524 96.2063 83.9004 96.2063C84.7484 96.2063 85.4764 95.8863 86.0844 95.2463C86.3244 94.9583 86.5164 94.6383 86.6604 94.2863H90.1404C89.9164 95.2143 89.5484 96.0143 89.0364 96.6863C87.8684 98.2863 86.1564 99.0863 83.9004 99.0863C82.0444 99.0863 80.4764 98.4623 79.1964 97.2143ZM90.8595 89.3663V86.4863H102.38V89.3663H98.2995V98.7263H94.9395V89.3663H90.8595ZM103.825 98.7263V86.4863H107.185V90.3263H109.945C111.401 90.3263 112.585 90.7343 113.497 91.5503C114.409 92.3663 114.865 93.3583 114.865 94.5263C114.865 95.6943 114.409 96.6863 113.497 97.5023C112.585 98.3183 111.401 98.7263 109.945 98.7263H103.825ZM107.185 95.9663H109.705C110.233 95.9663 110.641 95.8383 110.929 95.5823C111.233 95.3103 111.385 94.9583 111.385 94.5263C111.385 94.0943 111.233 93.7503 110.929 93.4943C110.641 93.2223 110.233 93.0863 109.705 93.0863H107.185V95.9663ZM123.395 98.7263V86.4863H135.155V98.7263H131.795V89.3663H126.755V98.7263H123.395ZM137.786 103.286V86.4863H141.146V88.0463H141.266C141.522 87.7103 141.834 87.3903 142.202 87.0863C143.066 86.4463 144.034 86.1263 145.106 86.1263C146.706 86.1263 148.042 86.7263 149.114 87.9263C150.202 89.1103 150.746 90.6703 150.746 92.6063C150.746 94.5423 150.202 96.1103 149.114 97.3103C148.042 98.4943 146.706 99.0863 145.106 99.0863C144.034 99.0863 143.066 98.7663 142.202 98.1263C141.834 97.8223 141.522 97.5023 141.266 97.1663H141.146V103.286H137.786ZM142.01 89.9663C141.434 90.5903 141.146 91.4703 141.146 92.6063C141.146 93.7423 141.434 94.6303 142.01 95.2703C142.586 95.8943 143.338 96.2063 144.266 96.2063C145.146 96.2063 145.866 95.8863 146.426 95.2463C146.986 94.6063 147.266 93.7263 147.266 92.6063C147.266 91.4863 146.986 90.6063 146.426 89.9663C145.866 89.3263 145.146 89.0063 144.266 89.0063C143.338 89.0063 142.586 89.3263 142.01 89.9663ZM153.962 97.2143C152.698 95.9503 152.066 94.4143 152.066 92.6063C152.066 90.7983 152.698 89.2703 153.962 88.0223C155.242 86.7583 156.81 86.1263 158.666 86.1263C160.554 86.1263 162.106 86.7503 163.322 87.9983C164.538 89.2463 165.146 90.7823 165.146 92.6063V93.3263H155.546C155.674 94.1263 156.034 94.8063 156.626 95.3663C157.218 95.9263 157.898 96.2063 158.666 96.2063C159.514 96.2063 160.242 95.9663 160.85 95.4863C161.09 95.2783 161.282 95.0383 161.426 94.7663H165.026C164.754 95.5823 164.354 96.3023 163.826 96.9263C162.546 98.3663 160.826 99.0863 158.666 99.0863C156.81 99.0863 155.242 98.4623 153.962 97.2143ZM155.666 91.2863H161.546C161.418 90.6463 161.09 90.1103 160.562 89.6783C160.05 89.2303 159.418 89.0063 158.666 89.0063C157.914 89.0063 157.274 89.2223 156.746 89.6543C156.218 90.0863 155.858 90.6303 155.666 91.2863ZM165.977 101.246V95.8463H167.297L169.817 86.4863H176.297L178.817 95.8463H180.137V101.246H177.017V98.7263H169.097V101.246H165.977ZM170.657 95.8463H175.457L173.657 89.3663H172.457L170.657 95.8463ZM180.247 98.7263L183.487 86.4863H189.967L193.207 98.7263H189.847L187.327 89.3663H186.127L183.607 98.7263H180.247ZM195.728 97.2143C194.448 95.9503 193.808 94.4143 193.808 92.6063C193.808 90.7983 194.448 89.2703 195.728 88.0223C197.008 86.7583 198.608 86.1263 200.528 86.1263C202.432 86.1263 204.024 86.7583 205.304 88.0223C206.6 89.2703 207.248 90.7983 207.248 92.6063C207.248 94.4143 206.6 95.9503 205.304 97.2143C204.024 98.4623 202.432 99.0863 200.528 99.0863C198.608 99.0863 197.008 98.4623 195.728 97.2143ZM198.224 90.0143C197.6 90.6863 197.288 91.5503 197.288 92.6063C197.288 93.6623 197.6 94.5263 198.224 95.1983C198.848 95.8703 199.616 96.2063 200.528 96.2063C201.44 96.2063 202.208 95.8703 202.832 95.1983C203.456 94.5263 203.768 93.6623 203.768 92.6063C203.768 91.5503 203.456 90.6863 202.832 90.0143C202.208 89.3423 201.44 89.0063 200.528 89.0063C199.616 89.0063 198.848 89.3423 198.224 90.0143ZM207.268 98.7263L211.348 92.1263L207.628 86.4863H211.348L214.348 91.0463H215.668V86.4863H219.028V91.0463H220.348L223.348 86.4863H227.068L223.348 92.1263L227.428 98.7263H223.588L220.708 93.9263H219.028V98.7263H215.668V93.9263H213.988L211.108 98.7263H207.268ZM229.337 97.2143C228.073 95.9503 227.441 94.4143 227.441 92.6063C227.441 90.7983 228.073 89.2703 229.337 88.0223C230.617 86.7583 232.185 86.1263 234.041 86.1263C235.929 86.1263 237.481 86.7503 238.697 87.9983C239.913 89.2463 240.521 90.7823 240.521 92.6063V93.3263H230.921C231.049 94.1263 231.409 94.8063 232.001 95.3663C232.593 95.9263 233.273 96.2063 234.041 96.2063C234.889 96.2063 235.617 95.9663 236.225 95.4863C236.465 95.2783 236.657 95.0383 236.801 94.7663H240.401C240.129 95.5823 239.729 96.3023 239.201 96.9263C237.921 98.3663 236.201 99.0863 234.041 99.0863C232.185 99.0863 230.617 98.4623 229.337 97.2143ZM231.041 91.2863H236.921C236.793 90.6463 236.465 90.1103 235.937 89.6783C235.425 89.2303 234.793 89.0063 234.041 89.0063C233.289 89.0063 232.649 89.2223 232.121 89.6543C231.593 90.0863 231.233 90.6303 231.041 91.2863ZM242.552 98.7263V86.4863H245.912V91.0463H251.072V86.4863H254.432V98.7263H251.072V93.9263H245.912V98.7263H242.552ZM257.083 98.7263V86.4863H260.443V91.7663L260.323 93.9263H260.563L265.483 86.4863H269.083V98.7263H265.723V93.4463L265.843 91.2863H265.603L260.683 98.7263H257.083ZM271.131 98.7263L273.651 94.2863C273.251 94.0943 272.891 93.8383 272.571 93.5183C271.851 92.7983 271.491 91.8543 271.491 90.6863C271.491 89.4543 271.923 88.4463 272.787 87.6623C273.667 86.8783 274.875 86.4863 276.411 86.4863H282.531V98.7263H279.171V95.0063H276.771L274.851 98.7263H271.131ZM274.971 90.6863C274.971 91.1823 275.123 91.5663 275.427 91.8383C275.731 92.1103 276.171 92.2463 276.747 92.2463H279.171V89.3663H276.747C276.187 89.3663 275.747 89.4943 275.427 89.7503C275.123 89.9903 274.971 90.3023 274.971 90.6863ZM287.681 86.8463H284.081C284.305 85.8223 284.681 84.9263 285.209 84.1583C286.505 82.3503 288.329 81.4463 290.681 81.4463C292.537 81.4463 294.041 81.9503 295.193 82.9583C296.345 83.9503 296.921 85.1263 296.921 86.4863C296.921 88.1983 296.121 89.5183 294.521 90.4463C293.993 90.7663 293.593 91.0303 293.321 91.2383C293.049 91.4463 292.777 91.7503 292.505 92.1503C292.249 92.5503 292.121 92.9823 292.121 93.4463H288.641C288.641 91.6863 289.401 90.3183 290.921 89.3423C291.417 89.0543 291.801 88.8063 292.073 88.5983C292.345 88.3903 292.601 88.1103 292.841 87.7583C293.081 87.4063 293.201 87.0223 293.201 86.6063C293.201 86.0943 292.977 85.6703 292.529 85.3343C292.081 84.9823 291.425 84.8063 290.561 84.8063C289.553 84.8063 288.769 85.1503 288.209 85.8383C287.953 86.1103 287.777 86.4463 287.681 86.8463ZM288.953 98.5343C288.585 98.1663 288.401 97.7103 288.401 97.1663C288.401 96.6223 288.585 96.1663 288.953 95.7983C289.321 95.4303 289.777 95.2463 290.321 95.2463C290.865 95.2463 291.321 95.4303 291.689 95.7983C292.057 96.1663 292.241 96.6223 292.241 97.1663C292.241 97.7103 292.057 98.1663 291.689 98.5343C291.321 98.9023 290.865 99.0863 290.321 99.0863C289.777 99.0863 289.321 98.9023 288.953 98.5343Z" fill="white"/>
</svg>
