<svg width="18" height="20" viewBox="0 0 18 20" fill="none" xmlns="http://www.w3.org/2000/svg">
<path d="M9.00251 5.75C8.20686 5.75 7.4438 6.06607 6.88119 6.62868C6.31858 7.19129 6.00251 7.95435 6.00251 8.75C6.00251 9.54565 6.31858 10.3087 6.88119 10.8713C7.4438 11.4339 8.20686 11.75 9.00251 11.75C9.79816 11.75 10.5612 11.4339 11.1238 10.8713C11.6864 10.3087 12.0025 9.54565 12.0025 8.75C12.0025 7.95435 11.6864 7.19129 11.1238 6.62868C10.5612 6.06607 9.79816 5.75 9.00251 5.75ZM7.25251 8.75C7.25251 8.28587 7.43689 7.84075 7.76508 7.51256C8.09326 7.18437 8.53838 7 9.00251 7C9.46664 7 9.91176 7.18437 10.2399 7.51256C10.5681 7.84075 10.7525 8.28587 10.7525 8.75C10.7525 9.21413 10.5681 9.65925 10.2399 9.98744C9.91176 10.3156 9.46664 10.5 9.00251 10.5C8.53838 10.5 8.09326 10.3156 7.76508 9.98744C7.43689 9.65925 7.25251 9.21413 7.25251 8.75ZM15.5 14L10.456 19.355C10.269 19.5536 10.0434 19.7118 9.79301 19.8199C9.54262 19.9281 9.27276 19.9838 9.00001 19.9838C8.72727 19.9838 8.4574 19.9281 8.20701 19.8199C7.95662 19.7118 7.731 19.5536 7.54401 19.355L2.50001 14H2.51901L2.51051 13.99L2.50001 13.9775C1.20536 12.4463 0.496572 10.5051 0.500012 8.5C0.500012 3.8055 4.30551 0 9.00001 0C13.6945 0 17.5 3.8055 17.5 8.5C17.5035 10.5051 16.7947 12.4463 15.5 13.9775L15.4895 13.99L15.481 14H15.5ZM14.5285 13.1905C15.6426 11.8819 16.253 10.2186 16.25 8.5C16.25 4.496 13.004 1.25 9.00001 1.25C4.99601 1.25 1.75001 4.496 1.75001 8.5C1.74689 10.2186 2.35735 11.8819 3.47151 13.1905L3.62551 13.372L8.45401 18.4975C8.52413 18.572 8.60874 18.6313 8.70264 18.6718C8.79653 18.7124 8.89773 18.7333 9.00001 18.7333C9.10229 18.7333 9.20349 18.7124 9.29739 18.6718C9.39128 18.6313 9.47589 18.572 9.54601 18.4975L14.3745 13.372L14.5285 13.1905Z" fill="#3E60C1"/>
</svg>
