<svg width="138" height="46" viewBox="0 0 138 46" fill="none" xmlns="http://www.w3.org/2000/svg">
<rect x="25.8322" y="39.2618" width="36.5322" height="5.39" transform="rotate(-135 25.8322 39.2618)" fill="#FF727A"/>
<rect x="24.9193" y="36.9025" width="36.5322" height="5.39" transform="rotate(-96.2749 24.9193 36.9025)" fill="#FF727A"/>
<rect x="25.9569" y="35.1292" width="36.5322" height="5.39" transform="rotate(-59.2426 25.9569 35.1292)" fill="#FF727A"/>
<path d="M12.625 42.3C10.0583 42.3 8.09167 41.6667 6.725 40.4C5.375 39.1167 4.7 37.2333 4.7 34.75V24.125H9.825V34.525C9.825 35.8417 10.025 36.8 10.425 37.4C10.8417 37.9833 11.575 38.275 12.625 38.275C13.675 38.275 14.4 37.9833 14.8 37.4C15.2167 36.8167 15.425 35.8333 15.425 34.45V24.125H20.6V34.675C20.6 37.2417 19.8917 39.1583 18.475 40.425C17.1083 41.675 15.1583 42.3 12.625 42.3ZM22.4924 41.425L30.0924 28.05H23.4674V24.125H37.3674V24.675L29.8674 38.05H36.9924V42H22.4924V41.425ZM39.8615 24.125H45.0365V42H39.8615V24.125ZM57.1953 42.3C54.2286 42.3 51.912 41.4417 50.2453 39.725C48.6286 38.1083 47.8203 35.925 47.8203 33.175V32.975C47.8203 30.275 48.712 28.075 50.4953 26.375C52.262 24.6917 54.4953 23.85 57.1953 23.85C59.4786 23.85 61.3536 24.3667 62.8203 25.4C64.4536 26.5667 65.3536 28.2417 65.5203 30.425H60.4453C60.212 28.725 59.137 27.875 57.2203 27.875C55.9536 27.875 54.962 28.3333 54.2453 29.25C53.5286 30.1667 53.1703 31.4333 53.1703 33.05V33.25C53.1703 34.8667 53.4786 36.0833 54.0953 36.9C54.8286 37.9 55.912 38.4 57.3453 38.4C58.4953 38.4 59.387 38.125 60.0203 37.575C60.5203 37.1417 60.812 36.5167 60.8953 35.7H57.5453V32.125H65.9453V34.325C65.9453 36.7083 65.212 38.6083 63.7453 40.025C62.1786 41.5417 59.9953 42.3 57.1953 42.3ZM68.7434 24.125H73.9184V42H68.7434V24.125ZM83.9771 38.05C85.4938 38.05 86.6021 37.65 87.3021 36.85C88.0188 36.05 88.3771 34.8083 88.3771 33.125V32.925C88.3771 31.2083 88.0271 29.975 87.3271 29.225C86.6271 28.4583 85.4938 28.075 83.9271 28.075H82.8021V38.05H83.9771ZM77.6521 24.125H84.1521C87.2855 24.125 89.6605 24.8833 91.2771 26.4C92.9105 27.9 93.7271 30.05 93.7271 32.85V33.05C93.7271 35.8833 92.9188 38.0667 91.3021 39.6C89.6521 41.2 87.2605 42 84.1271 42H77.6521V24.125ZM97.2785 42.275C96.5118 42.275 95.9035 42.025 95.4535 41.525C94.9702 41.0917 94.7285 40.5 94.7285 39.75C94.7285 39.0333 94.9702 38.4333 95.4535 37.95C95.9368 37.4667 96.5452 37.225 97.2785 37.225C97.9952 37.225 98.6202 37.4667 99.1535 37.95C99.6535 38.45 99.9035 39.05 99.9035 39.75C99.9035 40.4833 99.6535 41.075 99.1535 41.525C98.6535 42.025 98.0285 42.275 97.2785 42.275ZM102.847 24.125H109.847C112.214 24.125 114.014 24.6 115.247 25.55C116.497 26.5 117.122 27.9167 117.122 29.8V29.9C117.122 32.2 116.047 33.7667 113.897 34.6L118.172 42H112.772L109.147 35.6H107.947V42H102.847V24.125ZM109.597 32.275C111.314 32.275 112.172 31.55 112.172 30.1V30C112.172 29.2833 111.964 28.7667 111.547 28.45C111.131 28.1333 110.489 27.975 109.622 27.975H107.947V32.275H109.597ZM127.908 42.3C125.342 42.3 123.375 41.6667 122.008 40.4C120.658 39.1167 119.983 37.2333 119.983 34.75V24.125H125.108V34.525C125.108 35.8417 125.308 36.8 125.708 37.4C126.125 37.9833 126.858 38.275 127.908 38.275C128.958 38.275 129.683 37.9833 130.083 37.4C130.5 36.8167 130.708 35.8333 130.708 34.45V24.125H135.883V34.675C135.883 37.2417 135.175 39.1583 133.758 40.425C132.392 41.675 130.442 42.3 127.908 42.3Z" fill="#5C82E4"/>
</svg>
