<svg width="20" height="20" viewBox="0 0 20 20" fill="none" xmlns="http://www.w3.org/2000/svg">
<path d="M13.3206 11.0733C13.2433 10.9958 13.1514 10.9344 13.0503 10.8924C12.9493 10.8505 12.8409 10.8289 12.7314 10.8289C12.622 10.8289 12.5136 10.8505 12.4125 10.8924C12.3114 10.9344 12.2196 10.9958 12.1423 11.0733L10.8139 12.4016C10.1981 12.2183 9.04894 11.8016 8.3206 11.0733C7.59227 10.3449 7.17561 9.19577 6.99227 8.57994L8.3206 7.25161C8.39806 7.17428 8.45951 7.08245 8.50143 6.98135C8.54336 6.88026 8.56494 6.77188 8.56494 6.66244C8.56494 6.553 8.54336 6.44462 8.50143 6.34353C8.45951 6.24243 8.39806 6.1506 8.3206 6.07327L4.98727 2.73994C4.90995 2.66249 4.81811 2.60104 4.71702 2.55911C4.61592 2.51719 4.50755 2.49561 4.39811 2.49561C4.28866 2.49561 4.18029 2.51719 4.07919 2.55911C3.9781 2.60104 3.88626 2.66249 3.80894 2.73994L1.54894 4.99994C1.23227 5.31661 1.05394 5.75161 1.06061 6.19577C1.07977 7.38244 1.39394 11.5041 4.64227 14.7524C7.8906 18.0008 12.0123 18.3141 13.1989 18.3333H13.2223C13.6623 18.3333 14.0781 18.1599 14.3931 17.8449L16.6531 15.5849C16.7306 15.5076 16.792 15.4158 16.8339 15.3147C16.8759 15.2136 16.8974 15.1052 16.8974 14.9958C16.8974 14.8863 16.8759 14.778 16.8339 14.6769C16.792 14.5758 16.7306 14.4839 16.6531 14.4066L13.3206 11.0733ZM13.2148 16.6666C12.1748 16.6491 8.61644 16.3699 5.8206 13.5733C3.01561 10.7683 2.74394 7.19744 2.72727 6.17827L4.39811 4.50744L6.5531 6.66244L5.47561 7.73994C5.37766 7.83782 5.30564 7.95855 5.26607 8.09125C5.22649 8.22394 5.2206 8.3644 5.24894 8.49994C5.26894 8.59577 5.75811 10.8683 7.14144 12.2516C8.52477 13.6349 10.7973 14.1241 10.8931 14.1441C11.0286 14.1731 11.1691 14.1676 11.3019 14.1281C11.4347 14.0887 11.5555 14.0165 11.6531 13.9183L12.7306 12.8408L14.8856 14.9958L13.2148 16.6666Z" fill="#E94F1D"/>
<path d="M13.3897 4.82585L9.64221 8.57335L10.8205 9.75168L14.568 6.00418L16.898 8.33335V2.49585H11.0605L13.3897 4.82585Z" fill="#E94F1D"/>
</svg>
