<svg width="28" height="18" viewBox="0 0 28 18" fill="none" xmlns="http://www.w3.org/2000/svg">
<path fill-rule="evenodd" clip-rule="evenodd" d="M24.9227 12.2171C24.9227 12.2171 27.1865 14.4529 27.7465 15.4875C27.7574 15.5024 27.7659 15.5189 27.7717 15.5365C27.9999 15.9187 28.0559 16.2183 27.9439 16.4395C27.7549 16.8049 27.1151 16.9883 26.8981 17.0037H22.8969C22.6183 17.0037 22.0387 16.9309 21.3331 16.4437C20.7941 16.0671 20.2579 15.4469 19.7385 14.8407C18.9629 13.9405 18.2923 13.1593 17.6133 13.1593C17.5275 13.1591 17.4423 13.1733 17.3613 13.2013C16.8475 13.3637 16.1951 14.0959 16.1951 16.0461C16.1951 16.6565 15.7135 17.0037 15.3761 17.0037H13.5435C12.9191 17.0037 9.66828 16.7853 6.78568 13.7459C3.25348 10.0247 0.0810819 2.55989 0.0502819 2.49409C-0.147118 2.01109 0.267282 1.74789 0.715282 1.74789H4.75568C5.29748 1.74789 5.47388 2.07549 5.59708 2.36949C5.73988 2.70689 6.26908 4.05649 7.13708 5.57269C8.54268 8.03949 9.40648 9.04329 10.0967 9.04329C10.2264 9.04367 10.3538 9.00987 10.4663 8.94529C11.3679 8.44969 11.1999 5.22969 11.1579 4.56609C11.1579 4.43729 11.1565 3.12829 10.6945 2.49549C10.3641 2.04189 9.80128 1.86549 9.46108 1.80109C9.55208 1.66949 9.74528 1.46789 9.99308 1.34889C10.6105 1.04089 11.7263 0.996094 12.8337 0.996094H13.4483C14.6495 1.01289 14.9603 1.08989 15.3971 1.20049C16.2763 1.41049 16.2931 1.98029 16.2161 3.92069C16.1937 4.47509 16.1699 5.09949 16.1699 5.83449C16.1699 5.99129 16.1629 6.16629 16.1629 6.34409C16.1363 7.33949 16.1013 8.46089 16.8041 8.92149C16.8952 8.97828 17.0005 9.00835 17.1079 9.00829C17.3515 9.00829 18.0809 9.00829 20.0591 5.61329C20.9271 4.11389 21.5991 2.34569 21.6453 2.21269C21.6845 2.13849 21.8021 1.92989 21.9449 1.84589C22.0465 1.79185 22.1602 1.76485 22.2753 1.76749H27.0283C27.5463 1.76749 27.8977 1.84589 27.9663 2.04189C28.0811 2.35969 27.9439 3.32989 25.7739 6.26429C25.4085 6.75289 25.0879 7.17569 24.8065 7.54529C22.8395 10.1269 22.8395 10.2571 24.9227 12.2171Z" fill="#E94F1D"/>
</svg>
