<svg width="19" height="19" viewBox="0 0 19 19" fill="none" xmlns="http://www.w3.org/2000/svg">
<path d="M5.9375 3.56395V4.75145H17.2188V7.10214L15.9014 11.2827H5.56388L4.07951 0.59375H0.59375V1.78125H3.04549L4.52987 12.4702H16.7722L18.4062 7.28479V3.56395H5.9375ZM6.56777 13.669C5.9381 13.6697 5.33442 13.9202 4.88918 14.3654C4.44394 14.8107 4.19348 15.4143 4.19277 16.044C4.19277 16.6739 4.44299 17.278 4.88839 17.7234C5.33379 18.1688 5.93788 18.419 6.56777 18.419C7.19765 18.419 7.80175 18.1688 8.24714 17.7234C8.69254 17.278 8.94277 16.6739 8.94277 16.044C8.94206 15.4143 8.69161 14.8107 8.24636 14.3654C7.80112 13.9202 7.19744 13.6697 6.56777 13.669ZM6.56777 17.2315C6.3329 17.2315 6.10331 17.1619 5.90803 17.0314C5.71274 16.9009 5.56054 16.7154 5.47066 16.4985C5.38078 16.2815 5.35726 16.0427 5.40308 15.8123C5.4489 15.582 5.562 15.3704 5.72808 15.2043C5.89415 15.0382 6.10574 14.9252 6.3361 14.8793C6.56645 14.8335 6.80521 14.857 7.0222 14.9469C7.23919 15.0368 7.42465 15.189 7.55514 15.3843C7.68562 15.5796 7.75527 15.8091 7.75527 16.044C7.75489 16.3588 7.62966 16.6607 7.40704 16.8833C7.18442 17.1059 6.8826 17.2311 6.56777 17.2315ZM14.8803 13.669C14.2506 13.6697 13.6469 13.9202 13.2017 14.3654C12.7564 14.8107 12.506 15.4143 12.5053 16.044C12.5053 16.6739 12.7555 17.278 13.2009 17.7234C13.6463 18.1688 14.2504 18.419 14.8803 18.419C15.5102 18.419 16.1142 18.1688 16.5596 17.7234C17.005 17.278 17.2553 16.6739 17.2553 16.044C17.2546 15.4143 17.0041 14.8107 16.5589 14.3654C16.1136 13.9202 15.5099 13.6697 14.8803 13.669ZM14.8803 17.2315C14.6454 17.2315 14.4158 17.1619 14.2205 17.0314C14.0252 16.9009 13.873 16.7154 13.7832 16.4985C13.6933 16.2815 13.6698 16.0427 13.7156 15.8123C13.7614 15.582 13.8745 15.3704 14.0406 15.2043C14.2067 15.0382 14.4182 14.9252 14.6486 14.8793C14.8789 14.8335 15.1177 14.857 15.3347 14.9469C15.5517 15.0368 15.7372 15.189 15.8676 15.3843C15.9981 15.5796 16.0678 15.8091 16.0678 16.044C16.0674 16.3588 15.9422 16.6607 15.7195 16.8833C15.4969 17.1059 15.1951 17.2311 14.8803 17.2315Z" fill="white"/>
</svg>
