<svg width="78" height="34" viewBox="0 0 78 34" fill="none" xmlns="http://www.w3.org/2000/svg">
<rect width="78" height="34" rx="10" fill="#72BF2B"/>
<path d="M23.422 10.7L24.619 15.83H25.569L28.552 10.7H32.352L28.134 17.445L30.3 24H26.595L25.189 19.06H24.239L21.085 24H17.19L21.674 17.445L19.812 10.7H23.422ZM35.7589 18.965L42.0479 10.7H46.1329L43.7959 24H40.2809L41.4399 17.445L42.0289 15.735H41.8389L35.5309 24H31.4459L33.7829 10.7H37.2979L36.1579 17.255L35.5689 18.965H35.7589ZM50.9261 13.93H46.7461L47.3161 10.7H59.1911L58.6211 13.93H54.4411L52.6741 24H49.1591L50.9261 13.93Z" fill="white"/>
</svg>
