<svg width="123" height="34" viewBox="0 0 123 34" fill="none" xmlns="http://www.w3.org/2000/svg">
<rect width="123" height="34" rx="10" fill="#FF0000"/>
<path d="M17.235 24L19.572 10.7H23.087L22.232 15.64H27.362L28.217 10.7H31.732L29.395 24H25.88L26.792 18.87H21.662L20.75 24H17.235ZM35.2571 19.459C35.2571 20.0923 35.4408 20.599 35.8081 20.979C36.1754 21.3463 36.6631 21.53 37.2711 21.53C37.9171 21.53 38.4808 21.264 38.9621 20.732C39.4561 20.2 39.7031 19.5097 39.7031 18.661C39.7031 18.0277 39.5194 17.5273 39.1521 17.16C38.7848 16.78 38.2971 16.59 37.6891 16.59C37.0431 16.59 36.4731 16.856 35.9791 17.388C35.4978 17.92 35.2571 18.6103 35.2571 19.459ZM31.9511 19.497C31.9511 17.9517 32.5338 16.6217 33.6991 15.507C34.8644 14.3923 36.2514 13.835 37.8601 13.835C39.3801 13.835 40.6151 14.2973 41.5651 15.222C42.5278 16.1467 43.0091 17.2803 43.0091 18.623C43.0091 20.1683 42.4264 21.4983 41.2611 22.613C40.0958 23.7277 38.7088 24.285 37.1001 24.285C35.5801 24.285 34.3388 23.8227 33.3761 22.898C32.4261 21.9733 31.9511 20.8397 31.9511 19.497ZM49.9419 24H43.5389L45.2869 14.12H50.7589C51.7849 14.12 52.5765 14.348 53.1339 14.804C53.7039 15.26 53.9889 15.8047 53.9889 16.438C53.9889 17.2993 53.6405 17.9517 52.9439 18.395C52.6145 18.6103 52.2662 18.7433 51.8989 18.794L51.8799 18.984C52.2472 19.098 52.5449 19.2247 52.7729 19.364C53.3682 19.7567 53.6659 20.3013 53.6659 20.998C53.6659 21.8973 53.3492 22.6257 52.7159 23.183C52.0825 23.7277 51.1579 24 49.9419 24ZM49.4289 19.915H47.4909L47.1489 21.815H49.3529C49.6949 21.815 49.9672 21.72 50.1699 21.53C50.3852 21.34 50.4929 21.074 50.4929 20.732C50.4929 20.4913 50.4042 20.295 50.2269 20.143C50.0495 19.991 49.7835 19.915 49.4289 19.915ZM49.9989 16.305H48.1179L47.8519 17.825H49.9039C50.1572 17.825 50.3599 17.749 50.5119 17.597C50.6765 17.4323 50.7589 17.2107 50.7589 16.932C50.7589 16.514 50.5055 16.305 49.9989 16.305ZM57.9781 24H54.6531L56.4011 14.12H59.6311L58.9281 18.11L58.4721 19.63H58.6621L63.1461 14.12H66.4711L64.7231 24H61.4931L62.1961 20.01L62.6521 18.49H62.4621L57.9781 24ZM66.6209 24L68.3689 14.12H71.5989L70.9719 17.635H74.3919L75.0189 14.12H78.2489L76.5009 24H73.2709L73.9169 20.39H70.4969L69.8509 24H66.6209ZM82.2791 20.39L81.6331 24H78.4031L80.1511 14.12H83.3811L82.7541 17.635H83.7041L86.5161 14.12H90.0311L86.3451 18.775L88.5681 24H85.0531L83.5141 20.39H82.2791ZM96.1215 24L96.3305 22.765H96.1785C95.9632 23.031 95.6972 23.2843 95.3805 23.525C94.6965 24.0317 93.9872 24.285 93.2525 24.285C92.1378 24.285 91.2195 23.886 90.4975 23.088C89.7882 22.2773 89.4335 21.2197 89.4335 19.915C89.4335 18.1037 89.9338 16.6407 90.9345 15.526C91.9478 14.3987 93.1005 13.835 94.3925 13.835C95.1398 13.835 95.7542 13.9997 96.2355 14.329C96.7168 14.6457 97.0588 14.9877 97.2615 15.355L97.4135 15.64H97.6035L97.8695 14.12H101.1L99.3515 24H96.1215ZM94.6775 21.53C95.3235 21.53 95.8745 21.2703 96.3305 20.751C96.7865 20.2317 97.0145 19.5033 97.0145 18.566C97.0145 17.9327 96.8435 17.445 96.5015 17.103C96.1595 16.761 95.6908 16.59 95.0955 16.59C94.4495 16.59 93.8985 16.8497 93.4425 17.369C92.9865 17.8883 92.7585 18.6167 92.7585 19.554C92.7585 20.1873 92.9295 20.675 93.2715 21.017C93.6135 21.359 94.0822 21.53 94.6775 21.53ZM107.133 10.7L106.107 16.59L105.005 19.63H102.915L102.877 16.59L103.903 10.7H107.133ZM103.314 24.285C102.858 24.285 102.484 24.1393 102.193 23.848C101.901 23.544 101.756 23.1767 101.756 22.746C101.756 22.2393 101.939 21.8023 102.307 21.435C102.674 21.055 103.105 20.865 103.599 20.865C104.055 20.865 104.428 21.017 104.72 21.321C105.024 21.6123 105.176 21.9733 105.176 22.404C105.176 22.9107 104.986 23.354 104.606 23.734C104.238 24.1013 103.808 24.285 103.314 24.285Z" fill="white"/>
</svg>
