<svg width="17" height="13" viewBox="0 0 17 13" fill="none" xmlns="http://www.w3.org/2000/svg">
<path d="M6.8125 11.4062C6.8125 11.1825 6.90139 10.9679 7.05963 10.8096C7.21786 10.6514 7.43247 10.5625 7.65625 10.5625H9.34375C9.56753 10.5625 9.78214 10.6514 9.94037 10.8096C10.0986 10.9679 10.1875 11.1825 10.1875 11.4062C10.1875 11.63 10.0986 11.8446 9.94037 12.0029C9.78214 12.1611 9.56753 12.25 9.34375 12.25H7.65625C7.43247 12.25 7.21786 12.1611 7.05963 12.0029C6.90139 11.8446 6.8125 11.63 6.8125 11.4062ZM3.4375 6.34375C3.4375 6.11997 3.5264 5.90536 3.68463 5.74713C3.84286 5.58889 4.05747 5.5 4.28125 5.5H12.7188C12.9425 5.5 13.1571 5.58889 13.3154 5.74713C13.4736 5.90536 13.5625 6.11997 13.5625 6.34375C13.5625 6.56753 13.4736 6.78214 13.3154 6.94037C13.1571 7.09861 12.9425 7.1875 12.7188 7.1875H4.28125C4.05747 7.1875 3.84286 7.09861 3.68463 6.94037C3.5264 6.78214 3.4375 6.56753 3.4375 6.34375ZM0.0625 1.28125C0.0625 1.05747 0.151395 0.842863 0.309629 0.684629C0.467863 0.526395 0.682474 0.4375 0.90625 0.4375H16.0938C16.3175 0.4375 16.5321 0.526395 16.6904 0.684629C16.8486 0.842863 16.9375 1.05747 16.9375 1.28125C16.9375 1.50503 16.8486 1.71964 16.6904 1.87787C16.5321 2.03611 16.3175 2.125 16.0938 2.125H0.90625C0.682474 2.125 0.467863 2.03611 0.309629 1.87787C0.151395 1.71964 0.0625 1.50503 0.0625 1.28125Z" fill="#E94F1D"/>
</svg>
