<svg width="14" height="14" viewBox="0 0 14 14" fill="none" xmlns="http://www.w3.org/2000/svg">
<path d="M6.75 0C6.97378 0 7.18839 0.088895 7.34662 0.247129C7.50486 0.405363 7.59375 0.619974 7.59375 0.84375V5.90625H12.6562C12.88 5.90625 13.0946 5.99514 13.2529 6.15338C13.4111 6.31161 13.5 6.52622 13.5 6.75C13.5 6.97378 13.4111 7.18839 13.2529 7.34662C13.0946 7.50486 12.88 7.59375 12.6562 7.59375H7.59375V12.6562C7.59375 12.88 7.50486 13.0946 7.34662 13.2529C7.18839 13.4111 6.97378 13.5 6.75 13.5C6.52622 13.5 6.31161 13.4111 6.15338 13.2529C5.99514 13.0946 5.90625 12.88 5.90625 12.6562V7.59375H0.84375C0.619974 7.59375 0.405363 7.50486 0.247129 7.34662C0.088895 7.18839 0 6.97378 0 6.75C0 6.52622 0.088895 6.31161 0.247129 6.15338C0.405363 5.99514 0.619974 5.90625 0.84375 5.90625H5.90625V0.84375C5.90625 0.619974 5.99514 0.405363 6.15338 0.247129C6.31161 0.088895 6.52622 0 6.75 0Z" fill="white"/>
</svg>
